<?xml version="1.0" encoding="UTF-8" standalone="no"?>
<svg
   xmlns:dc="http://purl.org/dc/elements/1.1/"
   xmlns:cc="http://creativecommons.org/ns#"
   xmlns:rdf="http://www.w3.org/1999/02/22-rdf-syntax-ns#"
   xmlns:svg="http://www.w3.org/2000/svg"
   xmlns="http://www.w3.org/2000/svg"
   xmlns:sodipodi="http://sodipodi.sourceforge.net/DTD/sodipodi-0.dtd"
   xmlns:inkscape="http://www.inkscape.org/namespaces/inkscape"
   width="90.222916mm"
   height="90.222916mm"
   viewBox="0 0 90.222917 90.222915"
   version="1.1"
   id="svg8"
   inkscape:version="1.0.2-2 (e86c870879, 2021-01-15)"
   sodipodi:docname="favicon.svg"
   inkscape:export-filename="C:\Users\Lenovo P1\Desktop\bitmap.png"
   inkscape:export-xdpi="4.5043988"
   inkscape:export-ydpi="4.5043988">
  <defs
     id="defs2" />
  <sodipodi:namedview
     id="base"
     pagecolor="#ffffff"
     bordercolor="#666666"
     borderopacity="1.0"
     inkscape:pageopacity="0.0"
     inkscape:pageshadow="2"
     inkscape:zoom="0.8420468"
     inkscape:cx="-71.487385"
     inkscape:cy="190.35271"
     inkscape:document-units="mm"
     inkscape:current-layer="layer1"
     inkscape:document-rotation="0"
     showgrid="false"
     fit-margin-top="0"
     fit-margin-left="0"
     fit-margin-right="0"
     fit-margin-bottom="0"
     inkscape:window-width="1920"
     inkscape:window-height="991"
     inkscape:window-x="-9"
     inkscape:window-y="1341"
     inkscape:window-maximized="1" />
  <metadata
     id="metadata5">
    <rdf:RDF>
      <cc:Work
         rdf:about="">
        <dc:format>image/svg+xml</dc:format>
        <dc:type
           rdf:resource="http://purl.org/dc/dcmitype/StillImage" />
        <dc:title />
      </cc:Work>
    </rdf:RDF>
  </metadata>
  <g
     inkscape:label="Layer 1"
     inkscape:groupmode="layer"
     id="layer1"
     transform="translate(-126.62832,-22.27012)">
    <circle
       style="fill:#ffffff;stroke:#000000;stroke-width:1.02026;stroke-linecap:round;stroke-linejoin:round;paint-order:stroke fill markers"
       id="path836"
       cx="171.73978"
       cy="67.381577"
       r="44.240208" />
    <g
       id="path869"
       style="opacity:1;stroke:#61dafb;stroke-opacity:1"
       transform="translate(0,-100.48969)">
      <path
         style="color:#000000;font-style:normal;font-variant:normal;font-weight:normal;font-stretch:normal;font-size:medium;line-height:normal;font-family:sans-serif;font-variant-ligatures:normal;font-variant-position:normal;font-variant-caps:normal;font-variant-numeric:normal;font-variant-alternates:normal;font-variant-east-asian:normal;font-feature-settings:normal;font-variation-settings:normal;text-indent:0;text-align:start;text-decoration:none;text-decoration-line:none;text-decoration-style:solid;text-decoration-color:#000000;letter-spacing:normal;word-spacing:normal;text-transform:none;writing-mode:lr-tb;direction:ltr;text-orientation:mixed;dominant-baseline:auto;baseline-shift:baseline;text-anchor:start;white-space:normal;shape-padding:0;shape-margin:0;inline-size:0;clip-rule:nonzero;display:inline;overflow:visible;visibility:visible;isolation:auto;mix-blend-mode:normal;color-interpolation:sRGB;color-interpolation-filters:linearRGB;solid-color:#000000;solid-opacity:1;vector-effect:none;fill:#61dafb;fill-opacity:1;fill-rule:nonzero;stroke:#61dafb;stroke-width:9.80235;stroke-linecap:round;stroke-linejoin:miter;stroke-miterlimit:4;stroke-dasharray:none;stroke-dashoffset:0;stroke-opacity:1;color-rendering:auto;image-rendering:auto;shape-rendering:auto;text-rendering:auto;enable-background:accumulate;stop-color:#000000;stop-opacity:1"
         d="m 145.76542,37.665301 -10.65614,30.66098 m 73.26099,-30.66098 v 30.927374 m 0,-30.927374 -20.91268,59.432552 m 0,-59.432552 -20.7795,59.432552 m 0,-59.432552 -20.91267,59.432552 M 187.45759,37.665301 V 97.097853 M 145.76542,37.665301 v 59.432552 m 20.91267,-59.432552 v 59.432552"
         id="path890" />
      <path
         style="color:#000000;font-style:normal;font-variant:normal;font-weight:normal;font-stretch:normal;font-size:medium;line-height:normal;font-family:sans-serif;font-variant-ligatures:normal;font-variant-position:normal;font-variant-caps:normal;font-variant-numeric:normal;font-variant-alternates:normal;font-variant-east-asian:normal;font-feature-settings:normal;font-variation-settings:normal;text-indent:0;text-align:start;text-decoration:none;text-decoration-line:none;text-decoration-style:solid;text-decoration-color:#000000;letter-spacing:normal;word-spacing:normal;text-transform:none;writing-mode:lr-tb;direction:ltr;text-orientation:mixed;dominant-baseline:auto;baseline-shift:baseline;text-anchor:start;white-space:normal;shape-padding:0;shape-margin:0;inline-size:0;clip-rule:nonzero;display:inline;overflow:visible;visibility:visible;isolation:auto;mix-blend-mode:normal;color-interpolation:sRGB;color-interpolation-filters:linearRGB;solid-color:#000000;solid-opacity:1;vector-effect:none;fill:#61dafb;fill-opacity:1;fill-rule:nonzero;stroke:#61dafb;stroke-linecap:round;stroke-linejoin:miter;stroke-miterlimit:4;stroke-dasharray:none;stroke-dashoffset:0;stroke-opacity:1;color-rendering:auto;image-rendering:auto;shape-rendering:auto;text-rendering:auto;enable-background:accumulate;stop-color:#000000;stop-opacity:1"
         d="m 145.72852,32.763672 a 4.901175,4.901175 0 0 0 -0.14844,0.0039 4.901175,4.901175 0 0 0 -0.0371,0.002 4.901175,4.901175 0 0 0 -0.18555,0.01172 4.901175,4.901175 0 0 0 -0.14844,0.01563 4.901175,4.901175 0 0 0 -0.10156,0.01367 4.901175,4.901175 0 0 0 -0.11914,0.01563 4.901175,4.901175 0 0 0 -0.0117,0.002 4.901175,4.901175 0 0 0 -0.17187,0.03125 4.901175,4.901175 0 0 0 -0.1543,0.0332 4.901175,4.901175 0 0 0 -0.17187,0.04297 4.901175,4.901175 0 0 0 -0.0176,0.0059 4.901175,4.901175 0 0 0 -0.0684,0.01953 4.901175,4.901175 0 0 0 -0.0937,0.02734 4.901175,4.901175 0 0 0 -0.0352,0.01172 4.901175,4.901175 0 0 0 -0.17578,0.06055 4.901175,4.901175 0 0 0 -0.16406,0.0625 4.901175,4.901175 0 0 0 -0.0488,0.02148 4.901175,4.901175 0 0 0 -0.0977,0.04102 4.901175,4.901175 0 0 0 -0.0332,0.01563 4.901175,4.901175 0 0 0 -0.16797,0.08008 4.901175,4.901175 0 0 0 -0.14258,0.07422 4.901175,4.901175 0 0 0 -0.0977,0.05469 4.901175,4.901175 0 0 0 -0.0742,0.04297 4.901175,4.901175 0 0 0 -0.0527,0.03125 4.901175,4.901175 0 0 0 -0.11328,0.07227 4.901175,4.901175 0 0 0 -0.004,0.002 4.901175,4.901175 0 0 0 -0.125,0.08398 4.901175,4.901175 0 0 0 -0.084,0.05859 4.901175,4.901175 0 0 0 -0.0957,0.07227 4.901175,4.901175 0 0 0 -0.11719,0.0918 4.901175,4.901175 0 0 0 -0.0273,0.02344 4.901175,4.901175 0 0 0 -0.11914,0.101562 4.901175,4.901175 0 0 0 -0.0234,0.01953 4.901175,4.901175 0 0 0 -0.10938,0.101562 4.901175,4.901175 0 0 0 -0.0273,0.02539 4.901175,4.901175 0 0 0 -0.10547,0.105469 4.901175,4.901175 0 0 0 -0.0254,0.02539 4.901175,4.901175 0 0 0 -0.10156,0.111328 4.901175,4.901175 0 0 0 -0.0898,0.101563 4.901175,4.901175 0 0 0 -0.0332,0.03711 4.901175,4.901175 0 0 0 -0.0234,0.0293 4.901175,4.901175 0 0 0 -0.0996,0.123047 4.901175,4.901175 0 0 0 -0.0469,0.06445 4.901175,4.901175 0 0 0 -0.0781,0.107422 4.901175,4.901175 0 0 0 -0.0937,0.134765 4.901175,4.901175 0 0 0 -0.0371,0.0625 4.901175,4.901175 0 0 0 -0.0723,0.115235 4.901175,4.901175 0 0 0 -0.0918,0.162109 4.901175,4.901175 0 0 0 -0.0703,0.132813 4.901175,4.901175 0 0 0 -0.0644,0.130859 4.901175,4.901175 0 0 0 -0.0312,0.06836 4.901175,4.901175 0 0 0 -0.002,0.0039 4.901175,4.901175 0 0 0 -0.0645,0.152344 4.901175,4.901175 0 0 0 -0.0293,0.07031 4.901175,4.901175 0 0 0 -0.043,0.111328 4.901175,4.901175 0 0 0 -0.0234,0.07031 4.901175,4.901175 0 0 0 -0.0273,0.08008 l -10.62891,30.580078 a 4.901175,4.901175 0 0 0 3.01953,6.238281 4.901175,4.901175 0 0 0 6.23828,-3.019531 l 1.125,-3.236328 v 30.398437 a 4.901175,4.901175 0 0 0 0.006,0.203125 4.901175,4.901175 0 0 0 0.01,0.169922 4.901175,4.901175 0 0 0 0.0156,0.171875 4.901175,4.901175 0 0 0 0.002,0.01758 4.901175,4.901175 0 0 0 0.006,0.03711 4.901175,4.901175 0 0 0 0.0215,0.160156 4.901175,4.901175 0 0 0 0.0293,0.166016 4.901175,4.901175 0 0 0 0.0332,0.162109 4.901175,4.901175 0 0 0 0.004,0.02344 4.901175,4.901175 0 0 0 0.004,0.01367 4.901175,4.901175 0 0 0 0.043,0.16211 4.901175,4.901175 0 0 0 0.0254,0.09375 4.901175,4.901175 0 0 0 0.0254,0.08594 4.901175,4.901175 0 0 0 0.006,0.01563 4.901175,4.901175 0 0 0 0.0547,0.160156 4.901175,4.901175 0 0 0 0.0273,0.07617 4.901175,4.901175 0 0 0 0.0371,0.09766 4.901175,4.901175 0 0 0 0.008,0.01758 4.901175,4.901175 0 0 0 0.0645,0.154297 4.901175,4.901175 0 0 0 0.008,0.01562 4.901175,4.901175 0 0 0 0.0781,0.166016 4.901175,4.901175 0 0 0 0.002,0.0039 4.901175,4.901175 0 0 0 0.0762,0.148438 4.901175,4.901175 0 0 0 0.0859,0.154297 4.901175,4.901175 0 0 0 0.006,0.01172 4.901175,4.901175 0 0 0 0.0391,0.0625 4.901175,4.901175 0 0 0 0.0586,0.09375 4.901175,4.901175 0 0 0 0.01,0.01367 4.901175,4.901175 0 0 0 0.10156,0.150391 4.901175,4.901175 0 0 0 0.002,0.0039 4.901175,4.901175 0 0 0 0.0996,0.136724 4.901175,4.901175 0 0 0 0.01,0.0137 4.901175,4.901175 0 0 0 0.10547,0.13281 4.901175,4.901175 0 0 0 0.11328,0.13476 4.901175,4.901175 0 0 0 0.008,0.01 4.901175,4.901175 0 0 0 0.01,0.0117 4.901175,4.901175 0 0 0 0.11328,0.12305 4.901175,4.901175 0 0 0 0.0723,0.0723 4.901175,4.901175 0 0 0 0.0586,0.0605 4.901175,4.901175 0 0 0 0.0137,0.0117 4.901175,4.901175 0 0 0 0.12305,0.11523 4.901175,4.901175 0 0 0 0.0117,0.0117 4.901175,4.901175 0 0 0 0.12891,0.11133 4.901175,4.901175 0 0 0 0.10352,0.084 4.901175,4.901175 0 0 0 0.041,0.0332 4.901175,4.901175 0 0 0 0.0137,0.01 4.901175,4.901175 0 0 0 0.15039,0.11133 4.901175,4.901175 0 0 0 0.13868,0.0957 4.901175,4.901175 0 0 0 0.0664,0.041 4.901175,4.901175 0 0 0 0.10547,0.0664 4.901175,4.901175 0 0 0 0.14649,0.0859 4.901175,4.901175 0 0 0 0.0156,0.008 4.901175,4.901175 0 0 0 0.1582,0.084 4.901175,4.901175 0 0 0 0.0215,0.01 4.901175,4.901175 0 0 0 0.15234,0.0723 4.901175,4.901175 0 0 0 0.1543,0.0684 4.901175,4.901175 0 0 0 0.0156,0.006 4.901175,4.901175 0 0 0 0.16407,0.0645 4.901175,4.901175 0 0 0 0.0723,0.0254 4.901175,4.901175 0 0 0 0.0391,0.0137 4.901175,4.901175 0 0 0 0.084,0.0273 4.901175,4.901175 0 0 0 0.14844,0.0449 4.901175,4.901175 0 0 0 0.004,0.002 4.901175,4.901175 0 0 0 0.004,0 4.901175,4.901175 0 0 0 0.14453,0.041 4.901175,4.901175 0 0 0 0.0664,0.0156 4.901175,4.901175 0 0 0 0.0937,0.0215 4.901175,4.901175 0 0 0 0.10156,0.0195 4.901175,4.901175 0 0 0 0.10742,0.0195 4.901175,4.901175 0 0 0 0.041,0.008 4.901175,4.901175 0 0 0 0.13672,0.0195 4.901175,4.901175 0 0 0 0.0645,0.01 4.901175,4.901175 0 0 0 0.15429,0.0156 4.901175,4.901175 0 0 0 0.16602,0.0117 4.901175,4.901175 0 0 0 0.0195,0.002 4.901175,4.901175 0 0 0 0.0195,0 4.901175,4.901175 0 0 0 0.125,0.004 4.901175,4.901175 0 0 0 0.041,0.002 4.901175,4.901175 0 0 0 0.0664,0.002 4.901175,4.901175 0 0 0 0.20313,-0.006 4.901175,4.901175 0 0 0 0.16797,-0.01 4.901175,4.901175 0 0 0 0.17578,-0.0176 4.901175,4.901175 0 0 0 0.01,0 4.901175,4.901175 0 0 0 0.0176,-0.002 4.901175,4.901175 0 0 0 0.0215,-0.004 4.901175,4.901175 0 0 0 0.16211,-0.0215 4.901175,4.901175 0 0 0 0.10156,-0.0176 4.901175,4.901175 0 0 0 0.0664,-0.0117 4.901175,4.901175 0 0 0 0.13086,-0.0273 4.901175,4.901175 0 0 0 0.0508,-0.01 4.901175,4.901175 0 0 0 0.0156,-0.004 4.901175,4.901175 0 0 0 0.16406,-0.043 4.901175,4.901175 0 0 0 0.0176,-0.004 4.901175,4.901175 0 0 0 0.16211,-0.0469 4.901175,4.901175 0 0 0 0.0156,-0.006 4.901175,4.901175 0 0 0 0.16015,-0.0547 4.901175,4.901175 0 0 0 0.0156,-0.006 4.901175,4.901175 0 0 0 0.17383,-0.0664 4.901175,4.901175 0 0 0 0.15625,-0.0645 4.901175,4.901175 0 0 0 0.0156,-0.008 4.901175,4.901175 0 0 0 0.15235,-0.0723 4.901175,4.901175 0 0 0 0.0156,-0.008 4.901175,4.901175 0 0 0 0.15039,-0.0762 4.901175,4.901175 0 0 0 0.0156,-0.008 4.901175,4.901175 0 0 0 0.14648,-0.084 4.901175,4.901175 0 0 0 0.10156,-0.0625 4.901175,4.901175 0 0 0 0.0586,-0.0352 4.901175,4.901175 0 0 0 0.0137,-0.01 4.901175,4.901175 0 0 0 0.14062,-0.0937 4.901175,4.901175 0 0 0 0.0137,-0.01 4.901175,4.901175 0 0 0 0.13672,-0.0996 4.901175,4.901175 0 0 0 0.0137,-0.01 4.901175,4.901175 0 0 0 0.13281,-0.10547 4.901175,4.901175 0 0 0 0.0137,-0.01 4.901175,4.901175 0 0 0 0.12891,-0.10938 4.901175,4.901175 0 0 0 0.0117,-0.0117 4.901175,4.901175 0 0 0 0.125,-0.11328 4.901175,4.901175 0 0 0 0.0117,-0.0117 4.901175,4.901175 0 0 0 0.1211,-0.11914 4.901175,4.901175 0 0 0 0.0117,-0.0137 4.901175,4.901175 0 0 0 0.0684,-0.0723 4.901175,4.901175 0 0 0 0.0586,-0.0625 4.901175,4.901175 0 0 0 0.11133,-0.12891 4.901175,4.901175 0 0 0 0.01,-0.0117 4.901175,4.901175 0 0 0 0.0195,-0.0254 4.901175,4.901175 0 0 0 0.0977,-0.12109 4.901175,4.901175 0 0 0 0.0664,-0.08985 4.901175,4.901175 0 0 0 0.0449,-0.06055 4.901175,4.901175 0 0 0 0.0937,-0.138672 4.901175,4.901175 0 0 0 0.01,-0.01367 4.901175,4.901175 0 0 0 0.0899,-0.142578 4.901175,4.901175 0 0 0 0.01,-0.01563 4.901175,4.901175 0 0 0 0.084,-0.146484 4.901175,4.901175 0 0 0 0.01,-0.01563 4.901175,4.901175 0 0 0 0.0781,-0.148438 4.901175,4.901175 0 0 0 0.008,-0.01563 4.901175,4.901175 0 0 0 0.0723,-0.152344 4.901175,4.901175 0 0 0 0.008,-0.01563 4.901175,4.901175 0 0 0 0.0684,-0.154297 4.901175,4.901175 0 0 0 0.006,-0.01562 4.901175,4.901175 0 0 0 0.0625,-0.158204 4.901175,4.901175 0 0 0 0.006,-0.01563 4.901175,4.901175 0 0 0 0.0215,-0.0625 l 0.0332,-0.09766 11.35546,-32.269531 v 30.740234 a 4.901175,4.901175 0 0 0 0,0.0098 4.901175,4.901175 0 0 0 0,0.01758 4.901175,4.901175 0 0 0 0.004,0.158203 4.901175,4.901175 0 0 0 0.008,0.15625 4.901175,4.901175 0 0 0 0.004,0.04102 4.901175,4.901175 0 0 0 0.006,0.06641 4.901175,4.901175 0 0 0 0.01,0.107422 4.901175,4.901175 0 0 0 0.004,0.02734 4.901175,4.901175 0 0 0 0.0215,0.164062 4.901175,4.901175 0 0 0 0.0156,0.08008 4.901175,4.901175 0 0 0 0.0215,0.123047 4.901175,4.901175 0 0 0 0.0352,0.167969 4.901175,4.901175 0 0 0 0.0195,0.07422 4.901175,4.901175 0 0 0 0.0293,0.115234 4.901175,4.901175 0 0 0 0.0215,0.07227 4.901175,4.901175 0 0 0 0.0273,0.09375 4.901175,4.901175 0 0 0 0.0254,0.07617 4.901175,4.901175 0 0 0 0.0312,0.0918 4.901175,4.901175 0 0 0 0.01,0.02539 4.901175,4.901175 0 0 0 0.0566,0.150391 4.901175,4.901175 0 0 0 0.01,0.02344 4.901175,4.901175 0 0 0 0.0625,0.146485 4.901175,4.901175 0 0 0 0.0625,0.138671 4.901175,4.901175 0 0 0 0.0215,0.04297 4.901175,4.901175 0 0 0 0.006,0.01172 4.901175,4.901175 0 0 0 0.0742,0.140625 4.901175,4.901175 0 0 0 0.0606,0.111328 4.901175,4.901175 0 0 0 0.0293,0.05273 4.901175,4.901175 0 0 0 0.0137,0.02148 4.901175,4.901175 0 0 0 0.0996,0.158203 4.901175,4.901175 0 0 0 0.0879,0.132812 4.901175,4.901175 0 0 0 0.0156,0.02148 4.901175,4.901175 0 0 0 0.0937,0.128911 4.901175,4.901175 0 0 0 0.0918,0.11718 4.901175,4.901175 0 0 0 0.0332,0.041 4.901175,4.901175 0 0 0 0.0195,0.0254 4.901175,4.901175 0 0 0 0.10938,0.125 4.901175,4.901175 0 0 0 0.10742,0.11719 4.901175,4.901175 0 0 0 0.0176,0.0195 4.901175,4.901175 0 0 0 0.11328,0.11328 4.901175,4.901175 0 0 0 0.0195,0.0195 4.901175,4.901175 0 0 0 0.11523,0.10742 4.901175,4.901175 0 0 0 0.11524,0.0996 4.901175,4.901175 0 0 0 0.043,0.0371 4.901175,4.901175 0 0 0 0.0156,0.0137 4.901175,4.901175 0 0 0 0.11133,0.0898 4.901175,4.901175 0 0 0 0.0215,0.0156 4.901175,4.901175 0 0 0 0.13476,0.0996 4.901175,4.901175 0 0 0 0.0508,0.0352 4.901175,4.901175 0 0 0 0.11914,0.0801 4.901175,4.901175 0 0 0 0.13477,0.0859 4.901175,4.901175 0 0 0 0.0234,0.0137 4.901175,4.901175 0 0 0 0.16015,0.0918 4.901175,4.901175 0 0 0 0.14063,0.0742 4.901175,4.901175 0 0 0 0.0254,0.0117 4.901175,4.901175 0 0 0 0.16797,0.0801 4.901175,4.901175 0 0 0 0.14453,0.0644 4.901175,4.901175 0 0 0 0.0254,0.01 4.901175,4.901175 0 0 0 0.15234,0.0605 4.901175,4.901175 0 0 0 0.084,0.0293 4.901175,4.901175 0 0 0 0.0664,0.0215 4.901175,4.901175 0 0 0 0.0371,0.0117 4.901175,4.901175 0 0 0 0.14844,0.0469 4.901175,4.901175 0 0 0 0.0332,0.01 4.901175,4.901175 0 0 0 0.10938,0.0293 4.901175,4.901175 0 0 0 0.10742,0.0273 4.901175,4.901175 0 0 0 0.0703,0.0156 4.901175,4.901175 0 0 0 0.10547,0.0215 4.901175,4.901175 0 0 0 0.041,0.008 4.901175,4.901175 0 0 0 0.0918,0.0156 4.901175,4.901175 0 0 0 0.17774,0.0273 4.901175,4.901175 0 0 0 0.0117,0 4.901175,4.901175 0 0 0 0.17578,0.0195 4.901175,4.901175 0 0 0 0.14062,0.01 4.901175,4.901175 0 0 0 0.0977,0.006 4.901175,4.901175 0 0 0 0.0449,0.002 4.901175,4.901175 0 0 0 0.0918,0.002 4.901175,4.901175 0 0 0 0.0664,0.002 4.901175,4.901175 0 0 0 0.21289,-0.006 4.901175,4.901175 0 0 0 0.16016,-0.01 4.901175,4.901175 0 0 0 0.0254,-0.002 4.901175,4.901175 0 0 0 0.16016,-0.0156 4.901175,4.901175 0 0 0 0.0898,-0.0117 4.901175,4.901175 0 0 0 0.1211,-0.0176 4.901175,4.901175 0 0 0 0.10351,-0.0176 4.901175,4.901175 0 0 0 0.0527,-0.01 4.901175,4.901175 0 0 0 0.0918,-0.0195 4.901175,4.901175 0 0 0 0.11719,-0.0254 4.901175,4.901175 0 0 0 0.0937,-0.0234 4.901175,4.901175 0 0 0 0.0606,-0.0156 4.901175,4.901175 0 0 0 0.0879,-0.0254 4.901175,4.901175 0 0 0 0.11523,-0.0352 4.901175,4.901175 0 0 0 0.0918,-0.0312 4.901175,4.901175 0 0 0 0.0586,-0.0195 4.901175,4.901175 0 0 0 0.082,-0.0293 4.901175,4.901175 0 0 0 0.26368,-0.10743 4.901175,4.901175 0 0 0 0.0254,-0.0117 4.901175,4.901175 0 0 0 0.14453,-0.0684 4.901175,4.901175 0 0 0 0.0234,-0.0117 4.901175,4.901175 0 0 0 0.0117,-0.006 4.901175,4.901175 0 0 0 0.1543,-0.0801 4.901175,4.901175 0 0 0 0.13867,-0.0781 4.901175,4.901175 0 0 0 0.0215,-0.0137 4.901175,4.901175 0 0 0 0.13672,-0.084 4.901175,4.901175 0 0 0 0.0215,-0.0137 4.901175,4.901175 0 0 0 0.13281,-0.0898 4.901175,4.901175 0 0 0 0.0215,-0.0156 4.901175,4.901175 0 0 0 0.1289,-0.0937 4.901175,4.901175 0 0 0 0.0215,-0.0156 4.901175,4.901175 0 0 0 0.125,-0.0996 4.901175,4.901175 0 0 0 0.11328,-0.0937 4.901175,4.901175 0 0 0 0.0293,-0.0254 4.901175,4.901175 0 0 0 0.0195,-0.0176 4.901175,4.901175 0 0 0 0.11718,-0.10743 4.901175,4.901175 0 0 0 0.0195,-0.0195 4.901175,4.901175 0 0 0 0.11328,-0.11133 4.901175,4.901175 0 0 0 0.0195,-0.0195 4.901175,4.901175 0 0 0 0.10742,-0.11718 4.901175,4.901175 0 0 0 0.12305,-0.14063 4.901175,4.901175 0 0 0 0.0176,-0.0195 4.901175,4.901175 0 0 0 0.0996,-0.125 4.901175,4.901175 0 0 0 0.0156,-0.0215 4.901175,4.901175 0 0 0 0.11133,-0.150386 4.901175,4.901175 0 0 0 0.0898,-0.130859 4.901175,4.901175 0 0 0 0.0137,-0.02148 4.901175,4.901175 0 0 0 0.0859,-0.134766 4.901175,4.901175 0 0 0 0.0137,-0.02344 4.901175,4.901175 0 0 0 0.006,-0.0098 4.901175,4.901175 0 0 0 0.0859,-0.152344 4.901175,4.901175 0 0 0 0.0254,-0.04687 4.901175,4.901175 0 0 0 0.0488,-0.09375 4.901175,4.901175 0 0 0 0.082,-0.167969 4.901175,4.901175 0 0 0 0.0508,-0.113281 4.901175,4.901175 0 0 0 0.0234,-0.05664 4.901175,4.901175 0 0 0 0.01,-0.02539 4.901175,4.901175 0 0 0 0.0586,-0.148438 4.901175,4.901175 0 0 0 0.01,-0.02539 4.901175,4.901175 0 0 0 0.0215,-0.0625 l 11.25195,-32.181641 v 30.564453 a 4.901175,4.901175 0 0 0 0,0.0059 4.901175,4.901175 0 0 0 0,0.01172 4.901175,4.901175 0 0 0 0.004,0.167969 4.901175,4.901175 0 0 0 0.006,0.09961 4.901175,4.901175 0 0 0 0.004,0.08789 4.901175,4.901175 0 0 0 0.002,0.01563 4.901175,4.901175 0 0 0 0.0156,0.173828 4.901175,4.901175 0 0 0 0.002,0.01172 4.901175,4.901175 0 0 0 0.0234,0.167969 4.901175,4.901175 0 0 0 0.0176,0.09961 4.901175,4.901175 0 0 0 0.0137,0.08398 4.901175,4.901175 0 0 0 0.004,0.01562 4.901175,4.901175 0 0 0 0.0371,0.169922 4.901175,4.901175 0 0 0 0.002,0.01367 4.901175,4.901175 0 0 0 0.041,0.16211 4.901175,4.901175 0 0 0 0.004,0.01758 4.901175,4.901175 0 0 0 0.0488,0.162109 4.901175,4.901175 0 0 0 0.004,0.01563 4.901175,4.901175 0 0 0 0.0547,0.160156 4.901175,4.901175 0 0 0 0.006,0.01758 4.901175,4.901175 0 0 0 0.0606,0.15625 4.901175,4.901175 0 0 0 0.0723,0.171876 4.901175,4.901175 0 0 0 0.0605,0.130859 4.901175,4.901175 0 0 0 0.0215,0.04687 4.901175,4.901175 0 0 0 0.004,0.0078 4.901175,4.901175 0 0 0 0.0781,0.148438 4.901175,4.901175 0 0 0 0.0312,0.05469 4.901175,4.901175 0 0 0 0.0684,0.123047 4.901175,4.901175 0 0 0 0.0879,0.144532 4.901175,4.901175 0 0 0 0.01,0.01367 4.901175,4.901175 0 0 0 0.10157,0.150391 4.901175,4.901175 0 0 0 0.002,0.0039 4.901175,4.901175 0 0 0 0.0996,0.136724 4.901175,4.901175 0 0 0 0.01,0.0137 4.901175,4.901175 0 0 0 0.10547,0.13281 4.901175,4.901175 0 0 0 0.11328,0.13476 4.901175,4.901175 0 0 0 0.008,0.01 4.901175,4.901175 0 0 0 0.01,0.0117 4.901175,4.901175 0 0 0 0.11524,0.12305 4.901175,4.901175 0 0 0 0.0117,0.0137 4.901175,4.901175 0 0 0 0.11914,0.11914 4.901175,4.901175 0 0 0 0.0625,0.0586 4.901175,4.901175 0 0 0 0.0723,0.0684 4.901175,4.901175 0 0 0 0.0137,0.0117 4.901175,4.901175 0 0 0 0.13086,0.11524 4.901175,4.901175 0 0 0 0.0566,0.0449 4.901175,4.901175 0 0 0 0.084,0.0684 4.901175,4.901175 0 0 0 0.0137,0.01 4.901175,4.901175 0 0 0 0.14453,0.10742 4.901175,4.901175 0 0 0 0.041,0.0273 4.901175,4.901175 0 0 0 0.10351,0.0723 4.901175,4.901175 0 0 0 0.0156,0.01 4.901175,4.901175 0 0 0 0.14258,0.0898 4.901175,4.901175 0 0 0 0.0137,0.008 4.901175,4.901175 0 0 0 0.14648,0.0859 4.901175,4.901175 0 0 0 0.0156,0.008 4.901175,4.901175 0 0 0 0.1582,0.084 4.901175,4.901175 0 0 0 0.0215,0.01 4.901175,4.901175 0 0 0 0.15235,0.0723 4.901175,4.901175 0 0 0 0.15625,0.0684 4.901175,4.901175 0 0 0 0.0156,0.006 4.901175,4.901175 0 0 0 0.15625,0.0625 4.901175,4.901175 0 0 0 0.0176,0.006 4.901175,4.901175 0 0 0 0.0195,0.006 4.901175,4.901175 0 0 0 0.041,0.0156 4.901175,4.901175 0 0 0 0.0293,0.01 4.901175,4.901175 0 0 0 0.11328,0.0371 4.901175,4.901175 0 0 0 0.10351,0.0312 4.901175,4.901175 0 0 0 0.043,0.0137 4.901175,4.901175 0 0 0 0.13477,0.0371 4.901175,4.901175 0 0 0 0.0312,0.008 4.901175,4.901175 0 0 0 0.1289,0.0293 4.901175,4.901175 0 0 0 0.10156,0.0195 4.901175,4.901175 0 0 0 0.10743,0.0195 4.901175,4.901175 0 0 0 0.041,0.008 4.901175,4.901175 0 0 0 0.13282,0.0195 4.901175,4.901175 0 0 0 0.0781,0.01 4.901175,4.901175 0 0 0 0.13086,0.0137 4.901175,4.901175 0 0 0 0.0137,0.002 4.901175,4.901175 0 0 0 0.008,0 4.901175,4.901175 0 0 0 0.15235,0.0117 4.901175,4.901175 0 0 0 0.0254,0.002 4.901175,4.901175 0 0 0 0.0254,0 4.901175,4.901175 0 0 0 0.11719,0.004 4.901175,4.901175 0 0 0 0.043,0.002 4.901175,4.901175 0 0 0 0.0664,0.002 4.901175,4.901175 0 0 0 0.20313,-0.006 4.901175,4.901175 0 0 0 0.0879,-0.004 4.901175,4.901175 0 0 0 0.082,-0.006 4.901175,4.901175 0 0 0 0.16015,-0.0156 4.901175,4.901175 0 0 0 0.041,-0.004 4.901175,4.901175 0 0 0 0.004,0 4.901175,4.901175 0 0 0 0.18164,-0.0254 4.901175,4.901175 0 0 0 0.0684,-0.0117 4.901175,4.901175 0 0 0 0.0977,-0.0176 4.901175,4.901175 0 0 0 0.16992,-0.0352 4.901175,4.901175 0 0 0 0.0117,-0.002 4.901175,4.901175 0 0 0 0.0176,-0.004 4.901175,4.901175 0 0 0 0.16406,-0.043 4.901175,4.901175 0 0 0 0.0156,-0.004 4.901175,4.901175 0 0 0 0.16211,-0.0469 4.901175,4.901175 0 0 0 0.0176,-0.006 4.901175,4.901175 0 0 0 0.16015,-0.0547 4.901175,4.901175 0 0 0 0.0156,-0.006 4.901175,4.901175 0 0 0 0.17383,-0.0664 4.901175,4.901175 0 0 0 0.15625,-0.0645 4.901175,4.901175 0 0 0 0.0156,-0.008 4.901175,4.901175 0 0 0 0.15234,-0.0723 4.901175,4.901175 0 0 0 0.0156,-0.008 4.901175,4.901175 0 0 0 0.15039,-0.0762 4.901175,4.901175 0 0 0 0.0137,-0.008 4.901175,4.901175 0 0 0 0.14844,-0.084 4.901175,4.901175 0 0 0 0.0137,-0.008 4.901175,4.901175 0 0 0 0.14453,-0.0898 4.901175,4.901175 0 0 0 0.0137,-0.01 4.901175,4.901175 0 0 0 0.14063,-0.0937 4.901175,4.901175 0 0 0 0.0137,-0.01 4.901175,4.901175 0 0 0 0.13672,-0.0996 4.901175,4.901175 0 0 0 0.0137,-0.01 4.901175,4.901175 0 0 0 0.13281,-0.10547 4.901175,4.901175 0 0 0 0.0137,-0.01 4.901175,4.901175 0 0 0 0.1289,-0.10938 4.901175,4.901175 0 0 0 0.0137,-0.0117 4.901175,4.901175 0 0 0 0.12305,-0.11328 4.901175,4.901175 0 0 0 0.0137,-0.0117 4.901175,4.901175 0 0 0 0.11914,-0.11914 4.901175,4.901175 0 0 0 0.0117,-0.0137 4.901175,4.901175 0 0 0 0.11719,-0.12304 4.901175,4.901175 0 0 0 0.01,-0.0117 4.901175,4.901175 0 0 0 0.11132,-0.12891 4.901175,4.901175 0 0 0 0.084,-0.10352 4.901175,4.901175 0 0 0 0.0332,-0.041 4.901175,4.901175 0 0 0 0.01,-0.0137 4.901175,4.901175 0 0 0 0.11132,-0.150393 4.901175,4.901175 0 0 0 0.0723,-0.103516 4.901175,4.901175 0 0 0 0.0332,-0.04883 4.901175,4.901175 0 0 0 0.0312,-0.05273 4.901175,4.901175 0 0 0 0.0664,-0.105469 4.901175,4.901175 0 0 0 0.0859,-0.146484 4.901175,4.901175 0 0 0 0.008,-0.01563 4.901175,4.901175 0 0 0 0.0781,-0.148438 4.901175,4.901175 0 0 0 0.008,-0.01563 4.901175,4.901175 0 0 0 0.0742,-0.152344 4.901175,4.901175 0 0 0 0.008,-0.01563 4.901175,4.901175 0 0 0 0.0664,-0.154297 4.901175,4.901175 0 0 0 0.006,-0.01562 4.901175,4.901175 0 0 0 0.0625,-0.158204 4.901175,4.901175 0 0 0 0.006,-0.01563 4.901175,4.901175 0 0 0 0.0215,-0.0625 l 0.0332,-0.09766 11.35547,-32.265625 v 2.230469 a 4.901175,4.901175 0 0 0 4.90234,4.902344 4.901175,4.901175 0 0 0 4.90039,-4.902344 V 37.666016 a 4.901175,4.901175 0 0 0 0,-0.0098 4.901175,4.901175 0 0 0 0,-0.0078 4.901175,4.901175 0 0 0 -0.004,-0.169922 4.901175,4.901175 0 0 0 0,-0.01563 4.901175,4.901175 0 0 0 -0.01,-0.169922 4.901175,4.901175 0 0 0 -0.002,-0.01758 4.901175,4.901175 0 0 0 -0.0156,-0.167969 4.901175,4.901175 0 0 0 -0.002,-0.01563 4.901175,4.901175 0 0 0 -0.0234,-0.167969 4.901175,4.901175 0 0 0 -0.002,-0.01758 4.901175,4.901175 0 0 0 -0.0293,-0.166016 4.901175,4.901175 0 0 0 -0.004,-0.01758 4.901175,4.901175 0 0 0 -0.0352,-0.164062 4.901175,4.901175 0 0 0 -0.004,-0.01758 4.901175,4.901175 0 0 0 -0.008,-0.0332 4.901175,4.901175 0 0 0 -0.0391,-0.146484 4.901175,4.901175 0 0 0 -0.0469,-0.162109 4.901175,4.901175 0 0 0 -0.006,-0.01758 4.901175,4.901175 0 0 0 -0.0527,-0.160157 4.901175,4.901175 0 0 0 -0.006,-0.01563 4.901175,4.901175 0 0 0 -0.0605,-0.158203 4.901175,4.901175 0 0 0 -0.006,-0.01563 4.901175,4.901175 0 0 0 -0.0664,-0.15625 4.901175,4.901175 0 0 0 -0.006,-0.01563 4.901175,4.901175 0 0 0 -0.0723,-0.152344 4.901175,4.901175 0 0 0 -0.008,-0.01562 4.901175,4.901175 0 0 0 -0.0781,-0.150391 4.901175,4.901175 0 0 0 -0.008,-0.01367 4.901175,4.901175 0 0 0 -0.084,-0.148437 4.901175,4.901175 0 0 0 -0.008,-0.01367 4.901175,4.901175 0 0 0 -0.0879,-0.144532 4.901175,4.901175 0 0 0 -0.01,-0.01367 4.901175,4.901175 0 0 0 -0.0937,-0.140624 4.901175,4.901175 0 0 0 -0.01,-0.01367 4.901175,4.901175 0 0 0 -0.0996,-0.136719 4.901175,4.901175 0 0 0 -0.0117,-0.01367 4.901175,4.901175 0 0 0 -0.10352,-0.132813 4.901175,4.901175 0 0 0 -0.0117,-0.01367 4.901175,4.901175 0 0 0 -0.006,-0.0078 4.901175,4.901175 0 0 0 -0.10351,-0.121094 4.901175,4.901175 0 0 0 -0.0977,-0.107422 4.901175,4.901175 0 0 0 -0.0273,-0.03125 4.901175,4.901175 0 0 0 -0.0117,-0.01172 4.901175,4.901175 0 0 0 -0.11914,-0.119141 4.901175,4.901175 0 0 0 -0.0996,-0.0957 4.901175,4.901175 0 0 0 -0.0352,-0.0332 4.901175,4.901175 0 0 0 -0.0137,-0.01172 4.901175,4.901175 0 0 0 -0.12695,-0.109375 4.901175,4.901175 0 0 0 -0.0137,-0.01172 4.901175,4.901175 0 0 0 -0.13086,-0.105468 4.901175,4.901175 0 0 0 -0.0137,-0.0098 4.901175,4.901175 0 0 0 -0.13672,-0.101562 4.901175,4.901175 0 0 0 -0.0137,-0.0098 4.901175,4.901175 0 0 0 -0.13867,-0.0957 4.901175,4.901175 0 0 0 -0.0156,-0.0098 4.901175,4.901175 0 0 0 -0.15821,-0.09766 4.901175,4.901175 0 0 0 -0.14453,-0.08594 4.901175,4.901175 0 0 0 -0.0156,-0.0078 4.901175,4.901175 0 0 0 -0.0449,-0.02344 4.901175,4.901175 0 0 0 -0.11914,-0.0625 4.901175,4.901175 0 0 0 -0.15235,-0.07422 4.901175,4.901175 0 0 0 -0.0156,-0.0078 4.901175,4.901175 0 0 0 -0.15625,-0.06641 4.901175,4.901175 0 0 0 -0.11719,-0.04687 4.901175,4.901175 0 0 0 -0.0547,-0.02148 4.901175,4.901175 0 0 0 -0.0176,-0.0059 4.901175,4.901175 0 0 0 -0.004,-0.002 4.901175,4.901175 0 0 0 -0.0566,-0.02148 4.901175,4.901175 0 0 0 -0.0918,-0.0293 4.901175,4.901175 0 0 0 -0.006,-0.002 4.901175,4.901175 0 0 0 -0.0801,-0.02539 4.901175,4.901175 0 0 0 -0.0977,-0.0293 4.901175,4.901175 0 0 0 -0.0254,-0.0078 4.901175,4.901175 0 0 0 -0.13086,-0.0332 4.901175,4.901175 0 0 0 -0.0254,-0.0078 4.901175,4.901175 0 0 0 -0.0195,-0.0039 4.901175,4.901175 0 0 0 -0.12695,-0.0293 4.901175,4.901175 0 0 0 -0.0352,-0.0078 4.901175,4.901175 0 0 0 -0.0684,-0.01367 4.901175,4.901175 0 0 0 -0.0176,-0.002 4.901175,4.901175 0 0 0 -0.16211,-0.0293 4.901175,4.901175 0 0 0 -0.0156,-0.002 4.901175,4.901175 0 0 0 -0.10351,-0.01367 4.901175,4.901175 0 0 0 -0.0645,-0.0078 4.901175,4.901175 0 0 0 -0.0254,-0.002 4.901175,4.901175 0 0 0 -0.16015,-0.01563 4.901175,4.901175 0 0 0 -0.0703,-0.0039 4.901175,4.901175 0 0 0 -0.0488,-0.0039 4.901175,4.901175 0 0 0 -0.084,-0.0039 4.901175,4.901175 0 0 0 -0.0195,0 4.901175,4.901175 0 0 0 -0.14844,-0.0039 4.901175,4.901175 0 0 0 -0.0176,0 4.901175,4.901175 0 0 0 -0.16993,0.0039 4.901175,4.901175 0 0 0 -0.10547,0.0059 4.901175,4.901175 0 0 0 -0.0801,0.0039 4.901175,4.901175 0 0 0 -0.0176,0.002 4.901175,4.901175 0 0 0 -0.35156,0.04102 4.901175,4.901175 0 0 0 -0.11524,0.01953 4.901175,4.901175 0 0 0 -0.0684,0.01172 4.901175,4.901175 0 0 0 -0.0176,0.0039 4.901175,4.901175 0 0 0 -0.16406,0.03516 4.901175,4.901175 0 0 0 -0.0176,0.0039 4.901175,4.901175 0 0 0 -0.0332,0.0078 4.901175,4.901175 0 0 0 -0.14648,0.03906 4.901175,4.901175 0 0 0 -0.16211,0.04687 4.901175,4.901175 0 0 0 -0.0176,0.0059 4.901175,4.901175 0 0 0 -0.33399,0.11914 4.901175,4.901175 0 0 0 -0.0781,0.0332 4.901175,4.901175 0 0 0 -0.0937,0.03906 4.901175,4.901175 0 0 0 -0.0156,0.0078 4.901175,4.901175 0 0 0 -0.16211,0.07617 4.901175,4.901175 0 0 0 -0.006,0.002 4.901175,4.901175 0 0 0 -0.15039,0.07813 4.901175,4.901175 0 0 0 -0.0156,0.0078 4.901175,4.901175 0 0 0 -0.14648,0.08398 4.901175,4.901175 0 0 0 -0.0137,0.0078 4.901175,4.901175 0 0 0 -0.14453,0.08984 4.901175,4.901175 0 0 0 -0.0137,0.0078 4.901175,4.901175 0 0 0 -0.14062,0.0957 4.901175,4.901175 0 0 0 -0.0723,0.05078 4.901175,4.901175 0 0 0 -0.0937,0.06836 4.901175,4.901175 0 0 0 -0.14453,0.115234 4.901175,4.901175 0 0 0 -0.13086,0.111328 4.901175,4.901175 0 0 0 -0.0586,0.05273 4.901175,4.901175 0 0 0 -0.0781,0.07031 4.901175,4.901175 0 0 0 -0.0117,0.01172 4.901175,4.901175 0 0 0 -0.11914,0.119141 4.901175,4.901175 0 0 0 -0.1289,0.136718 4.901175,4.901175 0 0 0 -0.11719,0.134766 4.901175,4.901175 0 0 0 -0.004,0.0039 4.901175,4.901175 0 0 0 -0.0586,0.07227 4.901175,4.901175 0 0 0 -0.0586,0.07422 4.901175,4.901175 0 0 0 -0.01,0.01367 4.901175,4.901175 0 0 0 -0.10742,0.142578 4.901175,4.901175 0 0 0 -0.004,0.0059 4.901175,4.901175 0 0 0 -0.0957,0.140625 4.901175,4.901175 0 0 0 -0.0937,0.146484 4.901175,4.901175 0 0 0 -0.006,0.01172 4.901175,4.901175 0 0 0 -0.0918,0.15625 4.901175,4.901175 0 0 0 -0.002,0.0039 4.901175,4.901175 0 0 0 -0.0488,0.0918 4.901175,4.901175 0 0 0 -0.043,0.08008 4.901175,4.901175 0 0 0 -0.004,0.0078 4.901175,4.901175 0 0 0 -0.0723,0.152344 4.901175,4.901175 0 0 0 -0.008,0.01562 4.901175,4.901175 0 0 0 -0.0664,0.154297 4.901175,4.901175 0 0 0 -0.0644,0.164063 4.901175,4.901175 0 0 0 -0.006,0.01367 4.901175,4.901175 0 0 0 -0.004,0.01172 4.901175,4.901175 0 0 0 -0.0234,0.0625 l -0.0332,0.09766 -11.35351,32.263672 V 37.666016 a 4.901175,4.901175 0 0 0 0,-0.01367 4.901175,4.901175 0 0 0 0,-0.01367 4.901175,4.901175 0 0 0 -0.002,-0.05273 4.901175,4.901175 0 0 0 -0.004,-0.132813 4.901175,4.901175 0 0 0 -0.01,-0.160156 4.901175,4.901175 0 0 0 -0.002,-0.02734 4.901175,4.901175 0 0 0 -0.0156,-0.158203 4.901175,4.901175 0 0 0 -0.0215,-0.166016 4.901175,4.901175 0 0 0 -0.002,-0.01758 4.901175,4.901175 0 0 0 -0.004,-0.02734 4.901175,4.901175 0 0 0 -0.0274,-0.15625 4.901175,4.901175 0 0 0 -0.006,-0.02734 4.901175,4.901175 0 0 0 -0.0332,-0.154297 4.901175,4.901175 0 0 0 -0.006,-0.02734 4.901175,4.901175 0 0 0 -0.0391,-0.154297 4.901175,4.901175 0 0 0 -0.008,-0.02539 4.901175,4.901175 0 0 0 -0.0449,-0.152343 4.901175,4.901175 0 0 0 -0.008,-0.02539 4.901175,4.901175 0 0 0 -0.0527,-0.152344 4.901175,4.901175 0 0 0 -0.0625,-0.167968 4.901175,4.901175 0 0 0 -0.002,-0.0059 4.901175,4.901175 0 0 0 -0.01,-0.02539 4.901175,4.901175 0 0 0 -0.0234,-0.05664 4.901175,4.901175 0 0 0 -0.0508,-0.113281 4.901175,4.901175 0 0 0 -0.16601,-0.333985 4.901175,4.901175 0 0 0 -0.0781,-0.138671 4.901175,4.901175 0 0 0 -0.0137,-0.02344 4.901175,4.901175 0 0 0 -0.084,-0.134766 4.901175,4.901175 0 0 0 -0.10351,-0.154296 4.901175,4.901175 0 0 0 -0.0156,-0.02344 4.901175,4.901175 0 0 0 -0.0937,-0.126953 4.901175,4.901175 0 0 0 -0.0156,-0.02148 4.901175,4.901175 0 0 0 -0.0977,-0.125 4.901175,4.901175 0 0 0 -0.0176,-0.02148 4.901175,4.901175 0 0 0 -0.10351,-0.121094 4.901175,4.901175 0 0 0 -0.0176,-0.02148 4.901175,4.901175 0 0 0 -0.10742,-0.117188 4.901175,4.901175 0 0 0 -0.0195,-0.01953 4.901175,4.901175 0 0 0 -0.11133,-0.111328 4.901175,4.901175 0 0 0 -0.0195,-0.01953 4.901175,4.901175 0 0 0 -0.11719,-0.109375 4.901175,4.901175 0 0 0 -0.0195,-0.01758 4.901175,4.901175 0 0 0 -0.12109,-0.103516 4.901175,4.901175 0 0 0 -0.0195,-0.01758 4.901175,4.901175 0 0 0 -0.125,-0.09961 4.901175,4.901175 0 0 0 -0.0215,-0.01563 4.901175,4.901175 0 0 0 -0.12695,-0.0957 4.901175,4.901175 0 0 0 -0.0215,-0.01563 4.901175,4.901175 0 0 0 -0.13281,-0.08984 A 4.901175,4.901175 0 0 0 190.03906,33.5 4.901175,4.901175 0 0 0 190,33.474609 a 4.901175,4.901175 0 0 0 -0.0234,-0.01367 4.901175,4.901175 0 0 0 -0.01,-0.0059 4.901175,4.901175 0 0 0 -0.15235,-0.08594 4.901175,4.901175 0 0 0 -0.0469,-0.02539 4.901175,4.901175 0 0 0 -0.0937,-0.04883 4.901175,4.901175 0 0 0 -0.16797,-0.08203 4.901175,4.901175 0 0 0 -0.11328,-0.05078 4.901175,4.901175 0 0 0 -0.0566,-0.02344 4.901175,4.901175 0 0 0 -0.0254,-0.0098 4.901175,4.901175 0 0 0 -0.14844,-0.05859 4.901175,4.901175 0 0 0 -0.0254,-0.0098 4.901175,4.901175 0 0 0 -0.0625,-0.02148 4.901175,4.901175 0 0 0 -0.0879,-0.0293 4.901175,4.901175 0 0 0 -0.17774,-0.05469 4.901175,4.901175 0 0 0 -0.0898,-0.02539 4.901175,4.901175 0 0 0 -0.0898,-0.02344 4.901175,4.901175 0 0 0 -0.041,-0.0098 4.901175,4.901175 0 0 0 -0.14062,-0.03125 4.901175,4.901175 0 0 0 -0.0918,-0.01758 4.901175,4.901175 0 0 0 -0.15235,-0.02539 4.901175,4.901175 0 0 0 -0.21484,-0.0293 4.901175,4.901175 0 0 0 -0.0937,-0.0098 4.901175,4.901175 0 0 0 -0.0273,-0.002 4.901175,4.901175 0 0 0 -0.15821,-0.0098 4.901175,4.901175 0 0 0 -0.0918,-0.0039 4.901175,4.901175 0 0 0 -0.002,0 4.901175,4.901175 0 0 0 -0.1582,-0.0039 4.901175,4.901175 0 0 0 -0.082,0.002 4.901175,4.901175 0 0 0 -0.13086,0.0039 4.901175,4.901175 0 0 0 -0.18555,0.01172 4.901175,4.901175 0 0 0 -0.0977,0.0098 4.901175,4.901175 0 0 0 -0.0606,0.0059 4.901175,4.901175 0 0 0 -0.15234,0.01953 4.901175,4.901175 0 0 0 -0.11133,0.01758 4.901175,4.901175 0 0 0 -0.10352,0.01758 4.901175,4.901175 0 0 0 -0.0273,0.0059 4.901175,4.901175 0 0 0 -0.16797,0.03516 4.901175,4.901175 0 0 0 -0.0586,0.01563 4.901175,4.901175 0 0 0 -0.10938,0.02734 4.901175,4.901175 0 0 0 -0.0254,0.0078 4.901175,4.901175 0 0 0 -0.16406,0.04883 4.901175,4.901175 0 0 0 -0.0742,0.02344 4.901175,4.901175 0 0 0 -0.0918,0.03125 4.901175,4.901175 0 0 0 -0.0254,0.0098 4.901175,4.901175 0 0 0 -0.14844,0.05664 4.901175,4.901175 0 0 0 -0.10546,0.04492 4.901175,4.901175 0 0 0 -0.0898,0.03711 4.901175,4.901175 0 0 0 -0.01,0.0059 4.901175,4.901175 0 0 0 -0.16016,0.07617 4.901175,4.901175 0 0 0 -0.14062,0.07227 4.901175,4.901175 0 0 0 -0.0234,0.01367 4.901175,4.901175 0 0 0 -0.14649,0.08203 4.901175,4.901175 0 0 0 -0.0156,0.0098 4.901175,4.901175 0 0 0 -0.13477,0.08398 4.901175,4.901175 0 0 0 -0.15625,0.103516 4.901175,4.901175 0 0 0 -0.0859,0.06055 4.901175,4.901175 0 0 0 -0.0645,0.04687 4.901175,4.901175 0 0 0 -0.0215,0.01758 4.901175,4.901175 0 0 0 -0.14453,0.115234 A 4.901175,4.901175 0 0 0 184.20312,34 a 4.901175,4.901175 0 0 0 -0.0234,0.02148 4.901175,4.901175 0 0 0 -0.0977,0.08984 4.901175,4.901175 0 0 0 -0.0195,0.01953 4.901175,4.901175 0 0 0 -0.11328,0.111329 4.901175,4.901175 0 0 0 -0.0176,0.01953 4.901175,4.901175 0 0 0 -0.12109,0.130859 4.901175,4.901175 0 0 0 -0.0137,0.01563 4.901175,4.901175 0 0 0 -0.11329,0.130859 4.901175,4.901175 0 0 0 -0.0996,0.125 4.901175,4.901175 0 0 0 -0.0996,0.132813 4.901175,4.901175 0 0 0 -0.0137,0.01953 4.901175,4.901175 0 0 0 -0.0137,0.01758 4.901175,4.901175 0 0 0 -0.0898,0.132813 4.901175,4.901175 0 0 0 -0.0742,0.117187 4.901175,4.901175 0 0 0 -0.0371,0.05859 4.901175,4.901175 0 0 0 -0.002,0.0039 4.901175,4.901175 0 0 0 -0.0801,0.138672 4.901175,4.901175 0 0 0 -0.0625,0.117188 4.901175,4.901175 0 0 0 -0.0312,0.05859 4.901175,4.901175 0 0 0 -0.006,0.01172 4.901175,4.901175 0 0 0 -0.0684,0.144532 4.901175,4.901175 0 0 0 -0.043,0.09766 4.901175,4.901175 0 0 0 -0.043,0.0957 4.901175,4.901175 0 0 0 0,0.002 4.901175,4.901175 0 0 0 -0.0566,0.148438 4.901175,4.901175 0 0 0 -0.01,0.02539 4.901175,4.901175 0 0 0 -0.0234,0.06055 l -11.25,32.177734 V 37.666016 a 4.901175,4.901175 0 0 0 0,-0.0098 4.901175,4.901175 0 0 0 0,-0.0078 4.901175,4.901175 0 0 0 -0.002,-0.0332 4.901175,4.901175 0 0 0 -0.004,-0.152343 4.901175,4.901175 0 0 0 -0.004,-0.08789 4.901175,4.901175 0 0 0 -0.006,-0.08203 4.901175,4.901175 0 0 0 -0.0156,-0.160157 4.901175,4.901175 0 0 0 -0.002,-0.02539 4.901175,4.901175 0 0 0 -0.002,-0.01563 4.901175,4.901175 0 0 0 0,-0.0039 4.901175,4.901175 0 0 0 -0.0254,-0.181641 4.901175,4.901175 0 0 0 -0.0117,-0.06836 4.901175,4.901175 0 0 0 -0.0176,-0.09766 4.901175,4.901175 0 0 0 -0.0351,-0.169922 4.901175,4.901175 0 0 0 -0.002,-0.01172 4.901175,4.901175 0 0 0 -0.004,-0.01758 4.901175,4.901175 0 0 0 -0.043,-0.164063 4.901175,4.901175 0 0 0 -0.004,-0.01563 4.901175,4.901175 0 0 0 -0.0469,-0.162109 4.901175,4.901175 0 0 0 -0.006,-0.01758 4.901175,4.901175 0 0 0 -0.0547,-0.160157 4.901175,4.901175 0 0 0 -0.006,-0.01563 4.901175,4.901175 0 0 0 -0.0664,-0.173828 4.901175,4.901175 0 0 0 -0.0645,-0.15625 4.901175,4.901175 0 0 0 -0.008,-0.01563 4.901175,4.901175 0 0 0 -0.0137,-0.03125 4.901175,4.901175 0 0 0 -0.0586,-0.121094 4.901175,4.901175 0 0 0 -0.0664,-0.128906 4.901175,4.901175 0 0 0 -0.0176,-0.03711 4.901175,4.901175 0 0 0 -0.008,-0.01367 4.901175,4.901175 0 0 0 -0.084,-0.148437 4.901175,4.901175 0 0 0 -0.008,-0.01367 4.901175,4.901175 0 0 0 -0.0898,-0.144532 4.901175,4.901175 0 0 0 -0.01,-0.01367 4.901175,4.901175 0 0 0 -0.0937,-0.140624 4.901175,4.901175 0 0 0 -0.01,-0.01367 4.901175,4.901175 0 0 0 -0.0996,-0.136719 4.901175,4.901175 0 0 0 -0.01,-0.01367 4.901175,4.901175 0 0 0 -0.10351,-0.132813 4.901175,4.901175 0 0 0 -0.0117,-0.01367 4.901175,4.901175 0 0 0 -0.10938,-0.128907 4.901175,4.901175 0 0 0 -0.0117,-0.01367 4.901175,4.901175 0 0 0 -0.11328,-0.125 4.901175,4.901175 0 0 0 -0.0117,-0.01172 4.901175,4.901175 0 0 0 -0.11914,-0.119141 4.901175,4.901175 0 0 0 -0.0137,-0.01367 4.901175,4.901175 0 0 0 -0.12305,-0.115234 4.901175,4.901175 0 0 0 -0.0117,-0.01172 4.901175,4.901175 0 0 0 -0.1289,-0.109375 4.901175,4.901175 0 0 0 -0.10352,-0.08398 4.901175,4.901175 0 0 0 -0.041,-0.0332 4.901175,4.901175 0 0 0 -0.0137,-0.0098 4.901175,4.901175 0 0 0 -0.13477,-0.101562 4.901175,4.901175 0 0 0 -0.0137,-0.0098 4.901175,4.901175 0 0 0 -0.14063,-0.0957 4.901175,4.901175 0 0 0 -0.0137,-0.0098 4.901175,4.901175 0 0 0 -0.0527,-0.03125 4.901175,4.901175 0 0 0 -0.10547,-0.06641 4.901175,4.901175 0 0 0 -0.14649,-0.08594 4.901175,4.901175 0 0 0 -0.0137,-0.0078 4.901175,4.901175 0 0 0 -0.15039,-0.07813 4.901175,4.901175 0 0 0 -0.0156,-0.0078 4.901175,4.901175 0 0 0 -0.15235,-0.07422 4.901175,4.901175 0 0 0 -0.0156,-0.0078 4.901175,4.901175 0 0 0 -0.1543,-0.06641 4.901175,4.901175 0 0 0 -0.16406,-0.06445 4.901175,4.901175 0 0 0 -0.01,-0.0039 4.901175,4.901175 0 0 0 -0.0156,-0.0059 4.901175,4.901175 0 0 0 -0.0625,-0.02344 4.901175,4.901175 0 0 0 -0.0977,-0.03125 4.901175,4.901175 0 0 0 -0.17383,-0.05273 4.901175,4.901175 0 0 0 -0.004,-0.002 4.901175,4.901175 0 0 0 -0.002,0 4.901175,4.901175 0 0 0 -0.15625,-0.04297 4.901175,4.901175 0 0 0 -0.0215,-0.0059 4.901175,4.901175 0 0 0 -0.0195,-0.0039 4.901175,4.901175 0 0 0 -0.1211,-0.02734 4.901175,4.901175 0 0 0 -0.041,-0.0098 4.901175,4.901175 0 0 0 -0.082,-0.01563 4.901175,4.901175 0 0 0 -0.17188,-0.0293 4.901175,4.901175 0 0 0 -0.0117,-0.002 4.901175,4.901175 0 0 0 -0.10156,-0.01367 4.901175,4.901175 0 0 0 -0.0586,-0.0078 4.901175,4.901175 0 0 0 -0.0352,-0.0039 4.901175,4.901175 0 0 0 -0.15234,-0.01367 4.901175,4.901175 0 0 0 -0.0859,-0.0059 4.901175,4.901175 0 0 0 -0.0391,-0.002 4.901175,4.901175 0 0 0 -0.082,-0.0039 4.901175,4.901175 0 0 0 -0.0215,0 4.901175,4.901175 0 0 0 -0.14844,-0.0039 4.901175,4.901175 0 0 0 -0.0176,0 4.901175,4.901175 0 0 0 -0.16797,0.0039 4.901175,4.901175 0 0 0 -0.10547,0.0059 4.901175,4.901175 0 0 0 -0.0801,0.0039 4.901175,4.901175 0 0 0 -0.0176,0.002 4.901175,4.901175 0 0 0 -0.16797,0.01758 4.901175,4.901175 0 0 0 -0.0176,0.002 4.901175,4.901175 0 0 0 -0.16797,0.02148 4.901175,4.901175 0 0 0 -0.082,0.01367 4.901175,4.901175 0 0 0 -0.10157,0.01758 4.901175,4.901175 0 0 0 -0.0156,0.0039 4.901175,4.901175 0 0 0 -0.16602,0.03516 4.901175,4.901175 0 0 0 -0.0156,0.0039 4.901175,4.901175 0 0 0 -0.18164,0.04687 4.901175,4.901175 0 0 0 -0.16211,0.04687 4.901175,4.901175 0 0 0 -0.0156,0.0059 4.901175,4.901175 0 0 0 -0.33398,0.11914 4.901175,4.901175 0 0 0 -0.0781,0.0332 4.901175,4.901175 0 0 0 -0.0937,0.03906 4.901175,4.901175 0 0 0 -0.0156,0.0078 4.901175,4.901175 0 0 0 -0.16211,0.07617 4.901175,4.901175 0 0 0 -0.006,0.002 4.901175,4.901175 0 0 0 -0.15039,0.07813 4.901175,4.901175 0 0 0 -0.0156,0.0078 4.901175,4.901175 0 0 0 -0.14648,0.08398 4.901175,4.901175 0 0 0 -0.29492,0.1875 4.901175,4.901175 0 0 0 -0.0195,0.01367 4.901175,4.901175 0 0 0 -0.0137,0.0098 4.901175,4.901175 0 0 0 -0.15039,0.109375 4.901175,4.901175 0 0 0 -0.13281,0.103515 4.901175,4.901175 0 0 0 -0.0137,0.01172 4.901175,4.901175 0 0 0 -0.12891,0.109375 4.901175,4.901175 0 0 0 -0.0117,0.01172 4.901175,4.901175 0 0 0 -0.125,0.113281 4.901175,4.901175 0 0 0 -0.0117,0.01172 4.901175,4.901175 0 0 0 -0.12305,0.121094 4.901175,4.901175 0 0 0 -0.01,0.0098 4.901175,4.901175 0 0 0 -0.11523,0.125 4.901175,4.901175 0 0 0 -0.0547,0.0625 4.901175,4.901175 0 0 0 -0.0781,0.08984 4.901175,4.901175 0 0 0 -0.10547,0.132812 4.901175,4.901175 0 0 0 -0.0117,0.01367 4.901175,4.901175 0 0 0 -0.0996,0.134766 4.901175,4.901175 0 0 0 -0.10547,0.154297 4.901175,4.901175 0 0 0 -0.0937,0.146484 4.901175,4.901175 0 0 0 -0.006,0.01172 4.901175,4.901175 0 0 0 -0.0918,0.15625 4.901175,4.901175 0 0 0 -0.002,0.0039 4.901175,4.901175 0 0 0 -0.0488,0.0918 4.901175,4.901175 0 0 0 -0.043,0.08008 4.901175,4.901175 0 0 0 -0.004,0.0078 4.901175,4.901175 0 0 0 -0.0723,0.152344 4.901175,4.901175 0 0 0 -0.0391,0.08594 4.901175,4.901175 0 0 0 -0.0371,0.08398 4.901175,4.901175 0 0 0 -0.006,0.01563 4.901175,4.901175 0 0 0 -0.004,0.0098 4.901175,4.901175 0 0 0 -0.0859,0.226562 l -0.0332,0.09766 -11.35546,32.269531 V 37.666016 a 4.901175,4.901175 0 0 0 0,-0.01172 4.901175,4.901175 0 0 0 0,-0.02539 4.901175,4.901175 0 0 0 -0.004,-0.15039 4.901175,4.901175 0 0 0 -0.01,-0.185547 4.901175,4.901175 0 0 0 -0.0156,-0.166016 4.901175,4.901175 0 0 0 -0.002,-0.01953 4.901175,4.901175 0 0 0 -0.004,-0.03516 4.901175,4.901175 0 0 0 -0.0215,-0.148438 4.901175,4.901175 0 0 0 -0.0313,-0.183594 4.901175,4.901175 0 0 0 -0.0391,-0.18164 4.901175,4.901175 0 0 0 -0.008,-0.03516 4.901175,4.901175 0 0 0 -0.0371,-0.146485 4.901175,4.901175 0 0 0 -0.01,-0.03516 4.901175,4.901175 0 0 0 -0.043,-0.142578 4.901175,4.901175 0 0 0 -0.0527,-0.158203 4.901175,4.901175 0 0 0 -0.006,-0.01953 4.901175,4.901175 0 0 0 -0.0117,-0.0332 4.901175,4.901175 0 0 0 -0.0547,-0.140625 4.901175,4.901175 0 0 0 -0.0723,-0.169922 4.901175,4.901175 0 0 0 0,-0.002 4.901175,4.901175 0 0 0 -0.0137,-0.03125 4.901175,4.901175 0 0 0 -0.0644,-0.136719 4.901175,4.901175 0 0 0 -0.0156,-0.0332 4.901175,4.901175 0 0 0 -0.0684,-0.132812 4.901175,4.901175 0 0 0 -0.0176,-0.03125 4.901175,4.901175 0 0 0 -0.0742,-0.130859 4.901175,4.901175 0 0 0 -0.0195,-0.03125 4.901175,4.901175 0 0 0 -0.0781,-0.126954 4.901175,4.901175 0 0 0 -0.0195,-0.03125 4.901175,4.901175 0 0 0 -0.084,-0.123046 4.901175,4.901175 0 0 0 -0.0215,-0.0293 4.901175,4.901175 0 0 0 -0.0879,-0.121094 4.901175,4.901175 0 0 0 -0.0215,-0.0293 4.901175,4.901175 0 0 0 -0.0937,-0.117188 4.901175,4.901175 0 0 0 -0.0879,-0.105468 4.901175,4.901175 0 0 0 -0.0312,-0.03711 4.901175,4.901175 0 0 0 -0.0254,-0.02734 4.901175,4.901175 0 0 0 -0.10156,-0.111329 4.901175,4.901175 0 0 0 -0.0234,-0.02539 4.901175,4.901175 0 0 0 -0.10742,-0.105469 4.901175,4.901175 0 0 0 -0.0254,-0.02539 4.901175,4.901175 0 0 0 -0.0391,-0.03711 4.901175,4.901175 0 0 0 -0.0977,-0.08984 4.901175,4.901175 0 0 0 -0.11328,-0.09766 4.901175,4.901175 0 0 0 -0.0273,-0.02344 4.901175,4.901175 0 0 0 -0.11719,-0.09375 4.901175,4.901175 0 0 0 -0.0293,-0.02148 4.901175,4.901175 0 0 0 -0.12109,-0.08984 4.901175,4.901175 0 0 0 -0.0293,-0.02148 4.901175,4.901175 0 0 0 -0.12305,-0.08398 4.901175,4.901175 0 0 0 -0.0312,-0.01953 4.901175,4.901175 0 0 0 -0.12695,-0.08008 4.901175,4.901175 0 0 0 -0.0293,-0.01758 4.901175,4.901175 0 0 0 -0.13086,-0.07617 4.901175,4.901175 0 0 0 -0.0312,-0.01758 4.901175,4.901175 0 0 0 -0.13281,-0.06836 4.901175,4.901175 0 0 0 -0.0332,-0.01758 4.901175,4.901175 0 0 0 -0.13477,-0.06445 4.901175,4.901175 0 0 0 -0.0332,-0.01563 4.901175,4.901175 0 0 0 -0.13672,-0.05859 4.901175,4.901175 0 0 0 -0.0332,-0.01367 4.901175,4.901175 0 0 0 -0.14063,-0.05469 4.901175,4.901175 0 0 0 -0.0332,-0.01172 4.901175,4.901175 0 0 0 -0.0625,-0.02344 4.901175,4.901175 0 0 0 -0.0801,-0.02539 4.901175,4.901175 0 0 0 -0.0976,-0.03125 4.901175,4.901175 0 0 0 -0.0801,-0.02344 4.901175,4.901175 0 0 0 -0.0996,-0.02734 4.901175,4.901175 0 0 0 -0.0137,-0.0039 4.901175,4.901175 0 0 0 -0.12696,-0.03125 4.901175,4.901175 0 0 0 -0.0391,-0.0098 4.901175,4.901175 0 0 0 -0.082,-0.01758 4.901175,4.901175 0 0 0 -0.10156,-0.01953 4.901175,4.901175 0 0 0 -0.004,0 4.901175,4.901175 0 0 0 -0.13086,-0.02344 4.901175,4.901175 0 0 0 -0.13086,-0.01758 4.901175,4.901175 0 0 0 -0.16211,-0.01953 4.901175,4.901175 0 0 0 -0.0234,-0.002 4.901175,4.901175 0 0 0 -0.0352,-0.002 4.901175,4.901175 0 0 0 -0.15039,-0.0098 4.901175,4.901175 0 0 0 -0.15235,-0.0059 4.901175,4.901175 0 0 0 -0.0996,-0.002 4.901175,4.901175 0 0 0 -0.0371,0 z"
         id="path892" />
    </g>
    <path
       style="fill:none;stroke:#000000;stroke-width:6.965;stroke-linecap:round;stroke-linejoin:round;stroke-opacity:1;stroke-miterlimit:4;stroke-dasharray:none"
       d="m 135.10928,176.95109 10.65614,-30.66098 v 59.43255 l 20.91267,-59.43255 v 59.43255 l 20.7795,-59.43255 v 59.43255 l 20.91268,-59.43255 v 30.92737"
       id="path833" />
    <path
       style="fill:none;stroke:#000000;stroke-width:6.965;stroke-linecap:round;stroke-linejoin:round;stroke-miterlimit:4;stroke-dasharray:none;stroke-opacity:1"
       d="M -16.08064,176.95109 -5.4245,146.29011 v 59.43255 l 20.91267,-59.43255 v 59.43255 l 20.7795,-59.43255 v 59.43255 l 20.91268,-59.43255 v 30.92737"
       id="path835" />
    <path
       style="fill:none;stroke:#000000;stroke-width:5.33345;stroke-linecap:round;stroke-linejoin:round;stroke-miterlimit:4;stroke-dasharray:none;stroke-opacity:1"
       d="m 143.68997,68.104986 8.15994,-23.47865 V 90.13682 L 167.86379,44.626336 V 90.13682 l 15.9119,-45.510484 V 90.13682 l 16.01389,-45.510484 v 23.682638"
       id="path837" />
  </g>
</svg>
