<?xml version="1.0" encoding="UTF-8" standalone="no"?>
<svg
   xmlns:dc="http://purl.org/dc/elements/1.1/"
   xmlns:cc="http://creativecommons.org/ns#"
   xmlns:rdf="http://www.w3.org/1999/02/22-rdf-syntax-ns#"
   xmlns:svg="http://www.w3.org/2000/svg"
   xmlns="http://www.w3.org/2000/svg"
   xmlns:sodipodi="http://sodipodi.sourceforge.net/DTD/sodipodi-0.dtd"
   xmlns:inkscape="http://www.inkscape.org/namespaces/inkscape"
   width="83.761314mm"
   height="83.761314mm"
   viewBox="0 0 83.761314 83.761314"
   version="1.1"
   id="svg8"
   inkscape:version="1.0.2-2 (e86c870879, 2021-01-15)"
   sodipodi:docname="airlab_logo.svg">
  <defs
     id="defs2" />
  <sodipodi:namedview
     id="base"
     pagecolor="#ffffff"
     bordercolor="#666666"
     borderopacity="1.0"
     inkscape:pageopacity="0.0"
     inkscape:pageshadow="2"
     inkscape:zoom="1.979899"
     inkscape:cx="99.30453"
     inkscape:cy="229.8751"
     inkscape:document-units="mm"
     inkscape:current-layer="text889"
     inkscape:document-rotation="0"
     showgrid="false"
     fit-margin-top="0"
     fit-margin-left="0"
     fit-margin-right="0"
     fit-margin-bottom="0"
     inkscape:window-width="1920"
     inkscape:window-height="1001"
     inkscape:window-x="667"
     inkscape:window-y="1791"
     inkscape:window-maximized="1" />
  <metadata
     id="metadata5">
    <rdf:RDF>
      <cc:Work
         rdf:about="">
        <dc:format>image/svg+xml</dc:format>
        <dc:type
           rdf:resource="http://purl.org/dc/dcmitype/StillImage" />
        <dc:title />
      </cc:Work>
    </rdf:RDF>
  </metadata>
  <g
     inkscape:label="Layer 1"
     inkscape:groupmode="layer"
     id="layer1"
     transform="translate(-66.220533,-150.13125)">
    <circle
       style="fill:#ffffff;fill-opacity:1;stroke:#a9b0b7;stroke-width:1.61852;stroke-linecap:round;stroke-linejoin:round;stroke-miterlimit:4;stroke-dasharray:none;stroke-dashoffset:0;stroke-opacity:1"
       id="path1155"
       cx="108.10119"
       cy="192.0119"
       r="41.071396"
       inkscape:export-filename="C:\Users\Lenovo P1\Desktop\path1155.png"
       inkscape:export-xdpi="96"
       inkscape:export-ydpi="96" />
    <g
       aria-label="AIR
LAB"
       id="text889"
       style="font-size:23.308px;line-height:0.95;font-family:'Times New Roman';-inkscape-font-specification:'Times New Roman, ';letter-spacing:0px;fill:#004e98;fill-opacity:1;stroke-width:0.291349">
      <g
         id="g861"
         transform="matrix(0.9051827,0,0,0.9051827,10.249863,18.206051)">
        <rect
           style="fill:#ffffff;stroke:#004e97;stroke-width:3.02263;stroke-linecap:round;stroke-linejoin:round;stroke-miterlimit:4;stroke-dasharray:none;stroke-opacity:1"
           id="rect883"
           width="50.534271"
           height="50.534271"
           x="82.834053"
           y="166.74477"
           rx="0"
           ry="0" />
        <path
           d="m 102.41646,188.0252 q 0,0.20486 -0.28452,0.28452 -0.34142,0.091 -2.11684,0.091 -1.627461,0 -2.094076,-0.091 -0.386949,-0.0797 -0.489377,-0.51214 -0.386949,-1.63884 -0.603186,-1.75265 -0.182094,-0.0797 -3.05007,-0.0797 -1.934746,0 -2.059936,0.10242 -0.193474,0.1821 -0.432472,1.21776 -0.216237,0.94461 -0.52352,1.02427 -0.386949,0.091 -2.594836,0.091 -1.741271,0 -1.741271,-0.33005 0,-0.2959 2.572074,-7.27236 2.78831,-7.54551 3.027308,-8.29665 0.136571,-0.43247 0.318665,-0.43247 0.307283,0 0.944611,0.0569 0.648709,0.0569 0.967373,0.0569 0.307283,0 0.899088,-0.0341 0.603185,-0.0455 0.899088,-0.0455 0.216236,0 0.39833,0.37557 0.557662,1.19499 3.254926,8.19422 2.708641,7.04475 2.708641,7.35203 z m -8.069026,-10.36796 q -0.238998,0.50076 -0.808041,2.17374 -0.614567,1.77542 -0.614567,2.0827 0,0.20486 0.682852,0.22762 0.352807,0.0228 1.160848,0.0228 0.751136,0 0.830802,-0.1821 0.02276,-0.0569 0.02276,-0.15933 0,-0.37557 -0.523519,-2.07131 -0.512139,-1.63885 -0.751137,-2.09408 z"
           style="font-style:normal;font-variant:normal;font-weight:bold;font-stretch:normal;font-size:23.308px;font-family:'Berlin Sans FB Demi';-inkscape-font-specification:'Berlin Sans FB Demi Bold';letter-spacing:2.00448px;fill:#004e98;fill-opacity:1;stroke-width:0.291349"
           id="path840" />
        <path
           d="m 110.20242,179.89927 q 0,1.34294 0.0683,4.0402 0.0683,2.69727 0.0683,4.04021 0,0.22762 -0.10243,0.28452 -0.0228,0.0114 -0.2959,0.0455 -0.73976,0.091 -1.98027,0.091 -1.6616,0 -2.11684,-0.091 -0.33004,-0.0683 -0.33004,-0.3528 0,0.18209 0.10242,-2.00304 0.20486,-4.60924 0.20486,-6.05461 0,-1.21775 -0.0797,-3.65326 -0.0797,-2.4355 -0.0797,-3.65325 0,-0.25038 0.26176,-0.25038 0.3528,0 1.05842,0.0341 0.71699,0.0341 1.0698,0.0341 0.3528,0 1.03566,-0.0341 0.69423,-0.0341 1.04703,-0.0341 0.33005,0 0.33005,0.25038 0,1.21775 -0.13657,3.65325 -0.12519,2.43551 -0.12519,3.65326 z"
           style="font-style:normal;font-variant:normal;font-weight:bold;font-stretch:normal;font-size:23.308px;font-family:'Berlin Sans FB Demi';-inkscape-font-specification:'Berlin Sans FB Demi Bold';letter-spacing:2.00448px;fill:#004e98;fill-opacity:1;stroke-width:0.291349"
           id="path842" />
        <path
           d="m 128.09458,188.19591 q 0,0.0797 -0.22762,0.11381 -0.43247,0.0683 -2.17374,0.0683 -1.49089,0 -2.02579,-0.0683 -0.25038,-0.0341 -0.28453,-0.0569 -0.0683,-0.0341 -0.15933,-0.22762 -0.17071,-0.44385 -0.50076,-1.32018 -0.44385,-1.13808 -1.38846,-3.35735 -0.20486,-0.44386 -0.94461,-0.48938 0.34142,0.0228 -1.17223,0.0228 -0.17071,0 -0.17071,0.58043 0,0.7739 0.13657,2.31031 0.14795,1.53642 0.14795,2.31032 0,0.19347 -0.10243,0.22761 -0.15933,0.0114 -0.31866,0.0228 -0.67147,0.0455 -2.09408,0.0455 -1.62747,0 -1.95751,-0.0683 -0.33004,-0.0683 -0.33004,-0.3528 0,-1.2519 0.1138,-3.77845 0.12519,-2.52655 0.12519,-3.78983 0,-4.8141 -0.21623,-7.51136 l -0.0114,-0.15933 q -0.0114,-0.19348 0.3528,-0.26176 0.37557,-0.0683 3.48255,-0.13657 2.10545,-0.0455 3.35735,-0.0455 2.59484,0 4.23368,1.17223 1.85508,1.32018 1.85508,3.81259 0,1.6616 -0.478,2.65174 -0.47799,0.99013 -1.76403,1.92336 -0.26176,0.1821 -0.26176,0.34143 0,-0.0114 1.38846,2.8566 1.38847,2.86797 1.38847,3.16387 z m -4.77996,-10.20863 q 0,-1.38846 -0.91047,-1.92336 -0.70561,-0.40971 -2.20789,-0.40971 -1.08118,0 -1.14946,0.33004 -0.0683,0.38695 -0.0683,2.23065 0,0.26176 0.0114,0.7739 0.0114,0.51214 0.0114,0.76252 0,0.0569 0.36419,0.11381 0.69423,0.10242 1.45675,0.10242 2.49241,0 2.49241,-1.98027 z"
           style="font-style:normal;font-variant:normal;font-weight:bold;font-stretch:normal;font-size:23.308px;font-family:'Berlin Sans FB Demi';-inkscape-font-specification:'Berlin Sans FB Demi Bold';letter-spacing:2.00448px;fill:#004e98;fill-opacity:1;stroke-width:0.291349"
           id="path844" />
        <path
           d="m 97.864119,211.95456 q -0.978753,0 -2.549312,-0.0455 -2.048555,-0.0455 -2.549313,-0.0569 l -3.402877,-0.0455 q -0.512138,0.0114 -1.468131,-0.0455 -0.330045,-0.0569 -0.330045,-0.35281 0,-1.24051 0.03414,-3.71016 0.04552,-2.48103 0.04552,-3.72154 0,-1.32018 -0.07967,-3.94916 -0.07967,-2.64036 -0.07967,-3.96054 0,-0.25038 0.341426,-0.25038 0.341426,0 1.012897,0.0341 0.682851,0.0342 1.012896,0.0342 0.375569,0 1.115325,-0.0342 0.739755,-0.0455 1.115324,-0.0455 0.170713,0 0.159332,0.21624 l -0.01138,0.14795 q -0.13657,2.1396 -0.307283,6.43018 l -0.01138,3.00455 q 0,1.45675 0.01138,2.12822 0.01138,0.13657 0.02276,0.27314 0.01138,0.13657 0.170713,0.17071 0.01138,0 0.295903,0 1.024277,0 3.061451,-0.10242 2.048555,-0.11381 3.072832,-0.11381 0.307283,0 0.307283,0.26176 0,1.94613 -0.284521,3.35735 -0.05691,0.2959 -0.238998,0.35281 -0.05691,0.0228 -0.466616,0.0228 z"
           style="font-style:normal;font-variant:normal;font-weight:bold;font-stretch:normal;font-size:23.308px;font-family:'Berlin Sans FB Demi';-inkscape-font-specification:'Berlin Sans FB Demi Bold';fill:#004e98;fill-opacity:1;stroke-width:0.291349"
           id="path846" />
        <path
           d="m 115.16303,211.47656 q 0,0.20486 -0.28453,0.28453 -0.34142,0.091 -2.11684,0.091 -1.62746,0 -2.09407,-0.091 -0.38695,-0.0797 -0.48938,-0.51214 -0.38695,-1.63885 -0.60319,-1.75266 -0.18209,-0.0797 -3.05007,-0.0797 -1.93474,0 -2.05993,0.10243 -0.19348,0.18209 -0.43247,1.21775 -0.21624,0.94461 -0.52352,1.02428 -0.38695,0.091 -2.59484,0.091 -1.741272,0 -1.741272,-0.33004 0,-0.2959 2.572072,-7.27237 2.78831,-7.54551 3.02731,-8.29665 0.13657,-0.43247 0.31867,-0.43247 0.30728,0 0.94461,0.0569 0.64871,0.0569 0.96737,0.0569 0.30728,0 0.89909,-0.0341 0.60318,-0.0455 0.89909,-0.0455 0.21623,0 0.39833,0.37557 0.55766,1.19499 3.25492,8.19422 2.70865,7.04475 2.70865,7.35203 z M 107.094,201.1086 q -0.239,0.50076 -0.80804,2.17375 -0.61457,1.77541 -0.61457,2.08269 0,0.20486 0.68285,0.22762 0.35281,0.0228 1.16085,0.0228 0.75114,0 0.8308,-0.18209 0.0228,-0.0569 0.0228,-0.15933 0,-0.37557 -0.52352,-2.07132 -0.51214,-1.63884 -0.75113,-2.09408 z"
           style="font-style:normal;font-variant:normal;font-weight:bold;font-stretch:normal;font-size:23.308px;font-family:'Berlin Sans FB Demi';-inkscape-font-specification:'Berlin Sans FB Demi Bold';fill:#004e98;fill-opacity:1;stroke-width:0.291349"
           id="path848" />
        <path
           d="m 129.77605,206.84455 q 0,2.09408 -1.3088,3.47117 -1.49089,1.58194 -5.23519,1.58194 -0.28453,0 -0.81943,-0.0114 -0.54628,0 -0.80804,0 -4.19953,0 -4.99619,-0.17072 -0.33005,-0.0683 -0.33005,-0.3528 0,-1.21776 0.13657,-3.6874 0.14795,-2.46965 0.14795,-3.69878 0,-1.32018 -0.13657,-4.96206 -0.0341,-0.93323 -0.12519,-2.79969 l -0.0114,-0.15933 q -0.0114,-0.21624 0.35281,-0.26176 0.37557,-0.0455 2.64036,-0.0455 3.63049,0 4.24506,0.0228 2.79969,0.10243 4.13125,0.91047 1.76403,1.08118 1.76403,3.65325 0,0.67147 -0.40971,1.42261 -0.2959,0.5349 -0.7739,1.0698 -0.42109,0.46662 -0.42109,0.43247 0,0.0797 0.2959,0.25038 0.79666,0.45524 1.2519,1.44537 0.40971,0.88771 0.40971,1.88922 z m -4.89377,-6.40742 q 0,-0.97875 -0.97875,-1.29742 -0.54629,-0.17071 -1.79818,-0.17071 -1.22913,0 -1.22913,0.18209 0,0.21624 -0.0455,0.66009 -0.0341,0.43248 -0.0341,0.64871 0,1.13809 0.19348,1.27466 0.12519,0.10243 1.44537,0.10243 2.44688,0 2.44688,-1.39985 z m 0.34143,6.3619 q 0,-1.02428 -0.85357,-1.38846 -0.54628,-0.22762 -1.77541,-0.22762 -1.46813,0 -1.59332,0.11381 -0.12519,0.10243 -0.12519,1.38846 0,1.34294 0.14795,1.49089 0.14795,0.13658 1.63884,0.13658 1.22914,0 1.72989,-0.19348 0.83081,-0.33004 0.83081,-1.32018 z"
           style="font-style:normal;font-variant:normal;font-weight:bold;font-stretch:normal;font-size:23.308px;font-family:'Berlin Sans FB Demi';-inkscape-font-specification:'Berlin Sans FB Demi Bold';fill:#004e98;fill-opacity:1;stroke-width:0.291349"
           id="path850" />
      </g>
    </g>
  </g>
</svg>
