<?xml version="1.0" encoding="UTF-8" standalone="no"?>
<svg
   xmlns:dc="http://purl.org/dc/elements/1.1/"
   xmlns:cc="http://creativecommons.org/ns#"
   xmlns:rdf="http://www.w3.org/1999/02/22-rdf-syntax-ns#"
   xmlns:svg="http://www.w3.org/2000/svg"
   xmlns="http://www.w3.org/2000/svg"
   xmlns:sodipodi="http://sodipodi.sourceforge.net/DTD/sodipodi-0.dtd"
   xmlns:inkscape="http://www.inkscape.org/namespaces/inkscape"
   id="svg2"
   version="1.1"
   inkscape:version="1.0.2-2 (e86c870879, 2021-01-15)"
   width="316.57819"
   height="316.57819"
   xml:space="preserve"
   sodipodi:docname="Cadence_Logo.svg"><metadata
     id="metadata8"><rdf:RDF><cc:Work
         rdf:about=""><dc:format>image/svg+xml</dc:format><dc:type
           rdf:resource="http://purl.org/dc/dcmitype/StillImage" /><dc:title></dc:title></cc:Work></rdf:RDF></metadata><defs
     id="defs6"><inkscape:perspective
       sodipodi:type="inkscape:persp3d"
       inkscape:vp_x="0 : 235.07819 : 1"
       inkscape:vp_y="0 : 1000 : 0"
       inkscape:vp_z="1 : 235.07819 : 1"
       inkscape:persp3d-origin="0.5 : 234.91152 : 1"
       id="perspective10" /><clipPath
       clipPathUnits="userSpaceOnUse"
       id="clipPath20"><path
         d="M 0,792 H 612 V 0 H 0 Z"
         id="path22" /></clipPath><clipPath
       clipPathUnits="userSpaceOnUse"
       id="clipPath38"><path
         d="M 0,792 H 612 V 0 H 0 Z"
         id="path40" /></clipPath><linearGradient
       x1="0"
       y1="0"
       x2="1"
       y2="0"
       gradientUnits="userSpaceOnUse"
       gradientTransform="matrix(395.01834,0,0,-395.01834,179.49136,622.29666)"
       spreadMethod="pad"
       id="linearGradient58"><stop
         style="stop-opacity:1;stop-color:#99c6c6"
         offset="0"
         id="stop60" /><stop
         style="stop-opacity:1;stop-color:#479295"
         offset="1"
         id="stop62" /></linearGradient><clipPath
       clipPathUnits="userSpaceOnUse"
       id="clipPath72"><path
         d="M 406.773,34.226 H 517.157 V 55 H 406.773 Z"
         id="path74" /></clipPath></defs><sodipodi:namedview
     pagecolor="#ffffff"
     bordercolor="#666666"
     borderopacity="1"
     objecttolerance="10"
     gridtolerance="10"
     guidetolerance="10"
     inkscape:pageopacity="0"
     inkscape:pageshadow="2"
     inkscape:window-width="3200"
     inkscape:window-height="1721"
     id="namedview4"
     showgrid="false"
     inkscape:zoom="1.3485027"
     inkscape:cx="222.88614"
     inkscape:cy="-120.92962"
     inkscape:window-x="-9"
     inkscape:window-y="-9"
     inkscape:window-maximized="1"
     inkscape:current-layer="g12"
     inkscape:document-rotation="0"
     fit-margin-top="0"
     fit-margin-left="0"
     fit-margin-right="0"
     fit-margin-bottom="0" /><g
     id="g12"
     inkscape:groupmode="layer"
     inkscape:label="Cadence"
     transform="matrix(1.25,0,0,-1.25,-168.15149,-12.070709)"><circle
       style="fill:#ffffff;fill-opacity:1;stroke:#a9b0b7;stroke-width:4.89379;stroke-linecap:round;stroke-linejoin:round;stroke-miterlimit:4;stroke-dasharray:none;stroke-dashoffset:0;stroke-opacity:1"
       id="path1155"
       cx="261.15247"
       cy="136.28784"
       r="124.18438"
       inkscape:export-filename="C:\Users\Lenovo P1\Desktop\path1155.png"
       inkscape:export-xdpi="96"
       inkscape:export-ydpi="96"
       transform="scale(1,-1)" /><g
       id="g3381"
       transform="matrix(2.0501626,0,0,2.0501626,-680.20368,-227.75164)"><path
         d="m 430.253,55 h -8.412 v -2.315 h 8.412 z"
         style="fill:#e51636;fill-opacity:1;fill-rule:nonzero;stroke:none"
         id="path66" /><path
         id="path78"
         style="fill:#231f20;fill-opacity:1;fill-rule:nonzero;stroke:none"
         d="m 414.8307,34.7029 c -0.449,-0.238 -1.248,-0.477 -2.322,-0.477 -3.446,0 -5.736,2.55 -5.736,7.32 0,4.343 2.405,7.607 6.25,7.607 0.857,0 1.412,-0.208 1.808,-0.419 v -2.526 c -0.313,0.128 -1.046,0.325 -1.745,0.325 -2.071,0 -3.138,-2.254 -3.138,-4.924 0,-2.967 1.195,-4.775 3.14,-4.775 0.586,0 1.278,0.115 1.743,0.345 v -2.476" /><path
         id="path82"
         style="fill:#231f20;fill-opacity:1;fill-rule:nonzero;stroke:none"
         d="m 430.2498,37.9283 c 0,-1.127 0.069,-2.56 0.223,-3.522 h -6.222 c -2.081,0 -3.649,1.725 -3.649,4.271 0,3.728 3.15,5.305 6.433,5.333 v 0.256 c 0,1.514 -0.592,2.575 -2.168,2.575 -1.037,0 -2.224,-0.304 -3.01,-0.804 v 2.171 c 0.715,0.451 1.934,1.038 3.701,1.038 3.737,0 4.692,-2.43 4.692,-5.518 v -5.8 m -3.133,-1.156 0.004,5.12 c -1.239,-0.019 -3.483,-0.362 -3.483,-2.888 0,-1.638 0.873,-2.23 1.57,-2.23 z" /><path
         id="path86"
         style="fill:#231f20;fill-opacity:1;fill-rule:nonzero;stroke:none"
         d="m 447.4129,37.9192 -0.007,15.598 h -3.164 v -5.825 h -0.061 c -0.462,1.002 -1.34,1.577 -2.537,1.577 -2.344,0 -4.533,-2.444 -4.533,-7.535 0,-4.373 1.577,-7.334 4.383,-7.334 l 6.141,-0.004 c -0.154,0.964 -0.222,2.396 -0.222,3.523 m -3.171,-1.138 h -1.851 c -1.335,0 -2.107,2.013 -2.107,4.911 0,2.594 0.575,4.883 2.184,4.883 0.938,0 1.592,-1.031 1.728,-2.197 0.046,-0.294 0.046,-0.619 0.046,-0.895 z" /><path
         id="path90"
         style="fill:#231f20;fill-opacity:1;fill-rule:nonzero;stroke:none"
         d="m 457.3445,40.8231 c 0.033,-3.243 1.539,-4.123 3.234,-4.123 1.061,0 2.182,0.237 2.828,0.514 v -2.289 c -0.907,-0.427 -2.08,-0.682 -3.405,-0.682 -3.741,0 -5.749,2.712 -5.749,7.205 0,4.8 2.3,7.721 5.399,7.721 3.05,0 4.591,-2.756 4.591,-6.647 0,-0.827 -0.039,-1.293 -0.086,-1.695 l -6.812,-0.004 m 3.948,2.263 c 0.024,2.328 -0.739,3.713 -1.867,3.713 -1.383,0 -2.005,-2.011 -2.068,-3.713 z" /><path
         id="path94"
         style="fill:#231f20;fill-opacity:1;fill-rule:nonzero;stroke:none"
         d="m 474.307,46.4767 v -12.071 h -3.181 v 10.421 c 0,1.638 -0.084,2.922 -0.132,4.207 h 6.267 c 2.422,0 3.859,-1.759 3.859,-5.123 v -9.505 h -3.181 v 9.201 c 0,1.45 -0.305,2.868 -1.694,2.868 l -1.938,0.002" /><path
         id="path98"
         style="fill:#231f20;fill-opacity:1;fill-rule:nonzero;stroke:none"
         d="m 495.9317,34.7029 c -0.449,-0.238 -1.254,-0.477 -2.325,-0.477 -3.446,0 -5.733,2.55 -5.733,7.32 0,4.343 2.403,7.607 6.248,7.607 0.855,0 1.412,-0.208 1.81,-0.419 v -2.526 c -0.317,0.128 -1.049,0.325 -1.749,0.325 -2.069,0 -3.134,-2.255 -3.134,-4.924 0,-2.967 1.193,-4.775 3.136,-4.775 0.589,0 1.279,0.115 1.747,0.345 v -2.476" /><path
         id="path102"
         style="fill:#231f20;fill-opacity:1;fill-rule:nonzero;stroke:none"
         d="m 511.5507,42.5225 c 0,3.891 -1.538,6.647 -4.589,6.647 -3.098,0 -5.4,-2.922 -5.4,-7.721 0,-4.493 2.01,-7.205 5.75,-7.205 1.328,0 2.502,0.255 3.406,0.681 v 2.29 c -0.647,-0.277 -1.769,-0.515 -2.829,-0.515 -1.694,0 -3.2,0.88 -3.233,4.124 l 6.813,0.003 c 0.05,0.403 0.082,0.869 0.082,1.696 m -6.883,0.564 c 0.065,1.702 0.689,3.712 2.068,3.712 1.127,0 1.895,-1.384 1.87,-3.712 z" /></g></g></svg>
