<?xml version="1.0" encoding="UTF-8" standalone="no"?>
<svg
   xmlns:dc="http://purl.org/dc/elements/1.1/"
   xmlns:cc="http://creativecommons.org/ns#"
   xmlns:rdf="http://www.w3.org/1999/02/22-rdf-syntax-ns#"
   xmlns:svg="http://www.w3.org/2000/svg"
   xmlns="http://www.w3.org/2000/svg"
   xmlns:sodipodi="http://sodipodi.sourceforge.net/DTD/sodipodi-0.dtd"
   xmlns:inkscape="http://www.inkscape.org/namespaces/inkscape"
   width="83.761314mm"
   height="83.761314mm"
   viewBox="0 0 83.761314 83.761314"
   version="1.1"
   id="svg8"
   inkscape:version="1.0.2-2 (e86c870879, 2021-01-15)"
   sodipodi:docname="icas_logo.svg">
  <defs
     id="defs2">
    <clipPath
       clipPathUnits="userSpaceOnUse"
       id="clipPath131">
      <path
         d="m 728.566,2201.7 h 532.814 v -625 H 728.566 Z"
         id="path129" />
    </clipPath>
    <clipPath
       clipPathUnits="userSpaceOnUse"
       id="clipPath131-9">
      <path
         d="m 728.566,2201.7 h 532.814 v -625 H 728.566 Z"
         id="path129-4" />
    </clipPath>
  </defs>
  <sodipodi:namedview
     id="base"
     pagecolor="#ffffff"
     bordercolor="#666666"
     borderopacity="1.0"
     inkscape:pageopacity="0.0"
     inkscape:pageshadow="2"
     inkscape:zoom="1.3714629"
     inkscape:cx="155.64"
     inkscape:cy="197.83208"
     inkscape:document-units="mm"
     inkscape:current-layer="layer1"
     inkscape:document-rotation="0"
     showgrid="false"
     fit-margin-top="0"
     fit-margin-left="0"
     fit-margin-right="0"
     fit-margin-bottom="0"
     inkscape:window-width="1920"
     inkscape:window-height="1001"
     inkscape:window-x="-9"
     inkscape:window-y="-9"
     inkscape:window-maximized="1" />
  <metadata
     id="metadata5">
    <rdf:RDF>
      <cc:Work
         rdf:about="">
        <dc:format>image/svg+xml</dc:format>
        <dc:type
           rdf:resource="http://purl.org/dc/dcmitype/StillImage" />
        <dc:title />
      </cc:Work>
    </rdf:RDF>
  </metadata>
  <g
     inkscape:label="Layer 1"
     inkscape:groupmode="layer"
     id="layer1"
     transform="translate(402.59898,-107.63984)">
    <circle
       style="fill:#ffffff;fill-opacity:1;stroke:none;stroke-width:1.61852;stroke-linecap:round;stroke-linejoin:round;stroke-miterlimit:4;stroke-dasharray:none;stroke-dashoffset:0;stroke-opacity:1"
       id="circle1152"
       cx="-360.71835"
       cy="149.52049"
       r="41.071396"
       inkscape:export-filename="C:\Users\Lenovo P1\Desktop\path1155.png"
       inkscape:export-xdpi="96"
       inkscape:export-ydpi="96" />
    <circle
       style="fill:none;fill-opacity:1;stroke:#a9b0b7;stroke-width:1.61852;stroke-linecap:round;stroke-linejoin:round;stroke-miterlimit:4;stroke-dasharray:none;stroke-dashoffset:0;stroke-opacity:1"
       id="path1155"
       cx="-360.71832"
       cy="149.52049"
       r="41.071396"
       inkscape:export-filename="C:\Users\Lenovo P1\Desktop\path1155.png"
       inkscape:export-xdpi="96"
       inkscape:export-ydpi="96" />
    <g
       id="g1304"
       transform="translate(93.200118)">
      <g
         id="g1221"
         transform="matrix(0.72951081,0,0,0.72951081,-67.202187,37.59854)"
         style="opacity:1">
        <path
           d="m -501.58491,176.11745 h -55.54056 v -44.36181 h 55.54056 v 44.36181"
           style="fill:#1f515f;fill-opacity:1;fill-rule:nonzero;stroke:none;stroke-width:0.0352778"
           id="path59" />
        <path
           d="m -520.83317,109.71585 0.63535,-0.0833 0.6357,0.0833 0.59232,0.24483 0.50906,0.39087 0.39087,0.50906 0.24483,0.59232 0.0861,0.63852 -0.0861,0.63571 -0.24483,0.59196 -0.39087,0.50941 -0.50906,0.39088 -0.59232,0.24447 -0.22719,0.0314 h -0.81668 l -0.22718,-0.0314 -0.59514,-0.24447 -0.50941,-0.39088 -0.39088,-0.50941 -0.24412,-0.59196 -0.0836,-0.63571 0.0836,-0.63852 0.24412,-0.59232 0.39088,-0.50906 0.50941,-0.39087 0.59514,-0.24483"
           style="fill:#1f515f;fill-opacity:1;fill-rule:nonzero;stroke:none;stroke-width:0.0352778"
           id="path61" />
        <path
           d="m -550.88709,112.17471 0.63525,-0.0833 0.6357,0.0833 0.59531,0.24483 0.50878,0.39088 0.38834,0.5087 0.24733,0.59267 0.0834,0.6357 -0.0834,0.63818 -0.24733,0.59231 -0.38834,0.50906 -0.50878,0.39123 -0.59531,0.24412 -0.22708,0.0289 h -0.81679 l -0.22708,-0.0289 -0.59256,-0.24412 -0.50878,-0.39123 -0.39137,-0.50906 -0.24737,-0.59231 -0.0834,-0.63818 0.0834,-0.6357 0.24737,-0.59267 0.39137,-0.5087 0.50878,-0.39088 0.59256,-0.24483"
           style="fill:#1f515f;fill-opacity:1;fill-rule:nonzero;stroke:none;stroke-width:0.0352778"
           id="path63" />
        <path
           d="m -532.85655,112.17471 0.63571,-0.0833 0.63853,0.0833 0.59196,0.24483 0.50941,0.39088 0.39088,0.5087 0.24412,0.59267 0.084,0.6357 -0.084,0.63818 -0.24412,0.59231 -0.39088,0.50906 -0.50941,0.39123 -0.59196,0.24412 -0.22755,0.0289 h -0.8195 l -0.22719,-0.0289 -0.59266,-0.24412 -0.50871,-0.39123 -0.39088,-0.50906 -0.24483,-0.59231 -0.0833,-0.63818 0.0833,-0.6357 0.24483,-0.59267 0.39088,-0.5087 0.50871,-0.39088 0.59266,-0.24483"
           style="fill:#1f515f;fill-opacity:1;fill-rule:nonzero;stroke:none;stroke-width:0.0352778"
           id="path65" />
        <path
           d="m -520.60599,114.1425 h 0.81668 v 13.3664 l 0.0861,0.0116 0.46038,0.1898 0.39687,0.30445 0.30163,0.3944 0.19261,0.46285 0.0635,0.49494 v 2.31176 h 2.18829 v -2.31176 l 0.0663,-0.49494 0.18979,-0.46285 0.3048,-0.3944 0.39688,-0.30445 0.46037,-0.1898 0.0861,-0.0116 v -8.50371 h 0.81668 v 8.50371 l 0.0861,0.0116 0.46037,0.1898 0.39653,0.30445 0.3048,0.3944 0.19014,0.46285 0.0631,0.49494 v 2.31176 h 2.1911 v -2.31176 l 0.0635,-0.49494 0.19262,-0.46285 0.30198,-0.3944 0.39687,-0.30445 0.46002,-0.1898 0.0864,-0.0116 v -3.64031 h 0.81632 v 3.64031 l 0.0868,0.0116 0.45967,0.1898 0.39687,0.30445 0.30515,0.3944 0.1898,0.46285 0.066,0.49494 v 2.31176 h 4.81683 v 5.24227 h 2.31492 l 0.4946,0.0663 0.46002,0.18979 0.39688,0.3048 0.30197,0.3937 0.19262,0.4632 0.0116,0.0861 h 1.81469 v 0.81668 h -1.81469 l -0.0116,0.0864 -0.19262,0.46002 -0.30197,0.39687 -0.39688,0.30198 -0.46002,0.19262 -0.4946,0.0632 h -2.31492 v 2.19145 h 2.31492 l 0.4946,0.0635 0.46002,0.1898 0.39688,0.30444 0.30197,0.39688 0.19262,0.46037 0.0116,0.0861 h 11.99727 v 0.81668 h -11.99727 l -0.0116,0.0864 -0.19262,0.46002 -0.30197,0.39688 -0.39688,0.30515 -0.46002,0.1898 -0.4946,0.066 h -2.31492 v 2.18828 h 2.31492 l 0.4946,0.0631 0.46002,0.19297 0.39688,0.30163 0.30197,0.39687 0.19262,0.46038 0.0116,0.0861 h 4.02625 v 0.81703 h -4.02625 l -0.0116,0.0861 -0.19262,0.46002 -0.30197,0.39688 -0.39688,0.3048 -0.46002,0.18979 -0.4946,0.066 h -2.31492 v 2.18863 h 2.31492 l 0.4946,0.0632 0.46002,0.19297 0.39688,0.30162 0.30197,0.39688 0.19262,0.46037 0.0116,0.0861 h 9.26254 v 0.81704 h -9.26254 l -0.0116,0.0861 -0.19262,0.46285 -0.30197,0.39405 -0.39688,0.3048 -0.46002,0.18979 -0.4946,0.066 h -2.31492 v 2.18864 h 2.31492 l 0.4946,0.0631 0.46002,0.19261 0.39688,0.3048 0.30197,0.39405 0.19262,0.46003 0.0116,0.0864 h 11.99727 v 0.81668 h -11.99727 l -0.0116,0.0864 -0.19262,0.46284 -0.30197,0.39406 -0.39688,0.3048 -0.46002,0.18979 -0.4946,0.066 h -2.31492 v 2.18863 h 2.31492 l 0.4946,0.066 0.46002,0.1898 0.39688,0.3048 0.30197,0.3944 0.19262,0.46285 0.0116,0.0861 h 4.02625 v 0.81703 h -4.02625 l -0.0116,0.0861 -0.19262,0.46037 -0.30197,0.3937 -0.39688,0.3048 -0.46002,0.1898 -0.4946,0.0663 h -2.31492 v 5.24228 h -4.81683 v 2.31457 l -0.066,0.49495 -0.1898,0.46002 -0.30515,0.39688 -0.39687,0.30197 -0.45967,0.19262 -0.0868,0.0116 h -0.81632 l -0.0864,-0.0116 -0.46002,-0.19262 -0.39687,-0.30197 -0.30198,-0.39688 -0.19262,-0.46002 -0.0635,-0.49495 v -2.31457 h -2.1911 v 2.31457 l -0.0631,0.49495 -0.19014,0.46002 -0.3048,0.39688 -0.39653,0.30197 -0.46037,0.19262 -0.0861,0.0116 h -0.81668 l -0.0861,-0.0116 -0.46037,-0.19262 -0.39688,-0.30197 -0.3048,-0.39688 -0.18979,-0.46002 -0.0663,-0.49495 v -2.31457 h -2.18829 v 2.31457 l -0.0635,0.49495 -0.19261,0.46002 -0.30163,0.39688 -0.39687,0.30197 -0.46038,0.19262 -0.0861,0.0116 h -0.81668 l -0.0861,-0.0116 -0.46038,-0.19262 -0.39687,-0.30197 -0.3048,-0.39688 -0.18945,-0.46002 -0.0663,-0.49495 v -2.31457 h -2.18863 v 2.31457 l -0.0632,0.49495 -0.19297,0.46002 -0.30162,0.39688 -0.39688,0.30197 -0.46037,0.19262 -0.0861,0.0116 h -0.81668 l -0.0861,-0.0116 -0.4632,-0.19262 -0.3937,-0.30197 -0.3048,-0.39688 -0.19014,-0.46002 -0.066,-0.49495 v -2.31457 h -2.18828 v 2.31457 l -0.0663,0.49495 -0.18979,0.46002 -0.3048,0.39688 -0.39405,0.30197 -0.4632,0.19262 -0.0833,0.0116 h -0.8195 l -0.0861,-0.0116 -0.46037,-0.19262 -0.3937,-0.30197 -0.30515,-0.39688 -0.1898,-0.46002 -0.066,-0.49495 v -2.31457 h -2.18828 v 2.31457 l -0.0663,0.49495 -0.1898,0.46002 -0.3048,0.39688 -0.39405,0.30197 -0.46284,0.19262 -0.0864,0.0116 h -0.81633 l -0.0868,-0.0116 -0.45967,-0.19262 -0.39688,-0.30197 -0.30233,-0.39688 -0.19262,-0.46002 -0.0631,-0.49495 v -2.31457 h -2.18828 v 2.31457 l -0.0663,0.49495 -0.18979,0.46002 -0.3048,0.39688 -0.39688,0.30197 -0.46002,0.19262 -0.0864,0.0116 h -0.81647 l -0.0865,-0.0116 -0.45985,-0.19262 -0.39688,-0.30197 -0.30218,-0.39688 -0.19252,-0.46002 -0.0634,-0.49495 v -2.31457 h -2.18835 v 2.31457 l -0.0661,0.49495 -0.18986,0.46002 -0.30484,0.39688 -0.39659,0.30197 -0.46027,0.19262 -0.0861,0.0116 h -0.81679 l -0.0861,-0.0116 -0.46027,-0.19262 -0.39688,-0.30197 -0.3018,-0.39688 -0.19293,-0.46002 -0.0631,-0.49495 v -2.31457 h -4.81969 v -5.24228 h -2.3151 l -0.49428,-0.0663 -0.46027,-0.1898 -0.39687,-0.3048 -0.30181,-0.3937 -0.19293,-0.46037 -0.0114,-0.0861 v -0.81703 l 0.0114,-0.0861 0.19293,-0.46285 0.30181,-0.3944 0.39687,-0.3048 0.46027,-0.1898 0.49428,-0.066 h 2.3151 v -2.18863 h -2.3151 l -0.49428,-0.066 -0.46027,-0.18979 -0.39687,-0.3048 -0.30181,-0.39406 -0.19293,-0.46284 -0.0114,-0.0864 v -0.81668 l 0.0114,-0.0864 0.19293,-0.46003 0.30181,-0.39405 0.39687,-0.3048 0.46027,-0.19261 0.49428,-0.0631 h 2.3151 v -2.18864 h -2.3151 l -0.49428,-0.066 -0.46027,-0.18979 -0.39687,-0.3048 -0.30181,-0.39405 -0.19293,-0.46285 -0.0114,-0.0861 v -0.81704 l 0.0114,-0.0861 0.19293,-0.46037 0.30181,-0.39688 0.39687,-0.30162 0.46027,-0.19297 0.49428,-0.0632 h 2.3151 v -2.18863 h -2.3151 l -0.49428,-0.066 -0.46027,-0.18979 -0.39687,-0.3048 -0.30181,-0.39688 -0.19293,-0.46002 -0.0114,-0.0861 v -0.81703 l 0.0114,-0.0861 0.19293,-0.46038 0.30181,-0.39687 0.39687,-0.30163 0.46027,-0.19297 0.49428,-0.0631 h 2.3151 v -2.18828 h -2.3151 l -0.49428,-0.066 -0.46027,-0.1898 -0.39687,-0.30515 -0.30181,-0.39688 -0.19293,-0.46002 -0.0114,-0.0864 v -0.81668 l 0.0114,-0.0861 0.19293,-0.46037 0.30181,-0.39688 0.39687,-0.30444 0.46027,-0.1898 0.49428,-0.0635 h 2.3151 v -2.19145 h -2.3151 l -0.49428,-0.0632 -0.46027,-0.19262 -0.39687,-0.30198 -0.30181,-0.39687 -0.19293,-0.46002 -0.0114,-0.0864 v -0.81668 l 0.0114,-0.0861 0.19293,-0.4632 0.30181,-0.3937 0.39687,-0.3048 0.46027,-0.18979 0.49428,-0.0663 h 2.3151 v -5.24227 h 4.81969 v -2.31176 l 0.0631,-0.49494 0.19293,-0.46285 0.3018,-0.3944 0.39688,-0.30445 0.46027,-0.1898 0.0861,-0.0116 v -10.91036 h 0.81679 v 10.91036 l 0.0861,0.0116 0.46027,0.1898 0.39659,0.30445 0.30484,0.3944 0.18986,0.46285 0.0661,0.49494 v 2.31176 h 2.18835 v -2.31176 l 0.0634,-0.49494 0.19252,-0.46285 0.30218,-0.3944 0.39688,-0.30445 0.45985,-0.1898 0.0865,-0.0116 v -6.04731 h 0.81647 v 6.04731 l 0.0864,0.0116 0.46002,0.1898 0.39688,0.30445 0.3048,0.3944 0.18979,0.46285 0.0663,0.49494 v 2.31176 h 2.18828 v -2.31176 l 0.0631,-0.49494 0.19262,-0.46285 0.30233,-0.3944 0.39688,-0.30445 0.45967,-0.1898 0.0868,-0.0116 v -1.18463 h 0.81633 v 1.18463 l 0.0864,0.0116 0.46284,0.1898 0.39405,0.30445 0.3048,0.3944 0.1898,0.46285 0.0663,0.49494 v 2.31176 h 2.18828 v -2.31176 l 0.066,-0.49494 0.1898,-0.46285 0.30515,-0.3944 0.3937,-0.30445 0.46037,-0.1898 0.0861,-0.0116 v -10.91036 h 0.8195 v 10.91036 l 0.0833,0.0116 0.4632,0.1898 0.39405,0.30445 0.3048,0.3944 0.18979,0.46285 0.0663,0.49494 v 2.31176 h 2.18828 v -2.31176 l 0.066,-0.49494 0.19014,-0.46285 0.3048,-0.3944 0.3937,-0.30445 0.4632,-0.1898 0.0861,-0.0116 v -6.04731 h 0.81668 v 6.04731 l 0.0861,0.0116 0.46037,0.1898 0.39688,0.30445 0.30162,0.3944 0.19297,0.46285 0.0632,0.49494 v 2.31176 h 2.18863 v -2.31176 l 0.0663,-0.49494 0.18945,-0.46285 0.3048,-0.3944 0.39687,-0.30445 0.46038,-0.1898 0.0861,-0.0116 v -13.3664"
           style="fill:#1f515f;fill-opacity:1;fill-rule:nonzero;stroke:none;stroke-width:0.0352778"
           id="path67" />
        <path
           d="m -514.8229,114.57889 0.63535,-0.0836 0.63571,0.0836 0.59267,0.24448 0.5087,0.39087 0.39088,0.50941 0.24765,0.59232 0.0833,0.63535 -0.0833,0.63853 -0.24765,0.59196 -0.39088,0.50941 -0.5087,0.39088 -0.59267,0.24483 -0.22719,0.031 h -0.81668 l -0.22719,-0.031 -0.59514,-0.24483 -0.50941,-0.39088 -0.38805,-0.50941 -0.2473,-0.59196 -0.0836,-0.63853 0.0836,-0.63535 0.2473,-0.59232 0.38805,-0.50941 0.50941,-0.39087 0.59514,-0.24448"
           style="fill:#1f515f;fill-opacity:1;fill-rule:nonzero;stroke:none;stroke-width:0.0352778"
           id="path69" />
        <path
           d="m -544.87706,117.0374 0.63567,-0.0861 0.63535,0.0861 0.59549,0.24483 0.5087,0.39087 0.38841,0.50871 0.2473,0.59267 0.0833,0.6357 -0.0833,0.63818 -0.2473,0.59231 -0.38841,0.50941 -0.5087,0.39088 -0.59549,0.24448 -0.22719,0.0289 h -0.81647 l -0.22736,-0.0289 -0.59228,-0.24448 -0.5092,-0.39088 -0.39095,-0.50941 -0.24733,-0.59231 -0.0834,-0.63818 0.0834,-0.6357 0.24733,-0.59267 0.39095,-0.50871 0.5092,-0.39087 0.59228,-0.24483"
           style="fill:#1f515f;fill-opacity:1;fill-rule:nonzero;stroke:none;stroke-width:0.0352778"
           id="path71" />
        <path
           d="m -526.84627,117.0374 0.63853,-0.0861 0.63535,0.0861 0.59231,0.24483 0.50906,0.39087 0.39123,0.50871 0.24412,0.59267 0.0836,0.6357 -0.0836,0.63818 -0.24412,0.59231 -0.39123,0.50941 -0.50906,0.39088 -0.59231,0.24448 -0.22719,0.0289 h -0.81668 l -0.23001,-0.0289 -0.59232,-0.24448 -0.50905,-0.39088 -0.39124,-0.50941 -0.24447,-0.59231 -0.0833,-0.63818 0.0833,-0.6357 0.24447,-0.59267 0.39124,-0.50871 0.50905,-0.39087 0.59232,-0.24483"
           style="fill:#1f515f;fill-opacity:1;fill-rule:nonzero;stroke:none;stroke-width:0.0352778"
           id="path73" />
        <path
           d="m -508.81298,119.44193 0.63571,-0.084 0.6357,0.084 0.59232,0.24412 0.50906,0.39124 0.39087,0.50905 0.24765,0.59232 0.0833,0.6357 -0.0833,0.63818 -0.24765,0.59266 -0.39087,0.50871 -0.50906,0.39088 -0.59232,0.24483 -0.22754,0.0317 h -0.81632 l -0.22755,-0.0317 -0.59196,-0.24483 -0.50941,-0.39088 -0.39088,-0.50871 -0.24729,-0.59266 -0.0836,-0.63818 0.0836,-0.6357 0.24729,-0.59232 0.39088,-0.50905 0.50941,-0.39124 0.59196,-0.24412"
           style="fill:#1f515f;fill-opacity:1;fill-rule:nonzero;stroke:none;stroke-width:0.0352778"
           id="path75" />
        <path
           d="m -538.86682,121.90044 0.6357,-0.0861 0.63818,0.0861 0.59231,0.24448 0.50906,0.39087 0.39123,0.50941 0.24448,0.59197 0.0836,0.6357 -0.0836,0.63571 -0.24448,0.59549 -0.39123,0.5087 -0.50906,0.39088 -0.59231,0.24483 -0.23001,0.0286 h -0.81633 l -0.22754,-0.0286 -0.59232,-0.24483 -0.50906,-0.39088 -0.39087,-0.5087 -0.24483,-0.59549 -0.0833,-0.63571 0.0833,-0.6357 0.24483,-0.59197 0.39087,-0.50941 0.50906,-0.39087 0.59232,-0.24448"
           style="fill:#1f515f;fill-opacity:1;fill-rule:nonzero;stroke:none;stroke-width:0.0352778"
           id="path77" />
        <path
           d="m -568.27449,136.45817 0.63539,-0.0836 0.63557,0.0836 0.59503,0.2473 0.50906,0.38805 0.38833,0.50906 0.24734,0.59514 0.029,0.22719 h 4.4341 v 0.81668 h -4.4341 l -0.029,0.22754 -0.24734,0.59231 -0.38833,0.50906 -0.50906,0.39088 -0.59503,0.2473 -0.63557,0.0836 -0.63539,-0.0836 -0.59242,-0.2473 -0.50905,-0.39088 -0.39109,-0.50906 -0.24737,-0.59231 -0.0834,-0.63571 0.0834,-0.6357 0.24737,-0.59514 0.39109,-0.50906 0.50905,-0.38805 0.59242,-0.2473"
           style="fill:#1f515f;fill-opacity:1;fill-rule:nonzero;stroke:none;stroke-width:0.0352778"
           id="path79" />
        <path
           d="m -493.69221,136.81095 0.6357,-0.0836 0.63535,0.0836 0.59549,0.24729 0.50871,0.38806 0.38841,0.50906 0.24729,0.59513 0.0833,0.63571 -0.0833,0.63571 -0.24729,0.59231 -0.38841,0.50906 -0.50871,0.39088 -0.59549,0.24729 -0.63535,0.0836 -0.6357,-0.0836 -0.59232,-0.24729 -0.50906,-0.39088 -0.39123,-0.50906 -0.24729,-0.59231 -0.0286,-0.22755 v -0.81668 l 0.0286,-0.22719 0.24729,-0.59513 0.39123,-0.50906 0.50906,-0.38806 0.59232,-0.24729"
           style="fill:#1f515f;fill-opacity:1;fill-rule:nonzero;stroke:none;stroke-width:0.0352778"
           id="path81" />
        <path
           d="m -577.97134,142.46845 0.6383,-0.0836 0.63528,0.0836 0.59242,0.24729 0.5092,0.39123 0.39119,0.50871 0.24434,0.59231 0.0317,0.22719 h 14.12819 v 0.81668 h -14.12819 l -0.0317,0.22719 -0.24434,0.59267 -0.39119,0.5087 -0.5092,0.39123 -0.59242,0.2473 -0.63528,0.0833 -0.6383,-0.0833 -0.59242,-0.2473 -0.50919,-0.39123 -0.39122,-0.5087 -0.24419,-0.59267 -0.0837,-0.63535 0.0837,-0.63571 0.24419,-0.59231 0.39122,-0.50871 0.50919,-0.39123 0.59242,-0.24729"
           style="fill:#1f515f;fill-opacity:1;fill-rule:nonzero;stroke:none;stroke-width:0.0352778"
           id="path83" />
        <path
           d="m -483.50928,142.82122 0.6357,-0.0836 0.63536,0.0836 0.59231,0.2473 0.50906,0.39123 0.39123,0.50871 0.24694,0.59231 0.0836,0.63571 -0.0836,0.63535 -0.24694,0.59267 -0.39123,0.5087 -0.50906,0.39123 -0.59231,0.2473 -0.63536,0.0832 -0.6357,-0.0832 -0.59267,-0.2473 -0.50871,-0.39123 -0.39087,-0.5087 -0.24765,-0.59267 -0.0289,-0.22719 v -0.81668 l 0.0289,-0.22719 0.24765,-0.59231 0.39087,-0.50871 0.50871,-0.39123 0.59267,-0.2473"
           style="fill:#1f515f;fill-opacity:1;fill-rule:nonzero;stroke:none;stroke-width:0.0352778"
           id="path85" />
        <path
           d="m -577.97134,148.47872 0.6383,-0.0836 0.63528,0.0836 0.59242,0.24694 0.5092,0.39124 0.39119,0.50905 0.24434,0.59267 0.0317,0.22684 h 14.12819 v 0.81703 h -14.12819 l -0.0317,0.22684 -0.24434,0.59549 -0.39119,0.5087 -0.5092,0.38841 -0.59242,0.2473 -0.63528,0.0832 -0.6383,-0.0832 -0.59242,-0.2473 -0.50919,-0.38841 -0.39122,-0.5087 -0.24419,-0.59549 -0.0837,-0.63571 0.0837,-0.635 0.24419,-0.59267 0.39122,-0.50905 0.50919,-0.39124 0.59242,-0.24694"
           style="fill:#1f515f;fill-opacity:1;fill-rule:nonzero;stroke:none;stroke-width:0.0352778"
           id="path87" />
        <path
           d="m -491.481,148.8315 0.6357,-0.0836 0.63571,0.0836 0.59231,0.24694 0.50906,0.39123 0.39088,0.50906 0.2473,0.59267 0.0836,0.635 -0.0836,0.6357 -0.2473,0.59549 -0.39088,0.50871 -0.50906,0.38841 -0.59231,0.24729 -0.63571,0.0833 -0.6357,-0.0833 -0.59514,-0.24729 -0.50624,-0.38841 -0.39087,-0.50871 -0.2473,-0.59549 -0.0286,-0.22683 v -0.81704 l 0.0286,-0.22683 0.2473,-0.59267 0.39087,-0.50906 0.50624,-0.39123 0.59514,-0.24694"
           style="fill:#1f515f;fill-opacity:1;fill-rule:nonzero;stroke:none;stroke-width:0.0352778"
           id="path89" />
        <path
           d="m -573.1376,154.49182 0.63581,-0.0864 0.63543,0.0864 0.59531,0.24412 0.50892,0.39158 0.38833,0.50871 0.24723,0.59267 0.0288,0.22683 h 9.29707 v 0.81704 h -9.29707 l -0.0288,0.22965 -0.24723,0.59267 -0.38833,0.50871 -0.50892,0.39123 -0.59531,0.24447 -0.63543,0.0833 -0.63581,-0.0833 -0.59228,-0.24447 -0.50891,-0.39123 -0.39109,-0.50871 -0.24434,-0.59267 -0.0864,-0.63852 0.0864,-0.635 0.24434,-0.59267 0.39109,-0.50871 0.50891,-0.39158 0.59228,-0.24412"
           style="fill:#1f515f;fill-opacity:1;fill-rule:nonzero;stroke:none;stroke-width:0.0352778"
           id="path91" />
        <path
           d="m -486.24402,154.8446 0.63853,-0.0864 0.635,0.0864 0.59267,0.24412 0.5087,0.39158 0.39159,0.50871 0.24412,0.59266 0.0836,0.635 -0.0836,0.63853 -0.24412,0.59267 -0.39159,0.5087 -0.5087,0.39123 -0.59267,0.24448 -0.635,0.0833 -0.63853,-0.0833 -0.59266,-0.24448 -0.50871,-0.39123 -0.39123,-0.5087 -0.24447,-0.59267 -0.0317,-0.22966 v -0.81703 l 0.0317,-0.22684 0.24447,-0.59266 0.39123,-0.50871 0.50871,-0.39158 0.59266,-0.24412"
           style="fill:#1f515f;fill-opacity:1;fill-rule:nonzero;stroke:none;stroke-width:0.0352778"
           id="path93" />
        <path
           d="m -566.11196,160.50209 0.63528,-0.0833 0.63557,0.0833 0.59256,0.24413 0.50888,0.39123 0.39095,0.50905 0.24737,0.59232 0.029,0.22719 h 2.27168 v 0.81668 h -2.27168 l -0.029,0.23001 -0.24737,0.59267 -0.39095,0.5087 -0.50888,0.39123 -0.59256,0.24448 -0.63557,0.0833 -0.63528,-0.0833 -0.59531,-0.24448 -0.50902,-0.39123 -0.38834,-0.5087 -0.24709,-0.59267 -0.0834,-0.63818 0.0834,-0.6357 0.24709,-0.59232 0.38834,-0.50905 0.50902,-0.39123 0.59531,-0.24413"
           style="fill:#1f515f;fill-opacity:1;fill-rule:nonzero;stroke:none;stroke-width:0.0352778"
           id="path95" />
        <path
           d="m -483.50928,160.85487 0.6357,-0.0832 0.63536,0.0832 0.59231,0.24412 0.50906,0.39123 0.39123,0.50906 0.24694,0.59232 0.0836,0.6357 -0.0836,0.63818 -0.24694,0.59266 -0.39123,0.50871 -0.50906,0.39123 -0.59231,0.24447 -0.63536,0.0833 -0.6357,-0.0833 -0.59267,-0.24447 -0.50871,-0.39123 -0.39087,-0.50871 -0.24765,-0.59266 -0.0289,-0.23001 v -0.81668 l 0.0289,-0.22719 0.24765,-0.59232 0.39087,-0.50906 0.50871,-0.39123 0.59267,-0.24412"
           style="fill:#1f515f;fill-opacity:1;fill-rule:nonzero;stroke:none;stroke-width:0.0352778"
           id="path97" />
        <path
           d="m -568.27449,166.51202 0.63539,-0.0833 0.63557,0.0833 0.59503,0.24447 0.50906,0.39123 0.38833,0.50906 0.24734,0.59231 0.029,0.23002 h 4.4341 v 0.81703 h -4.4341 l -0.029,0.22683 -0.24734,0.59267 -0.38833,0.50871 -0.50906,0.39123 -0.59503,0.24447 -0.63557,0.0833 -0.63539,-0.0833 -0.59242,-0.24447 -0.50905,-0.39123 -0.39109,-0.50871 -0.24737,-0.59267 -0.0834,-0.6357 0.0834,-0.63818 0.24737,-0.59231 0.39109,-0.50906 0.50905,-0.39123 0.59242,-0.24447"
           style="fill:#1f515f;fill-opacity:1;fill-rule:nonzero;stroke:none;stroke-width:0.0352778"
           id="path99" />
        <path
           d="m -491.481,166.86479 0.6357,-0.0832 0.63571,0.0832 0.59231,0.24448 0.50906,0.39123 0.39088,0.50906 0.2473,0.59231 0.0836,0.63818 -0.0836,0.6357 -0.2473,0.59267 -0.39088,0.5087 -0.50906,0.39124 -0.59231,0.24447 -0.63571,0.0833 -0.6357,-0.0833 -0.59514,-0.24447 -0.50624,-0.39124 -0.39087,-0.5087 -0.2473,-0.59267 -0.0286,-0.22683 v -0.81704 l 0.0286,-0.23001 0.2473,-0.59231 0.39087,-0.50906 0.50624,-0.39123 0.59514,-0.24448"
           style="fill:#1f515f;fill-opacity:1;fill-rule:nonzero;stroke:none;stroke-width:0.0352778"
           id="path101" />
        <path
           d="m -508.58543,179.85936 h 0.81632 v 3.72393 l 0.22754,0.0317 0.59232,0.24447 0.50906,0.39088 0.39087,0.50906 0.24765,0.59238 0.0833,0.63567 -0.0833,0.63846 -0.24765,0.592 -0.39087,0.50948 -0.50906,0.39081 -0.59232,0.24486 -0.6357,0.0832 -0.63571,-0.0832 -0.59196,-0.24486 -0.50941,-0.39081 -0.39088,-0.50948 -0.24729,-0.592 -0.0836,-0.63846 0.0836,-0.63567 0.24729,-0.59238 0.39088,-0.50906 0.50941,-0.39088 0.59196,-0.24447 0.22755,-0.0317 v -3.72393"
           style="fill:#1f515f;fill-opacity:1;fill-rule:nonzero;stroke:none;stroke-width:0.0352778"
           id="path103" />
        <path
           d="m -514.59571,179.85936 h 0.81668 v 8.58697 l 0.22719,0.0314 0.59267,0.24448 0.5087,0.3908 0.39088,0.50945 0.24765,0.59228 0.0833,0.63542 -0.0833,0.63846 -0.24765,0.5927 -0.39088,0.50874 -0.5087,0.39084 -0.59267,0.24487 -0.63571,0.0832 -0.63535,-0.0832 -0.59514,-0.24487 -0.50941,-0.39084 -0.38805,-0.50874 -0.2473,-0.5927 -0.0836,-0.63846 0.0836,-0.63542 0.2473,-0.59228 0.38805,-0.50945 0.50941,-0.3908 0.59514,-0.24448 0.22719,-0.0314 v -8.58697"
           style="fill:#1f515f;fill-opacity:1;fill-rule:nonzero;stroke:none;stroke-width:0.0352778"
           id="path105" />
        <path
           d="m -520.60599,179.85936 h 0.81668 v 1.6189 l 0.22719,0.0289 0.59232,0.24412 0.50906,0.39123 0.39087,0.50906 0.24483,0.59231 0.0861,0.63853 -0.0861,0.63535 -0.24483,0.59267 -0.39087,0.50871 -0.50906,0.39162 -0.59232,0.24405 -0.6357,0.0832 -0.63535,-0.0832 -0.59514,-0.24405 -0.50941,-0.39162 -0.39088,-0.50871 -0.24412,-0.59267 -0.0836,-0.63535 0.0836,-0.63853 0.24412,-0.59231 0.39088,-0.50906 0.50941,-0.39123 0.59514,-0.24412 0.22718,-0.0289 v -1.6189"
           style="fill:#1f515f;fill-opacity:1;fill-rule:nonzero;stroke:none;stroke-width:0.0352778"
           id="path107" />
        <path
           d="m -526.61626,179.85936 h 0.81668 v 1.6189 l 0.22719,0.0289 0.59231,0.24412 0.50906,0.39123 0.39123,0.50906 0.24412,0.59231 0.0836,0.63853 -0.0836,0.63535 -0.24412,0.59267 -0.39123,0.50871 -0.50906,0.39162 -0.59231,0.24405 -0.63535,0.0832 -0.63853,-0.0832 -0.59232,-0.24405 -0.50905,-0.39162 -0.39124,-0.50871 -0.24447,-0.59267 -0.0833,-0.63535 0.0833,-0.63853 0.24447,-0.59231 0.39124,-0.50906 0.50905,-0.39123 0.59232,-0.24412 0.23001,-0.0289 v -1.6189"
           style="fill:#1f515f;fill-opacity:1;fill-rule:nonzero;stroke:none;stroke-width:0.0352778"
           id="path109" />
        <path
           d="m -532.62936,179.85936 h 0.8195 v 12.48657 l 0.22755,0.031 0.59196,0.2449 0.50941,0.39094 0.39088,0.50931 0.24412,0.59203 0.084,0.63567 -0.084,0.63571 -0.24412,0.59475 -0.39088,0.50944 -0.50941,0.38806 -0.59196,0.24722 -0.63853,0.0836 -0.63571,-0.0836 -0.59266,-0.24722 -0.50871,-0.38806 -0.39088,-0.50944 -0.24483,-0.59475 -0.0833,-0.63571 0.0833,-0.63567 0.24483,-0.59203 0.39088,-0.50931 0.50871,-0.39094 0.59266,-0.2449 0.22719,-0.031 v -12.48657"
           style="fill:#1f515f;fill-opacity:1;fill-rule:nonzero;stroke:none;stroke-width:0.0352778"
           id="path111" />
        <path
           d="m -538.63928,179.85936 h 0.81633 v 6.49609 l 0.23001,0.0317 0.59231,0.24447 0.50906,0.39123 0.39123,0.50878 0.24448,0.5927 0.0836,0.63567 -0.0836,0.635 -0.24448,0.59546 -0.39123,0.50906 -0.50906,0.39123 -0.59231,0.24415 -0.63818,0.0833 -0.6357,-0.0833 -0.59232,-0.24415 -0.50906,-0.39123 -0.39087,-0.50906 -0.24483,-0.59546 -0.0833,-0.635 0.0833,-0.63567 0.24483,-0.5927 0.39087,-0.50878 0.50906,-0.39123 0.59232,-0.24447 0.22754,-0.0317 v -6.49609"
           style="fill:#1f515f;fill-opacity:1;fill-rule:nonzero;stroke:none;stroke-width:0.0352778"
           id="path113" />
        <path
           d="m -544.6497,179.85936 h 0.81647 v 12.48657 l 0.22719,0.031 0.59549,0.2449 0.5087,0.39094 0.38841,0.50931 0.2473,0.59203 0.0833,0.63567 -0.0833,0.63571 -0.2473,0.59475 -0.38841,0.50944 -0.5087,0.38806 -0.59549,0.24722 -0.63535,0.0836 -0.63567,-0.0836 -0.59228,-0.24722 -0.5092,-0.38806 -0.39095,-0.50944 -0.24733,-0.59475 -0.0834,-0.63571 0.0834,-0.63567 0.24733,-0.59203 0.39095,-0.50931 0.5092,-0.39094 0.59228,-0.2449 0.22736,-0.031 v -12.48657"
           style="fill:#1f515f;fill-opacity:1;fill-rule:nonzero;stroke:none;stroke-width:0.0352778"
           id="path115" />
        <path
           d="m -550.66001,179.85936 h 0.81679 v 1.6189 l 0.22708,0.0289 0.59531,0.24412 0.50878,0.39123 0.38834,0.50906 0.24733,0.59231 0.0834,0.63853 -0.0834,0.63535 -0.24733,0.59267 -0.38834,0.50871 -0.50878,0.39162 -0.59531,0.24405 -0.6357,0.0832 -0.63525,-0.0832 -0.59256,-0.24405 -0.50878,-0.39162 -0.39137,-0.50871 -0.24737,-0.59267 -0.0834,-0.63535 0.0834,-0.63853 0.24737,-0.59231 0.39137,-0.50906 0.50878,-0.39123 0.59256,-0.24412 0.22708,-0.0289 v -1.6189"
           style="fill:#1f515f;fill-opacity:1;fill-rule:nonzero;stroke:none;stroke-width:0.0352778"
           id="path117" />
        <g
           id="g125"
           transform="matrix(0.03527778,0,0,-0.03527778,-579.79187,220.4528)">
          <g
             id="g127"
             clip-path="url(#clipPath131-9)">
            <path
               d="m 1355.65,1889.2 c 0,-172.59 -139.91,-312.5 -312.5,-312.5 -172.591,0 -312.502,139.91 -312.502,312.5 0,172.58 139.911,312.5 312.502,312.5 172.59,0 312.5,-139.92 312.5,-312.5"
               style="fill:#ffffff;fill-opacity:1;fill-rule:nonzero;stroke:none"
               id="path133" />
          </g>
        </g>
        <path
           d="m -537.99405,138.69231 v 9.87778"
           style="fill:none;stroke:#1f515f;stroke-width:1.76389;stroke-linecap:butt;stroke-linejoin:miter;stroke-miterlimit:10;stroke-dasharray:none;stroke-opacity:1"
           id="path135" />
        <path
           d="m -541.9628,147.68144 h 3.96875"
           style="fill:none;stroke:#1f515f;stroke-width:1.76389;stroke-linecap:butt;stroke-linejoin:miter;stroke-miterlimit:10;stroke-dasharray:none;stroke-opacity:1"
           id="path137" />
        <path
           d="M -541.9628,160.48375 V 146.79597"
           style="fill:none;stroke:#1f515f;stroke-width:1.76389;stroke-linecap:butt;stroke-linejoin:miter;stroke-miterlimit:10;stroke-dasharray:none;stroke-opacity:1"
           id="path139" />
        <path
           d="m -537.99405,159.61239 h -3.96875"
           style="fill:none;stroke:#1f515f;stroke-width:1.76389;stroke-linecap:butt;stroke-linejoin:miter;stroke-miterlimit:10;stroke-dasharray:none;stroke-opacity:1"
           id="path141" />
        <path
           d="m -537.99405,167.56047 v -8.81944"
           style="fill:none;stroke:#1f515f;stroke-width:1.76389;stroke-linecap:butt;stroke-linejoin:miter;stroke-miterlimit:10;stroke-dasharray:none;stroke-opacity:1"
           id="path143" />
        <path
           d="m -545.93169,146.79597 v 13.68778"
           style="fill:none;stroke:#1f515f;stroke-width:1.89126;stroke-linecap:butt;stroke-linejoin:miter;stroke-miterlimit:10;stroke-dasharray:none;stroke-opacity:1"
           id="path145" />
        <path
           d="m -555.3685,153.63986 h 9.525"
           style="fill:none;stroke:#1f515f;stroke-width:1.89124;stroke-linecap:butt;stroke-linejoin:miter;stroke-miterlimit:10;stroke-dasharray:none;stroke-opacity:1"
           id="path147" />
        <path
           d="m -540.68398,142.67623 v 22.225"
           style="fill:none;stroke:#1f515f;stroke-width:0.141111;stroke-linecap:butt;stroke-linejoin:miter;stroke-miterlimit:10;stroke-dasharray:none;stroke-opacity:1"
           id="path149" />
        <path
           d="m -536.45065,142.32345 v 22.225"
           style="fill:none;stroke:#1f515f;stroke-width:0.141111;stroke-linecap:butt;stroke-linejoin:miter;stroke-miterlimit:10;stroke-dasharray:none;stroke-opacity:1"
           id="path151" />
        <path
           d="m -537.86176,141.6179 v 22.225"
           style="fill:none;stroke:#1f515f;stroke-width:0.141111;stroke-linecap:butt;stroke-linejoin:miter;stroke-miterlimit:10;stroke-dasharray:none;stroke-opacity:1"
           id="path153" />
        <path
           d="m -539.27287,143.02901 v 22.225"
           style="fill:none;stroke:#1f515f;stroke-width:0.141111;stroke-linecap:butt;stroke-linejoin:miter;stroke-miterlimit:10;stroke-dasharray:none;stroke-opacity:1"
           id="path155" />
        <path
           d="m -542.09509,141.26512 v 24.69445"
           style="fill:none;stroke:#1f515f;stroke-width:0.141111;stroke-linecap:butt;stroke-linejoin:miter;stroke-miterlimit:10;stroke-dasharray:none;stroke-opacity:1"
           id="path157" />
        <path
           d="m -543.5062,141.6179 v 24.69444"
           style="fill:none;stroke:#1f515f;stroke-width:0.141111;stroke-linecap:butt;stroke-linejoin:miter;stroke-miterlimit:10;stroke-dasharray:none;stroke-opacity:1"
           id="path159" />
        <path
           d="m -544.91746,140.91234 v 24.69445"
           style="fill:none;stroke:#1f515f;stroke-width:0.141111;stroke-linecap:butt;stroke-linejoin:miter;stroke-miterlimit:10;stroke-dasharray:none;stroke-opacity:1"
           id="path161" />
        <path
           d="m -546.32857,141.6179 v 24.69444"
           style="fill:none;stroke:#1f515f;stroke-width:0.141111;stroke-linecap:butt;stroke-linejoin:miter;stroke-miterlimit:10;stroke-dasharray:none;stroke-opacity:1"
           id="path163" />
        <path
           d="m -547.73968,139.50123 v 24.69445"
           style="fill:none;stroke:#1f515f;stroke-width:0.141111;stroke-linecap:butt;stroke-linejoin:miter;stroke-miterlimit:10;stroke-dasharray:none;stroke-opacity:1"
           id="path165" />
        <path
           d="m -549.15079,139.50123 v 24.69445"
           style="fill:none;stroke:#1f515f;stroke-width:0.141111;stroke-linecap:butt;stroke-linejoin:miter;stroke-miterlimit:10;stroke-dasharray:none;stroke-opacity:1"
           id="path167" />
        <path
           d="m -550.5619,139.50123 v 24.69445"
           style="fill:none;stroke:#1f515f;stroke-width:0.141111;stroke-linecap:butt;stroke-linejoin:miter;stroke-miterlimit:10;stroke-dasharray:none;stroke-opacity:1"
           id="path169" />
        <path
           d="m -551.97301,139.50123 v 24.69445"
           style="fill:none;stroke:#1f515f;stroke-width:0.141111;stroke-linecap:butt;stroke-linejoin:miter;stroke-miterlimit:10;stroke-dasharray:none;stroke-opacity:1"
           id="path171" />
        <path
           d="m -553.38412,139.50123 v 24.69445"
           style="fill:none;stroke:#1f515f;stroke-width:0.141111;stroke-linecap:butt;stroke-linejoin:miter;stroke-miterlimit:10;stroke-dasharray:none;stroke-opacity:1"
           id="path173" />
        <path
           d="m -556.20635,151.84845 h 21.16681"
           style="fill:none;stroke:#1f515f;stroke-width:0.141111;stroke-linecap:butt;stroke-linejoin:miter;stroke-miterlimit:10;stroke-dasharray:none;stroke-opacity:1"
           id="path175" />
        <path
           d="m -555.50079,141.83768 h 21.16681"
           style="fill:none;stroke:#1f515f;stroke-width:0.141111;stroke-linecap:butt;stroke-linejoin:miter;stroke-miterlimit:10;stroke-dasharray:none;stroke-opacity:1"
           id="path177" />
        <path
           d="m -555.50079,143.24879 h 21.16681"
           style="fill:none;stroke:#1f515f;stroke-width:0.141111;stroke-linecap:butt;stroke-linejoin:miter;stroke-miterlimit:10;stroke-dasharray:none;stroke-opacity:1"
           id="path179" />
        <path
           d="m -556.20635,144.6599 h 21.16681"
           style="fill:none;stroke:#1f515f;stroke-width:0.141111;stroke-linecap:butt;stroke-linejoin:miter;stroke-miterlimit:10;stroke-dasharray:none;stroke-opacity:1"
           id="path181" />
        <path
           d="m -555.50079,146.07101 h 21.16681"
           style="fill:none;stroke:#1f515f;stroke-width:0.141111;stroke-linecap:butt;stroke-linejoin:miter;stroke-miterlimit:10;stroke-dasharray:none;stroke-opacity:1"
           id="path183" />
        <path
           d="m -556.20635,147.48212 h 21.16681"
           style="fill:none;stroke:#1f515f;stroke-width:0.141111;stroke-linecap:butt;stroke-linejoin:miter;stroke-miterlimit:10;stroke-dasharray:none;stroke-opacity:1"
           id="path185" />
        <path
           d="m -556.20635,148.89323 h 21.16681"
           style="fill:none;stroke:#1f515f;stroke-width:0.141111;stroke-linecap:butt;stroke-linejoin:miter;stroke-miterlimit:10;stroke-dasharray:none;stroke-opacity:1"
           id="path187" />
        <path
           d="m -555.50079,150.30435 h 21.16681"
           style="fill:none;stroke:#1f515f;stroke-width:0.141111;stroke-linecap:butt;stroke-linejoin:miter;stroke-miterlimit:10;stroke-dasharray:none;stroke-opacity:1"
           id="path189" />
        <path
           d="m -556.20635,153.12657 h 21.16681"
           style="fill:none;stroke:#1f515f;stroke-width:0.141111;stroke-linecap:butt;stroke-linejoin:miter;stroke-miterlimit:10;stroke-dasharray:none;stroke-opacity:1"
           id="path191" />
        <path
           d="m -556.20635,154.53768 h 21.16681"
           style="fill:none;stroke:#1f515f;stroke-width:0.141111;stroke-linecap:butt;stroke-linejoin:miter;stroke-miterlimit:10;stroke-dasharray:none;stroke-opacity:1"
           id="path193" />
        <path
           d="m -555.50079,155.94879 h 21.16681"
           style="fill:none;stroke:#1f515f;stroke-width:0.141111;stroke-linecap:butt;stroke-linejoin:miter;stroke-miterlimit:10;stroke-dasharray:none;stroke-opacity:1"
           id="path195" />
        <path
           d="m -556.20635,157.3599 h 21.16681"
           style="fill:none;stroke:#1f515f;stroke-width:0.141111;stroke-linecap:butt;stroke-linejoin:miter;stroke-miterlimit:10;stroke-dasharray:none;stroke-opacity:1"
           id="path197" />
        <path
           d="m -555.50079,158.77101 h 21.16681"
           style="fill:none;stroke:#1f515f;stroke-width:0.141111;stroke-linecap:butt;stroke-linejoin:miter;stroke-miterlimit:10;stroke-dasharray:none;stroke-opacity:1"
           id="path199" />
        <path
           d="m -555.50079,160.18212 h 21.16681"
           style="fill:none;stroke:#1f515f;stroke-width:0.141111;stroke-linecap:butt;stroke-linejoin:miter;stroke-miterlimit:10;stroke-dasharray:none;stroke-opacity:1"
           id="path201" />
        <path
           d="m -555.50079,161.59324 h 21.16681"
           style="fill:none;stroke:#1f515f;stroke-width:0.141111;stroke-linecap:butt;stroke-linejoin:miter;stroke-miterlimit:10;stroke-dasharray:none;stroke-opacity:1"
           id="path203" />
        <path
           d="m -555.50079,163.00435 h 21.16681"
           style="fill:none;stroke:#1f515f;stroke-width:0.141111;stroke-linecap:butt;stroke-linejoin:miter;stroke-miterlimit:10;stroke-dasharray:none;stroke-opacity:1"
           id="path205" />
      </g>
      <g
         id="g1229"
         transform="translate(-92.8433)"
         style="fill:#ffffff;fill-opacity:1;stroke:#ffffff;stroke-opacity:1">
        <path
           style="fill:#ffffff;fill-opacity:1;stroke:#ffffff;stroke-width:0.264583px;stroke-linecap:butt;stroke-linejoin:miter;stroke-opacity:1"
           d="m -363.74206,155.90399 c 1.36706,0 1.36706,0 1.36706,0 l 4.51825,-11.23769 2.80363,6.90481 -4.91214,0.0463 -0.46341,1.15856 5.86213,0.0232 1.25121,3.12799 h 1.50608 l -5.30604,-12.79012 h -1.45974 z"
           id="path1223" />
        <path
           style="fill:#ffffff;fill-opacity:1;stroke:#ffffff;stroke-width:0.264583px;stroke-linecap:butt;stroke-linejoin:miter;stroke-opacity:1"
           d="m -350.7434,154.67595 h 5.76945 c 2.01583,0 1.80733,-1.55242 1.80733,-1.55242 l -0.0232,-1.96949 c 0,-1.27437 -1.55242,-1.20487 -1.55242,-1.20487 h -3.75363 c -2.40976,0 -2.38656,-1.94632 -2.38656,-1.94632 v -2.54876 c 0,-2.15485 2.52559,-2.34022 2.52559,-2.34022 h 6.02433 v 1.32072 h -5.79263 c 0,0 -1.4134,0.0927 -1.4134,1.27438 v 2.06217 c 0,0 0.0927,0.99634 1.48291,0.99634 h 3.93899 c 0,0 2.2012,-0.11586 2.2012,1.96949 v 2.75729 c 0,0 0.30121,2.38656 -2.5951,2.38656 h -6.20969 z"
           id="path1225"
           sodipodi:nodetypes="cscscscsccccscscccc" />
      </g>
    </g>
  </g>
</svg>
