<?xml version="1.0" encoding="UTF-8" standalone="no"?>
<svg
   width="237.43364pt"
   height="237.43364pt"
   viewBox="0 0 237.43365 237.43365"
   version="1.1"
   id="svg63"
   sodipodi:docname="icrealtime_logo.svg"
   inkscape:version="1.2.1 (9c6d41e410, 2022-07-14)"
   xml:space="preserve"
   xmlns:inkscape="http://www.inkscape.org/namespaces/inkscape"
   xmlns:sodipodi="http://sodipodi.sourceforge.net/DTD/sodipodi-0.dtd"
   xmlns="http://www.w3.org/2000/svg"
   xmlns:svg="http://www.w3.org/2000/svg"
   xmlns:rdf="http://www.w3.org/1999/02/22-rdf-syntax-ns#"
   xmlns:cc="http://creativecommons.org/ns#"
   xmlns:dc="http://purl.org/dc/elements/1.1/"><metadata
     id="metadata67"><rdf:RDF><cc:Work
         rdf:about=""><dc:format>image/svg+xml</dc:format><dc:type
           rdf:resource="http://purl.org/dc/dcmitype/StillImage" /><dc:title /></cc:Work></rdf:RDF></metadata><sodipodi:namedview
     pagecolor="#ffffff"
     bordercolor="#666666"
     borderopacity="1"
     objecttolerance="10"
     gridtolerance="10"
     guidetolerance="10"
     inkscape:pageopacity="0"
     inkscape:pageshadow="2"
     inkscape:window-width="1920"
     inkscape:window-height="991"
     id="namedview65"
     showgrid="false"
     fit-margin-top="0"
     fit-margin-left="0"
     fit-margin-right="0"
     fit-margin-bottom="0"
     inkscape:zoom="1.3280872"
     inkscape:cx="24.471285"
     inkscape:cy="166.78122"
     inkscape:window-x="-9"
     inkscape:window-y="-9"
     inkscape:window-maximized="1"
     inkscape:current-layer="svg63"
     inkscape:showpageshadow="2"
     inkscape:pagecheckerboard="0"
     inkscape:deskcolor="#d1d1d1"
     inkscape:document-units="pt" /><defs
     id="defs26"><clipPath
       id="clip1"><path
         d="M 50,0 H 70 V 25.800781 H 50 Z m 0,0"
         id="path2" /></clipPath><clipPath
       id="clip2"><path
         d="M 35,6 H 54 V 25.800781 H 35 Z m 0,0"
         id="path5" /></clipPath><clipPath
       id="clip3"><path
         d="M 17,6 H 37 V 25.800781 H 17 Z m 0,0"
         id="path8" /></clipPath><clipPath
       id="clip4"><path
         d="M 69,6 H 88 V 25.800781 H 69 Z m 0,0"
         id="path11" /></clipPath><clipPath
       id="clip5"><path
         d="m 84,6 h 16 V 25.800781 H 84 Z m 0,0"
         id="path14" /></clipPath><clipPath
       id="clip6"><path
         d="m 115,0 h 8.08984 V 8 H 115 Z m 0,0"
         id="path17" /></clipPath><clipPath
       id="clip7"><path
         d="m 98,6 h 16 V 25.800781 H 98 Z m 0,0"
         id="path20" /></clipPath><clipPath
       id="clip8"><path
         d="M 0,0 H 24 V 25.800781 H 0 Z m 0,0"
         id="path23" /></clipPath></defs><g
     id="g1386"><circle
       style="fill:#ffffff;fill-opacity:1;stroke:#a9b0b7;stroke-width:4.58793;stroke-linecap:round;stroke-linejoin:round;stroke-miterlimit:4;stroke-dasharray:none;stroke-dashoffset:0;stroke-opacity:1"
       id="path1155"
       cx="118.71683"
       cy="118.71683"
       r="116.42286"
       inkscape:export-filename="C:\Users\Lenovo P1\Desktop\path1155.png"
       inkscape:export-xdpi="96"
       inkscape:export-ydpi="96" /><g
       id="g1247"
       transform="matrix(1.5744864,0,0,1.5744864,621.84583,-89.160712)"><g
         id="g619"
         transform="translate(-187.28048)"
         style="fill:#1f1f1f;fill-opacity:1"><path
           id="path503"
           style="fill:#1f1f1f;fill-opacity:1;stroke-width:2.70716;paint-order:stroke fill markers;stop-color:#000000"
           d="m -120.19497,85.552734 a 38.707905,38.135872 0 0 0 -38.70849,38.135746 38.707905,38.135872 0 0 0 38.70849,38.13574 38.707905,38.135872 0 0 0 32.50928,-17.52979 l -13.00195,-8.24121 a 23.13875,23.13875 0 0 1 -19.50733,10.77393 23.13875,23.13875 0 0 1 -23.13867,-23.13867 23.13875,23.13875 0 0 1 23.13867,-23.13868 23.13875,23.13875 0 0 1 19.5337,10.81348 l 13.01806,-8.21484 a 38.707905,38.135872 0 0 0 -32.55176,-17.595706 z" /><rect
           style="fill:#1f1f1f;fill-opacity:1;stroke-width:2.83465;paint-order:stroke fill markers;stop-color:#000000"
           id="rect449"
           width="15.573431"
           height="71.278397"
           x="-176.89819"
           y="88.049774" /></g><text
         xml:space="preserve"
         style="font-size:18px;line-height:1.25;font-family:Calibri;-inkscape-font-specification:Calibri;letter-spacing:2.4675px;stroke-width:0.75"
         x="-365.46625"
         y="178.45212"
         id="text565"><tspan
           sodipodi:role="line"
           id="tspan563"
           style="font-weight:bold;font-size:18px;stroke-width:0.75"
           x="-365.46625"
           y="178.45212">REALTIME</tspan></text></g></g></svg>
