<?xml version="1.0" encoding="UTF-8" standalone="no"?>
<svg
   width="83.761314mm"
   height="83.761314mm"
   viewBox="0 0 83.761314 83.761314"
   version="1.1"
   id="svg8"
   inkscape:version="1.1.2 (b8e25be833, 2022-02-05)"
   sodipodi:docname="ieee-embs-boston.svg"
   xmlns:inkscape="http://www.inkscape.org/namespaces/inkscape"
   xmlns:sodipodi="http://sodipodi.sourceforge.net/DTD/sodipodi-0.dtd"
   xmlns="http://www.w3.org/2000/svg"
   xmlns:svg="http://www.w3.org/2000/svg"
   xmlns:rdf="http://www.w3.org/1999/02/22-rdf-syntax-ns#"
   xmlns:cc="http://creativecommons.org/ns#"
   xmlns:dc="http://purl.org/dc/elements/1.1/">
  <defs
     id="defs2" />
  <sodipodi:namedview
     id="base"
     pagecolor="#ffffff"
     bordercolor="#666666"
     borderopacity="1.0"
     inkscape:pageopacity="0.0"
     inkscape:pageshadow="2"
     inkscape:zoom="0.98994949"
     inkscape:cx="11.616754"
     inkscape:cy="271.22596"
     inkscape:document-units="mm"
     inkscape:current-layer="layer1"
     inkscape:document-rotation="0"
     showgrid="false"
     inkscape:window-width="1920"
     inkscape:window-height="991"
     inkscape:window-x="-9"
     inkscape:window-y="-9"
     inkscape:window-maximized="1"
     fit-margin-top="0"
     fit-margin-left="0"
     fit-margin-right="0"
     fit-margin-bottom="0"
     inkscape:pagecheckerboard="0" />
  <metadata
     id="metadata5">
    <rdf:RDF>
      <cc:Work
         rdf:about="">
        <dc:format>image/svg+xml</dc:format>
        <dc:type
           rdf:resource="http://purl.org/dc/dcmitype/StillImage" />
      </cc:Work>
    </rdf:RDF>
  </metadata>
  <g
     inkscape:label="Layer 1"
     inkscape:groupmode="layer"
     id="layer1"
     transform="translate(-85.119344,-69.244344)">
    <circle
       style="fill:#ffffff;fill-opacity:1;stroke:#a9b0b7;stroke-width:1.61852;stroke-linecap:round;stroke-linejoin:round;stroke-miterlimit:4;stroke-dasharray:none;stroke-dashoffset:0;stroke-opacity:1"
       id="path1155"
       cx="127"
       cy="111.125"
       r="41.071396"
       inkscape:export-filename="C:\Users\Lenovo P1\Desktop\path1155.png"
       inkscape:export-xdpi="96"
       inkscape:export-ydpi="96" />
    <g
       id="g41542"
       transform="matrix(0.89546147,0,0,0.89546147,13.278946,-70.443322)"
       style="stroke-width:1.11674">
      <g
         id="g28396"
         style="stroke-width:1.11674">
        <path
           id="rect1007"
           style="fill:#00569f;fill-opacity:1;stroke:none;stroke-width:1.05519;stroke-linecap:round;stroke-linejoin:bevel;paint-order:stroke fill markers;stop-color:#000000"
           d="m 37.628906,452.42188 v 14.26953 19.48047 14.26953 18.76562 14.00781 0.26172 h 56.0625 V 519.20703 H 58.035156 V 500.44141 H 88.15625 V 486.17188 H 58.035156 v -19.48047 h 35.65625 v -14.26953 h -35.65625 z"
           transform="matrix(0.26458333,0,0,0.26458333,85.119344,69.244344)" />
        <path
           id="path3401"
           style="fill:#00569f;fill-opacity:1;stroke:none;stroke-width:1.05519;stroke-linecap:round;stroke-linejoin:bevel;paint-order:stroke fill markers;stop-color:#000000"
           d="m 213.70312,453.17969 v 36.39843 1.60938 42.57617 h 3.99219 3.28711 31.16992 7.2793 c 0,0 19.31055,0.2542 19.31055,-22.08984 0,-15.20938 -8.94037,-19.94268 -14.6543,-21.41992 4.88231,-1.61387 11.42383,-6.02122 11.42383,-18.07032 0,-19.22025 -16.64844,-19.0039 -16.64844,-19.0039 h -15.44726 -14.26563 z m 19.89454,14.26758 h 13.00586 c 0,0 7.2871,-0.094 7.2871,8.27148 0,8.36549 -7.2871,8.27148 -7.2871,8.27148 h -13.00586 z m 0.0625,33.83984 h 1.59765 13.79102 c 0,0 7.72851,-0.099 7.72851,8.77734 0,8.87634 -7.72851,8.77539 -7.72851,8.77539 h -13.79102 -1.59765 z"
           transform="matrix(0.26458333,0,0,0.26458333,85.119344,69.244344)" />
        <path
           style="fill:#00569f;fill-opacity:1;stroke:none;stroke-width:0.295471px;stroke-linecap:butt;stroke-linejoin:miter;stroke-opacity:1"
           d="m 125.7636,200.5202 9.24861,-12.49684 4.03393,22.36259 v 0 h -5.54584 l -2.23839,-9.97909 -5.49831,8.6178 -5.49831,-8.6178 -2.23839,9.97909 h -5.54584 v 0 l 4.03393,-22.36259 9.24861,12.49684"
           id="path4454"
           sodipodi:nodetypes="ccccccccccccc" />
        <g
           id="g28386"
           transform="translate(0.14174)"
           style="stroke-width:1.11674">
          <circle
             style="fill:#00569f;fill-opacity:1;stroke:none;stroke-width:0.279186;stroke-linecap:round;stroke-linejoin:bevel;paint-order:stroke fill markers;stop-color:#000000"
             id="path5491"
             cx="125.62186"
             cy="181.36154"
             r="1.6063988" />
          <path
             style="fill:#00569f;fill-opacity:1;stroke:none;stroke-width:0.295471px;stroke-linecap:butt;stroke-linejoin:miter;stroke-opacity:1"
             d="m 125.62186,196.64113 -2.42141,-10.64939 c -0.40461,0 -0.48531,-0.0511 -0.81303,-0.14159 -2.56162,-0.70767 -3.08484,-4.08702 -3.08484,-4.08702 h 2.6222 c 0,0 0.11811,2.88207 3.69708,2.88207 3.57897,0 3.69708,-2.88207 3.69708,-2.88207 h 2.6222 c 0,0 -0.52322,3.37935 -3.08484,4.08702 -0.32772,0.0905 -0.40842,0.14159 -0.81303,0.14159 l -2.42141,10.64939"
             id="path5704"
             sodipodi:nodetypes="ccscccccscc" />
        </g>
        <path
           id="path12224"
           style="fill:#00569f;fill-opacity:1;stroke:none;stroke-width:1.05519;stroke-linecap:round;stroke-linejoin:bevel;paint-order:stroke fill markers;stop-color:#000000"
           d="M 111.60742,545.35742 A 13.571428,13.571428 0 0 0 98.035156,558.92773 13.571428,13.571428 0 0 0 111.60742,572.5 a 13.571428,13.571428 0 0 0 13.04297,-9.8457 h 154.65625 v -6.1875 H 124.95312 a 13.571428,13.571428 0 0 0 -13.3457,-11.10938 z m 0,5.17774 a 8.3943954,8.3943954 0 0 1 0.2168,0.002 8.3943954,8.3943954 0 0 1 0.21484,0.008 8.3943954,8.3943954 0 0 1 0.2168,0.0137 8.3943954,8.3943954 0 0 1 0.21484,0.0195 8.3943954,8.3943954 0 0 1 0.21485,0.0254 8.3943954,8.3943954 0 0 1 0.21289,0.0312 8.3943954,8.3943954 0 0 1 0.21289,0.0352 8.3943954,8.3943954 0 0 1 0.21289,0.041 8.3943954,8.3943954 0 0 1 0.21094,0.0469 8.3943954,8.3943954 0 0 1 0.20898,0.0527 8.3943954,8.3943954 0 0 1 0.20898,0.0586 8.3943954,8.3943954 0 0 1 0.20704,0.0625 8.3943954,8.3943954 0 0 1 0.20507,0.0684 8.3943954,8.3943954 0 0 1 0.20313,0.0742 8.3943954,8.3943954 0 0 1 0.20117,0.0781 8.3943954,8.3943954 0 0 1 0.19922,0.084 8.3943954,8.3943954 0 0 1 0.19727,0.0898 8.3943954,8.3943954 0 0 1 0.19336,0.0937 8.3943954,8.3943954 0 0 1 0.19335,0.0996 8.3943954,8.3943954 0 0 1 0.18946,0.10352 8.3943954,8.3943954 0 0 1 0.18554,0.10937 8.3943954,8.3943954 0 0 1 0.18555,0.11328 8.3943954,8.3943954 0 0 1 0.17969,0.11914 8.3943954,8.3943954 0 0 1 0.17773,0.12305 8.3943954,8.3943954 0 0 1 0.17578,0.12695 8.3943954,8.3943954 0 0 1 0.16993,0.13086 8.3943954,8.3943954 0 0 1 0.16797,0.13672 8.3943954,8.3943954 0 0 1 0.16406,0.14063 8.3943954,8.3943954 0 0 1 0.16015,0.14453 8.3943954,8.3943954 0 0 1 0.15821,0.14844 8.3943954,8.3943954 0 0 1 0.15234,0.15429 8.3943954,8.3943954 0 0 1 0.14844,0.15625 8.3943954,8.3943954 0 0 1 0.14453,0.16016 8.3943954,8.3943954 0 0 1 0.14062,0.16406 8.3943954,8.3943954 0 0 1 0.13672,0.16797 8.3943954,8.3943954 0 0 1 0.13282,0.17187 8.3943954,8.3943954 0 0 1 0.12695,0.17383 8.3943954,8.3943954 0 0 1 0.12305,0.17774 8.3943954,8.3943954 0 0 1 0.11718,0.18164 8.3943954,8.3943954 0 0 1 0.11524,0.18359 8.3943954,8.3943954 0 0 1 0.10742,0.18555 8.3943954,8.3943954 0 0 1 0.10547,0.19141 8.3943954,8.3943954 0 0 1 0.0977,0.1914 8.3943954,8.3943954 0 0 1 0.0957,0.19336 8.3943954,8.3943954 0 0 1 0.0879,0.19727 8.3943954,8.3943954 0 0 1 0.084,0.19921 8.3943954,8.3943954 0 0 1 0.0801,0.20118 8.3943954,8.3943954 0 0 1 0.0723,0.20312 8.3943954,8.3943954 0 0 1 0.0684,0.20508 8.3943954,8.3943954 0 0 1 0.0644,0.20703 8.3943954,8.3943954 0 0 1 0.0566,0.20899 8.3943954,8.3943954 0 0 1 0.0527,0.20898 8.3943954,8.3943954 0 0 1 0.0469,0.21094 8.3943954,8.3943954 0 0 1 0.041,0.21289 8.3943954,8.3943954 0 0 1 0.0371,0.21289 8.3943954,8.3943954 0 0 1 0.0293,0.21484 8.3943954,8.3943954 0 0 1 0.0254,0.21485 8.3943954,8.3943954 0 0 1 0.0195,0.21484 8.3943954,8.3943954 0 0 1 0.0137,0.21484 8.3943954,8.3943954 0 0 1 0.008,0.2168 8.3943954,8.3943954 0 0 1 0.004,0.21484 8.3943954,8.3943954 0 0 1 -0.0234,0.62891 8.3943954,8.3943954 0 0 1 -0.0703,0.62305 8.3943954,8.3943954 0 0 1 -0.11718,0.61719 8.3943954,8.3943954 0 0 1 -0.16211,0.60546 8.3943954,8.3943954 0 0 1 -0.20703,0.59375 8.3943954,8.3943954 0 0 1 -0.25196,0.57422 8.3943954,8.3943954 0 0 1 -0.29297,0.55469 8.3943954,8.3943954 0 0 1 -0.33398,0.5332 8.3943954,8.3943954 0 0 1 -0.37305,0.50391 8.3943954,8.3943954 0 0 1 -0.41015,0.47656 8.3943954,8.3943954 0 0 1 -0.44336,0.44336 8.3943954,8.3943954 0 0 1 -0.47461,0.41016 8.3943954,8.3943954 0 0 1 -0.50586,0.37304 8.3943954,8.3943954 0 0 1 -0.53125,0.33399 8.3943954,8.3943954 0 0 1 -0.55469,0.29297 8.3943954,8.3943954 0 0 1 -0.57617,0.25 8.3943954,8.3943954 0 0 1 -0.5918,0.20703 8.3943954,8.3943954 0 0 1 -0.60742,0.16406 8.3943954,8.3943954 0 0 1 -0.61719,0.11524 8.3943954,8.3943954 0 0 1 -0.62304,0.0703 8.3943954,8.3943954 0 0 1 -0.62696,0.0234 8.3943954,8.3943954 0 0 1 -0.62695,-0.0234 8.3943954,8.3943954 0 0 1 -0.625,-0.0703 8.3943954,8.3943954 0 0 1 -0.61719,-0.11524 8.3943954,8.3943954 0 0 1 -0.60547,-0.16406 8.3943954,8.3943954 0 0 1 -0.59179,-0.20703 8.3943954,8.3943954 0 0 1 -0.57618,-0.25 8.3943954,8.3943954 0 0 1 -0.55468,-0.29297 8.3943954,8.3943954 0 0 1 -0.53125,-0.33399 8.3943954,8.3943954 0 0 1 -0.50586,-0.37304 8.3943954,8.3943954 0 0 1 -0.47461,-0.41016 8.3943954,8.3943954 0 0 1 -0.44532,-0.44336 8.3943954,8.3943954 0 0 1 -0.4082,-0.47656 8.3943954,8.3943954 0 0 1 -0.37304,-0.50391 8.3943954,8.3943954 0 0 1 -0.33399,-0.5332 8.3943954,8.3943954 0 0 1 -0.29297,-0.55469 8.3943954,8.3943954 0 0 1 -0.25195,-0.57422 8.3943954,8.3943954 0 0 1 -0.20703,-0.59375 8.3943954,8.3943954 0 0 1 -0.16211,-0.60546 8.3943954,8.3943954 0 0 1 -0.11719,-0.61719 8.3943954,8.3943954 0 0 1 -0.0703,-0.62305 8.3943954,8.3943954 0 0 1 -0.0234,-0.62891 8.3943954,8.3943954 0 0 1 0.0234,-0.62695 8.3943954,8.3943954 0 0 1 0.0703,-0.62305 8.3943954,8.3943954 0 0 1 0.11719,-0.61718 8.3943954,8.3943954 0 0 1 0.16211,-0.60547 8.3943954,8.3943954 0 0 1 0.20703,-0.59375 8.3943954,8.3943954 0 0 1 0.25195,-0.57422 8.3943954,8.3943954 0 0 1 0.29297,-0.55664 8.3943954,8.3943954 0 0 1 0.33399,-0.53125 8.3943954,8.3943954 0 0 1 0.37304,-0.50391 8.3943954,8.3943954 0 0 1 0.4082,-0.47656 8.3943954,8.3943954 0 0 1 0.44532,-0.44336 8.3943954,8.3943954 0 0 1 0.47461,-0.41016 8.3943954,8.3943954 0 0 1 0.50586,-0.37304 8.3943954,8.3943954 0 0 1 0.53125,-0.33399 8.3943954,8.3943954 0 0 1 0.55468,-0.29297 8.3943954,8.3943954 0 0 1 0.57618,-0.25 8.3943954,8.3943954 0 0 1 0.59179,-0.20898 8.3943954,8.3943954 0 0 1 0.60547,-0.16211 8.3943954,8.3943954 0 0 1 0.61719,-0.11523 8.3943954,8.3943954 0 0 1 0.625,-0.0703 8.3943954,8.3943954 0 0 1 0.62695,-0.0234 z"
           transform="matrix(0.26458333,0,0,0.26458333,85.119344,69.244344)" />
        <path
           id="path8257"
           style="fill:#00569f;fill-opacity:1;stroke:none;stroke-width:0.279186;stroke-linecap:round;stroke-linejoin:bevel;paint-order:stroke fill markers;stop-color:#000000"
           d="m 110.5767,212.8379 c -2.08922,0.0736 -3.78655,1.63149 -4.09225,3.63854 H 94.975073 v 1.63711 h 11.575517 c 0.43358,1.84292 2.05474,3.23419 4.02611,3.30367 v -1.7725 c -1.33156,-0.08 -2.37091,-1.18319 -2.37091,-2.51716 0,-1.33396 1.03935,-2.43715 2.37091,-2.51716 z" />
      </g>
      <text
         xml:space="preserve"
         style="font-size:5.64444px;line-height:1.25;font-family:'Times New Roman';-inkscape-font-specification:'Times New Roman, ';letter-spacing:-0.132292px;fill:#00569f;fill-opacity:1;stroke-width:0.295471"
         x="118.33405"
         y="224.66158"
         id="text29514"><tspan
           sodipodi:role="line"
           id="tspan29512"
           style="font-style:normal;font-variant:normal;font-weight:bold;font-stretch:normal;font-family:Arial;-inkscape-font-specification:Arial;fill:#00569f;fill-opacity:1;stroke-width:0.295471"
           x="118.33405"
           y="224.66158">Boston Chapter</tspan></text>
    </g>
  </g>
</svg>
