<?xml version="1.0" encoding="UTF-8" standalone="no"?>
<svg
   width="83.761314mm"
   height="83.761314mm"
   viewBox="0 0 83.761314 83.761314"
   version="1.1"
   id="svg8"
   inkscape:version="1.1.2 (b8e25be833, 2022-02-05)"
   sodipodi:docname="ieee-embs-boston.svg"
   xmlns:inkscape="http://www.inkscape.org/namespaces/inkscape"
   xmlns:sodipodi="http://sodipodi.sourceforge.net/DTD/sodipodi-0.dtd"
   xmlns="http://www.w3.org/2000/svg"
   xmlns:svg="http://www.w3.org/2000/svg"
   xmlns:rdf="http://www.w3.org/1999/02/22-rdf-syntax-ns#"
   xmlns:cc="http://creativecommons.org/ns#"
   xmlns:dc="http://purl.org/dc/elements/1.1/">
  <defs
     id="defs2" />
  <sodipodi:namedview
     id="base"
     pagecolor="#ffffff"
     bordercolor="#666666"
     borderopacity="1.0"
     inkscape:pageopacity="0.0"
     inkscape:pageshadow="2"
     inkscape:zoom="0.98994949"
     inkscape:cx="11.616754"
     inkscape:cy="271.22596"
     inkscape:document-units="mm"
     inkscape:current-layer="layer1"
     inkscape:document-rotation="0"
     showgrid="false"
     inkscape:window-width="1920"
     inkscape:window-height="991"
     inkscape:window-x="-9"
     inkscape:window-y="-9"
     inkscape:window-maximized="1"
     fit-margin-top="0"
     fit-margin-left="0"
     fit-margin-right="0"
     fit-margin-bottom="0"
     inkscape:pagecheckerboard="0" />
  <metadata
     id="metadata5">
    <rdf:RDF>
      <cc:Work
         rdf:about="">
        <dc:format>image/svg+xml</dc:format>
        <dc:type
           rdf:resource="http://purl.org/dc/dcmitype/StillImage" />
      </cc:Work>
    </rdf:RDF>
  </metadata>
  <g
     inkscape:label="Layer 1"
     inkscape:groupmode="layer"
     id="layer1"
     transform="translate(-85.119344,-69.244344)">
    <circle
       style="fill:#ffffff;fill-opacity:1;stroke:#a9b0b7;stroke-width:1.61852;stroke-linecap:round;stroke-linejoin:round;stroke-miterlimit:4;stroke-dasharray:none;stroke-dashoffset:0;stroke-opacity:1"
       id="path1155"
       cx="127"
       cy="111.125"
       r="41.071396"
       inkscape:export-filename="C:\Users\Lenovo P1\Desktop\path1155.png"
       inkscape:export-xdpi="96"
       inkscape:export-ydpi="96" />
    <g
       id="g118261"
       transform="matrix(0.89021809,0,0,0.89153473,-1046.618,-1631.6315)"
       inkscape:export-filename="C:\Users\Lenovo P1\Desktop\rect3165.png"
       inkscape:export-xdpi="96"
       inkscape:export-ydpi="96"
       style="stroke-width:1.12249">
      <g
         id="g118203"
         transform="matrix(0.40140825,0,0,0.40085226,1164.4177,1910.081)"
         style="fill:#006298;fill-opacity:1;stroke:#006298;stroke-width:2.79834;stroke-opacity:1">
        <path
           style="fill:#006298;fill-opacity:1;stroke:#006298;stroke-width:0.740387px;stroke-linecap:butt;stroke-linejoin:miter;stroke-opacity:1"
           d="m 331.32757,64.035426 h 4.58761 v 17.522131 h -4.52387 z"
           id="path118195" />
        <path
           style="fill:#006298;fill-opacity:1;stroke:#006298;stroke-width:0.740387px;stroke-linecap:butt;stroke-linejoin:miter;stroke-opacity:1"
           d="M 349.42317,67.157552 V 64.16286 h -11.02302 v 17.522131 h 11.40531 v -3.376993 l -6.8177,0.127434 v -4.460179 h 5.9894 v -3.122126 h -6.11683 v -3.695575 z"
           id="path118197" />
        <path
           style="fill:#006298;fill-opacity:1;stroke:#006298;stroke-width:0.740387px;stroke-linecap:butt;stroke-linejoin:miter;stroke-opacity:1"
           d="M 362.66922,67.157552 V 64.16286 H 351.6462 v 17.522131 h 11.40531 v -3.376993 l -6.8177,0.127434 v -4.460179 h 5.9894 v -3.122126 h -6.11683 v -3.695575 z"
           id="path118199" />
        <path
           style="fill:#006298;fill-opacity:1;stroke:#006298;stroke-width:0.740387px;stroke-linecap:butt;stroke-linejoin:miter;stroke-opacity:1"
           d="M 375.37462,67.157552 V 64.16286 H 364.3516 v 17.522131 h 11.40531 v -3.376993 l -6.8177,0.127434 v -4.460179 h 5.9894 v -3.122126 h -6.11683 v -3.695575 z"
           id="path118201" />
      </g>
      <ellipse
         style="fill:#792980;fill-opacity:1;stroke:#792980;stroke-width:1.41994;stroke-linecap:round;stroke-opacity:1;paint-order:stroke fill markers;stop-color:#000000"
         id="ellipse118205"
         cx="1285.2153"
         cy="1937.3589"
         rx="1.1509409"
         ry="1.1493468" />
      <ellipse
         style="fill:#792980;fill-opacity:1;stroke:#792980;stroke-width:1.41994;stroke-linecap:round;stroke-opacity:1;paint-order:stroke fill markers;stop-color:#000000"
         id="ellipse118207"
         cx="1288.3868"
         cy="1940.9857"
         rx="1.1509409"
         ry="1.1493468" />
      <ellipse
         style="fill:#792980;fill-opacity:1;stroke:#792980;stroke-width:1.41994;stroke-linecap:round;stroke-opacity:1;paint-order:stroke fill markers;stop-color:#000000"
         id="ellipse118209"
         cx="1291.7373"
         cy="1944.2295"
         rx="1.1509409"
         ry="1.1493468" />
      <ellipse
         style="fill:#792980;fill-opacity:1;stroke:#792980;stroke-width:1.41994;stroke-linecap:round;stroke-opacity:1;paint-order:stroke fill markers;stop-color:#000000"
         id="ellipse118211"
         cx="1294.1671"
         cy="1947.7797"
         rx="1.1509409"
         ry="1.1493468" />
      <ellipse
         style="fill:#792980;fill-opacity:1;stroke:#792980;stroke-width:1.41994;stroke-linecap:round;stroke-opacity:1;paint-order:stroke fill markers;stop-color:#000000"
         id="ellipse118213"
         cx="1291.0979"
         cy="1951.6619"
         rx="1.1509409"
         ry="1.1493468" />
      <ellipse
         style="fill:#792980;fill-opacity:1;stroke:#792980;stroke-width:1.41994;stroke-linecap:round;stroke-opacity:1;paint-order:stroke fill markers;stop-color:#000000"
         id="ellipse118215"
         cx="1288.3101"
         cy="1955.7229"
         rx="1.1509409"
         ry="1.1493468" />
      <ellipse
         style="fill:#792980;fill-opacity:1;stroke:#792980;stroke-width:1.41994;stroke-linecap:round;stroke-opacity:1;paint-order:stroke fill markers;stop-color:#000000"
         id="ellipse118217"
         cx="1285.1642"
         cy="1959.6052"
         rx="1.1509409"
         ry="1.1493468" />
      <ellipse
         style="fill:#006298;fill-opacity:1;stroke:#006298;stroke-width:1.41994;stroke-linecap:round;stroke-opacity:1;paint-order:stroke fill markers;stop-color:#000000"
         id="ellipse118219"
         cx="1291.3536"
         cy="1959.2476"
         rx="1.150941"
         ry="1.1493468" />
      <path
         style="color:#000000;fill:#006298;fill-opacity:1;stroke-width:1.1225;stroke-linecap:round;-inkscape-stroke:none"
         d="m 1291.53,1958.7948 -4.1309,0.2685 a 0.44154906,0.44093748 0 0 0 -0.4124,0.4682 0.44154906,0.44093748 0 0 0 0.4696,0.4118 l 4.131,-0.2685 a 0.44154906,0.44093748 0 0 0 0.4115,-0.469 0.44154906,0.44093748 0 0 0 -0.4688,-0.411 z"
         id="path118221" />
      <ellipse
         style="fill:#006298;fill-opacity:1;stroke:#006298;stroke-width:1.41994;stroke-linecap:round;stroke-opacity:1;paint-order:stroke fill markers;stop-color:#000000"
         id="ellipse118223"
         cx="1283.0344"
         cy="1948.3754"
         rx="1.150941"
         ry="1.1493468" />
      <path
         style="color:#000000;fill:#006298;fill-opacity:1;stroke-width:1.1225;stroke-linecap:round;-inkscape-stroke:none"
         d="m 1291.8091,1947.5067 -7.8377,0.3586 a 0.44154906,0.44093748 0 0 0 -0.4209,0.4603 0.44154906,0.44093748 0 0 0 0.461,0.4205 l 7.8384,-0.3586 a 0.44154906,0.44093748 0 0 0 0.421,-0.4604 0.44154906,0.44093748 0 0 0 -0.4618,-0.4204 z"
         id="path118225" />
      <path
         style="color:#000000;fill:#006298;fill-opacity:1;stroke-width:1.1225;stroke-linecap:round;-inkscape-stroke:none"
         d="m 1288.7192,1951.408 -4.1301,0.1957 a 0.44154906,0.44093748 0 0 0 -0.4202,0.4611 0.44154906,0.44093748 0 0 0 0.4618,0.4197 l 4.1309,-0.1957 a 0.44154906,0.44093748 0 0 0 0.4201,-0.462 0.44154906,0.44093748 0 0 0 -0.4625,-0.4188 z"
         id="path118227" />
      <ellipse
         style="fill:#006298;fill-opacity:1;stroke:#006298;stroke-width:1.41994;stroke-linecap:round;stroke-opacity:1;paint-order:stroke fill markers;stop-color:#000000"
         id="ellipse118229"
         cx="1285.3674"
         cy="1952.0957"
         rx="1.150941"
         ry="1.1493468" />
      <ellipse
         style="fill:#006298;fill-opacity:1;stroke:#006298;stroke-width:1.41994;stroke-linecap:round;stroke-opacity:1;paint-order:stroke fill markers;stop-color:#000000"
         id="ellipse118231"
         cx="1285.3674"
         cy="1944.6549"
         rx="1.150941"
         ry="1.1493468" />
      <path
         style="color:#000000;fill:#006298;fill-opacity:1;stroke-width:1.1225;stroke-linecap:round;-inkscape-stroke:none"
         d="m 1289.3128,1943.9492 -4.1309,0.1957 a 0.44154906,0.44093748 0 0 0 -0.4202,0.4611 0.44154906,0.44093748 0 0 0 0.4626,0.4197 l 4.1301,-0.1958 a 0.44154906,0.44093748 0 0 0 0.4203,-0.4619 0.44154906,0.44093748 0 0 0 -0.4619,-0.4188 z"
         id="path118233" />
      <ellipse
         style="fill:#006298;fill-opacity:1;stroke:#006298;stroke-width:1.41994;stroke-linecap:round;stroke-opacity:1;paint-order:stroke fill markers;stop-color:#000000"
         id="ellipse118235"
         cx="-1291.3866"
         cy="-1936.9971"
         transform="scale(-1)"
         rx="1.150941"
         ry="1.1493468" />
      <path
         style="color:#000000;fill:#006298;fill-opacity:1;stroke-width:1.1225;stroke-linecap:round;-inkscape-stroke:none"
         d="m 1291.7731,1936.5882 -4.1309,0.1957 a 0.44154906,0.44093748 0 0 0 -0.4203,0.4612 0.44154906,0.44093748 0 0 0 0.4626,0.4196 l 4.1301,-0.1957 a 0.44154906,0.44093748 0 0 0 0.4203,-0.4612 0.44154906,0.44093748 0 0 0 -0.4618,-0.4196 z"
         id="path118237" />
      <g
         id="g118249"
         transform="matrix(0.40140825,0,0,0.40085226,1164.4177,1910.081)"
         style="fill:#792980;fill-opacity:1;stroke:#792980;stroke-width:2.79834;stroke-opacity:1">
        <path
           style="fill:#792980;fill-opacity:1;stroke:#792980;stroke-width:0.740387px;stroke-linecap:butt;stroke-linejoin:miter;stroke-opacity:1"
           d="m 356.38197,94.074029 0.36044,-6.938412 h -25.14047 c 0,0 0.22527,33.457623 0.18021,39.287623 h 24.96027 l 0.54065,-7.38896 -15.49879,0.45055 -0.0901,-10.00212 13.42627,0.18021 0.36044,-7.02851 -13.96693,0.45054 0.18022,-9.191139 z"
           id="path118239"
           sodipodi:nodetypes="ccccccccccccc" />
        <path
           style="fill:#792980;fill-opacity:1;stroke:#792980;stroke-width:0.740387px;stroke-linecap:butt;stroke-linejoin:miter;stroke-opacity:1"
           d="m 361.60831,87.135617 h 13.33617 l 7.20873,27.032763 7.47905,-27.032763 h 13.33619 l 1.89228,39.377733 H 394.40807 V 94.885011 l -8.45637,31.559629 h -8.93472 l -8.47026,-32.010174 -0.63077,31.988774 h -8.29005 z"
           id="path118241" />
        <path
           id="path118243"
           style="opacity:1;fill:#792980;fill-opacity:1;stroke:#792980;stroke-width:2.79834px;stroke-linecap:butt;stroke-linejoin:miter;stroke-opacity:1"
           d="m 1624.8105,329.20117 -75.8593,1.32422 c 1.445,7.58582 -0.4805,147.50195 -0.4805,147.50195 l 69.7168,0.11914 c 47.4414,-2.16737 45.9961,-50.93164 45.9961,-50.93164 0,-25.28606 -30.1016,-30.94531 -30.1016,-30.94531 26.8514,-7.34502 24.2012,-34.31836 24.2012,-34.31836 0,-30.34326 -33.4727,-32.75 -33.4727,-32.75 z m -39.7363,22.75586 h 20.3496 c 15.0513,0 15.8946,16.01563 15.8946,16.01563 0,20.83089 -18.4239,21.79296 -18.4239,21.79296 h -17.8203 z m 0,62.85547 h 22.6856 c 16.7788,0 17.7187,17.84961 17.7187,17.84961 0,23.21911 -20.539,24.29297 -20.539,24.29297 h -19.8653 z"
           transform="scale(0.26458333)" />
        <path
           style="fill:#792980;fill-opacity:1;stroke:#792980;stroke-width:0.740387px;stroke-linecap:butt;stroke-linejoin:miter;stroke-opacity:1"
           d="m 466.21612,96.148714 0.5416,-7.646021 c 0,0 -14.24072,-6.562834 -22.5239,2.484958 0,0 -5.73451,7.518588 0.95576,14.782309 0,0 4.01416,3.24956 7.00885,3.75929 0,0 9.49381,2.61239 6.43541,8.41063 0,0 -0.76461,1.27433 -2.26195,1.84778 0,0 -7.04071,2.96284 -13.82656,-3.02655 l -0.57345,8.37877 c 0,0 11.34586,4.44406 20.86727,0.19115 0,0 6.69027,-2.67611 5.73451,-12.55222 0,0 -0.12743,-7.5823 -9.81239,-10.32213 0,0 -9.93983,-1.84779 -6.30797,-7.646018 0,0 3.95041,-4.842484 13.76282,1.338052 z"
           id="path118245"
           sodipodi:nodetypes="cccccccccccccc" />
        <path
           style="fill:#792980;fill-opacity:1;stroke:#792980;stroke-width:0.740387px;stroke-linecap:butt;stroke-linejoin:miter;stroke-opacity:1"
           d="m 466.21612,96.148714 0.5416,-7.646021 c 0,0 -14.24072,-6.562834 -22.5239,2.484958 0,0 -5.73451,7.518588 0.95576,14.782309 0,0 4.01416,3.24956 7.00885,3.75929 0,0 9.49381,2.61239 6.43541,8.41063 0,0 -0.76461,1.27433 -2.26195,1.84778 0,0 -7.04071,2.96284 -13.82656,-3.02655 l -0.57345,8.37877 c 0,0 11.34586,4.44406 20.86727,0.19115 0,0 6.69027,-2.67611 5.73451,-12.55222 0,0 -0.12743,-7.5823 -9.81239,-10.32213 0,0 -9.93983,-1.84779 -6.30797,-7.646018 0,0 3.95041,-4.842484 13.76282,1.338052 z"
           id="path118247"
           sodipodi:nodetypes="cccccccccccccc" />
      </g>
      <text
         xml:space="preserve"
         style="font-size:2.26046px;line-height:1.25;font-family:'Times New Roman';-inkscape-font-specification:'Times New Roman, ';letter-spacing:-0.106132px;fill:#006298;fill-opacity:1;stroke-width:0.296991"
         x="1351.5555"
         y="1948.5577"
         id="text118253"
         transform="scale(1.0006933,0.99930719)"><tspan
           sodipodi:role="line"
           id="tspan118251"
           style="font-style:normal;font-variant:normal;font-weight:normal;font-stretch:normal;font-size:2.26046px;font-family:'Arial Rounded MT Bold';-inkscape-font-specification:'Arial Rounded MT Bold, ';fill:#006298;fill-opacity:1;stroke-width:0.296991"
           x="1351.5555"
           y="1948.5577"
           dx="0">TM</tspan></text>
      <text
         xml:space="preserve"
         style="font-size:9.32445px;line-height:1.25;font-family:'Times New Roman';-inkscape-font-specification:'Times New Roman, ';letter-spacing:-0.211918px;fill:#006298;fill-opacity:1;stroke-width:0.296991"
         x="1295.5935"
         y="1975.6367"
         id="text118257"
         transform="scale(1.0006933,0.99930719)"><tspan
           sodipodi:role="line"
           id="tspan118255"
           style="font-style:normal;font-variant:normal;font-weight:bold;font-stretch:normal;font-size:9.32445px;font-family:sans-serif;-inkscape-font-specification:sans-serif;fill:#006298;fill-opacity:1;stroke-width:0.296991"
           x="1295.5935"
           y="1975.6367">Boston</tspan></text>
      <path
         style="fill:#006298;fill-opacity:1;stroke:#006298;stroke-width:0.673493;stroke-linecap:round;stroke-linejoin:miter;stroke-miterlimit:4;stroke-dasharray:none;stroke-opacity:1"
         d="m 1297.5978,1964.736 h 54.0791"
         id="path118259" />
    </g>
  </g>
</svg>
