<?xml version="1.0" encoding="UTF-8" standalone="no"?>
<svg
   xmlns:dc="http://purl.org/dc/elements/1.1/"
   xmlns:cc="http://creativecommons.org/ns#"
   xmlns:rdf="http://www.w3.org/1999/02/22-rdf-syntax-ns#"
   xmlns:svg="http://www.w3.org/2000/svg"
   xmlns="http://www.w3.org/2000/svg"
   xmlns:sodipodi="http://sodipodi.sourceforge.net/DTD/sodipodi-0.dtd"
   xmlns:inkscape="http://www.inkscape.org/namespaces/inkscape"
   width="83.761314mm"
   height="83.761314mm"
   viewBox="0 0 83.761314 83.761314"
   version="1.1"
   id="svg8"
   inkscape:version="1.0.2-2 (e86c870879, 2021-01-15)"
   sodipodi:docname="ipm_logo.svg">
  <defs
     id="defs2" />
  <sodipodi:namedview
     id="base"
     pagecolor="#ffffff"
     bordercolor="#666666"
     borderopacity="1.0"
     inkscape:pageopacity="0.0"
     inkscape:pageshadow="2"
     inkscape:zoom="0.7"
     inkscape:cx="238.31342"
     inkscape:cy="122.20059"
     inkscape:document-units="mm"
     inkscape:current-layer="layer1"
     inkscape:document-rotation="0"
     showgrid="false"
     inkscape:window-width="1920"
     inkscape:window-height="1001"
     inkscape:window-x="667"
     inkscape:window-y="1791"
     inkscape:window-maximized="1"
     fit-margin-top="0"
     fit-margin-left="0"
     fit-margin-right="0"
     fit-margin-bottom="0" />
  <metadata
     id="metadata5">
    <rdf:RDF>
      <cc:Work
         rdf:about="">
        <dc:format>image/svg+xml</dc:format>
        <dc:type
           rdf:resource="http://purl.org/dc/dcmitype/StillImage" />
        <dc:title></dc:title>
      </cc:Work>
    </rdf:RDF>
  </metadata>
  <g
     inkscape:label="Layer 1"
     inkscape:groupmode="layer"
     id="layer1"
     transform="translate(107.62896,-95.49587)">
    <circle
       style="fill:#ffffff;fill-opacity:1;stroke:#a9b0b7;stroke-width:1.61852;stroke-linecap:round;stroke-linejoin:round;stroke-miterlimit:4;stroke-dasharray:none;stroke-dashoffset:0;stroke-opacity:1"
       id="path1155"
       cx="-65.748306"
       cy="137.37653"
       r="41.071396"
       inkscape:export-filename="C:\Users\Lenovo P1\Desktop\path1155.png"
       inkscape:export-xdpi="96"
       inkscape:export-ydpi="96" />
    <g
       id="g935"
       transform="matrix(0.29022014,0,0,0.29022014,-44.203108,140.07141)">
      <path
         id="path915"
         style="fill:#0e0e0e;fill-opacity:1;stroke:#0b0b0b;stroke-width:0.264583px;stroke-linecap:butt;stroke-linejoin:miter;stroke-opacity:1"
         d="m -58.710132,-83.651224 -13.57643,50.667708 c 0,0 -2.77133,7.94252 -12.26799,7.422803 0,0 -14.22128,-3.118083 -9.8273,13.843599 0,0 3.07106,7.7011171 7.27604,10.3941974 0,0 6.14219,5.1970989 4.39405,11.8116816 l -14.44047,53.923324 h 6.41408 l 12.56203,-49.979378 c 0,0 2.13808,-5.3453081 7.6171,-5.6125775 0,0 20.57948,0.935382 10.15597,-16.7044066 0,0 -5.29979,-8.7938519 -6.10298,-9.5498049 0,0 -2.74033,-3.024104 -1.65365,-7.654313 0.28348,-0.04725 15.69207,-58.562833 15.69207,-58.562833 z m -22.83891,64.719563 a 12.386087,7.7185075 43.237758 0 1 10.06915,4.656047 12.386087,7.7185075 43.237758 0 1 3.56671,14.07304239 12.386087,7.7185075 43.237758 0 1 -14.35365,-3.02772199 12.386087,7.7185075 43.237758 0 1 -3.56722,-14.0735594 12.386087,7.7185075 43.237758 0 1 4.28501,-1.627808 z" />
      <path
         style="fill:#0e0e0e;fill-opacity:1;stroke:#0b0b0b;stroke-width:1.265;stroke-linecap:butt;stroke-linejoin:miter;stroke-miterlimit:4;stroke-dasharray:none;stroke-opacity:1"
         d="m -113.04428,64.44494 h -57.26339 c 0,0 22.30059,-4.724702 27.0253,-22.300596 l 26.6277,-99.375924 m 0,0 c 0,0 3.4214,-25.545206 41.408008,-25.923182 l -9.4494,37.892113 c 0,0 0.10526,2.900429 -4.57196,3.90269 0,0 -28.878938,4.03481 -18.768068,35.1233518 0,0 1.88988,5.66964291 5.00818,9.0714286 0,0 5.953128,3.3072917 2.92932,14.1741076 l -12.94569,47.436011"
         id="path907" />
      <path
         style="fill:#0e0e0e;fill-opacity:1;stroke:#0b0b0b;stroke-width:0.665;stroke-linecap:butt;stroke-linejoin:miter;stroke-miterlimit:4;stroke-dasharray:none;stroke-opacity:1"
         d="m 21.916101,-83.38809 h -58.932933 l -13.76438,53.587538 c 0,0 -1.20271,5.87993 2.53906,9.488068 m 0,0 c 0,0 15.90254,18.9761364 3.34087,35.413212 0,0 -6.9581,7.341608 -13.80892,7.861326 0,0 -5.76414,0.188988 -7.37054,6.236607 l -9.58247,35.762299 c 0,0 32.54453,-0.138043 38.97012,-23.761555 l 26.738253,-99.788489 c 0,0 7.95032,-21.324499 31.87094,-24.799006"
         id="path909" />
      <path
         style="fill:#0e0e0e;fill-opacity:1;stroke:#0b0b0b;stroke-width:0.264583px;stroke-linecap:butt;stroke-linejoin:miter;stroke-opacity:1"
         d="m -108.50856,64.775669 h 6.2366 l 14.006108,-52.271511 c 0,0 0.92395,-5.8895748 -2.57233,-9.8583247 0,0 -19.182288,-17.4813983 -5.57515,-30.3325893 0,0 4.9137,-4.819196 13.32367,-3.590774 0,0 5.48065,0.755953 6.70907,-4.063244 l 12.95529,-48.34978 c -0.25167,-0.09844 -6.39886,0 -6.39886,0 l -10.49033,41.862873 c 0,0 -2.93997,5.211756 -7.81764,5.479025 0,0 -22.584268,2.472243 -16.503888,26.6601356 0,0 4.810848,9.35443349 7.149458,11.6930419 0,0 4.62479,5.7405565 1.93771,15.7689025 z"
         id="path911" />
      <path
         style="fill:#0e0e0e;fill-opacity:1;stroke:#0b0b0b;stroke-width:0.264583px;stroke-linecap:butt;stroke-linejoin:miter;stroke-opacity:1"
         d="m -41.658122,-83.734306 h -6.2366 l -14.00611,52.271511 c 0,0 -2.12667,8.695905 1.36962,12.664654 0,0 13.297038,17.95410761 6.588872,27.2427776 0,0 -4.724712,5.1026784 -13.134682,3.8742564 0,0 -5.48065,-0.755953 -6.70907,4.063244 l -12.95529,48.34978 c 0.25167,0.09844 6.39886,0 6.39886,0 l 10.49033,-41.862873 c 0,0 2.93997,-5.211756 7.81764,-5.479025 0,0 20.31248,0.334087 14.2321,-23.8538059 0,0 -6.1472,-14.8334581 -8.48581,-17.1720671 0,0 -1.01665,-3.067861 1.67043,-13.096207 z"
         id="path913"
         sodipodi:nodetypes="ccccccccccccccc" />
    </g>
  </g>
</svg>
