<?xml version="1.0" encoding="UTF-8" standalone="no"?>
<svg
   xmlns:dc="http://purl.org/dc/elements/1.1/"
   xmlns:cc="http://creativecommons.org/ns#"
   xmlns:rdf="http://www.w3.org/1999/02/22-rdf-syntax-ns#"
   xmlns:svg="http://www.w3.org/2000/svg"
   xmlns="http://www.w3.org/2000/svg"
   xmlns:sodipodi="http://sodipodi.sourceforge.net/DTD/sodipodi-0.dtd"
   xmlns:inkscape="http://www.inkscape.org/namespaces/inkscape"
   height="316.57819"
   width="316.57819"
   version="1.0"
   id="svg24"
   sodipodi:docname="kit_logo.svg"
   inkscape:version="1.0.2-2 (e86c870879, 2021-01-15)">
  <defs
     id="defs28" />
  <sodipodi:namedview
     pagecolor="#ffffff"
     bordercolor="#666666"
     borderopacity="1"
     objecttolerance="10"
     gridtolerance="10"
     guidetolerance="10"
     inkscape:pageopacity="0"
     inkscape:pageshadow="2"
     inkscape:window-width="1920"
     inkscape:window-height="1001"
     id="namedview26"
     showgrid="false"
     fit-margin-top="0"
     fit-margin-left="0"
     fit-margin-right="0"
     fit-margin-bottom="0"
     inkscape:zoom="0.6165"
     inkscape:cx="-216.35147"
     inkscape:cy="94.037621"
     inkscape:window-x="667"
     inkscape:window-y="1791"
     inkscape:window-maximized="1"
     inkscape:current-layer="svg24" />
  <metadata
     id="metadata2">
    <rdf:RDF>
      <cc:Work
         rdf:about="">
        <dc:format>image/svg+xml</dc:format>
        <dc:type
           rdf:resource="http://purl.org/dc/dcmitype/StillImage" />
        <dc:title></dc:title>
      </cc:Work>
    </rdf:RDF>
  </metadata>
  <circle
     style="fill:#ffffff;fill-opacity:1;stroke:#a9b0b7;stroke-width:6.11724;stroke-linecap:round;stroke-linejoin:round;stroke-miterlimit:4;stroke-dasharray:none;stroke-dashoffset:0;stroke-opacity:1"
     id="path1155"
     cx="158.28909"
     cy="158.28909"
     r="155.23047"
     inkscape:export-filename="C:\Users\Lenovo P1\Desktop\path1155.png"
     inkscape:export-xdpi="96"
     inkscape:export-ydpi="96" />
  <g
     id="g872"
     transform="matrix(0.25740807,0,0,0.25740807,29.762329,94.068833)">
    <path
       d="M 984.5105,25.415961 H 753.99628 V 103.9274 h 67.39781 v 270.66615 h 95.71893 V 103.9274 H 984.5105 Z M 731.05221,374.2349 H 635.33302 V 25.415961 h 95.71919 z m -111.85159,0 H 512.72677 L 386.17696,238.36428 V 160.57003 L 508.78321,25.057291 H 618.48387 L 477.23551,200.72194 Z"
       fill-rule="evenodd"
       fill="#000000"
       id="path4" />
    <path
       d="M 363.2329,374.2349 Z"
       fill-rule="evenodd"
       fill="#000000"
       id="path6" />
    <path
       d="M 363.2329,374.2349 Z"
       fill-rule="evenodd"
       fill="#000000"
       id="path8" />
    <path
       d="M 90.415838,153.04142 C 72.132255,175.26854 56.358573,199.64647 44.169294,225.81675 L 363.2329,374.2349 90.415844,153.04142 Z"
       fill-rule="evenodd"
       fill="#32a189"
       id="path10" />
    <path
       d="M 363.2329,374.2349 214.45625,57.681003 C 187.92722,69.86959 163.5495,84.927083 141.32261,102.85195 Z"
       fill-rule="evenodd"
       fill="#32a189"
       id="path12" />
    <path
       d="m 363.2329,374.2349 0.35846,-348.81894 h -2.86773 c -28.32151,0 -55.9259,3.585389 -82.45464,10.038217 z"
       fill-rule="evenodd"
       fill="#000000"
       id="path14" />
    <path
       d="M 363.2329,374.2349 Z"
       fill-rule="evenodd"
       fill="#000000"
       id="path16" />
    <path
       d="M 363.2329,374.2349 Z"
       fill-rule="evenodd"
       fill="#000000"
       id="path18" />
    <path
       d="M 21.225547,288.91246 C 14.055733,316.15854 10.4707,344.83813 10.112113,374.2349 H 363.2329 L 21.225553,288.91246 Z"
       fill-rule="evenodd"
       fill="#32a189"
       id="path20" />
    <path
       fill-rule="nonzero"
       fill="#000000"
       d="m 989.33109,452.77847 c -1.44216,1.19131 -5.95591,3.19757 -9.84307,3.19757 -5.58122,0 -10.53349,-4.32639 -10.53349,-10.65844 h 22.82176 c 0,-10.28324 -3.44884,-18.05798 -14.10697,-18.05798 -9.02821,0 -14.98579,6.70993 -14.98579,16.17705 0,10.40815 5.20478,17.31512 16.55317,17.31512 5.26576,0 7.83717,-1.26476 10.09439,-2.07972 z m -20.37656,-11.84928 c 0.43881,-4.1385 2.82115,-8.90364 8.58997,-8.90364 5.07818,0 7.96189,4.0123 7.96189,8.90364 z m -19.07245,19.05915 h 5.89349 v -31.97639 h -5.89349 z m 6.26966,-45.76941 h -6.646 v 6.64602 h 6.646 z m -376.41865,1.38813 h 6.5511 v 6.67707 h -6.5511 z m 14.01317,0 h 6.5511 v 6.67707 h -6.5511 z m 18.77129,44.38128 h 5.89359 v -14.54578 c 0,-8.02449 3.44859,-13.04061 8.71454,-13.04061 1.00367,0 2.19497,0.12495 3.26126,0.5638 v -5.26609 c -1.25373,-0.25119 -2.13262,-0.44004 -3.88735,-0.44004 -3.38615,0 -6.77237,2.38375 -8.33984,5.70613 h -0.12495 v -4.9538 h -5.51723 v 31.97639 z m -8.36416,-32.73985 h -5.8936 v 14.79694 c 0,7.7748 -3.00852,13.16716 -9.71835,13.16716 -5.14106,-0.31395 -6.77084,-3.94995 -6.77084,-11.41085 v -16.55325 h -5.89359 v 18.99828 c 0,8.5894 3.69861,13.74157 11.97578,13.74157 4.45104,0 8.71475,-2.20468 10.471,-5.84209 h 0.12494 v 5.07864 h 5.70469 v -31.9764 z m -317.75366,32.73985 h 5.89359 v -14.54578 c 0,-8.02449 3.44859,-13.04061 8.71453,-13.04061 1.00368,0 2.19498,0.12495 3.26127,0.5638 v -5.26609 c -1.25373,-0.25119 -2.13263,-0.44004 -3.88735,-0.44004 -3.38616,0 -6.77237,2.38375 -8.33984,5.70613 h -0.12495 v -4.9538 h -5.51723 v 31.97639 z m 654.98132,-31.97639 h -5.45477 v 4.76636 h -0.12495 c -1.7551,-3.44852 -4.8898,-5.51869 -10.53347,-5.51869 -9.65567,0 -14.29554,8.77823 -14.29554,16.99202 0,8.27577 4.51485,15.7367 13.66954,15.7367 4.07452,0 8.21335,-1.63013 10.72058,-4.9522 h 0.12515 v 3.13467 c 0,6.78232 -3.6988,10.9833 -9.90591,10.9833 -4.326,0 -7.02239,-0.81639 -11.537,-2.88508 l -0.62631,5.45485 c 5.14092,1.75618 8.08696,2.19507 11.47334,2.19507 11.47447,0 16.48919,-5.58123 16.48919,-15.30935 v -30.59765 z m -15.23572,27.21154 c -5.51729,0 -8.90182,-5.26609 -8.90182,-11.28578 0,-5.45477 2.94603,-11.91216 8.90182,-11.91216 6.2699,0 9.34241,5.70502 9.34241,12.35105 0,5.95722 -3.82371,10.84689 -9.34241,10.84689 z M 872.6639,444.00018 c 0,9.15472 6.646,16.75161 16.3018,16.75161 9.59354,0 16.23948,-7.59689 16.23948,-16.75161 0,-9.7182 -6.52097,-16.74056 -16.23948,-16.74056 -9.78072,0 -16.3018,7.02236 -16.3018,16.74056 z m 6.27115,0 c 0,-6.08074 3.69845,-11.97463 10.03065,-11.97463 6.26986,0 9.9699,5.89389 9.9699,11.97463 0,5.70608 -3.07253,11.97586 -9.9699,11.97586 -6.95964,0 -10.03065,-6.26978 -10.03065,-11.97586 z m -20.81663,15.98816 h 5.89355 v -47.02312 h -5.89355 z m -41.19324,-15.98816 c 0,9.15472 6.64569,16.75161 16.30175,16.75161 9.59324,0 16.23931,-7.59689 16.23931,-16.75161 0,-9.7182 -6.5211,-16.74056 -16.23931,-16.74056 -9.78094,0 -16.30175,7.02236 -16.30175,16.74056 z m 6.27082,0 c 0,-6.08074 3.69849,-11.97463 10.03093,-11.97463 6.26971,0 9.9696,5.89389 9.9696,11.97463 0,5.70608 -3.07239,11.97586 -9.9696,11.97586 -6.95951,0 -10.03093,-6.26978 -10.03093,-11.97586 z m -42.44695,15.98816 h 5.89359 V 445.1915 c 0,-7.77343 3.01004,-13.16595 9.71821,-13.16595 5.1412,0.3127 6.77103,3.95024 6.77103,11.41112 v 16.55167 h 5.89359 v -18.99667 c 0,-8.58972 -3.69852,-13.73205 -11.97433,-13.73205 -4.45236,0 -8.71621,2.19508 -10.47099,5.83106 h -0.12494 v -5.07873 h -5.7062 v 31.97639 z m -38.30816,0 h 5.89359 V 445.1915 c 0,-7.77343 3.00974,-13.16595 9.71821,-13.16595 5.14096,0.3127 6.77074,3.95024 6.77074,11.41112 v 16.55167 h 5.89388 v -18.99667 c 0,-8.58972 -3.6988,-13.73205 -11.97463,-13.73205 -4.45236,0 -8.15087,1.94364 -10.28319,5.32973 h -0.12495 v -19.62413 h -5.89359 v 47.02312 z m -7.0223,-31.47347 c -1.69231,-0.69 -4.76451,-1.25525 -7.14713,-1.25525 -9.78083,0 -16.30173,7.02236 -16.30173,16.74056 0,9.15472 6.64577,16.75161 16.30173,16.75161 2.13122,0 4.9535,-0.18885 7.39851,-1.32725 l -0.43857,-5.26584 c -1.81876,1.19129 -4.32626,1.81734 -6.33244,1.81734 -7.58718,0 -10.65953,-6.26978 -10.65953,-11.97586 0,-6.08074 3.69985,-11.97463 10.28324,-11.97463 1.88001,0 4.13734,0.43884 6.39479,1.37868 z m -31.16138,24.2636 c -1.44215,1.19131 -5.95589,3.19757 -9.84301,3.19757 -5.58129,0 -10.53352,-4.32639 -10.53352,-10.65844 h 22.82174 c 0,-10.28324 -3.44883,-18.05798 -14.1069,-18.05798 -9.02823,0 -14.98582,6.70993 -14.98582,16.17705 0,10.40815 5.20483,17.31512 16.55311,17.31512 5.26579,0 7.83719,-1.26476 10.0944,-2.07972 z m -20.37653,-11.84928 c 0.43885,-4.1385 2.82114,-8.90364 8.58996,-8.90364 5.07816,0 7.96187,4.0123 7.96187,8.90364 z m -25.08009,19.05915 h 6.26983 v -38.24596 h 13.60555 v -5.51725 h -33.48131 v 5.51725 h 13.60593 z m -104.32843,0 h 5.89368 v -27.21003 h 8.46447 v -4.76636 h -8.46447 v -3.44698 c 0,-4.32752 0.62609,-7.58744 5.70438,-7.58744 1.00403,0 2.13273,0.12495 2.82266,0.37611 l 0.24973,-4.76447 c -1.19106,-0.18907 -2.44466,-0.37642 -3.9497,-0.37642 -8.71437,0 -10.72075,5.07873 -10.72075,12.85321 v 2.94599 h -7.52474 v 4.76636 h 7.52474 z m -27.06455,-31.97639 h -8.46462 v -9.27811 l -5.89359,1.87971 v 7.3984 h -7.21102 v 4.76636 h 7.21102 v 18.68427 c 0,6.39461 3.76111,9.28921 9.84347,9.28921 1.88106,0 3.69852,-0.50095 5.01606,-0.88836 v -5.01622 c -0.87744,0.56495 -2.19508,1.12883 -4.0139,1.12883 -2.6946,0 -4.95204,-2.00626 -4.95204,-5.70476 v -17.49297 h 8.46462 z m -27.0238,0 h -5.89359 v 14.79693 c 0,7.77481 -3.00853,13.16716 -9.71835,13.16716 -5.14107,-0.31395 -6.77085,-3.94994 -6.77085,-11.41085 v -16.55324 h -5.89359 v 18.99827 c 0,8.5894 3.69862,13.74157 11.97578,13.74157 4.45104,0 8.71476,-2.20468 10.47101,-5.84208 h 0.12493 v 5.07863 h 5.7047 v -31.97639 z m -35.67485,0 h -8.46461 v -9.27811 l -5.89342,1.87971 v 7.3984 h -7.21117 v 4.76636 h 7.21117 v 18.68427 c 0,6.39461 3.76101,9.28921 9.84319,9.28921 1.88124,0 3.69864,-0.50095 5.01622,-0.88836 v -5.01622 c -0.87741,0.56495 -2.19516,1.12883 -4.01388,1.12883 -2.69465,0 -4.95211,-2.00626 -4.95211,-5.70476 v -17.49297 h 8.46461 z m -33.6698,31.97639 h 5.89349 v -31.97639 h -5.89349 z m 6.26966,-45.76941 h -6.646 v 6.64602 h 6.646 z m -14.42052,13.79302 h -8.46474 v -9.27811 l -5.89359,1.87971 v 7.3984 h -7.21101 v 4.76636 h 7.21101 v 18.68427 c 0,6.39461 3.76092,9.28921 9.84329,9.28921 1.88125,0 3.69864,-0.50095 5.01618,-0.88836 v -5.01622 c -0.8775,0.56495 -2.19492,1.12883 -4.0137,1.12883 -2.69477,0 -4.95218,-2.00626 -4.95218,-5.70476 v -17.49297 h 8.46474 z m -44.07831,30.97376 c 2.69619,1.45224 5.76853,1.76608 8.77692,1.76608 5.70613,0 11.16084,-3.14597 11.16084,-9.97918 0,-10.21978 -13.85549,-8.33972 -13.85549,-14.85966 0,-2.63369 2.63215,-3.8874 5.64214,-3.8874 1.38009,0 4.89115,0.8152 6.20723,1.63011 l 0.50126,-5.14079 c -2.32007,-0.69 -4.57599,-1.25525 -7.33592,-1.25525 -6.33232,0 -11.28586,3.19865 -11.28586,9.84463 0,8.96607 13.85699,8.46322 13.85699,14.29434 0,3.44862 -3.32221,4.57745 -6.01855,4.57745 -1.69372,0 -5.01586,-0.75255 -7.33592,-2.25763 z m -35.61229,1.00263 h 5.89359 V 445.1915 c 0,-7.77343 3.00987,-13.16595 9.71825,-13.16595 5.14097,0.3127 6.77094,3.95024 6.77094,11.41112 v 16.55167 h 5.8936 v -18.99667 c 0,-8.58972 -3.69869,-13.73205 -11.97444,-13.73205 -4.45242,0 -8.71602,2.19508 -10.47082,5.83106 h -0.12495 v -5.07873 h -5.70615 v 31.97639 z m -16.86687,0 h 6.26977 v -43.76321 h -6.26977 z m -51.94799,-7.20987 c -1.44257,1.19131 -5.95598,3.19757 -9.84337,3.19757 -5.58117,0 -10.53342,-4.32639 -10.53342,-10.65844 h 22.82174 c 0,-10.28324 -3.44881,-18.05798 -14.10704,-18.05798 -9.02826,0 -14.98566,6.70993 -14.98566,16.17705 0,10.40815 5.20475,17.31512 16.55311,17.31512 5.26596,0 7.83717,-1.26476 10.09464,-2.07972 z m -20.37679,-11.84928 c 0.43883,-4.1385 2.82126,-8.90364 8.58971,-8.90364 5.07858,0 7.96208,4.0123 7.96208,8.90364 z m -42.44682,19.05915 h 5.89347 V 445.1915 c 0,-7.77343 3.00985,-13.16595 9.71834,-13.16595 5.14103,0.3127 6.77085,3.95024 6.77085,11.41112 v 16.55167 h 5.89359 v -18.99667 c 0,-8.58972 -3.69851,-13.73205 -11.9745,-13.73205 -4.45238,0 -8.15081,1.94364 -10.28338,5.32973 h -0.12494 v -19.62413 h -5.89347 v 47.02312 z m -10.03225,-31.97639 h -5.89338 v 14.79693 c 0,7.77481 -3.00857,13.16716 -9.71838,13.16716 -5.14103,-0.31395 -6.77097,-3.94994 -6.77097,-11.41085 v -16.55324 h -5.89348 v 18.99827 c 0,8.5894 3.69869,13.74157 11.97585,13.74157 4.45103,0 8.71449,-2.20468 10.47082,-5.84208 h 0.12495 v 5.07863 h 5.70463 v -31.97639 z m -52.6665,31.97639 h 5.89359 v -14.54578 c 0,-8.02449 3.44859,-13.04061 8.71453,-13.04061 1.00368,0 2.19498,0.12495 3.26127,0.5638 v -5.26609 c -1.25373,-0.25119 -2.13263,-0.44004 -3.88735,-0.44004 -3.38616,0 -6.77237,2.38375 -8.33985,5.70613 h -0.12494 v -4.9538 h -5.51723 v 31.97639 z m -27.0864,-1.00263 c 2.69628,1.45224 5.76863,1.76608 8.77714,1.76608 5.70602,0 11.16079,-3.14597 11.16079,-9.97918 0,-10.21978 -13.85556,-8.33972 -13.85556,-14.85966 0,-2.63369 2.6323,-3.8874 5.6422,-3.8874 1.38004,0 4.89101,0.8152 6.20709,1.63011 l 0.5014,-5.14079 c -2.31994,-0.69 -4.57607,-1.25525 -7.33606,-1.25525 -6.33218,0 -11.28579,3.19865 -11.28579,9.84463 0,8.96607 13.8572,8.46322 13.8572,14.29434 0,3.44862 -3.32245,4.57745 -6.01869,4.57745 -1.69366,0 -5.01593,-0.75255 -7.33598,-2.25763 z m -13.98187,1.00263 h 5.89348 v -47.02312 h -5.89348 z m -25.142816,0 h 5.893593 v -14.54578 c 0,-8.02449 3.448563,-13.04061 8.714486,-13.04061 1.003861,0 2.194954,0.12495 3.261287,0.5638 v -5.26609 c -1.253771,-0.25119 -2.132461,-0.44004 -3.88745,-0.44004 -3.386029,0 -6.772306,2.38375 -8.339593,5.70613 h -0.12515 v -4.9538 H 82.649394 Z M 49.607035,435.2855 c 2.382393,-2.00624 5.956024,-3.25995 9.278344,-3.25995 5.894747,0 7.900926,2.82143 7.900926,8.33867 -2.319941,-0.12494 -3.9497,-0.12494 -6.269642,-0.12494 -6.082329,0 -14.860854,2.5069 -14.860854,10.53341 0,6.95964 4.82866,9.97919 11.725848,9.97919 5.39095,0 8.525937,-2.95708 9.905786,-4.90081 h 0.124944 v 4.13735 h 5.517153 c -0.124945,-0.93985 -0.249868,-2.63245 -0.249868,-6.26993 v -13.22922 c 0,-8.71474 -3.699895,-13.22957 -12.853212,-13.22957 -4.076067,0 -7.587185,1.25525 -10.533291,3.00998 l 0.313763,5.01591 z m 17.17927,12.28975 c 0,4.7647 -3.072328,8.40079 -8.903449,8.40079 -2.696093,0 -5.9559,-1.81734 -5.9559,-5.20343 0,-5.64368 7.899607,-6.14495 11.097024,-6.14495 1.253607,0 2.507213,0.12495 3.762325,0.12495 v 2.82266 z M 6.846326,459.98834 h 6.269849 v -21.44286 l 19.499026,21.44286 H 41.7699 L 19.574511,436.91558 40.139955,416.22513 H 31.800301 L 13.116175,435.47435 V 416.22513 H 6.846326 Z"
       id="path22" />
  </g>
</svg>
