<?xml version="1.0" encoding="UTF-8" standalone="no"?>
<svg
   xmlns:dc="http://purl.org/dc/elements/1.1/"
   xmlns:cc="http://creativecommons.org/ns#"
   xmlns:rdf="http://www.w3.org/1999/02/22-rdf-syntax-ns#"
   xmlns:svg="http://www.w3.org/2000/svg"
   xmlns="http://www.w3.org/2000/svg"
   xmlns:sodipodi="http://sodipodi.sourceforge.net/DTD/sodipodi-0.dtd"
   xmlns:inkscape="http://www.inkscape.org/namespaces/inkscape"
   width="83.761314mm"
   height="83.761314mm"
   viewBox="0 0 83.761314 83.761314"
   version="1.1"
   id="svg8"
   inkscape:version="1.0.2-2 (e86c870879, 2021-01-15)"
   sodipodi:docname="librivox_logo.svg">
  <defs
     id="defs2" />
  <sodipodi:namedview
     id="base"
     pagecolor="#ffffff"
     bordercolor="#666666"
     borderopacity="1.0"
     inkscape:pageopacity="0.0"
     inkscape:pageshadow="2"
     inkscape:zoom="1.4"
     inkscape:cx="120.76717"
     inkscape:cy="268.23238"
     inkscape:document-units="mm"
     inkscape:current-layer="layer1"
     inkscape:document-rotation="0"
     showgrid="false"
     fit-margin-top="0"
     fit-margin-left="0"
     fit-margin-right="0"
     fit-margin-bottom="0"
     inkscape:window-width="1920"
     inkscape:window-height="1001"
     inkscape:window-x="667"
     inkscape:window-y="1791"
     inkscape:window-maximized="1" />
  <metadata
     id="metadata5">
    <rdf:RDF>
      <cc:Work
         rdf:about="">
        <dc:format>image/svg+xml</dc:format>
        <dc:type
           rdf:resource="http://purl.org/dc/dcmitype/StillImage" />
        <dc:title />
      </cc:Work>
    </rdf:RDF>
  </metadata>
  <g
     inkscape:label="Layer 1"
     inkscape:groupmode="layer"
     id="layer1"
     transform="translate(-66.220533,-150.13125)">
    <circle
       style="fill:#3e5b58;fill-opacity:1;stroke:#a9b0b7;stroke-width:1.61852;stroke-linecap:round;stroke-linejoin:round;stroke-miterlimit:4;stroke-dasharray:none;stroke-dashoffset:0;stroke-opacity:1"
       id="path1155"
       cx="108.10119"
       cy="192.0119"
       r="41.071396"
       inkscape:export-filename="C:\Users\Lenovo P1\Desktop\path1155.png"
       inkscape:export-xdpi="96"
       inkscape:export-ydpi="96" />
    <g
       transform="matrix(0.22016185,0,0,0.22016185,77.021182,143.17513)"
       style="display:inline;fill:#d4ee78;fill-opacity:1"
       id="g4150">
      <path
         id="path4152"
         d="m 102.78272,133.33897 c -3.153803,0.10048 -6.446477,2.10194 -7.61328,5.39649 -0.91029,2.57027 1.110545,7.37472 3.609375,8.58203 3.319565,1.60384 5.165165,1.40208 8.062495,-0.87696 3.12229,-2.456 3.62573,-8.17252 0.97852,-11.09765 -1.30277,-1.43955 -3.14483,-2.0642 -5.03711,-2.00391 z m 138,0 c -3.15381,0.10048 -6.44648,2.10194 -7.61328,5.39649 -0.91029,2.57027 1.11054,7.37472 3.60937,8.58203 3.31957,1.60384 5.16517,1.40208 8.0625,-0.87696 3.12229,-2.456 3.62573,-8.17252 0.97852,-11.09765 -1.30277,-1.43955 -3.14483,-2.0642 -5.03711,-2.00391 z M 35.476081,135.5128 v 38.41992 c 0,21.13002 -0.273578,39.13002 -0.607422,40 -0.544122,1.41796 2.148749,1.58008 26,1.58008 h 26.607422 v -4.5 -4.5 h -20 -20 v -35.5 -35.5 h -6 z m 88.248049,0 0.2832,31.46094 c 0.27978,31.04466 0.31728,31.52891 2.75586,36.85547 2.77089,6.05242 7.42084,10.15053 13.93359,12.27539 2.56632,0.83729 7.10525,1.26299 11.34375,1.06445 12.83131,-0.60105 22.4904,-8.16044 26.04297,-20.38086 2.14838,-7.39015 1.52809,-20.02142 -1.29492,-26.34375 -6.9717,-15.61363 -27.07851,-19.70285 -39.66406,-8.06641 l -2.84961,2.63477 0.36328,-14.75 0.36523,-14.75 h -5.63867 z m 104.75195,20 -3.75,0.006 c -7.10967,0.0106 -11.51016,1.9314 -16.5,7.20312 l -4.75,5.01953 v -5.11328 -5.11523 h -4.75 -4.75 v 29 29 h 5.64062 5.64063 l -0.52734,-18.75 -0.52735,-18.75 3.43164,-4.49414 c 4.85917,-6.36057 10.10166,-9.19156 16.0918,-8.69336 l 4.75,0.39453 v -4.85352 -4.85351 z m -131.499999,2 v 29 29 h 5.499999 5.5 v -29 -29 h -5.5 z m 137.999999,0 v 29 29 h 5.5 5.5 v -29 -29 h -5.5 z m -82.54297,6.16601 c 9.67372,0.42864 17.00091,10.30175 15.78125,25.4961 -0.72588,9.0429 -4.03841,15.20104 -9.72852,18.08789 -2.43917,1.2375 -5.81784,2.25 -7.50976,2.25 -1.69192,0 -5.08502,-1.0125 -7.53906,-2.25 -6.76115,-3.40945 -8.35172,-7.44906 -8.79688,-22.33789 l -0.36133,-12.08789 4.0918,-3.5 c 4.78399,-4.09492 9.66536,-5.85304 14.0625,-5.65821 z"
         style="fill:#d4ee78;fill-opacity:1;stroke:none;stroke-opacity:1"
         sodipodi:nodetypes="sssssssssssscssscccccccccccsssssscccccccccccccccccccccccccccccccccccccccccccssssssccs" />
      <path
         id="path4152-9"
         d="m 44.48734,228.45699 3.31445,9.25 c 1.82243,5.0875 8.1858,23.3125 14.14258,40.5 l 10.83008,31.25 h 9.17773 9.17578 l 13.55274,-38.75 c 7.45365,-21.3125 13.87058,-39.55517 14.25976,-40.54101 0.65115,-1.64947 0.0443,-1.76911 -7.61133,-1.5 l -8.32031,0.29101 -8.6875,25.16016 c -4.77873,13.83783 -9.27661,27.45033 -9.99414,30.25 -0.71754,2.79967 -1.55671,5.0757 -1.86523,5.05664 -0.30852,-0.0191 -5.0489,-13.74405 -10.53321,-30.5 l -9.9707,-30.4668 h -8.73633 z m 102.41406,20.54102 c -7.75649,0.0252 -9.70311,0.39475 -14.08985,2.67969 -5.93771,3.0928 -10.84137,8.32411 -13.80468,14.72851 -1.69711,3.66785 -2.10547,6.49101 -2.10547,14.55078 0,5.86372 0.56043,11.58675 1.35547,13.83594 2.38361,6.74332 8.40127,12.25842 16.13672,14.78711 4.86498,1.59035 19.15932,0.41664 23.73046,-1.94922 10.28856,-5.32496 15.46632,-14.09354 16.09571,-27.25781 0.71204,-14.89297 -3.62602,-24.18505 -13.56836,-29.07031 -3.93029,-1.93118 -6.30502,-2.32891 -13.75,-2.30469 z m 41.42969,0.45898 c -4.91155,0 -8.92969,0.30602 -8.92969,0.67969 0,0.37368 4.05,6.84285 9,14.375 4.95,7.53215 9,14.18397 9,14.78321 0,0.59923 -4.47356,7.63201 -9.94141,15.62695 l -9.9414,14.53515 h 9.38867 9.38867 l 5.30273,-9.47656 c 2.9164,-5.21299 5.59652,-9.48799 5.95704,-9.5 0.36053,-0.012 3.06053,4.2517 6,9.47656 l 5.3457,9.5 h 9.80859 c 1.89704,5e-5 3.44744,-0.017 4.69727,-0.0586 3.7495,-0.12482 4.79102,-0.46616 4.34765,-1.1914 -0.4203,-0.6875 -4.52977,-7.0326 -9.13086,-14.10157 -4.60108,-7.06896 -8.58907,-13.43777 -8.86328,-14.15234 -0.27421,-0.71458 3.28061,-7.30502 7.89844,-14.64648 4.61782,-7.34146 8.72418,-13.91211 9.12695,-14.59961 0.56214,-0.95952 -1.24802,-1.25 -7.79296,-1.25 h -8.52735 l -5.59961,9.51758 c -3.08053,5.23426 -5.95726,9.29638 -6.39258,9.02734 -0.43532,-0.26904 -3.13635,-4.55041 -6.00195,-9.51563 l -5.21094,-9.02929 z m -42.48047,12.37305 c 1.91613,9e-5 3.81792,0.43995 5.55078,1.33008 4.89361,2.5137 6.99605,7.24129 6.99805,15.73242 0.002,8.21351 -2.45323,14.22243 -6.88086,16.83789 -6.49665,3.83767 -14.6052,0.9663 -17.4668,-6.18554 -3.46583,-8.66197 -1.06944,-21.80051 4.66016,-25.55469 2.18746,-1.43329 4.67507,-2.16027 7.13867,-2.16016 z"
         style="display:inline;fill:#d4ee78;fill-opacity:1;stroke:none;stroke-opacity:1"
         sodipodi:nodetypes="cccccccscccssccccsssssssssssssscccccscccsssssssccsscssssssss" />
    </g>
  </g>
</svg>
