<?xml version="1.0" encoding="UTF-8" standalone="no"?>
<svg
   width="316.57819"
   height="316.57819"
   viewBox="0 0 316.57819 316.57818"
   fill="none"
   version="1.1"
   id="svg112"
   sodipodi:docname="proj.svg"
   inkscape:version="1.1.2 (b8e25be833, 2022-02-05)"
   inkscape:export-filename="C:\Users\Lenovo P1\Desktop\logo-presentation.png"
   inkscape:export-xdpi="96"
   inkscape:export-ydpi="96"
   xmlns:inkscape="http://www.inkscape.org/namespaces/inkscape"
   xmlns:sodipodi="http://sodipodi.sourceforge.net/DTD/sodipodi-0.dtd"
   xmlns:xlink="http://www.w3.org/1999/xlink"
   xmlns="http://www.w3.org/2000/svg"
   xmlns:svg="http://www.w3.org/2000/svg"
   xmlns:rdf="http://www.w3.org/1999/02/22-rdf-syntax-ns#"
   xmlns:cc="http://creativecommons.org/ns#"
   xmlns:dc="http://purl.org/dc/elements/1.1/">
  <metadata
     id="metadata118">
    <rdf:RDF>
      <cc:Work
         rdf:about="">
        <dc:format>image/svg+xml</dc:format>
        <dc:type
           rdf:resource="http://purl.org/dc/dcmitype/StillImage" />
      </cc:Work>
    </rdf:RDF>
  </metadata>
  <defs
     id="defs116">
    <linearGradient
       id="paint0_linear"
       x1="53.3167"
       y1="59.1152"
       x2="75.196297"
       y2="59.1152"
       gradientUnits="userSpaceOnUse"
       gradientTransform="translate(0.72880119,254.44526)">
      <stop
         stop-color="#EC6608"
         id="stop114" />
      <stop
         offset="1"
         stop-color="#F9B000"
         id="stop116" />
    </linearGradient>
    <linearGradient
       id="paint1_linear"
       x1="66.934097"
       y1="51.3433"
       x2="88.813698"
       y2="51.3433"
       gradientUnits="userSpaceOnUse"
       gradientTransform="translate(0.72880119,254.44526)">
      <stop
         stop-color="#FFED00"
         id="stop119" />
      <stop
         offset="1"
         stop-color="#BCCF00"
         id="stop121" />
    </linearGradient>
    <linearGradient
       id="paint2_linear"
       x1="66.934097"
       y1="67.642197"
       x2="88.813698"
       y2="67.642197"
       gradientUnits="userSpaceOnUse"
       gradientTransform="translate(0.72880119,254.44526)">
      <stop
         stop-color="#EC6608"
         id="stop124" />
      <stop
         offset="1"
         stop-color="#C8D400"
         id="stop126" />
    </linearGradient>
    <linearGradient
       id="paint3_linear"
       x1="45.754902"
       y1="66.881599"
       x2="61.5742"
       y2="66.881599"
       gradientUnits="userSpaceOnUse"
       gradientTransform="translate(0.72880119,254.44526)">
      <stop
         stop-color="#E40428"
         id="stop129" />
      <stop
         offset="1"
         stop-color="#EC6608"
         id="stop131" />
    </linearGradient>
    <linearGradient
       id="paint4_linear"
       x1="53.316601"
       y1="74.6493"
       x2="77.875603"
       y2="74.6493"
       gradientUnits="userSpaceOnUse"
       gradientTransform="translate(0.72880119,254.44526)">
      <stop
         stop-color="#B70E0C"
         id="stop134" />
      <stop
         offset="1"
         stop-color="#C80973"
         id="stop136" />
    </linearGradient>
    <linearGradient
       id="paint5_linear"
       x1="94.170502"
       y1="66.875099"
       x2="109.992"
       y2="66.875099"
       gradientUnits="userSpaceOnUse"
       gradientTransform="translate(0.72880119,254.44526)">
      <stop
         stop-color="#65B32E"
         id="stop139" />
      <stop
         offset="1"
         stop-color="#C8D400"
         id="stop141" />
    </linearGradient>
    <linearGradient
       id="paint6_linear"
       x1="77.870102"
       y1="74.636398"
       x2="102.427"
       y2="74.636398"
       gradientUnits="userSpaceOnUse"
       gradientTransform="translate(0.72880119,254.44526)">
      <stop
         stop-color="#0081A7"
         id="stop144" />
      <stop
         offset="1"
         stop-color="#76B82A"
         id="stop146" />
    </linearGradient>
    <linearGradient
       id="paint7_linear"
       x1="94.169899"
       y1="82.410599"
       x2="109.989"
       y2="82.410599"
       gradientUnits="userSpaceOnUse"
       gradientTransform="translate(0.72880119,254.44526)">
      <stop
         stop-color="#76B82A"
         id="stop149" />
      <stop
         offset="1"
         stop-color="#0081A7"
         id="stop151" />
    </linearGradient>
    <linearGradient
       id="paint8_linear"
       x1="66.931503"
       y1="81.647499"
       x2="88.812897"
       y2="81.647499"
       gradientUnits="userSpaceOnUse"
       gradientTransform="translate(0.72880119,254.44526)">
      <stop
         stop-color="#C80973"
         id="stop154" />
      <stop
         offset="1"
         stop-color="#007BC4"
         id="stop156" />
    </linearGradient>
    <linearGradient
       id="paint9_linear"
       x1="80.555801"
       y1="90.179703"
       x2="102.434"
       y2="90.179703"
       gradientUnits="userSpaceOnUse"
       gradientTransform="translate(0.72880119,254.44526)">
      <stop
         stop-color="#213A8F"
         id="stop159" />
      <stop
         offset="1"
         stop-color="#009FE3"
         id="stop161" />
    </linearGradient>
    <linearGradient
       id="paint10_linear"
       x1="59.371899"
       y1="94.394798"
       x2="69.136299"
       y2="94.394798"
       gradientUnits="userSpaceOnUse"
       gradientTransform="translate(0.72880119,254.44526)">
      <stop
         stop-color="#831F82"
         id="stop164" />
      <stop
         offset="1"
         stop-color="#5C2483"
         id="stop166" />
    </linearGradient>
    <linearGradient
       id="paint11_linear"
       x1="1049"
       y1="2607.21"
       x2="3668.8601"
       y2="2607.21"
       gradientUnits="userSpaceOnUse"
       gradientTransform="translate(0.72880119,254.44526)">
      <stop
         stop-color="#831F82"
         id="stop169" />
      <stop
         offset="1"
         stop-color="#5C2483"
         id="stop171" />
    </linearGradient>
    <linearGradient
       id="paint12_linear"
       x1="80.552299"
       y1="59.106701"
       x2="102.434"
       y2="59.106701"
       gradientUnits="userSpaceOnUse"
       gradientTransform="translate(0.72880119,254.44526)">
      <stop
         stop-color="#C8D400"
         id="stop174" />
      <stop
         offset="1"
         stop-color="#65B32E"
         id="stop176" />
    </linearGradient>
    <linearGradient
       id="paint13_linear"
       x1="59.374401"
       y1="45.310299"
       x2="75.193604"
       y2="45.310299"
       gradientUnits="userSpaceOnUse"
       gradientTransform="translate(0.72880119,254.44526)">
      <stop
         stop-color="#FDC300"
         id="stop179" />
      <stop
         offset="1"
         stop-color="#FFD500"
         id="stop181" />
    </linearGradient>
    <linearGradient
       id="paint14_linear"
       x1="45.755501"
       y1="53.072701"
       x2="61.572899"
       y2="53.072701"
       gradientUnits="userSpaceOnUse"
       gradientTransform="translate(0.72880119,254.44526)">
      <stop
         stop-color="#EF7D00"
         id="stop184" />
      <stop
         offset="1"
         stop-color="#FFD500"
         id="stop186" />
    </linearGradient>
    <linearGradient
       id="paint15_linear"
       x1="94.169899"
       y1="53.064701"
       x2="109.987"
       y2="53.064701"
       gradientUnits="userSpaceOnUse"
       gradientTransform="translate(0.72880119,254.44526)">
      <stop
         stop-color="#BCCF00"
         id="stop189" />
      <stop
         offset="1"
         stop-color="#FFED00"
         id="stop191" />
    </linearGradient>
    <linearGradient
       id="paint16_linear"
       x1="80.552597"
       y1="45.2967"
       x2="96.368301"
       y2="45.2967"
       gradientUnits="userSpaceOnUse"
       gradientTransform="translate(0.72880119,254.44526)">
      <stop
         stop-color="#C8D400"
         id="stop194" />
      <stop
         offset="1"
         stop-color="#A2C617"
         id="stop196" />
    </linearGradient>
    <linearGradient
       id="paint17_linear"
       x1="4355.9902"
       y1="3000.9199"
       x2="5727.04"
       y2="3000.9199"
       gradientUnits="userSpaceOnUse"
       gradientTransform="translate(0.72880119,254.44526)">
      <stop
         stop-color="#213A8F"
         id="stop199" />
      <stop
         offset="1"
         stop-color="#009FE3"
         id="stop201" />
    </linearGradient>
    <linearGradient
       id="paint18_linear"
       x1="45.7607"
       y1="96.222397"
       x2="61.578201"
       y2="96.222397"
       gradientUnits="userSpaceOnUse"
       gradientTransform="translate(0.72880119,254.44526)">
      <stop
         stop-color="#E50071"
         id="stop204" />
      <stop
         offset="1"
         stop-color="#831F82"
         id="stop206" />
    </linearGradient>
    <linearGradient
       id="paint19_linear"
       x1="34.827499"
       y1="90.180901"
       x2="55.899799"
       y2="90.180901"
       gradientUnits="userSpaceOnUse"
       gradientTransform="translate(0.72880119,254.44526)">
      <stop
         stop-color="#E94190"
         id="stop209" />
      <stop
         offset="1"
         stop-color="#A71680"
         id="stop211" />
    </linearGradient>
    <linearGradient
       id="paint0_linear-0"
       x1="53.3167"
       y1="59.1152"
       x2="75.196297"
       y2="59.1152"
       gradientUnits="userSpaceOnUse"
       gradientTransform="matrix(1.6589711,0,0,1.6589711,-55.198571,688.14337)">
      <stop
         stop-color="#EC6608"
         id="stop114-9" />
      <stop
         offset="1"
         stop-color="#F9B000"
         id="stop116-4" />
    </linearGradient>
    <linearGradient
       id="paint1_linear-5"
       x1="66.934097"
       y1="51.3433"
       x2="88.813698"
       y2="51.3433"
       gradientUnits="userSpaceOnUse"
       gradientTransform="matrix(1.6589711,0,0,1.6589711,-55.198571,688.14337)">
      <stop
         stop-color="#FFED00"
         id="stop119-7" />
      <stop
         offset="1"
         stop-color="#BCCF00"
         id="stop121-1" />
    </linearGradient>
    <linearGradient
       id="paint2_linear-2"
       x1="66.934097"
       y1="67.642197"
       x2="88.813698"
       y2="67.642197"
       gradientUnits="userSpaceOnUse"
       gradientTransform="matrix(1.6589711,0,0,1.6589711,-55.198571,688.14337)">
      <stop
         stop-color="#EC6608"
         id="stop124-2" />
      <stop
         offset="1"
         stop-color="#C8D400"
         id="stop126-4" />
    </linearGradient>
    <linearGradient
       id="paint3_linear-5"
       x1="45.754902"
       y1="66.881599"
       x2="61.5742"
       y2="66.881599"
       gradientUnits="userSpaceOnUse"
       gradientTransform="matrix(1.6589711,0,0,1.6589711,-55.198571,688.14337)">
      <stop
         stop-color="#E40428"
         id="stop129-4" />
      <stop
         offset="1"
         stop-color="#EC6608"
         id="stop131-1" />
    </linearGradient>
    <linearGradient
       id="paint4_linear-3"
       x1="53.316601"
       y1="74.6493"
       x2="77.875603"
       y2="74.6493"
       gradientUnits="userSpaceOnUse"
       gradientTransform="matrix(1.6589711,0,0,1.6589711,-55.198571,688.14337)">
      <stop
         stop-color="#B70E0C"
         id="stop134-6" />
      <stop
         offset="1"
         stop-color="#C80973"
         id="stop136-6" />
    </linearGradient>
    <linearGradient
       id="paint5_linear-6"
       x1="94.170502"
       y1="66.875099"
       x2="109.992"
       y2="66.875099"
       gradientUnits="userSpaceOnUse"
       gradientTransform="matrix(1.6589711,0,0,1.6589711,-55.198571,688.14337)">
      <stop
         stop-color="#65B32E"
         id="stop139-2" />
      <stop
         offset="1"
         stop-color="#C8D400"
         id="stop141-8" />
    </linearGradient>
    <linearGradient
       id="paint6_linear-5"
       x1="77.870102"
       y1="74.636398"
       x2="102.427"
       y2="74.636398"
       gradientUnits="userSpaceOnUse"
       gradientTransform="matrix(1.6589711,0,0,1.6589711,-55.198571,688.14337)">
      <stop
         stop-color="#0081A7"
         id="stop144-7" />
      <stop
         offset="1"
         stop-color="#76B82A"
         id="stop146-6" />
    </linearGradient>
    <linearGradient
       id="paint7_linear-7"
       x1="94.169899"
       y1="82.410599"
       x2="109.989"
       y2="82.410599"
       gradientUnits="userSpaceOnUse"
       gradientTransform="matrix(1.6589711,0,0,1.6589711,-55.198571,688.14337)">
      <stop
         stop-color="#76B82A"
         id="stop149-3" />
      <stop
         offset="1"
         stop-color="#0081A7"
         id="stop151-3" />
    </linearGradient>
    <linearGradient
       id="paint8_linear-3"
       x1="66.931503"
       y1="81.647499"
       x2="88.812897"
       y2="81.647499"
       gradientUnits="userSpaceOnUse"
       gradientTransform="matrix(1.6589711,0,0,1.6589711,-55.198571,688.14337)">
      <stop
         stop-color="#C80973"
         id="stop154-3" />
      <stop
         offset="1"
         stop-color="#007BC4"
         id="stop156-4" />
    </linearGradient>
    <linearGradient
       id="paint9_linear-8"
       x1="80.555801"
       y1="90.179703"
       x2="102.434"
       y2="90.179703"
       gradientUnits="userSpaceOnUse"
       gradientTransform="matrix(1.6589711,0,0,1.6589711,-55.198571,688.14337)">
      <stop
         stop-color="#213A8F"
         id="stop159-8" />
      <stop
         offset="1"
         stop-color="#009FE3"
         id="stop161-9" />
    </linearGradient>
    <linearGradient
       id="paint10_linear-3"
       x1="59.371899"
       y1="94.394798"
       x2="69.136299"
       y2="94.394798"
       gradientUnits="userSpaceOnUse"
       gradientTransform="matrix(1.6589711,0,0,1.6589711,-55.198571,688.14337)">
      <stop
         stop-color="#831F82"
         id="stop164-4" />
      <stop
         offset="1"
         stop-color="#5C2483"
         id="stop166-6" />
    </linearGradient>
    <linearGradient
       id="paint11_linear-5"
       x1="1049"
       y1="2607.21"
       x2="3668.8601"
       y2="2607.21"
       gradientUnits="userSpaceOnUse"
       gradientTransform="matrix(1.6589711,0,0,1.6589711,-55.198571,688.14337)">
      <stop
         stop-color="#831F82"
         id="stop169-8" />
      <stop
         offset="1"
         stop-color="#5C2483"
         id="stop171-2" />
    </linearGradient>
    <linearGradient
       id="paint12_linear-5"
       x1="80.552299"
       y1="59.106701"
       x2="102.434"
       y2="59.106701"
       gradientUnits="userSpaceOnUse"
       gradientTransform="matrix(1.6589711,0,0,1.6589711,-55.198571,688.14337)">
      <stop
         stop-color="#C8D400"
         id="stop174-0" />
      <stop
         offset="1"
         stop-color="#65B32E"
         id="stop176-6" />
    </linearGradient>
    <linearGradient
       id="paint13_linear-9"
       x1="59.374401"
       y1="45.310299"
       x2="75.193604"
       y2="45.310299"
       gradientUnits="userSpaceOnUse"
       gradientTransform="matrix(1.6589711,0,0,1.6589711,-55.198571,688.14337)">
      <stop
         stop-color="#FDC300"
         id="stop179-2" />
      <stop
         offset="1"
         stop-color="#FFD500"
         id="stop181-4" />
    </linearGradient>
    <linearGradient
       id="paint14_linear-9"
       x1="45.755501"
       y1="53.072701"
       x2="61.572899"
       y2="53.072701"
       gradientUnits="userSpaceOnUse"
       gradientTransform="matrix(1.6589711,0,0,1.6589711,-55.198571,688.14337)">
      <stop
         stop-color="#EF7D00"
         id="stop184-4" />
      <stop
         offset="1"
         stop-color="#FFD500"
         id="stop186-9" />
    </linearGradient>
    <linearGradient
       id="paint15_linear-9"
       x1="94.169899"
       y1="53.064701"
       x2="109.987"
       y2="53.064701"
       gradientUnits="userSpaceOnUse"
       gradientTransform="matrix(1.6589711,0,0,1.6589711,-55.198571,688.14337)">
      <stop
         stop-color="#BCCF00"
         id="stop189-1" />
      <stop
         offset="1"
         stop-color="#FFED00"
         id="stop191-0" />
    </linearGradient>
    <linearGradient
       id="paint16_linear-3"
       x1="80.552597"
       y1="45.2967"
       x2="96.368301"
       y2="45.2967"
       gradientUnits="userSpaceOnUse"
       gradientTransform="matrix(1.6589711,0,0,1.6589711,-55.198571,688.14337)">
      <stop
         stop-color="#C8D400"
         id="stop194-2" />
      <stop
         offset="1"
         stop-color="#A2C617"
         id="stop196-5" />
    </linearGradient>
    <linearGradient
       id="paint17_linear-7"
       x1="4355.9902"
       y1="3000.9199"
       x2="5727.04"
       y2="3000.9199"
       gradientUnits="userSpaceOnUse"
       gradientTransform="matrix(1.6589711,0,0,1.6589711,-55.198571,688.14337)">
      <stop
         stop-color="#213A8F"
         id="stop199-4" />
      <stop
         offset="1"
         stop-color="#009FE3"
         id="stop201-1" />
    </linearGradient>
    <linearGradient
       id="paint18_linear-1"
       x1="45.7607"
       y1="96.222397"
       x2="61.578201"
       y2="96.222397"
       gradientUnits="userSpaceOnUse"
       gradientTransform="matrix(1.6589711,0,0,1.6589711,-55.198571,688.14337)">
      <stop
         stop-color="#E50071"
         id="stop204-6" />
      <stop
         offset="1"
         stop-color="#831F82"
         id="stop206-1" />
    </linearGradient>
    <linearGradient
       id="paint19_linear-9"
       x1="34.827499"
       y1="90.180901"
       x2="55.899799"
       y2="90.180901"
       gradientUnits="userSpaceOnUse"
       gradientTransform="matrix(1.6589711,0,0,1.6589711,-55.198571,688.14337)">
      <stop
         stop-color="#E94190"
         id="stop209-6" />
      <stop
         offset="1"
         stop-color="#A71680"
         id="stop211-2" />
    </linearGradient>
    <linearGradient
       inkscape:collect="always"
       xlink:href="#paint0_linear"
       id="linearGradient17210"
       gradientUnits="userSpaceOnUse"
       gradientTransform="translate(0.72880119,254.44526)"
       x1="53.3167"
       y1="59.1152"
       x2="75.196297"
       y2="59.1152" />
    <linearGradient
       inkscape:collect="always"
       xlink:href="#paint1_linear"
       id="linearGradient17212"
       gradientUnits="userSpaceOnUse"
       gradientTransform="translate(0.72880119,254.44526)"
       x1="66.934097"
       y1="51.3433"
       x2="88.813698"
       y2="51.3433" />
    <linearGradient
       inkscape:collect="always"
       xlink:href="#paint2_linear"
       id="linearGradient17214"
       gradientUnits="userSpaceOnUse"
       gradientTransform="translate(0.72880119,254.44526)"
       x1="66.934097"
       y1="67.642197"
       x2="88.813698"
       y2="67.642197" />
    <linearGradient
       inkscape:collect="always"
       xlink:href="#paint3_linear"
       id="linearGradient17216"
       gradientUnits="userSpaceOnUse"
       gradientTransform="translate(0.72880119,254.44526)"
       x1="45.754902"
       y1="66.881599"
       x2="61.5742"
       y2="66.881599" />
    <linearGradient
       inkscape:collect="always"
       xlink:href="#paint4_linear"
       id="linearGradient17218"
       gradientUnits="userSpaceOnUse"
       gradientTransform="translate(0.72880119,254.44526)"
       x1="53.316601"
       y1="74.6493"
       x2="77.875603"
       y2="74.6493" />
    <linearGradient
       inkscape:collect="always"
       xlink:href="#paint5_linear"
       id="linearGradient17220"
       gradientUnits="userSpaceOnUse"
       gradientTransform="translate(0.72880119,254.44526)"
       x1="94.170502"
       y1="66.875099"
       x2="109.992"
       y2="66.875099" />
    <linearGradient
       inkscape:collect="always"
       xlink:href="#paint6_linear"
       id="linearGradient17222"
       gradientUnits="userSpaceOnUse"
       gradientTransform="translate(0.72880119,254.44526)"
       x1="77.870102"
       y1="74.636398"
       x2="102.427"
       y2="74.636398" />
    <linearGradient
       inkscape:collect="always"
       xlink:href="#paint7_linear"
       id="linearGradient17224"
       gradientUnits="userSpaceOnUse"
       gradientTransform="translate(0.72880119,254.44526)"
       x1="94.169899"
       y1="82.410599"
       x2="109.989"
       y2="82.410599" />
    <linearGradient
       inkscape:collect="always"
       xlink:href="#paint8_linear"
       id="linearGradient17226"
       gradientUnits="userSpaceOnUse"
       gradientTransform="translate(0.72880119,254.44526)"
       x1="66.931503"
       y1="81.647499"
       x2="88.812897"
       y2="81.647499" />
    <linearGradient
       inkscape:collect="always"
       xlink:href="#paint9_linear"
       id="linearGradient17228"
       gradientUnits="userSpaceOnUse"
       gradientTransform="translate(0.72880119,254.44526)"
       x1="80.555801"
       y1="90.179703"
       x2="102.434"
       y2="90.179703" />
    <linearGradient
       inkscape:collect="always"
       xlink:href="#paint10_linear"
       id="linearGradient17230"
       gradientUnits="userSpaceOnUse"
       gradientTransform="translate(0.72880119,254.44526)"
       x1="59.371899"
       y1="94.394798"
       x2="69.136299"
       y2="94.394798" />
    <linearGradient
       inkscape:collect="always"
       xlink:href="#paint11_linear"
       id="linearGradient17232"
       gradientUnits="userSpaceOnUse"
       gradientTransform="translate(0.72880119,254.44526)"
       x1="1049"
       y1="2607.21"
       x2="3668.8601"
       y2="2607.21" />
    <linearGradient
       inkscape:collect="always"
       xlink:href="#paint12_linear"
       id="linearGradient17234"
       gradientUnits="userSpaceOnUse"
       gradientTransform="translate(0.72880119,254.44526)"
       x1="80.552299"
       y1="59.106701"
       x2="102.434"
       y2="59.106701" />
    <linearGradient
       inkscape:collect="always"
       xlink:href="#paint13_linear"
       id="linearGradient17236"
       gradientUnits="userSpaceOnUse"
       gradientTransform="translate(0.72880119,254.44526)"
       x1="59.374401"
       y1="45.310299"
       x2="75.193604"
       y2="45.310299" />
    <linearGradient
       inkscape:collect="always"
       xlink:href="#paint14_linear"
       id="linearGradient17238"
       gradientUnits="userSpaceOnUse"
       gradientTransform="translate(0.72880119,254.44526)"
       x1="45.755501"
       y1="53.072701"
       x2="61.572899"
       y2="53.072701" />
    <linearGradient
       inkscape:collect="always"
       xlink:href="#paint15_linear"
       id="linearGradient17240"
       gradientUnits="userSpaceOnUse"
       gradientTransform="translate(0.72880119,254.44526)"
       x1="94.169899"
       y1="53.064701"
       x2="109.987"
       y2="53.064701" />
    <linearGradient
       inkscape:collect="always"
       xlink:href="#paint16_linear"
       id="linearGradient17242"
       gradientUnits="userSpaceOnUse"
       gradientTransform="translate(0.72880119,254.44526)"
       x1="80.552597"
       y1="45.2967"
       x2="96.368301"
       y2="45.2967" />
    <linearGradient
       inkscape:collect="always"
       xlink:href="#paint17_linear"
       id="linearGradient17244"
       gradientUnits="userSpaceOnUse"
       gradientTransform="translate(0.72880119,254.44526)"
       x1="4355.9902"
       y1="3000.9199"
       x2="5727.04"
       y2="3000.9199" />
    <linearGradient
       inkscape:collect="always"
       xlink:href="#paint18_linear"
       id="linearGradient17246"
       gradientUnits="userSpaceOnUse"
       gradientTransform="translate(0.72880119,254.44526)"
       x1="45.7607"
       y1="96.222397"
       x2="61.578201"
       y2="96.222397" />
    <linearGradient
       inkscape:collect="always"
       xlink:href="#paint19_linear"
       id="linearGradient17248"
       gradientUnits="userSpaceOnUse"
       gradientTransform="translate(0.72880119,254.44526)"
       x1="34.827499"
       y1="90.180901"
       x2="55.899799"
       y2="90.180901" />
  </defs>
  <sodipodi:namedview
     pagecolor="#ffffff"
     bordercolor="#666666"
     borderopacity="1"
     objecttolerance="10"
     gridtolerance="10"
     guidetolerance="10"
     inkscape:pageopacity="0"
     inkscape:pageshadow="2"
     inkscape:window-width="1920"
     inkscape:window-height="991"
     id="namedview114"
     showgrid="false"
     fit-margin-top="0"
     fit-margin-left="0"
     fit-margin-right="0"
     fit-margin-bottom="0"
     inkscape:zoom="0.43303163"
     inkscape:cx="248.24977"
     inkscape:cy="146.64056"
     inkscape:window-x="-9"
     inkscape:window-y="-9"
     inkscape:window-maximized="1"
     inkscape:current-layer="svg112"
     inkscape:document-rotation="0"
     inkscape:pagecheckerboard="0" />
  <circle
     style="fill:#ffffff;fill-opacity:1;stroke:#a9b0b7;stroke-width:6.11724;stroke-linecap:round;stroke-linejoin:round;stroke-miterlimit:4;stroke-dasharray:none;stroke-dashoffset:0;stroke-opacity:1"
     id="path1155"
     cx="158.28909"
     cy="158.28909"
     r="155.23047"
     inkscape:export-filename="C:\Users\Lenovo P1\Desktop\path1155.png"
     inkscape:export-xdpi="96"
     inkscape:export-ydpi="96" />
  <text
     xml:space="preserve"
     style="font-size:46.6667px;line-height:1.25;font-family:'Times New Roman';-inkscape-font-specification:'Times New Roman, ';letter-spacing:0px"
     x="73.42231"
     y="-137.87869"
     id="text2281"><tspan
       sodipodi:role="line"
       id="tspan2279"
       x="73.42231"
       y="-137.87869"
       style="font-size:46.6667px;fill:#000000;stroke:none" /></text>
  <g
     id="g17292"
     transform="translate(306.55554,-1000.9796)">
    <g
       id="g17146"
       transform="matrix(0.34104461,0,0,0.34104461,-230.66292,1123.601)"
       inkscape:export-xdpi="96"
       inkscape:export-ydpi="96"
       style="stroke-width:1.22808">
      <rect
         style="fill:#00abe2;fill-opacity:1;stroke:#00abe2;stroke-width:2.45615;stroke-linecap:round;stroke-linejoin:round;stroke-opacity:1"
         id="rect17136"
         width="319.20987"
         height="317.9502"
         x="263.16696"
         y="-55.866253" />
      <g
         id="g17144"
         style="fill:#ffffff;stroke:#ffffff;stroke-width:1.22808"
         transform="translate(68.032839,4.0823045)">
        <rect
           style="fill:#ffffff;stroke:#ffffff;stroke-width:2.45615;stroke-linecap:round;stroke-linejoin:round"
           id="rect17138"
           width="62.639782"
           height="188.78529"
           x="260.66226"
           y="5.7732506" />
        <rect
           style="fill:#ffffff;stroke:#ffffff;stroke-width:2.45615;stroke-linecap:round;stroke-linejoin:round"
           id="rect17140"
           width="59.464478"
           height="60.907791"
           x="335.71451"
           y="71.299644" />
        <rect
           style="fill:#ffffff;stroke:#ffffff;stroke-width:2.45615;stroke-linecap:round;stroke-linejoin:round"
           id="rect17142"
           width="63.794426"
           height="254.60033"
           x="385.36447"
           y="6.3505754" />
      </g>
    </g>
    <g
       id="g17252"
       transform="translate(123.57778)">
      <path
         style="fill:#999999;fill-opacity:1;stroke:#999999;stroke-width:4;stroke-linecap:round;stroke-linejoin:miter;stroke-miterlimit:4;stroke-dasharray:none;stroke-opacity:1"
         d="m -279.84659,1170.6688 -22.80007,-22.8002"
         id="path17148" />
      <path
         style="fill:#999999;fill-opacity:1;stroke:#999999;stroke-width:4;stroke-linecap:round;stroke-linejoin:miter;stroke-miterlimit:4;stroke-dasharray:none;stroke-opacity:1"
         d="m -279.84659,1147.8686 -22.80007,22.8002"
         id="path17150" />
    </g>
    <g
       id="g17208"
       transform="matrix(1.0592163,0,0,1.0592163,-313.34198,789.13038)"
       inkscape:export-xdpi="96"
       inkscape:export-ydpi="96"
       style="stroke-width:1.22808">
      <path
         d="m 54.463801,313.56226 c -4e-4,0.5367 -0.1441,1.0637 -0.4165,1.528 l 8.2595,4.7082 c 0.2712,-0.4649 0.6616,-0.8511 1.132,-1.1196 0.4704,-0.2686 1.0041,-0.4099 1.5474,-0.4099 0.5433,0 1.0771,0.1413 1.5474,0.4099 0.4704,0.2685 0.8609,0.6547 1.1321,1.1196 l 8.2594,-4.7118 c -0.2734,-0.464 -0.4174,-0.9912 -0.4174,-1.528 0,-0.5367 0.144,-1.0639 0.4174,-1.5279 l -2.1918,-1.2537 c -0.3682,0.6199 -0.6091,1.3054 -0.7088,2.0174 -0.0996,0.7119 -0.0562,1.4363 0.128,2.1316 l -4.2284,2.4245 c -1.0501,-1.0165 -2.462,-1.5858 -3.9324,-1.5858 -1.4704,0 -2.8823,0.5693 -3.9324,1.5858 l -4.232,-2.4209 c 0.2414,-0.9009 0.2414,-1.8483 0,-2.7492 l 4.2228,-2.4064 c 0.6133,0.5942 1.3562,1.0417 2.1718,1.3083 0.8156,0.2665 1.6821,0.345 2.5332,0.2293 0.8511,-0.1156 1.664,-0.4223 2.3764,-0.8965 0.7124,-0.4742 1.3053,-1.1032 1.7333,-1.8389 l -2.1918,-1.2538 c -0.2712,0.465 -0.6617,0.8512 -1.132,1.1197 -0.4704,0.2686 -1.0042,0.4099 -1.5475,0.4099 -0.5433,0 -1.077,-0.1413 -1.5474,-0.4099 -0.4704,-0.2685 -0.8608,-0.6547 -1.132,-1.1197 l -8.2686,4.7101 c 0.2743,0.4643 0.4187,0.9922 0.4183,1.5297 z"
         fill="url(#paint0_linear)"
         id="path17152"
         style="fill:url(#linearGradient17210);stroke-width:1.22808" />
      <path
         d="m 73.723201,300.80426 2.1918,-1.2537 c 0.2712,0.4657 0.6619,0.8527 1.1329,1.1217 0.4709,0.2691 1.0053,0.4107 1.5493,0.4107 0.544,0 1.0784,-0.1416 1.5493,-0.4107 0.4709,-0.269 0.8617,-0.656 1.1329,-1.1217 l 2.1918,1.2537 c -0.737,1.257 -1.9403,2.1815 -3.3553,2.5778 v 4.8165 c 1.4137,0.3958 2.6162,1.3189 3.3535,2.5742 l -2.1918,1.2538 c -0.2712,-0.465 -0.6617,-0.8512 -1.1321,-1.1197 -0.4704,-0.2686 -1.0041,-0.4099 -1.5474,-0.4099 -0.5433,0 -1.077,0.1413 -1.5474,0.4099 -0.4704,0.2685 -0.8609,0.6547 -1.1321,1.1197 l -2.1918,-1.2538 c 0.7365,-1.2556 1.9384,-2.1793 3.3517,-2.576 v -4.8165 c -1.4142,-0.3967 -2.6172,-1.3203 -3.3553,-2.576 z m 13.622,2.2008 c -0.4989,0.8445 -0.7618,1.8048 -0.7618,2.7826 0,0.9777 0.2629,1.938 0.7618,2.7825 l 2.1918,-1.2537 c -0.2734,-0.4643 -0.4173,-0.9918 -0.4173,-1.5288 0,-0.5371 0.1439,-1.0646 0.4173,-1.5289 z m -19.2659,2.7853 c 4e-4,0.5367 -0.1433,1.0639 -0.4164,1.5279 l 2.1918,1.2519 c 0.4985,-0.8443 0.7612,-1.8042 0.7612,-2.7816 0,-0.9775 -0.2627,-1.9374 -0.7612,-2.7817 l -2.1918,1.2627 c 0.2719,0.4619 0.4155,0.9865 0.4164,1.5208 z"
         fill="url(#paint1_linear)"
         id="path17154"
         style="fill:url(#linearGradient17212);stroke-width:1.22808" />
      <path
         d="m 86.579901,321.31716 c 10e-4,-0.9754 0.2631,-1.9332 0.7598,-2.7763 l 2.1918,1.2538 c -0.2726,0.4641 -0.4162,0.9913 -0.4162,1.5279 0,0.5366 0.1436,1.0637 0.4162,1.5279 l -2.1918,1.2538 c -0.4992,-0.846 -0.7615,-1.808 -0.7598,-2.7871 z m -7.9781,-4.7029 c -0.5434,2e-4 -1.0772,-0.1411 -1.5476,-0.4097 -0.4705,-0.2686 -0.8609,-0.6549 -1.1319,-1.12 l -8.2594,4.7119 c 0.2731,0.4643 0.417,0.9918 0.417,1.5288 0,0.537 -0.1439,1.0645 -0.417,1.5288 l 2.1918,1.2538 c 0.7427,-1.2523 0.9517,-2.7447 0.5808,-4.1491 l 4.2265,-2.41 c 0.6745,0.648 1.5019,1.1198 2.4073,1.3728 v 9.3064 l 1.5288,0.8713 1.527,-0.8713 v -9.3155 c 1.4139,-0.3962 2.6165,-1.32 3.3534,-2.576 l -2.1918,-1.2537 c -0.2714,0.4661 -0.6626,0.8532 -1.1341,1.1221 -0.4714,0.269 -1.0064,0.4102 -1.5508,0.4094 z"
         fill="url(#paint2_linear)"
         id="path17156"
         style="fill:url(#linearGradient17214);stroke-width:1.22808" />
      <path
         d="m 46.483701,326.31296 2.1918,1.2537 c 0.2708,-0.4662 0.6615,-0.8536 1.1324,-1.123 0.471,-0.2694 1.0056,-0.4113 1.5498,-0.4113 0.5443,0 1.0789,0.1419 1.5498,0.4113 0.471,0.2694 0.8616,0.6568 1.1324,1.123 l 2.1918,-1.2537 c -0.7366,-1.2578 -1.94,-2.1829 -3.3552,-2.5797 v -4.8147 c 0.9091,-0.2521 1.7395,-0.726 2.4146,-1.3782 l 4.2228,2.4101 c -0.1846,0.6968 -0.2284,1.4227 -0.1287,2.1361 0.0996,0.7135 0.3408,1.4006 0.7096,2.022 l 2.1918,-1.2628 c -0.2732,-0.464 -0.4171,-0.9912 -0.4171,-1.5279 0,-0.5368 0.1439,-1.0639 0.4171,-1.528 l -8.2595,-4.7082 c -0.271,0.4654 -0.6615,0.852 -1.1321,1.1208 -0.4706,0.2688 -1.0046,0.4103 -1.5482,0.4103 -0.5437,0 -1.0777,-0.1415 -1.5483,-0.4103 -0.4705,-0.2688 -0.861,-0.6554 -1.1321,-1.1208 l -2.1918,1.2537 c 0.7381,1.261 1.9451,2.1877 3.3644,2.5832 v 4.8165 c -1.415,0.3963 -2.6183,1.3208 -3.3553,2.5779 z"
         fill="url(#paint3_linear)"
         id="path17158"
         style="fill:url(#linearGradient17216);stroke-width:1.22808" />
      <path
         d="m 57.006101,329.09276 c -3e-4,0.9788 -0.2637,1.94 -0.7635,2.7853 l -2.1917,-1.2538 c 0.2733,-0.4643 0.4173,-0.9917 0.4173,-1.5288 0,-0.5371 -0.144,-1.0646 -0.4173,-1.5288 l 2.1917,-1.2538 c 0.4994,0.8435 0.7629,1.8028 0.7635,2.7799 z m 7.9782,4.7064 c 0.5438,-10e-5 1.078,0.1415 1.5488,0.4103 0.4707,0.2689 0.8613,0.6557 1.1324,1.1213 l 10.9389,-6.238 -1.5287,-0.8713 -8.1517,4.6541 c -0.6139,-0.5935 -1.3573,-1.0403 -2.1732,-1.3061 -0.8158,-0.2658 -1.6825,-0.3435 -2.5335,-0.2271 -0.8509,0.1163 -1.6636,0.4236 -2.3757,0.8982 -0.7121,0.4747 -1.3047,1.1041 -1.7323,1.8401 l 2.1918,1.2537 c 0.2708,-0.4665 0.6615,-0.8542 1.1327,-1.1237 0.4711,-0.2696 1.006,-0.4115 1.5505,-0.4115 z m 0,-6.9018 c 0.9894,-10e-4 1.961,-0.2598 2.8173,-0.7494 0.8563,-0.4895 1.5672,-1.1928 2.0612,-2.0395 l -2.1918,-1.2537 c -0.2712,0.465 -0.6616,0.8511 -1.132,1.1197 -0.4704,0.2685 -1.0041,0.4099 -1.5474,0.4099 -0.5434,0 -1.0771,-0.1414 -1.5475,-0.4099 -0.4704,-0.2686 -0.8608,-0.6547 -1.132,-1.1197 l -2.1918,1.2627 c 0.4938,0.843 1.2029,1.5433 2.0563,2.0311 0.8535,0.4878 1.8216,0.746 2.8077,0.7488 z"
         fill="url(#paint4_linear)"
         id="path17160"
         style="fill:url(#linearGradient17218);stroke-width:1.22808" />
      <path
         d="m 48.268201,329.08856 c -2e-4,-0.5353 0.1429,-1.0612 0.4146,-1.5243 l -2.1917,-1.2538 c -0.4986,0.8447 -0.7612,1.8049 -0.7612,2.7826 0,0.9777 0.2626,1.9379 0.7612,2.7826 l 2.1917,-1.2628 c -0.2721,-0.463 -0.4152,-0.9889 -0.4146,-1.5243 z"
         fill="#b70e0c"
         id="path17162"
         style="stroke-width:2.44796" />
      <path
         d="m 62.308201,338.38666 -8.2576,4.71 c -0.2706,-0.4671 -0.6613,-0.8553 -1.1327,-1.1252 -0.4713,-0.27 -1.0065,-0.4122 -1.5514,-0.4122 -0.5448,0 -1.08,0.1422 -1.5514,0.4122 -0.4713,0.2699 -0.862,0.6581 -1.1326,1.1252 l -2.1918,-1.2537 c 0.427,-0.7368 1.0192,-1.3671 1.7313,-1.8426 0.7121,-0.4754 1.5251,-0.7833 2.3764,-0.9 0.8514,-0.1167 1.7185,-0.0391 2.5348,0.2268 0.8163,0.2659 1.56,0.7131 2.174,1.3072 l 4.2265,-2.4083 c -0.3694,-1.4043 -0.1612,-2.8958 0.579,-4.149 l 2.1918,1.2537 c -0.2732,0.4643 -0.417,0.9918 -0.417,1.5288 0,0.5371 0.1438,1.0645 0.417,1.5289 z m -10.9408,-3.7234 c 0.9887,-8e-4 1.9597,-0.2584 2.8157,-0.7469 0.856,-0.4886 1.5668,-1.1909 2.0611,-2.0365 l -2.1918,-1.2628 c -0.2711,0.4646 -0.6613,0.8505 -1.1313,1.1187 -0.4701,0.2683 -1.0034,0.4096 -1.5463,0.4096 -0.543,0 -1.0763,-0.1413 -1.5463,-0.4096 -0.4701,-0.2682 -0.8603,-0.6541 -1.1314,-1.1187 l -2.1918,1.2537 c 0.4921,0.8451 1.2001,1.5478 2.0534,2.0378 0.8532,0.4901 1.8217,0.7503 2.8087,0.7547 z"
         fill="#e5005b"
         id="path17164"
         style="stroke-width:2.44796" />
      <path
         d="m 107.3668,323.73046 v -4.8165 c 1.415,-0.3972 2.617,-1.3223 3.354,-2.5797 l -2.192,-1.2537 c -0.271,0.4663 -0.662,0.8536 -1.133,1.123 -0.471,0.2694 -1.005,0.4113 -1.549,0.4113 -0.545,0 -1.079,-0.1419 -1.55,-0.4113 -0.471,-0.2694 -0.862,-0.6567 -1.133,-1.123 l -8.255399,4.7101 c 0.2732,0.4643 0.4171,0.9918 0.4171,1.5288 0,0.537 -0.1439,1.0645 -0.4171,1.5289 l 2.1918,1.2537 c 0.3703,-0.6208 0.6125,-1.3078 0.7129,-2.0214 0.1003,-0.7136 0.0566,-1.4398 -0.1284,-2.1367 l 4.219099,-2.4136 c 0.675,0.6509 1.505,1.1241 2.413,1.3764 v 4.8183 c -1.414,0.3962 -2.617,1.32 -3.354,2.576 l 2.192,1.2537 c 0.271,-0.4654 0.662,-0.852 1.132,-1.1208 0.471,-0.2688 1.005,-0.4103 1.549,-0.4103 0.543,0 1.077,0.1415 1.548,0.4103 0.47,0.2688 0.861,0.6554 1.132,1.1208 l 2.192,-1.2537 c -0.735,-1.2514 -1.933,-2.1728 -3.341,-2.5706 z"
         fill="url(#paint5_linear)"
         id="path17166"
         style="fill:url(#linearGradient17220);stroke-width:1.22808" />
      <path
         d="m 108.9358,329.08936 c 0,0.5366 -0.144,1.0636 -0.416,1.5279 l 2.191,1.2538 c 0.499,-0.8449 0.762,-1.8055 0.762,-2.7835 0,-0.9781 -0.263,-1.9386 -0.762,-2.7835 l -2.191,1.2538 c 0.273,0.4654 0.416,0.9937 0.416,1.5315 z"
         fill="#00a8b0"
         id="path17168"
         style="stroke-width:2.44796" />
      <path
         d="m 103.1558,330.60966 -2.192,1.2537 c -0.4984,-0.8445 -0.7613,-1.8048 -0.7613,-2.7826 0,-0.9777 0.2629,-1.938 0.7613,-2.7825 l 2.192,1.2537 c -0.273,0.4643 -0.417,0.9918 -0.417,1.5288 0,0.5371 0.144,1.0646 0.417,1.5289 z m -14.876499,2.2477 -8.159,-4.647 -1.5214,0.8749 10.937,6.2362 c 0.2706,-0.4662 0.661,-0.8537 1.1318,-1.1231 0.4708,-0.2695 1.0054,-0.4114 1.5495,-0.4114 0.5442,0 1.0787,0.1419 1.5495,0.4114 0.4708,0.2694 0.8612,0.6569 1.1318,1.1231 l 2.1918,-1.2537 c -0.7362,-1.2573 -1.9389,-2.1825 -3.3534,-2.5796 v -4.8201 c 1.4119,-0.3962 2.613,-1.3185 3.3497,-2.5724 l -2.1918,-1.2538 c -0.2714,0.4642 -0.6617,0.8496 -1.1318,1.1175 -0.47,0.2679 -1.0031,0.409 -1.5458,0.409 -0.5427,0 -1.0758,-0.1411 -1.5458,-0.409 -0.47,-0.2679 -0.8604,-0.6533 -1.1318,-1.1175 l -2.1918,1.2538 c 0.7367,1.2539 1.9378,2.1762 3.3498,2.5724 v 4.8201 c -0.9091,0.2502 -1.7403,0.7209 -2.4183,1.3692 z"
         fill="url(#paint6_linear)"
         id="path17170"
         style="fill:url(#linearGradient17222);stroke-width:1.22808" />
      <path
         d="m 110.7178,341.84016 -2.192,1.2537 c -0.271,-0.4654 -0.661,-0.852 -1.132,-1.1208 -0.47,-0.2688 -1.004,-0.4104 -1.548,-0.4104 -0.544,0 -1.078,0.1416 -1.548,0.4104 -0.471,0.2688 -0.861,0.6554 -1.132,1.1208 l -8.261599,-4.7101 c 0.2731,-0.4643 0.417,-0.9918 0.417,-1.5288 0,-0.537 -0.1439,-1.0645 -0.417,-1.5289 l 2.1917,-1.2537 c 0.3688,0.6197 0.6099,1.3053 0.7096,2.0173 0.0996,0.712 0.0559,1.4365 -0.1287,2.1318 l 4.229999,2.4118 c 0.614,-0.5925 1.357,-1.0384 2.172,-1.3035 0.815,-0.2652 1.681,-0.3426 2.531,-0.2263 0.85,0.1163 1.662,0.4233 2.373,0.8973 0.712,0.474 1.304,1.1026 1.731,1.8375 z m -4.878,-7.1851 c 0.989,-9e-4 1.96,-0.2587 2.816,-0.7476 0.857,-0.4889 1.568,-1.1916 2.062,-2.0377 l -2.192,-1.2537 c -0.271,0.4649 -0.662,0.851 -1.132,1.1195 -0.471,0.2685 -1.005,0.4098 -1.548,0.4098 -0.543,0 -1.077,-0.1413 -1.548,-0.4098 -0.47,-0.2685 -0.861,-0.6546 -1.132,-1.1195 l -2.192,1.2537 c 0.493,0.845 1.202,1.5472 2.056,2.0363 0.855,0.4891 1.824,0.748 2.811,0.7508 z"
         fill="url(#paint7_linear)"
         id="path17172"
         style="fill:url(#linearGradient17224);stroke-width:1.22808" />
      <path
         d="m 78.601001,339.05656 c -1.4701,-3e-4 -2.8818,0.5683 -3.9324,1.5839 l -4.2283,-2.4101 c 0.2412,-0.9003 0.2412,-1.8471 0,-2.7474 l 8.1607,-4.6559 8.159,4.6487 c -0.185,0.6972 -0.2286,1.4237 -0.1283,2.1376 0.1003,0.7139 0.3426,1.4012 0.7128,2.0223 l 2.1918,-1.2537 c -0.2734,-0.4643 -0.4174,-0.9918 -0.4174,-1.5289 0,-0.537 0.144,-1.0645 0.4174,-1.5288 l -10.9353,-6.2344 -10.937,6.2398 c 0.2731,0.4643 0.417,0.9918 0.417,1.5288 0,0.5371 -0.1439,1.0645 -0.417,1.5289 l 8.2612,4.71 c 0.2711,-0.4654 0.6616,-0.8519 1.1322,-1.1208 0.4706,-0.2688 1.0046,-0.4103 1.5482,-0.4103 0.5436,0 1.0776,0.1415 1.5482,0.4103 0.4706,0.2689 0.8611,0.6554 1.1322,1.1208 l 2.1918,-1.2627 c -0.4952,-0.8445 -1.2063,-1.5456 -2.0622,-2.0332 -0.8559,-0.4876 -1.8265,-0.7444 -2.8146,-0.7449 z"
         fill="url(#paint8_linear)"
         id="path17174"
         style="fill:url(#linearGradient17226);stroke-width:1.22808" />
      <path
         d="m 97.102001,349.60926 -2.1918,1.2627 c -0.2705,-0.4662 -0.661,-0.8537 -1.1318,-1.1232 -0.4708,-0.2694 -1.0053,-0.4113 -1.5495,-0.4113 -0.5441,0 -1.0786,0.1419 -1.5494,0.4113 -0.4708,0.2695 -0.8613,0.657 -1.1318,1.1232 l -2.1918,-1.2537 c 0.4931,-0.8477 1.2038,-1.5519 2.0605,-2.0416 0.8567,-0.4898 1.8291,-0.7476 2.8189,-0.7476 0.9899,0 1.9622,0.2578 2.8189,0.7476 0.8568,0.4897 1.5675,1.1939 2.0606,2.0416 z m 5.641799,-4.9861 c 0,-0.5362 0.143,-1.0628 0.417,-1.5261 l -8.261499,-4.7101 c -0.2715,0.4641 -0.6618,0.8495 -1.1318,1.1175 -0.47,0.2679 -1.0032,0.409 -1.5459,0.409 -0.5427,0 -1.0758,-0.1411 -1.5458,-0.409 -0.47,-0.268 -0.8604,-0.6534 -1.1318,-1.1175 l -2.1918,1.2537 c 0.4282,0.735 1.0212,1.3633 1.7333,1.8369 0.7122,0.4736 1.5247,0.7798 2.3752,0.8953 0.8506,0.1154 1.7166,0.037 2.5317,-0.2292 0.8151,-0.2663 1.5577,-0.7134 2.1708,-1.3069 l 4.224699,2.41 c -0.1847,0.6974 -0.2284,1.4238 -0.1288,2.1379 0.0997,0.7141 0.3408,1.4018 0.7097,2.0238 l 2.192,-1.2628 c -0.271,-0.4629 -0.414,-0.9879 -0.415,-1.5225 z m -21.042799,0 c 3e-4,0.5367 -0.1434,1.0639 -0.4164,1.5279 l 2.1918,1.2538 c 0.5001,-0.8445 0.7637,-1.8052 0.7637,-2.7835 0,-0.9783 -0.2636,-1.939 -0.7637,-2.7835 l -2.1918,1.2628 c 0.2765,0.463 0.4233,0.9904 0.4256,1.5279 z"
         fill="url(#paint9_linear)"
         id="path17176"
         style="fill:url(#linearGradient17228);stroke-width:1.22808" />
      <path
         d="m 64.981101,346.81606 c -0.9907,0.001 -1.9635,0.2598 -2.8207,0.7503 -0.8571,0.4906 -1.5682,1.1956 -2.0615,2.044 l 2.1918,1.2537 c 0.2705,-0.4671 0.6613,-0.8552 1.1326,-1.1252 0.4713,-0.27 1.0065,-0.4122 1.5514,-0.4122 0.5449,0 1.08,0.1422 1.5514,0.4122 0.4713,0.27 0.862,0.6581 1.1326,1.1252 l 2.1918,-1.2537 c -0.4926,-0.8463 -1.2017,-1.5499 -2.0563,-2.0403 -0.8546,-0.4904 -1.8247,-0.7504 -2.8131,-0.754 z"
         fill="url(#paint10_linear)"
         id="path17178"
         style="fill:url(#linearGradient17230);stroke-width:1.22808" />
      <path
         d="m 56.240801,347.41126 c 0.5004,-0.8464 0.7645,-1.8087 0.7653,-2.7889 -0.003,-0.4632 -0.0647,-0.9243 -0.1826,-1.3728 l 4.2283,-2.41 c 1.0508,1.0167 2.4633,1.5862 3.9343,1.5862 1.471,0 2.8834,-0.5695 3.9343,-1.5862 l 4.2265,2.4082 c -0.1849,0.6971 -0.2287,1.4233 -0.129,2.1371 0.0996,0.7138 0.3408,1.4012 0.7098,2.0228 l 2.1918,-1.2537 c -0.2734,-0.4643 -0.4173,-0.9918 -0.4173,-1.5289 0,-0.537 0.1439,-1.0645 0.4173,-1.5288 l -8.2558,-4.7083 c -0.2714,0.4642 -0.6618,0.8496 -1.1318,1.1175 -0.47,0.268 -1.0031,0.409 -1.5458,0.409 -0.5427,0 -1.0758,-0.141 -1.5459,-0.409 -0.47,-0.2679 -0.8603,-0.6533 -1.1318,-1.1175 l -8.2575,4.7119 c 0.2733,0.4643 0.4173,0.9918 0.4173,1.5289 0,0.537 -0.144,1.0645 -0.4173,1.5288 z"
         fill="url(#paint11_linear)"
         id="path17180"
         style="fill:url(#linearGradient17232);stroke-width:1.22808" />
      <path
         d="m 87.341401,308.56766 2.1918,-1.2537 c 0.2712,0.4658 0.662,0.8527 1.1329,1.1217 0.4709,0.2691 1.0053,0.4108 1.5493,0.4108 0.5441,0 1.0785,-0.1417 1.5494,-0.4108 0.4709,-0.269 0.8617,-0.6559 1.1329,-1.1217 l 8.257099,4.7082 c -0.273,0.464 -0.417,0.9912 -0.417,1.528 0,0.5368 0.144,1.064 0.417,1.5279 l -8.255299,4.7101 c -0.2708,-0.4663 -0.6615,-0.8537 -1.1324,-1.1231 -0.471,-0.2694 -1.0056,-0.4112 -1.5498,-0.4112 -0.5443,0 -1.0789,0.1418 -1.5498,0.4112 -0.471,0.2694 -0.8616,0.6568 -1.1324,1.1231 l -2.1918,-1.2519 c 0.4271,-0.7364 1.0195,-1.3663 1.7315,-1.8413 0.712,-0.4751 1.5247,-0.7827 2.3759,-0.8992 0.8511,-0.1165 1.7179,-0.0389 2.5339,0.227 0.816,0.2658 1.5595,0.7128 2.1733,1.3066 l 4.224699,-2.4082 c -0.1188,-0.447 -0.1802,-0.9071 -0.1826,-1.3692 0.002,-0.4645 0.0638,-0.9269 0.1826,-1.3764 l -4.222799,-2.4047 c -0.6135,0.5948 -1.3569,1.0427 -2.1731,1.3094 -0.8161,0.2667 -1.6833,0.345 -2.5349,0.229 -0.8515,-0.1161 -1.6649,-0.4233 -2.3774,-0.8983 -0.7126,-0.4749 -1.3054,-1.1049 -1.733,-1.8415 z m -5.6329,4.9915 c -5e-4,0.5366 -0.1441,1.0636 -0.4164,1.5279 l 2.1918,1.2538 c 0.4989,-0.8446 0.7617,-1.8048 0.7617,-2.7826 0,-0.9778 -0.2628,-1.938 -0.7617,-2.7826 l -2.1918,1.2538 c 0.2733,0.4645 0.417,0.9924 0.4164,1.5297 z"
         fill="url(#paint12_linear)"
         id="path17182"
         style="fill:url(#linearGradient17234);stroke-width:1.22808" />
      <path
         d="m 60.103201,303.01166 c 0.4932,-0.8473 1.2039,-1.5511 2.0604,-2.0405 0.8565,-0.4895 1.8286,-0.7472 2.8181,-0.7472 0.9896,0 1.9616,0.2577 2.8181,0.7472 0.8566,0.4894 1.5673,1.1932 2.0605,2.0405 l -2.1918,1.2627 c -0.2708,-0.4654 -0.6611,-0.852 -1.1316,-1.1209 -0.4704,-0.2689 -1.0043,-0.4105 -1.5479,-0.4105 -0.5435,0 -1.0774,0.1416 -1.5478,0.4105 -0.4705,0.2689 -0.8608,0.6555 -1.1316,1.1209 z m 13.6201,-7.7678 c -0.4998,0.844 -0.7632,1.804 -0.7632,2.7817 0,0.9777 0.2634,1.9378 0.7632,2.7817 l 2.1918,-1.2538 c -0.2733,-0.4642 -0.4173,-0.9917 -0.4173,-1.5288 0,-0.5371 0.144,-1.0645 0.4173,-1.5288 z"
         fill="url(#paint13_linear)"
         id="path17184"
         style="fill:url(#linearGradient17236);stroke-width:1.22808" />
      <path
         d="m 75.924001,296.49276 c 0.2711,-0.4646 0.6613,-0.8504 1.1314,-1.1187 0.47,-0.2683 1.0034,-0.4096 1.5463,-0.4096 0.5429,0 1.0762,0.1413 1.5463,0.4096 0.47,0.2683 0.8603,0.6541 1.1313,1.1187 l 2.1918,-1.2627 c -0.4932,-0.8465 -1.2036,-1.5496 -2.0596,-2.0385 -0.856,-0.4889 -1.8274,-0.7463 -2.8162,-0.7463 -0.9888,0 -1.9602,0.2574 -2.8162,0.7463 -0.856,0.4889 -1.5664,1.192 -2.0596,2.0385 z"
         fill="#dedc00"
         id="path17186"
         style="stroke-width:2.44796" />
      <path
         d="m 48.681501,312.02956 c 0.2711,-0.4654 0.6616,-0.852 1.1322,-1.1208 0.4706,-0.2688 1.0046,-0.4104 1.5482,-0.4104 0.5436,0 1.0777,0.1416 1.5482,0.4104 0.4706,0.2688 0.8611,0.6554 1.1322,1.1208 l 8.2594,-4.7119 c -0.2731,-0.4643 -0.417,-0.9918 -0.417,-1.5288 0,-0.537 0.1439,-1.0645 0.417,-1.5288 l -2.1918,-1.2538 c -0.7418,1.2527 -0.9507,2.7446 -0.5808,4.1491 l -4.2393,2.4154 c -0.6138,-0.592 -1.3567,-1.0375 -2.1718,-1.3023 -0.815,-0.2649 -1.6806,-0.342 -2.5304,-0.2255 -0.8499,0.1165 -1.6615,0.4234 -2.3727,0.8974 -0.7112,0.474 -1.3032,1.1025 -1.7306,1.8373 z"
         fill="url(#paint14_linear)"
         id="path17188"
         style="fill:url(#linearGradient17238);stroke-width:1.22808" />
      <path
         d="m 48.269101,313.55886 c 4e-4,-0.5366 0.144,-1.0636 0.4164,-1.5279 l -2.1918,-1.2538 c -0.4988,0.8449 -0.7617,1.8055 -0.7617,2.7835 0,0.9781 0.2629,1.9386 0.7617,2.7835 l 2.1918,-1.2628 c -0.2714,-0.4627 -0.4151,-0.9877 -0.4164,-1.5225 z"
         fill="#ec6608"
         id="path17190"
         style="stroke-width:2.44796" />
      <path
         d="m 105.8408,307.98076 c -1.47,-6e-4 -2.882,0.5688 -3.932,1.5857 l -4.228399,-2.4101 c 0.1843,-0.6955 0.2276,-1.4201 0.1273,-2.1321 -0.1004,-0.7121 -0.3422,-1.3975 -0.7118,-2.0169 l -2.1917,1.2537 c 0.2726,0.4645 0.4161,0.9919 0.4161,1.5289 0,0.5369 -0.1435,1.0643 -0.4161,1.5288 l 8.257599,4.7083 c 0.271,-0.4646 0.662,-0.8504 1.132,-1.1186 0.47,-0.2683 1.003,-0.4095 1.546,-0.4095 0.543,0 1.077,0.1412 1.547,0.4095 0.47,0.2682 0.861,0.654 1.132,1.1186 l 2.192,-1.2538 c -0.493,-0.8461 -1.202,-1.5494 -2.057,-2.0395 -0.854,-0.4901 -1.824,-0.7498 -2.813,-0.753 z"
         fill="url(#paint15_linear)"
         id="path17192"
         style="fill:url(#linearGradient17240);stroke-width:1.22808" />
      <path
         d="m 108.9388,313.55816 c 0,0.536 -0.143,1.0625 -0.415,1.5262 l 2.192,1.2537 c 0.499,-0.8446 0.761,-1.8048 0.761,-2.7826 0,-0.9778 -0.262,-1.938 -0.761,-2.7825 l -2.192,1.2537 c 0.273,0.4652 0.416,0.9937 0.415,1.5315 z"
         fill="#76b82a"
         id="path17194"
         style="stroke-width:2.44796" />
      <path
         d="m 97.097101,302.99806 -2.1918,1.2537 c -0.2715,-0.4641 -0.6618,-0.8495 -1.1318,-1.1174 -0.47,-0.268 -1.0032,-0.409 -1.5459,-0.409 -0.5427,0 -1.0758,0.141 -1.5458,0.409 -0.47,0.2679 -0.8604,0.6533 -1.1318,1.1174 l -2.1918,-1.2537 c 0.4932,-0.8465 1.2036,-1.5496 2.0596,-2.0384 0.856,-0.4889 1.8274,-0.7464 2.8162,-0.7464 0.9889,0 1.9602,0.2575 2.8162,0.7464 0.856,0.4888 1.5664,1.1919 2.0597,2.0384 z m -15.3883,-4.9789 c 2e-4,0.5353 -0.1429,1.0612 -0.4146,1.5244 l 2.1918,1.2537 c 0.4989,-0.8446 0.7618,-1.8048 0.7618,-2.7826 0,-0.9777 -0.2629,-1.938 -0.7618,-2.7825 l -2.1918,1.2627 c 0.2721,0.463 0.4152,0.989 0.4146,1.5243 z"
         fill="url(#paint16_linear)"
         id="path17196"
         style="fill:url(#linearGradient17242);stroke-width:1.22808" />
      <path
         d="m 94.898801,353.91706 c 0.2732,-0.464 0.4171,-0.9912 0.4171,-1.528 0,-0.5367 -0.1439,-1.0639 -0.4171,-1.5279 l 2.1918,-1.2627 c 0.4999,0.8445 0.7634,1.8051 0.7634,2.7834 0,0.9783 -0.2635,1.939 -0.7634,2.7834 z m 15.818999,-6.514 -2.192,-1.2538 c -0.271,0.4654 -0.661,0.852 -1.132,1.1208 -0.47,0.2689 -1.004,0.4104 -1.548,0.4104 -0.544,0 -1.078,-0.1415 -1.548,-0.4104 -0.471,-0.2688 -0.861,-0.6554 -1.132,-1.1208 l -2.192,1.2628 c 0.493,0.8468 1.204,1.5503 2.06,2.0394 0.857,0.4891 1.828,0.7467 2.818,0.7467 0.989,0 1.961,-0.2576 2.817,-0.7467 0.856,-0.4891 1.567,-1.1926 2.06,-2.0394 z"
         fill="url(#paint17_linear)"
         id="path17198"
         style="fill:url(#linearGradient17244);stroke-width:1.22808" />
      <path
         d="m 108.9358,344.61976 c 0,0.5366 -0.144,1.0636 -0.416,1.5279 l 2.191,1.2538 c 0.499,-0.8446 0.762,-1.8048 0.762,-2.7826 0,-0.9778 -0.263,-1.938 -0.762,-2.7826 l -2.191,1.2538 c 0.273,0.4645 0.417,0.9924 0.416,1.5297 z"
         fill="#0090d7"
         id="path17200"
         style="stroke-width:2.44796" />
      <path
         d="m 46.489501,347.41156 2.1918,-1.2537 c 0.2717,0.4633 0.662,0.8479 1.1316,1.1152 0.4696,0.2674 1.0022,0.4081 1.5443,0.4081 0.542,0 1.0746,-0.1407 1.5442,-0.4081 0.4697,-0.2673 0.8599,-0.6519 1.1316,-1.1152 l 2.1918,1.2537 c -0.4939,0.8452 -1.2043,1.547 -2.0599,2.035 -0.8556,0.4879 -1.8261,0.7448 -2.8141,0.7448 -0.988,0 -1.9586,-0.2569 -2.8142,-0.7448 -0.8556,-0.488 -1.566,-1.1898 -2.0598,-2.035 z m 15.3974,4.9771 c -8e-4,-0.5344 0.1409,-1.0595 0.411,-1.5226 l -2.1918,-1.2537 c -0.4984,0.8448 -0.7609,1.8049 -0.7609,2.7826 0,0.9776 0.2625,1.9378 0.7609,2.7823 l 2.1918,-1.2625 c -0.2716,-0.4638 -0.414,-0.9904 -0.4128,-1.5261 z"
         fill="url(#paint18_linear)"
         id="path17202"
         style="fill:url(#linearGradient17246);stroke-width:1.22808" />
      <path
         d="m 48.268701,344.61896 c -9e-4,-0.5346 0.1416,-1.0599 0.4128,-1.5225 l -2.1918,-1.2537 c -0.4983,0.8447 -0.7609,1.8049 -0.7609,2.7825 0,0.9777 0.2626,1.9379 0.7609,2.7826 l 2.1918,-1.2537 c -0.2728,-0.4666 -0.4152,-0.9964 -0.4128,-1.5352 z"
         fill="url(#paint19_linear)"
         id="path17204"
         style="fill:url(#linearGradient17248);stroke-width:1.22808" />
      <path
         d="M 110.0528,374.67926 H 80.129201 v -13.658 l 8.1535,-4.652 c 0.6132,0.593 1.3557,1.04 2.1707,1.306 0.8151,0.266 1.6809,0.344 2.5312,0.228 0.8503,-0.115 1.6625,-0.422 2.3745,-0.895 0.7119,-0.474 1.3046,-1.102 1.7327,-1.837 l -2.1917,-1.2625 c -0.2017,0.3504 -0.4715,0.6585 -0.794,0.9055 -0.3225,0.247 -0.6913,0.428 -1.0851,0.534 -0.3939,0.106 -0.805,0.133 -1.2097,0.081 -0.4048,-0.052 -0.7951,-0.182 -1.1485,-0.384 -0.3535,-0.201 -0.6631,-0.47 -0.9109,-0.7901 -0.2479,-0.3202 -0.4292,-0.6857 -0.5335,-1.0754 -0.1042,-0.3897 -0.1294,-0.7959 -0.074,-1.1953 0.0554,-0.3993 0.1902,-0.7839 0.3967,-1.1316 l -2.1918,-1.2537 c -0.3678,0.62 -0.6083,1.3056 -0.7077,2.0176 -0.0993,0.7119 -0.0556,1.4362 0.1287,2.1314 l -6.6338,3.7881 v -7.5547 c 1.413,-0.3962 2.6148,-1.3193 3.3516,-2.5742 l -2.1918,-1.2538 c -0.2711,0.4654 -0.6616,0.852 -1.1322,1.1208 -0.4705,0.2689 -1.0046,0.4104 -1.5482,0.4104 -0.5436,0 -1.0776,-0.1415 -1.5482,-0.4104 -0.4706,-0.2688 -0.8611,-0.6554 -1.1322,-1.1208 l -2.1918,1.2538 c 0.7373,1.2553 1.9398,2.1784 3.3535,2.5742 v 7.5587 l -6.6338,-3.7885 c 0.1179,-0.4472 0.1792,-0.9071 0.1826,-1.3692 -3e-4,-0.9752 -0.2618,-1.933 -0.758,-2.7762 l -2.1918,1.2537 c 0.4106,0.7019 0.522,1.5361 0.3098,2.3191 -0.2122,0.783 -0.7307,1.4511 -1.4413,1.8561 -0.7106,0.405 -1.5553,0.516 -2.348,0.306 -0.7928,-0.21 -1.4689,-0.722 -1.8794,-1.4235 l -2.1918,1.2625 c 0.43,0.729 1.0222,1.351 1.7317,1.819 0.7096,0.469 1.5179,0.772 2.3636,0.887 0.8458,0.114 1.7068,0.037 2.5178,-0.226 0.8111,-0.263 1.5508,-0.705 2.1632,-1.293 l 8.1571,4.654 v 13.658 h -29.9271 c -0.2698,0 -0.5286,0.106 -0.7194,0.294 -0.1908,0.189 -0.298,0.444 -0.298,0.711 0,0.266 0.1072,0.522 0.298,0.71 0.1908,0.189 0.4496,0.295 0.7194,0.295 h 29.8705 c -0.1973,1.196 -0.7947,2.292 -1.6968,3.113 -1.9343,1.791 -5.3736,2.582 -9.9471,2.286 -1.8688,-0.142 -3.7483,-0.037 -5.5891,0.312 -0.0939,10e-4 -0.1869,0.019 -0.274,0.054 l -0.0237,0.011 c -5.2384,1.163 -7.306,4.445 -7.6859,6.658 -0.0328,0.197 0.0148,0.398 0.1322,0.561 0.1174,0.162 0.2951,0.272 0.4943,0.305 0.0422,0.007 0.085,0.011 0.1279,0.011 0.1802,-0.001 0.3544,-0.064 0.4918,-0.18 0.1374,-0.115 0.2291,-0.274 0.2588,-0.45 0.0293,-0.164 0.4895,-2.634 3.4247,-4.308 -0.2575,0.722 -0.3251,1.516 -0.3908,2.32 -0.0932,1.153 -0.201,2.459 -0.9042,3.886 -0.0497,0.089 -0.0804,0.188 -0.0904,0.29 -0.01,0.101 10e-4,0.204 0.0325,0.301 0.0315,0.098 0.0825,0.188 0.1502,0.265 0.0677,0.077 0.1505,0.14 0.2435,0.184 0.093,0.045 0.1943,0.071 0.2975,0.075 0.1033,0.005 0.2065,-0.011 0.3034,-0.046 0.0969,-0.036 0.1854,-0.091 0.2602,-0.161 0.0747,-0.071 0.1342,-0.156 0.1748,-0.25 0.8293,-1.681 0.9516,-3.202 1.0521,-4.423 0.1498,-1.825 0.232,-2.836 2.1808,-3.637 0.7492,-0.148 1.5077,-0.245 2.2704,-0.29 -0.8822,1.07 -1.0777,2.547 -1.2786,4.079 -0.2849,2.208 -0.6393,4.953 -3.01,7.728 -0.065,0.076 -0.1142,0.164 -0.1446,0.26 -0.0305,0.095 -0.0417,0.195 -0.0329,0.294 0.009,0.1 0.0372,0.196 0.0838,0.285 0.0466,0.089 0.1104,0.167 0.1877,0.231 0.0774,0.065 0.1668,0.113 0.2631,0.143 0.0964,0.03 0.1978,0.041 0.2984,0.033 0.1007,-0.009 0.1986,-0.037 0.2883,-0.083 0.0896,-0.046 0.1692,-0.109 0.2342,-0.186 2.6631,-3.111 3.0503,-6.104 3.359,-8.509 0.3415,-2.644 0.5936,-3.842 2.8219,-4.25 5.021,0.305 8.716,-0.597 10.9845,-2.697 0.2338,-0.221 0.4528,-0.456 0.6558,-0.705 -0.6247,1.791 -1.9069,3.826 -4.5425,6.02 -1.3504,1.107 -2.7992,2.091 -4.3288,2.94 -2.3635,1.38 -4.0713,2.378 -4.6886,5.834 -0.0351,0.197 0.0105,0.399 0.1266,0.563 0.1161,0.164 0.2932,0.275 0.4925,0.31 0.0439,0.009 0.0886,0.013 0.1334,0.013 0.1792,-10e-4 0.3526,-0.063 0.4895,-0.178 0.137,-0.114 0.2288,-0.272 0.2593,-0.446 0.495,-2.775 1.7279,-3.493 3.9617,-4.799 l 0.6466,-0.379 c -0.5023,1.175 -0.7562,2.345 -0.9936,3.428 -0.548,2.525 -1.0156,4.69 -4.0183,6.642 -0.1383,0.088 -0.2437,0.219 -0.3007,0.371 -0.0569,0.153 -0.0622,0.32 -0.0151,0.475 0.0471,0.156 0.1441,0.293 0.2765,0.39 0.1323,0.097 0.2929,0.148 0.4575,0.147 0.1479,0 0.2924,-0.043 0.4165,-0.122 3.5361,-2.289 4.1187,-4.984 4.6831,-7.588 0.064,-0.299 0.1279,-0.593 0.1973,-0.889 0.1607,0.799 0.3945,1.586 0.621,2.345 0.5023,1.68 1.021,3.417 0.7306,5.051 -0.035,0.197 0.0105,0.4 0.1266,0.563 0.1161,0.164 0.2933,0.276 0.4926,0.31 0.0441,0.007 0.0886,0.011 0.1333,0.011 0.1793,0 0.3529,-0.062 0.4902,-0.176 0.1373,-0.114 0.2295,-0.272 0.2605,-0.446 0.3525,-1.984 -0.2174,-3.895 -0.769,-5.744 -0.842,-2.819 -1.5689,-5.255 1.1124,-7.49 2.2466,-1.874 3.6037,-3.671 4.4238,-5.318 0.1716,1.972 0.4036,3.707 0.6411,5.268 0.5479,3.579 -0.3653,4.677 -1.3991,5.953 -1.0338,1.275 -2.2265,2.716 -2.0092,6.389 0.0116,0.192 0.0969,0.372 0.2385,0.504 0.1415,0.132 0.3287,0.205 0.5232,0.205 h 0.0456 c 0.202,-0.012 0.3908,-0.103 0.5251,-0.252 0.1342,-0.15 0.2029,-0.346 0.1909,-0.545 -0.1826,-3.089 0.7105,-4.189 1.6639,-5.352 0.3821,-0.442 0.7278,-0.913 1.0338,-1.409 0.4676,4.149 0.0384,7.338 -3.653,12.458 -0.1172,0.162 -0.1642,0.364 -0.1306,0.561 0.0336,0.197 0.1449,0.373 0.3096,0.489 0.1648,0.115 0.3693,0.162 0.5686,0.129 0.1994,-0.034 0.3772,-0.144 0.4945,-0.306 5.0192,-6.967 4.4091,-10.782 3.3991,-17.098 -0.3361,-2.098 -0.7306,-4.519 -0.9644,-7.47 0.8365,1.723 1.9744,3.014 3.0393,4.216 2.6886,3.034 5.0101,5.653 1.5982,14.408 -0.0727,0.186 -0.0676,0.393 0.0143,0.576 0.0818,0.183 0.2336,0.326 0.4222,0.398 0.0875,0.033 0.1803,0.05 0.274,0.05 0.1545,0 0.3055,-0.046 0.4329,-0.132 0.1275,-0.086 0.2255,-0.209 0.2812,-0.351 1.7626,-4.521 2.0621,-7.627 1.5982,-9.976 1.0484,1.35 1.7352,3.181 1.3644,6.635 -0.0109,0.098 -0.002,0.198 0.026,0.293 0.0281,0.095 0.0749,0.183 0.1376,0.26 0.0628,0.077 0.1404,0.142 0.2282,0.189 0.0879,0.047 0.1844,0.077 0.284,0.088 h 0.0822 c 0.1881,0 0.3694,-0.069 0.5093,-0.193 0.1399,-0.125 0.2284,-0.295 0.2487,-0.48 0.1246,-1.069 0.138,-2.147 0.0402,-3.218 0.9771,0.99 2.0457,1.912 2.9352,2.408 0.1764,0.098 0.3848,0.122 0.5795,0.068 0.1947,-0.053 0.36,-0.181 0.4597,-0.355 0.0494,-0.086 0.081,-0.181 0.0931,-0.279 0.0122,-0.099 0.005,-0.198 -0.0225,-0.294 -0.027,-0.095 -0.0727,-0.184 -0.1347,-0.262 -0.0619,-0.078 -0.1388,-0.143 -0.2263,-0.191 -1.5854,-0.882 -4.0822,-3.608 -4.9315,-4.934 -0.0119,-0.019 -0.0254,-0.037 -0.0402,-0.054 -0.6429,-0.994 -1.4301,-1.735 -2.1918,-2.435 -0.5574,-0.494 -1.0746,-1.029 -1.547,-1.602 -0.007,-0.009 -0.0153,-0.017 -0.0238,-0.024 -0.4347,-0.552 -0.895,-1.082 -1.3534,-1.591 -1.1087,-1.25 -2.2375,-2.525 -2.9973,-4.281 1.6201,1.4 4.0895,1.922 6.7379,2.216 h 0.0256 c 3.737,0.406 4.2758,3.066 4.9005,6.151 0.2612,1.286 0.5315,2.621 1.0685,3.788 0.0843,0.182 0.2382,0.323 0.4278,0.392 0.1895,0.07 0.3993,0.062 0.5832,-0.021 0.1838,-0.083 0.3266,-0.235 0.397,-0.422 0.0704,-0.188 0.0626,-0.395 -0.0217,-0.576 -0.4621,-1 -0.7032,-2.19 -0.9589,-3.45 -0.1425,-0.698 -0.2904,-1.412 -0.4804,-2.114 0.643,0.329 1.3115,0.597 1.9763,0.861 1.7498,0.694 3.2603,1.293 3.9051,2.843 0.0574,0.138 0.1553,0.257 0.2812,0.34 0.1259,0.083 0.2741,0.127 0.4256,0.127 0.0984,0 0.195799,-0.019 0.286799,-0.056 0.1871,-0.076 0.3361,-0.222 0.4142,-0.406 0.0781,-0.185 0.0789,-0.392 0.002,-0.577 -0.887699,-2.14 -2.851199,-2.919 -4.748899,-3.671 -1.516,-0.601 -2.9461,-1.169 -3.8612,-2.39 -0.1132,-0.152 -0.2356,-0.3 -0.3653,-0.442 4.7873,0.431 9.384899,1.246 10.664899,5.906 0.043,0.159 0.138,0.3 0.27,0.401 0.132,0.1 0.294,0.155 0.461,0.156 0.067,0 0.135,-0.009 0.201,-0.027 0.194,-0.053 0.36,-0.18 0.46,-0.354 0.101,-0.173 0.127,-0.379 0.075,-0.571 -1.697,-6.186 -8.005799,-6.695 -13.571199,-7.146 -5.7114,-0.461 -9.3735,-0.97 -9.8996,-4.778 H 110.0526 c 0.27,0 0.528,-0.106 0.719,-0.295 0.191,-0.188 0.298,-0.444 0.298,-0.71 0,-0.267 -0.107,-0.522 -0.298,-0.711 -0.191,-0.188 -0.449,-0.294 -0.719,-0.294 z"
         fill="#213a8f"
         id="path17206"
         style="stroke-width:2.44796" />
    </g>
  </g>
</svg>
