<?xml version="1.0" encoding="UTF-8" standalone="no"?>
<svg
   xmlns:dc="http://purl.org/dc/elements/1.1/"
   xmlns:cc="http://creativecommons.org/ns#"
   xmlns:rdf="http://www.w3.org/1999/02/22-rdf-syntax-ns#"
   xmlns:svg="http://www.w3.org/2000/svg"
   xmlns="http://www.w3.org/2000/svg"
   xmlns:sodipodi="http://sodipodi.sourceforge.net/DTD/sodipodi-0.dtd"
   xmlns:inkscape="http://www.inkscape.org/namespaces/inkscape"
   width="237.43364pt"
   height="237.43364pt"
   viewBox="0 0 237.43365 237.43365"
   version="1.1"
   id="svg63"
   sodipodi:docname="prosoft_logo.svg"
   inkscape:version="1.0.2-2 (e86c870879, 2021-01-15)">
  <metadata
     id="metadata67">
    <rdf:RDF>
      <cc:Work
         rdf:about="">
        <dc:format>image/svg+xml</dc:format>
        <dc:type
           rdf:resource="http://purl.org/dc/dcmitype/StillImage" />
        <dc:title></dc:title>
      </cc:Work>
    </rdf:RDF>
  </metadata>
  <sodipodi:namedview
     pagecolor="#ffffff"
     bordercolor="#666666"
     borderopacity="1"
     objecttolerance="10"
     gridtolerance="10"
     guidetolerance="10"
     inkscape:pageopacity="0"
     inkscape:pageshadow="2"
     inkscape:window-width="1920"
     inkscape:window-height="1001"
     id="namedview65"
     showgrid="false"
     fit-margin-top="0"
     fit-margin-left="0"
     fit-margin-right="0"
     fit-margin-bottom="0"
     inkscape:zoom="0.93909947"
     inkscape:cx="-122.7771"
     inkscape:cy="107.15093"
     inkscape:window-x="667"
     inkscape:window-y="1791"
     inkscape:window-maximized="1"
     inkscape:current-layer="svg63" />
  <defs
     id="defs26">
    <clipPath
       id="clip1">
      <path
         d="M 50,0 H 70 V 25.800781 H 50 Z m 0,0"
         id="path2" />
    </clipPath>
    <clipPath
       id="clip2">
      <path
         d="M 35,6 H 54 V 25.800781 H 35 Z m 0,0"
         id="path5" />
    </clipPath>
    <clipPath
       id="clip3">
      <path
         d="M 17,6 H 37 V 25.800781 H 17 Z m 0,0"
         id="path8" />
    </clipPath>
    <clipPath
       id="clip4">
      <path
         d="M 69,6 H 88 V 25.800781 H 69 Z m 0,0"
         id="path11" />
    </clipPath>
    <clipPath
       id="clip5">
      <path
         d="m 84,6 h 16 V 25.800781 H 84 Z m 0,0"
         id="path14" />
    </clipPath>
    <clipPath
       id="clip6">
      <path
         d="m 115,0 h 8.08984 V 8 H 115 Z m 0,0"
         id="path17" />
    </clipPath>
    <clipPath
       id="clip7">
      <path
         d="m 98,6 h 16 V 25.800781 H 98 Z m 0,0"
         id="path20" />
    </clipPath>
    <clipPath
       id="clip8">
      <path
         d="M 0,0 H 24 V 25.800781 H 0 Z m 0,0"
         id="path23" />
    </clipPath>
  </defs>
  <circle
     style="fill:#ffffff;fill-opacity:1;stroke:#a9b0b7;stroke-width:4.58793;stroke-linecap:round;stroke-linejoin:round;stroke-miterlimit:4;stroke-dasharray:none;stroke-dashoffset:0;stroke-opacity:1"
     id="path1155"
     cx="118.71683"
     cy="118.71683"
     r="116.42286"
     inkscape:export-filename="C:\Users\Lenovo P1\Desktop\path1155.png"
     inkscape:export-xdpi="96"
     inkscape:export-ydpi="96" />
  <g
     id="g962"
     transform="matrix(1.5445534,0,0,1.5445534,28.244354,-148.75041)">
    <g
       id="surface1"
       transform="translate(-3.3883319,152.47493)">
      <g
         clip-path="url(#clip1)"
         clip-rule="nonzero"
         id="g30">
        <path
           style="fill:#005494;fill-opacity:1;fill-rule:nonzero;stroke:none"
           d="M 69.375,1.40625 C 68.007813,0.808594 66.183594,0.246094 63.515625,0.246094 c -5.578125,0 -9.789062,2.738281 -9.789062,7.613281 0,3.054688 1.789062,4.738281 4.105468,6.703125 2.839844,2.417969 3.828125,3.191406 3.828125,4.945313 0,1.898437 -1.546875,2.984375 -3.757812,2.984375 -2.699219,0 -5.542969,-1.6875 -7.261719,-3.15625 l 0.664063,5.050781 c 2.773437,1.230469 5.476562,1.414062 7.089843,1.414062 6.699219,0 10,-4.253906 10,-8.640625 0,-3.332031 -1.789062,-4.808593 -3.933593,-6.597656 -2.839844,-2.347656 -4.175782,-3.226562 -4.175782,-4.878906 0,-1.859375 1.898438,-2.140625 2.914063,-2.140625 1.542969,0 3.089844,0.316406 5.894531,2.738281 l 0.28125,-4.875"
           id="path28" />
      </g>
      <g
         clip-path="url(#clip2)"
         clip-rule="nonzero"
         id="g34">
        <path
           style="fill:#005494;fill-opacity:1;fill-rule:nonzero;stroke:none"
           d="m 46.863281,19.722656 c -0.972656,2.5 -2.339843,3.472657 -3.554687,3.472657 -0.785156,0 -2.523438,-0.527344 -2.523438,-4.15625 0,-2.183594 0.554688,-5.027344 1.289063,-6.816407 0.417969,-1.027343 1.523437,-3.238281 3.394531,-3.238281 0.84375,0 2.550781,0.394531 2.550781,4.15625 0,1.660156 -0.316406,4.421875 -1.15625,6.582031 m 2.664063,-2.207031 c 0,0 2.835937,1.902344 2.851562,1.875 0.65625,-1.589844 1.011719,-3.425781 1.011719,-5.460937 0,-1.867188 -0.316406,-3.945313 -1.738281,-5.417969 -1.761719,-1.8125 -4.289063,-2 -5.578125,-2 -3.238281,0 -5.734375,0.972656 -7.628906,3.078125 -1.976563,2.210937 -3.03125,5.445312 -3.03125,8.632812 0,1.445313 0.238281,7.449219 7.394531,7.449219 2.960937,0 5.457031,-1.027344 7.28125,-2.832031 0.03125,-0.03516 -0.5625,-5.324219 -0.5625,-5.324219"
           id="path32" />
      </g>
      <g
         clip-path="url(#clip3)"
         clip-rule="nonzero"
         id="g38">
        <path
           style="fill:#005494;fill-opacity:1;fill-rule:nonzero;stroke:none"
           d="m 26.90625,15.589844 c -0.210937,0 -0.367187,-0.02344 -0.550781,-0.105469 L 27.75,9.25 h 0.234375 c 2.132813,0 2.421875,1.078125 2.421875,1.945313 0,2.210937 -1.289062,4.394531 -3.5,4.394531 m 5.054688,2.765625 -1,-2.105469 c 1.261718,0.05078 2.472656,-0.394531 3.261718,-1.105469 0.976563,-0.898437 1.554688,-2.554687 1.554688,-4 0,-1.714843 -0.871094,-3 -1.871094,-3.578125 -0.707031,-0.421875 -1.839844,-0.6875 -4.65625,-0.6875 h -4.402344 c -0.105468,1.664063 -0.875,4.414063 -2.730468,5.84375 L 20.144531,21.25 c -0.34375,1.527344 -0.65625,3 -2.1875,4.046875 h 7.527344 c -0.523437,-0.550781 -0.761719,-1.152344 -0.761719,-1.8125 0,-0.523437 0.183594,-1.578125 0.34375,-2.234375 l 1.027344,-4.5 1.339844,3.523438 c 0.867187,2.265625 1.261719,3.1875 2.238281,4.238281 0.550781,0.605469 1.15625,1.160156 3.289063,1.160156 1.210937,0 2.527343,-0.234375 3.078125,-0.375 -1.367188,-1.152344 -2.105469,-2.785156 -4.078125,-6.941406"
           id="path36" />
      </g>
      <g
         clip-path="url(#clip4)"
         clip-rule="nonzero"
         id="g42">
        <path
           style="fill:#005494;fill-opacity:1;fill-rule:nonzero;stroke:none"
           d="m 80.542969,19.722656 c -0.972656,2.5 -2.34375,3.472657 -3.550781,3.472657 -0.789063,0 -2.527344,-0.527344 -2.527344,-4.15625 0,-2.183594 0.554687,-5.027344 1.289062,-6.816407 0.421875,-1.027343 1.527344,-3.238281 3.394532,-3.238281 0.84375,0 2.550781,0.394531 2.550781,4.15625 0,1.660156 -0.316406,4.421875 -1.15625,6.582031 M 85.332031,8.511719 c -1.761718,-1.8125 -4.289062,-2 -5.578125,-2 -3.238281,0 -5.734375,0.972656 -7.628906,3.078125 -1.976562,2.210937 -3.03125,5.445312 -3.03125,8.632812 0,1.445313 0.238281,7.449219 7.394531,7.449219 6.34375,0 10.582032,-4.710937 10.582032,-11.742187 0,-1.867188 -0.320313,-3.945313 -1.738282,-5.417969"
           id="path40" />
      </g>
      <g
         clip-path="url(#clip5)"
         clip-rule="nonzero"
         id="g46">
        <path
           style="fill:#005494;fill-opacity:1;fill-rule:nonzero;stroke:none"
           d="M 99.285156,6.878906 H 88.765625 c 0.582031,0.738282 0.738281,1.15625 0.738281,1.738282 0,0.316406 -0.02734,0.867187 -0.34375,2.316406 L 86.894531,21.25 c -0.417968,1.863281 -0.867187,3.128906 -2.210937,4.046875 h 7.632812 c -0.578125,-0.734375 -0.734375,-1.152344 -0.734375,-1.730469 0,-0.953125 0.238282,-1.84375 0.34375,-2.316406 l 0.894532,-4.105469 h 1.917968 c 0.632813,0 1.578125,-0.02734 1.683594,1.261719 l 0.972656,-4.210937 c -1,0.265625 -1.578125,0.238281 -2.261718,0.238281 h -1.707032 l 1.101563,-4.84375 h 1.816406 c 1.46875,0 1.863281,0.738281 2.003906,1.15625 l 0.9375,-3.867188"
           id="path44" />
      </g>
      <g
         clip-path="url(#clip6)"
         clip-rule="nonzero"
         id="g52">
        <path
           style="fill:#005494;fill-opacity:1;fill-rule:nonzero;stroke:none"
           d="m 118.14063,3.460938 h 0.35546 c 0.38672,0 0.60157,0 0.64844,-0.00781 0.27735,-0.027344 0.46875,-0.105469 0.57031,-0.234375 0.0703,-0.089844 0.10547,-0.1875 0.10547,-0.308594 0,-0.238281 -0.13281,-0.394531 -0.39453,-0.476562 -0.1289,-0.035156 -0.4375,-0.054688 -0.92969,-0.054688 h -0.35546 z m -0.85547,2.238281 v -3.9375 h 0.85547 c 0.82421,0 1.28125,0.00391 1.36328,0.00391 0.51172,0.039063 0.86718,0.214844 1.07031,0.535156 0.10547,0.167969 0.15625,0.359375 0.15625,0.566407 0,0.304687 -0.10938,0.5625 -0.33203,0.761718 -0.20313,0.183594 -0.47656,0.300782 -0.81641,0.34375 0.20313,0.070313 0.39453,0.21875 0.58203,0.453125 0.0312,0.039063 0.13672,0.199219 0.31641,0.480469 l 0.49609,0.792969 h -1.0625 L 119.55469,5.058594 C 119.36719,4.71875 119.21875,4.492188 119.11328,4.375 118.91406,4.175781 118.66406,4.074219 118.36719,4.074219 h -0.22656 v 1.625 z m 1.8164,-4.964844 c -0.57422,0 -1.10937,0.132813 -1.60547,0.394531 -0.5,0.265625 -0.89062,0.632813 -1.16796,1.089844 -0.28907,0.480469 -0.4375,0.980469 -0.4375,1.503906 0,0.535157 0.14453,1.039063 0.43359,1.507813 0.28906,0.46875 0.68359,0.835937 1.1875,1.097656 0.5,0.257813 1.03125,0.390625 1.58984,0.390625 0.57422,0 1.11328,-0.136719 1.61719,-0.402344 0.50391,-0.273437 0.89844,-0.644531 1.17969,-1.109375 0.28125,-0.46875 0.42187,-0.960937 0.42187,-1.484375 0,-0.53125 -0.14843,-1.039062 -0.4414,-1.511718 -0.29297,-0.476563 -0.69141,-0.84375 -1.1875,-1.09375 -0.51172,-0.257813 -1.03907,-0.382813 -1.58985,-0.382813 m -0.004,-0.73046875 c 0.71484,0 1.38281,0.16015675 2.0039,0.49218775 0.61719,0.324219 1.10157,0.777344 1.44922,1.355469 0.35938,0.59375 0.53516,1.214843 0.53516,1.867187 0,0.660156 -0.17578,1.285156 -0.53516,1.867188 -0.36328,0.582031 -0.84765,1.035156 -1.46484,1.355468 -0.63281,0.332032 -1.29688,0.492188 -1.98828,0.492188 -0.71485,0 -1.38282,-0.164063 -2.01172,-0.503906 -0.625,-0.332032 -1.10547,-0.785157 -1.45313,-1.363282 -0.35156,-0.585937 -0.53125,-1.199218 -0.53125,-1.847656 0,-0.667969 0.1836,-1.292969 0.55078,-1.882812 0.36329,-0.589844 0.85547,-1.042969 1.48047,-1.359375 0.625,-0.316407 1.28125,-0.47265675 1.96485,-0.47265675"
           id="path48" />
        <path
           style="fill:#005494;fill-opacity:1;fill-rule:nonzero;stroke:none"
           d="m 118.14063,3.460938 h 0.35546 c 0.38672,0 0.60157,0 0.64844,-0.00781 0.27735,-0.027344 0.46875,-0.105469 0.57031,-0.234375 0.0703,-0.089844 0.10547,-0.1875 0.10547,-0.308594 0,-0.238281 -0.13281,-0.394531 -0.39453,-0.476562 -0.1289,-0.035156 -0.4375,-0.054688 -0.92969,-0.054688 h -0.35546 z m -0.85547,2.238281 v -3.9375 h 0.85547 c 0.82421,0 1.28125,0.00391 1.36328,0.00391 0.51172,0.039063 0.86718,0.214844 1.07031,0.535156 0.10547,0.167969 0.15625,0.359375 0.15625,0.566407 0,0.304687 -0.10938,0.5625 -0.33203,0.761718 -0.20313,0.183594 -0.47656,0.300782 -0.81641,0.34375 0.20313,0.070313 0.39453,0.21875 0.58203,0.453125 0.0312,0.039063 0.13672,0.199219 0.31641,0.480469 l 0.49609,0.792969 h -1.0625 L 119.55469,5.058594 C 119.36719,4.71875 119.21875,4.492188 119.11328,4.375 118.91406,4.175781 118.66406,4.074219 118.36719,4.074219 h -0.22656 v 1.625 z m 1.8164,-4.964844 c -0.57422,0 -1.10937,0.132813 -1.60547,0.394531 -0.5,0.265625 -0.89062,0.632813 -1.16796,1.089844 -0.28907,0.480469 -0.4375,0.980469 -0.4375,1.503906 0,0.535157 0.14453,1.039063 0.43359,1.507813 0.28906,0.46875 0.68359,0.835937 1.1875,1.097656 0.5,0.257813 1.03125,0.390625 1.58984,0.390625 0.57422,0 1.11328,-0.136719 1.61719,-0.402344 0.50391,-0.273437 0.89844,-0.644531 1.17969,-1.109375 0.28125,-0.46875 0.42187,-0.960937 0.42187,-1.484375 0,-0.53125 -0.14843,-1.039062 -0.4414,-1.511718 -0.29297,-0.476563 -0.69141,-0.84375 -1.1875,-1.09375 -0.51172,-0.257813 -1.03907,-0.382813 -1.58985,-0.382813 m -0.004,-0.73046875 c 0.71484,0 1.38281,0.16015675 2.0039,0.49218775 0.61719,0.324219 1.10157,0.777344 1.44922,1.355469 0.35938,0.59375 0.53516,1.214843 0.53516,1.867187 0,0.660156 -0.17578,1.285156 -0.53516,1.867188 -0.36328,0.582031 -0.84765,1.035156 -1.46484,1.355468 -0.63281,0.332032 -1.29688,0.492188 -1.98828,0.492188 -0.71485,0 -1.38282,-0.164063 -2.01172,-0.503906 -0.625,-0.332032 -1.10547,-0.785157 -1.45313,-1.363282 -0.35156,-0.585937 -0.53125,-1.199218 -0.53125,-1.847656 0,-0.667969 0.1836,-1.292969 0.55078,-1.882812 0.36329,-0.589844 0.85547,-1.042969 1.48047,-1.359375 0.625,-0.316407 1.28125,-0.47265675 1.96485,-0.47265675"
           id="path50" />
      </g>
      <g
         clip-path="url(#clip7)"
         clip-rule="nonzero"
         id="g56">
        <path
           style="fill:#005494;fill-opacity:1;fill-rule:nonzero;stroke:none"
           d="m 113.63281,6.878906 -1.78125,3.867188 c -0.34375,-0.417969 -1.08203,-1.15625 -2.55468,-1.15625 h -0.73047 L 105.98438,21.25 c -0.32422,1.472656 -0.33985,2.050781 -0.33985,2.316406 0,0.734375 0.39453,1.339844 0.73828,1.730469 H 98.75 C 100.14453,24.25 100.49609,23.351563 100.96094,21.25 l 2.57422,-11.660156 h -1.49219 c -1.47266,0 -2.210939,0.738281 -2.550782,1.15625 l 0.886722,-3.867188 h 13.2539"
           id="path54" />
      </g>
      <g
         clip-path="url(#clip8)"
         clip-rule="nonzero"
         id="g60">
        <path
           style="fill:#005494;fill-opacity:1;fill-rule:nonzero;stroke:none"
           d="m 13.203125,3.648438 h 0.597656 c 0.664063,0 2.667969,0.105468 2.667969,3.085937 0,2.105469 -0.667969,4.457031 -2.074219,5.824219 -0.457031,0.457031 -1.367187,1.125 -3.085937,1.125 1.472656,0.632812 2.703125,0.734375 3.683594,0.734375 6.171875,0 8.628906,-4.3125 8.628906,-8.171875 0,-2.597656 -1.261719,-3.828125 -2.171875,-4.421875 C 19.867188,0.804688 17.65625,0.703125 15.832031,0.703125 H 5.445313 c 0.597656,0.632813 0.984375,1.371094 0.984375,2.3125 0,0.773438 -0.175782,1.828125 -0.457032,3.089844 L 2.917969,19.859375 c -0.457031,2.035156 -0.875,4 -2.917969,5.402344 H 10.183594 C 9.273438,24.144531 9.167969,23.4375 9.167969,22.945313 c 0,-1.019532 0.28125,-2.171875 0.488281,-3.085938 L 13.203125,3.648438"
           id="path58" />
      </g>
    </g>
    <g
       aria-label="SYSTEMS"
       id="text917"
       style="font-size:14px;line-height:1.25;font-family:'Times New Roman';-inkscape-font-specification:'Times New Roman, ';letter-spacing:0px;fill:#005494;fill-opacity:1;stroke:#004e97;stroke-width:0.75;stroke-opacity:1">
      <path
         d="m 62.788742,193.48218 0.765625,-3.43848 h 0.232422 q -0.04785,0.49902 -0.04785,0.82715 0,0.93652 0.594727,1.52441 0.601562,0.58789 1.56543,0.58789 0.895507,0 1.360351,-0.54687 0.464844,-0.55371 0.464844,-1.27149 0,-0.46484 -0.211914,-0.84765 -0.321289,-0.56738 -1.71582,-1.9961 -0.676758,-0.68359 -0.868164,-1.01855 -0.314454,-0.55371 -0.314454,-1.16211 0,-0.9707 0.72461,-1.66113 0.724609,-0.69043 1.859375,-0.69043 0.382812,0 0.724609,0.0752 0.211914,0.041 0.772461,0.27344 0.396484,0.15723 0.4375,0.1709 0.0957,0.0205 0.211914,0.0205 0.198242,0 0.341797,-0.10254 0.143555,-0.10254 0.334961,-0.4375 h 0.259766 l -0.710938,3.07617 H 69.33757 q 0.02734,-0.41016 0.02734,-0.66309 0,-0.82714 -0.546875,-1.35351 -0.546875,-0.52637 -1.442383,-0.52637 -0.710937,0 -1.155273,0.41699 -0.444336,0.417 -0.444336,0.96387 0,0.47852 0.280273,0.91602 0.28711,0.43066 1.305664,1.41504 1.025391,0.97753 1.326172,1.53125 0.300781,0.54687 0.300781,1.16894 0,0.7041 -0.375976,1.36719 -0.369141,0.65625 -1.066406,1.01855 -0.697266,0.36231 -1.524414,0.36231 -0.410157,0 -0.765625,-0.0752 -0.355469,-0.0752 -1.134766,-0.36914 -0.266602,-0.10254 -0.444336,-0.10254 -0.40332,0 -0.628906,0.54688 z"
         style="font-style:italic;font-size:14px;fill:#005494;fill-opacity:1;stroke:#004e97;stroke-width:0.75;stroke-opacity:1"
         id="path919" />
      <path
         d="m 74.58757,188.34155 1.763672,-2.46777 q 0.683594,-0.96387 0.683594,-1.23047 0,-0.15039 -0.150391,-0.24609 -0.143554,-0.10254 -0.833984,-0.14356 l 0.06836,-0.25293 h 2.91211 l -0.05469,0.25293 q -0.423828,0.0547 -0.581055,0.11621 -0.246093,0.10254 -0.485351,0.32129 -0.321289,0.28711 -0.929688,1.12793 l -2.269531,3.13086 -0.683594,2.29004 q -0.252929,0.86133 -0.252929,1.18945 0,0.21192 0.07519,0.32129 0.08203,0.10938 0.280273,0.17774 0.259766,0.082 0.792969,0.0889 l -0.06836,0.25293 h -3.903321 l 0.08203,-0.25293 q 0.581054,-0.0137 0.772461,-0.0957 0.307617,-0.12305 0.458007,-0.32812 0.232422,-0.31446 0.478516,-1.12793 l 0.813477,-2.70704 -0.991211,-3.19921 q -0.266602,-0.84766 -0.492188,-1.05274 -0.21875,-0.20508 -0.772461,-0.25293 l 0.06836,-0.25293 h 3.424804 l -0.08203,0.25293 q -0.642578,0.0479 -0.731445,0.082 -0.150391,0.0479 -0.246094,0.19141 -0.0957,0.14355 -0.0957,0.33496 0,0.28027 0.198242,0.95703 z"
         style="font-style:italic;font-size:14px;fill:#005494;fill-opacity:1;stroke:#004e97;stroke-width:0.75;stroke-opacity:1"
         id="path921" />
      <path
         d="M 77.574875,193.48218 78.3405,190.0437 h 0.232422 q -0.04785,0.49902 -0.04785,0.82715 0,0.93652 0.594727,1.52441 0.601562,0.58789 1.565429,0.58789 0.895508,0 1.360352,-0.54687 0.464844,-0.55371 0.464844,-1.27149 0,-0.46484 -0.211914,-0.84765 -0.321289,-0.56738 -1.715821,-1.9961 -0.676757,-0.68359 -0.868164,-1.01855 -0.314453,-0.55371 -0.314453,-1.16211 0,-0.9707 0.72461,-1.66113 0.724609,-0.69043 1.859375,-0.69043 0.382812,0 0.724609,0.0752 0.211914,0.041 0.772461,0.27344 0.396484,0.15723 0.4375,0.1709 0.0957,0.0205 0.211914,0.0205 0.198242,0 0.341797,-0.10254 0.143555,-0.10254 0.334961,-0.4375 h 0.259765 l -0.710937,3.07617 h -0.232422 q 0.02734,-0.41016 0.02734,-0.66309 0,-0.82714 -0.546875,-1.35351 -0.546875,-0.52637 -1.442383,-0.52637 -0.710938,0 -1.155273,0.41699 -0.444336,0.417 -0.444336,0.96387 0,0.47852 0.280273,0.91602 0.287109,0.43066 1.305664,1.41504 1.025391,0.97753 1.326172,1.53125 0.300781,0.54687 0.300781,1.16894 0,0.7041 -0.375976,1.36719 -0.369141,0.65625 -1.066407,1.01855 -0.697265,0.36231 -1.524414,0.36231 -0.410156,0 -0.765625,-0.0752 -0.355468,-0.0752 -1.134765,-0.36914 -0.266602,-0.10254 -0.444336,-0.10254 -0.403321,0 -0.628906,0.54688 z"
         style="font-style:italic;font-size:14px;fill:#005494;fill-opacity:1;stroke:#004e97;stroke-width:0.75;stroke-opacity:1"
         id="path923" />
      <path
         d="m 86.529953,184.00073 h 7.041016 l -0.758789,2.46094 h -0.259766 q 0.129883,-0.54004 0.129883,-0.96387 0,-0.49902 -0.307617,-0.75195 -0.232422,-0.19141 -1.196289,-0.19141 h -0.731446 l -1.832031,6.38477 q -0.348633,1.20312 -0.348633,1.4834 0,0.25976 0.21875,0.43066 0.21875,0.16406 0.772461,0.16406 h 0.314453 l -0.08203,0.25293 h -4.033203 l 0.0752,-0.25293 h 0.177735 q 0.533203,0 0.820312,-0.17089 0.198242,-0.11622 0.355469,-0.417 0.164062,-0.30761 0.451172,-1.29199 l 1.920898,-6.58301 h -0.553711 q -0.799805,0 -1.291992,0.20508 -0.485352,0.20508 -0.786133,0.59473 -0.300781,0.38965 -0.492187,1.10742 h -0.25293 z"
         style="font-style:italic;font-size:14px;fill:#005494;fill-opacity:1;stroke:#004e97;stroke-width:0.75;stroke-opacity:1"
         id="path925" />
      <path
         d="m 96.797531,184.49976 -1.05957,3.66406 h 0.868164 q 0.929687,0 1.34668,-0.28028 0.416992,-0.2871 0.717773,-1.05273 h 0.25293 l -0.950196,3.36328 h -0.273437 q 0.123047,-0.42383 0.123047,-0.72461 0,-0.29394 -0.123047,-0.47168 -0.116211,-0.17773 -0.328125,-0.25976 -0.205078,-0.0889 -0.875,-0.0889 h -0.881836 l -0.895508,3.06934 q -0.129883,0.44433 -0.129883,0.67675 0,0.17774 0.170899,0.31446 0.116211,0.0957 0.581054,0.0957 h 0.820313 q 1.333008,0 2.132812,-0.47168 0.806641,-0.47168 1.442383,-1.64062 h 0.25293 l -0.875,2.57714 h -7.164063 l 0.08887,-0.25293 q 0.533203,-0.0137 0.717773,-0.0957 0.273438,-0.12305 0.396484,-0.31445 0.184571,-0.28028 0.4375,-1.17578 l 1.626954,-5.5918 q 0.191406,-0.67676 0.191406,-1.03223 0,-0.25976 -0.18457,-0.40332 -0.177735,-0.15039 -0.704102,-0.15039 h -0.143555 l 0.08203,-0.25293 h 6.658199 l -0.57422,2.23535 h -0.25292 q 0.0478,-0.31445 0.0478,-0.52636 0,-0.36231 -0.17774,-0.6084 -0.232419,-0.31445 -0.676755,-0.47852 -0.328125,-0.12304 -1.510743,-0.12304 z"
         style="font-style:italic;font-size:14px;fill:#005494;fill-opacity:1;stroke:#004e97;stroke-width:0.75;stroke-opacity:1"
         id="path927" />
      <path
         d="m 105.25359,184.00073 0.85449,7.46485 5.37988,-7.46485 h 2.2627 v 0.25293 q -0.73829,0.0479 -0.86817,0.0957 -0.22558,0.0889 -0.41699,0.35546 -0.18457,0.26661 -0.40332,1.02539 l -1.71582,5.87891 q -0.15039,0.5127 -0.15039,0.80664 0,0.2666 0.18457,0.40332 0.25976,0.19824 0.82031,0.19824 h 0.16406 l -0.0615,0.25293 h -3.90332 l 0.0684,-0.25293 h 0.18457 q 0.51953,0 0.79297,-0.15039 0.21191,-0.10937 0.37598,-0.41015 0.17089,-0.30762 0.47167,-1.35352 l 1.53125,-5.37305 -5.40722,7.54004 h -0.27344 l -0.86816,-7.54004 -1.6543,5.73536 q -0.21191,0.73144 -0.21191,0.98437 0,0.25293 0.18457,0.38965 0.18457,0.12988 0.8955,0.17773 l -0.0752,0.25293 h -3.05567 l 0.0752,-0.25293 h 0.18457 q 0.67676,0 0.97754,-0.34179 0.21875,-0.2461 0.45801,-1.06641 l 2.0166,-6.91113 q -0.22559,-0.23242 -0.43067,-0.31446 -0.20507,-0.082 -0.75878,-0.12988 l 0.0684,-0.25293 z"
         style="font-style:italic;font-size:14px;fill:#005494;fill-opacity:1;stroke:#004e97;stroke-width:0.75;stroke-opacity:1"
         id="path929" />
      <path
         d="m 112.57487,193.48218 0.76563,-3.43848 h 0.23242 q -0.0478,0.49902 -0.0478,0.82715 0,0.93652 0.59473,1.52441 0.60156,0.58789 1.56543,0.58789 0.8955,0 1.36035,-0.54687 0.46484,-0.55371 0.46484,-1.27149 0,-0.46484 -0.21191,-0.84765 -0.32129,-0.56738 -1.71582,-1.9961 -0.67676,-0.68359 -0.86817,-1.01855 -0.31445,-0.55371 -0.31445,-1.16211 0,-0.9707 0.72461,-1.66113 0.72461,-0.69043 1.85937,-0.69043 0.38282,0 0.72461,0.0752 0.21192,0.041 0.77246,0.27344 0.39649,0.15723 0.4375,0.1709 0.0957,0.0205 0.21192,0.0205 0.19824,0 0.3418,-0.10254 0.14355,-0.10254 0.33496,-0.4375 h 0.25976 l -0.71094,3.07617 h -0.23242 q 0.0273,-0.41016 0.0273,-0.66309 0,-0.82714 -0.54688,-1.35351 -0.54687,-0.52637 -1.44238,-0.52637 -0.71094,0 -1.15527,0.41699 -0.44434,0.417 -0.44434,0.96387 0,0.47852 0.28027,0.91602 0.28711,0.43066 1.30567,1.41504 1.02539,0.97753 1.32617,1.53125 0.30078,0.54687 0.30078,1.16894 0,0.7041 -0.37598,1.36719 -0.36914,0.65625 -1.0664,1.01855 -0.69727,0.36231 -1.52442,0.36231 -0.41015,0 -0.76562,-0.0752 -0.35547,-0.0752 -1.13477,-0.36914 -0.2666,-0.10254 -0.44433,-0.10254 -0.40332,0 -0.62891,0.54688 z"
         style="font-style:italic;font-size:14px;fill:#005494;fill-opacity:1;stroke:#004e97;stroke-width:0.75;stroke-opacity:1"
         id="path931" />
    </g>
  </g>
</svg>
