<?xml version="1.0" encoding="UTF-8" standalone="no"?>
<svg
   xmlns:dc="http://purl.org/dc/elements/1.1/"
   xmlns:cc="http://creativecommons.org/ns#"
   xmlns:rdf="http://www.w3.org/1999/02/22-rdf-syntax-ns#"
   xmlns:svg="http://www.w3.org/2000/svg"
   xmlns="http://www.w3.org/2000/svg"
   xmlns:sodipodi="http://sodipodi.sourceforge.net/DTD/sodipodi-0.dtd"
   xmlns:inkscape="http://www.inkscape.org/namespaces/inkscape"
   width="83.761314mm"
   height="83.761314mm"
   viewBox="0 0 83.761314 83.761314"
   version="1.1"
   id="svg8"
   inkscape:version="1.0.2-2 (e86c870879, 2021-01-15)"
   sodipodi:docname="tedx_logo.svg">
  <defs
     id="defs2" />
  <sodipodi:namedview
     id="base"
     pagecolor="#ffffff"
     bordercolor="#666666"
     borderopacity="1.0"
     inkscape:pageopacity="0.0"
     inkscape:pageshadow="2"
     inkscape:zoom="0.9899495"
     inkscape:cx="-300.78106"
     inkscape:cy="118.5452"
     inkscape:document-units="mm"
     inkscape:current-layer="layer1"
     inkscape:document-rotation="0"
     showgrid="false"
     fit-margin-top="0"
     fit-margin-left="0"
     fit-margin-right="0"
     fit-margin-bottom="0"
     inkscape:window-width="1920"
     inkscape:window-height="1001"
     inkscape:window-x="667"
     inkscape:window-y="1791"
     inkscape:window-maximized="1" />
  <metadata
     id="metadata5">
    <rdf:RDF>
      <cc:Work
         rdf:about="">
        <dc:format>image/svg+xml</dc:format>
        <dc:type
           rdf:resource="http://purl.org/dc/dcmitype/StillImage" />
        <dc:title />
      </cc:Work>
    </rdf:RDF>
  </metadata>
  <g
     inkscape:label="Layer 1"
     inkscape:groupmode="layer"
     id="layer1"
     transform="translate(-66.220533,-150.13125)">
    <circle
       style="fill:#ffffff;fill-opacity:1;stroke:#a9b0b7;stroke-width:1.61852;stroke-linecap:round;stroke-linejoin:round;stroke-miterlimit:4;stroke-dasharray:none;stroke-dashoffset:0;stroke-opacity:1"
       id="path1155"
       cx="108.10119"
       cy="192.0119"
       r="41.071396"
       inkscape:export-filename="C:\Users\Lenovo P1\Desktop\path1155.png"
       inkscape:export-xdpi="96"
       inkscape:export-ydpi="96" />
    <g
       id="g865"
       transform="matrix(0.44678782,0,0,0.44678782,138.8181,105.44296)">
      <path
         style="fill:#ee2621;fill-opacity:1;fill-rule:nonzero;stroke:none;stroke-width:0.352778"
         d="m -124.21248,184.39542 h -10.81071 v -9.88743 h 33.4946 v 9.88743 h -10.80658 v 28.68662 h -11.87731 z m 0,0"
         id="path2" />
      <path
         style="fill:#ee2621;fill-opacity:1;fill-rule:nonzero;stroke:none;stroke-width:0.352778"
         d="m -99.683401,174.50799 h 32.514814 v 9.88743 h -20.629232 v 4.8066 h 20.629232 v 9.18737 h -20.629232 v 4.8066 h 20.634742 v 9.88743 h -32.520324 z m 0,0"
         id="path4" />
      <path
         style="fill:#ee2621;fill-opacity:1;fill-rule:nonzero;stroke:none;stroke-width:0.352778"
         d="m -53.284851,203.19599 h 4.648123 c 7.404199,0 8.48596,-5.9986 8.48596,-9.62146 0,-2.42673 -0.760677,-9.17911 -9.35137,-9.17911 h -3.782713 z m -11.884202,-28.688 h 19.503373 c 12.855721,0 17.40049,9.50847 17.40049,19.23053 0,11.83597 -6.267316,19.34352 -19.721104,19.34352 h -17.182759 z m 0,0"
         id="path6" />
      <path
         style="fill:#ee2621;fill-opacity:1;fill-rule:nonzero;stroke:none;stroke-width:0.352778"
         d="m -11.188539,198.21714 -3.625618,-6.011 -3.536047,6.011 h -8.706447 l 8.265475,-12.15568 -7.959549,-11.62788 h 8.710581 l 3.225987,5.74779 3.318316,-5.74779 h 8.707823 l -7.95679,11.62788 8.2668499,12.15568 z m 0,0"
         id="path8" />
    </g>
  </g>
</svg>
