<?xml version="1.0" encoding="UTF-8" standalone="no"?>
<!-- Created with Inkscape (http://www.inkscape.org/) -->

<svg
   width="83.761314mm"
   height="83.761314mm"
   viewBox="0 0 83.761314 83.761314"
   version="1.1"
   id="svg5"
   inkscape:version="1.1.2 (b8e25be833, 2022-02-05)"
   sodipodi:docname="1.svg"
   xmlns:inkscape="http://www.inkscape.org/namespaces/inkscape"
   xmlns:sodipodi="http://sodipodi.sourceforge.net/DTD/sodipodi-0.dtd"
   xmlns="http://www.w3.org/2000/svg"
   xmlns:svg="http://www.w3.org/2000/svg">
  <sodipodi:namedview
     id="namedview7"
     pagecolor="#ffffff"
     bordercolor="#666666"
     borderopacity="1.0"
     inkscape:pageshadow="2"
     inkscape:pageopacity="0.0"
     inkscape:pagecheckerboard="0"
     inkscape:document-units="mm"
     showgrid="false"
     fit-margin-top="0"
     fit-margin-left="0"
     fit-margin-right="0"
     fit-margin-bottom="0"
     inkscape:zoom="0.73406285"
     inkscape:cx="-116.47504"
     inkscape:cy="-23.83992"
     inkscape:window-width="1920"
     inkscape:window-height="991"
     inkscape:window-x="-9"
     inkscape:window-y="-9"
     inkscape:window-maximized="1"
     inkscape:current-layer="layer1" />
  <defs
     id="defs2" />
  <g
     inkscape:label="Layer 1"
     inkscape:groupmode="layer"
     id="layer1"
     transform="translate(-92.562305,-154.91789)">
    <g
       id="g2019"
       transform="translate(23.947348,-24.090296)">
      <circle
         style="fill:#f2f2f2;fill-opacity:1;stroke:#a9b0b7;stroke-width:1.61852;stroke-linecap:round;stroke-linejoin:round;stroke-miterlimit:4;stroke-dasharray:none;stroke-dashoffset:0;stroke-opacity:1"
         id="path1155"
         cx="110.49561"
         cy="220.88884"
         r="41.071396"
         inkscape:export-filename="C:\Users\Lenovo P1\Desktop\path1155.png"
         inkscape:export-xdpi="96"
         inkscape:export-ydpi="96" />
      <path
         d="m 110.49791,179.81745 c -22.648992,0 -41.07446,18.42547 -41.07446,41.07293 0,22.64593 18.425468,41.06986 41.07446,41.06986 22.64593,0 41.06987,-18.42393 41.06987,-41.06986 0,-22.64746 -18.42394,-41.07293 -41.06987,-41.07293"
         style="fill:#bdbcbc;fill-opacity:1;fill-rule:nonzero;stroke:none;stroke-width:1.53137"
         id="path9346" />
      <path
         d="m 130.5301,214.15416 c 0,-1.23122 -0.0766,-2.44407 -0.18836,-3.6462 -0.29708,0.28943 -1.26185,1.05359 -3.16534,1.05359 h -11.25865 c -4.70438,0 -5.53591,1.6401 -5.53591,1.6401 0,0 -0.83001,-1.6401 -5.53438,-1.6401 H 93.588813 c -1.903495,0 -2.865197,-0.76416 -3.163814,-1.05359 -0.11179,1.20213 -0.18989,2.41498 -0.18989,3.6462 0,3.06887 0.362935,6.05198 1.030613,8.91871 h 38.235298 c 0.66614,-2.86673 1.02908,-5.84984 1.02908,-8.91871"
         style="fill:#c4122e;fill-opacity:1;fill-rule:nonzero;stroke:none;stroke-width:1.53137"
         id="path9350" />
      <path
         d="m 110.38214,248.51341 c 9.26633,-5.24342 16.20498,-14.05953 18.90785,-24.55708 H 91.475821 c 2.704403,10.49755 9.643049,19.31366 18.906319,24.55708"
         style="fill:#c4122e;fill-opacity:1;fill-rule:nonzero;stroke:none;stroke-width:1.53137"
         id="path9354" />
      <path
         d="m 110.35243,192.01989 c -15.940051,0 -28.907709,12.96613 -28.907709,28.90312 0,15.93698 12.967658,28.90464 28.907709,28.90464 15.93699,0 28.90158,-12.96766 28.90158,-28.90464 0,-15.93699 -12.96459,-28.90312 -28.90158,-28.90312 m 0.14548,-10.24641 c 21.60307,0 39.1143,17.5143 39.1143,39.11583 0,21.60307 -17.51123,39.11584 -39.1143,39.11584 -21.603064,0 -39.118897,-17.51277 -39.118897,-39.11584 0,-21.60153 17.515833,-39.11583 39.118897,-39.11583"
         style="fill:#c4122e;fill-opacity:1;fill-rule:nonzero;stroke:none;stroke-width:1.53137"
         id="path9366" />
      <path
         d="m 92.86003,191.8897 c 0.525261,0.94639 1.335356,1.36139 2.061227,0.95864 0.73659,-0.40735 0.767217,-1.33995 0.248082,-2.27256 -0.483914,-0.86829 -1.300135,-1.38436 -2.050507,-0.96629 -0.738121,0.41194 -0.777937,1.34607 -0.258802,2.28021 m 3.43793,-1.98772 c 0.877476,1.58038 0.45788,3.05509 -0.952513,3.84068 -1.416519,0.78713 -2.856009,0.17917 -3.620164,-1.19447 -0.799376,-1.43796 -0.473194,-3.02905 0.938731,-3.81312 1.47318,-0.82081 2.889699,-0.16538 3.633946,1.16691"
         style="fill:#ffffff;fill-opacity:1;fill-rule:nonzero;stroke:none;stroke-width:1.53137"
         id="path9370" />
      <path
         d="m 120.414,191.09384 c -0.23889,0.0475 -0.77487,0.0444 -1.41346,-0.12098 -1.83764,-0.47472 -2.48541,-1.86827 -2.09491,-3.38127 0.46707,-1.81314 2.01681,-2.48082 3.62629,-2.06582 0.62326,0.1608 1.0643,0.40122 1.24653,0.57427 l -0.49463,0.879 c -0.21133,-0.16232 -0.52526,-0.34302 -0.96017,-0.45635 -0.94486,-0.24348 -1.83305,0.14089 -2.13933,1.32311 -0.27564,1.0643 0.18224,1.89584 1.2496,2.16995 0.36753,0.0965 0.77947,0.12711 1.05052,0.0888 z"
         style="fill:#ffffff;fill-opacity:1;fill-rule:nonzero;stroke:none;stroke-width:1.53137"
         id="path9374" />
      <path
         d="m 136.45788,203.23442 c -0.21899,-0.1072 -0.64318,-0.43644 -1.05052,-0.95558 -1.1715,-1.49155 -0.84072,-2.99536 0.38897,-3.96166 1.47318,-1.15465 3.11175,-0.74424 4.1393,0.56202 0.39509,0.50535 0.60183,0.96476 0.64164,1.21284 l -0.92954,0.39969 c -0.0674,-0.25727 -0.20827,-0.59264 -0.48545,-0.94639 -0.60336,-0.76874 -1.54209,-1.00151 -2.50226,-0.24655 -0.86522,0.67687 -1.00764,1.61866 -0.32771,2.48236 0.23583,0.30015 0.54517,0.57579 0.78406,0.70902 z"
         style="fill:#ffffff;fill-opacity:1;fill-rule:nonzero;stroke:none;stroke-width:1.53137"
         id="path9378" />
      <path
         d="m 88.574024,194.76012 -1.021425,-1.26185 c 0.05513,-0.075 0.177639,-0.19295 0.367529,-0.34762 0.488508,-0.3951 0.949451,-0.38131 1.267976,0.0107 0.350684,0.42878 0.241957,0.94485 -0.269521,1.36292 -0.148543,0.11638 -0.246551,0.18683 -0.344559,0.23583 m 0.600298,0.73965 c 0.105664,-0.0521 0.225112,-0.13782 0.350684,-0.24042 0.56967,-0.46248 0.938731,-1.00305 1.022957,-1.57425 0.06738,-0.44257 -0.09035,-0.9127 -0.430316,-1.3323 -0.338433,-0.41653 -0.802439,-0.62633 -1.255725,-0.61561 -0.470131,0.003 -0.986204,0.23277 -1.581907,0.71362 -0.588047,0.47932 -0.975484,0.85451 -1.231223,1.147 l 3.411896,4.22505 c 0.303212,-0.27717 0.615612,-0.54516 0.929543,-0.81009 z"
         style="fill:#ffffff;fill-opacity:1;fill-rule:nonzero;stroke:none;stroke-width:1.53137"
         id="path9382" />
      <path
         d="m 101.84183,190.89538 -0.36906,-1.00152 -2.056633,0.732 -1.514527,-4.25875 c -0.388969,0.14242 -0.77028,0.29862 -1.151592,0.45176 l 1.859086,5.19901 c 1.04899,-0.43185 2.128606,-0.80397 3.232726,-1.1225"
         style="fill:#ffffff;fill-opacity:1;fill-rule:nonzero;stroke:none;stroke-width:1.53137"
         id="path9386" />
      <path
         d="m 103.45881,190.47501 c 0.40122,-0.0919 0.80397,-0.17611 1.20978,-0.25421 l -0.46706,-2.20824 1.06583,-3.4854 c -0.44103,0.0628 -0.87748,0.13782 -1.31239,0.21592 l -0.27411,1.45634 c -0.0796,0.41653 -0.14242,0.75343 -0.18989,1.11331 l -0.0184,0.003 c -0.20061,-0.32312 -0.38131,-0.58652 -0.62939,-0.94026 l -0.86982,-1.21897 c -0.43797,0.1026 -0.87288,0.21439 -1.30473,0.3323 l 2.32922,2.81773 z"
         style="fill:#ffffff;fill-opacity:1;fill-rule:nonzero;stroke:none;stroke-width:1.53137"
         id="path9390" />
      <path
         d="m 127.95387,195.00282 0.95251,-1.31851 c 0.5268,-0.72587 0.96936,-1.35986 1.37058,-1.97547 l 0.0245,0.0184 c -0.16845,0.67533 -0.28943,1.46092 -0.37212,2.12707 l -0.30168,2.37056 c 0.34915,0.27259 0.69218,0.54824 1.02908,0.83613 l 3.26182,-4.4762 c -0.28943,-0.24042 -0.58957,-0.47013 -0.88819,-0.70136 l -0.97549,1.3231 c -0.49003,0.67227 -0.90657,1.28482 -1.2741,1.91268 l -0.0122,-0.0107 c 0.15926,-0.64623 0.30628,-1.38589 0.38438,-2.04591 l 0.25267,-2.37669 c -0.38284,-0.26339 -0.76568,-0.51913 -1.15618,-0.76722 l -3.25723,4.46855 c 0.32312,0.20061 0.64624,0.40122 0.9617,0.61561"
         style="fill:#ffffff;fill-opacity:1;fill-rule:nonzero;stroke:none;stroke-width:1.53137"
         id="path9394" />
      <path
         d="m 132.75901,199.00873 3.84987,-3.95707 c -0.29096,-0.29402 -0.59111,-0.58039 -0.88973,-0.86216 l -3.84834,3.954 c 0.30015,0.28331 0.59877,0.57121 0.8882,0.86523"
         style="fill:#ffffff;fill-opacity:1;fill-rule:nonzero;stroke:none;stroke-width:1.53137"
         id="path9398" />
      <path
         d="m 115.29968,190.04026 c 0.003,0 0.006,0.002 0.0107,0.002 l 0.0919,-1.02908 c 0,0 -1.28023,-0.16539 -2.24193,-0.25421 l 0.12098,-1.2741 c 0.52679,0.049 1.34301,0.1271 2.01376,0.22052 l 0.0888,-1.01224 c -0.70903,-0.0949 -1.46093,-0.17917 -2.00763,-0.2297 l 0.1026,-1.098 c 0,0 1.17303,0.10107 2.13626,0.23124 l 0.0904,-1.06584 c -1.12862,-0.16079 -2.25111,-0.27564 -3.36595,-0.3323 l -0.50382,5.50528 c 1.14699,0.0505 2.30165,0.1562 3.46396,0.3369"
         style="fill:#ffffff;fill-opacity:1;fill-rule:nonzero;stroke:none;stroke-width:1.53137"
         id="path9402" />
      <path
         d="m 106.43687,184.38768 0.0567,1.11637 c 0.49923,-0.0536 1.08727,-0.1026 1.48084,-0.13323 l 0.2343,4.39504 c 0.41194,-0.0306 0.82388,-0.0567 1.23428,-0.0704 l -0.2343,-4.40423 c 0,0 0.67074,-0.026 1.49156,-0.0214 l -0.0521,-1.11331 c -1.4058,-0.008 -2.81006,0.0766 -4.21127,0.23124"
         style="fill:#ffffff;fill-opacity:1;fill-rule:nonzero;stroke:none;stroke-width:1.53137"
         id="path9406" />
      <path
         d="m 126.93627,188.03525 -0.92342,1.99691 c -0.74271,-0.36906 -1.39355,-0.66768 -1.84989,-0.87135 l 0.92188,-1.99385 c -0.37978,-0.16385 -0.76568,-0.31852 -1.15312,-0.47166 l -2.33381,5.01218 c 0.38743,0.14701 0.77181,0.30015 1.15312,0.46094 l 0.98008,-2.06888 c 0.73506,0.32006 1.38589,0.63399 1.85143,0.86676 l -0.98008,2.07347 c 0.36906,0.18683 0.73353,0.37978 1.09493,0.58039 l 2.33994,-5.01983 c -0.36294,-0.19602 -0.73353,-0.37978 -1.10106,-0.56508"
         style="fill:#ffffff;fill-opacity:1;fill-rule:nonzero;stroke:none;stroke-width:1.53137"
         id="path9410" />
      <path
         d="m 101.855,214.07881 c 1.05205,-0.73353 2.09032,-0.37978 2.94177,-0.10107 1.23734,0.40275 2.17608,-0.25574 2.17608,-0.25574 l 1.01836,0.86523 v 6.92792 c -0.60643,0.26952 -1.16538,0.44563 -2.3675,0.0766 -1.0444,-0.32006 -1.98007,-0.44103 -2.74116,-0.38131 v 0.23889 c 0,0.1317 -0.46094,0.2389 -1.02755,0.2389 -0.56661,0 -1.02755,-0.1072 -1.02755,-0.2389 v -0.23889 c -0.76109,-0.0597 -1.696761,0.0613 -2.741156,0.38131 -1.202128,0.36906 -1.761078,0.19295 -2.367502,-0.0766 v -6.92792 l 1.018363,-0.86523 c 0,0 0.938731,0.65849 2.176079,0.25574 0.851443,-0.27871 1.889716,-0.63246 2.941766,0.10107"
         style="fill:#231f20;fill-opacity:1;fill-rule:nonzero;stroke:none;stroke-width:1.53137"
         id="path9414" />
      <path
         d="m 104.37365,214.66214 c 0.95711,0.33537 1.78558,0.17917 2.40119,-0.0812 v 5.82227 c -0.56048,0.22665 -1.02602,0.25421 -1.92646,-0.0551 -1.03981,-0.35834 -2.16077,-0.42725 -2.68603,-0.22664 v -5.38277 c 0.3124,-0.26493 1.00764,-0.49923 2.2113,-0.0766"
         style="fill:#bdbcbc;fill-opacity:1;fill-rule:nonzero;stroke:none;stroke-width:1.53137"
         id="path9418" />
      <path
         d="m 99.270507,214.65923 c -0.987735,0.34609 -1.839178,0.1853 -2.471634,-0.0827 v 5.83605 c 0.577327,0.23277 1.055115,0.26187 1.984658,-0.0582 1.070429,-0.36753 2.222019,-0.43797 2.764129,-0.23277 v -5.38277 c -0.32159,-0.27258 -1.03674,-0.51301 -2.277153,-0.0796"
         style="fill:#bdbcbc;fill-opacity:1;fill-rule:nonzero;stroke:none;stroke-width:1.53137"
         id="path9422" />
      <path
         d="m 118.9027,214.07881 c 1.05205,-0.73353 2.09032,-0.37978 2.94177,-0.10107 1.23734,0.40275 2.17608,-0.25574 2.17608,-0.25574 l 1.01836,0.86523 v 6.92792 c -0.60643,0.26952 -1.16385,0.44563 -2.3675,0.0766 -1.0444,-0.32006 -1.98007,-0.44103 -2.74116,-0.38131 v 0.23889 c 0,0.1317 -0.46094,0.2389 -1.02755,0.2389 -0.56661,0 -1.02755,-0.1072 -1.02755,-0.2389 v -0.23889 c -0.76109,-0.0597 -1.69676,0.0613 -2.74116,0.38131 -1.20212,0.36906 -1.76107,0.19295 -2.3675,-0.0766 v -6.92792 l 1.01836,-0.86523 c 0,0 0.93874,0.65849 2.17608,0.25574 0.85145,-0.27871 1.88972,-0.63246 2.94177,0.10107"
         style="fill:#231f20;fill-opacity:1;fill-rule:nonzero;stroke:none;stroke-width:1.53137"
         id="path9426" />
      <path
         d="m 121.48627,214.65923 c 0.98773,0.34609 1.83918,0.1853 2.47163,-0.0827 v 5.83605 c -0.57579,0.23277 -1.05358,0.26187 -1.98312,-0.0582 -1.07043,-0.36753 -2.22355,-0.43797 -2.76413,-0.23277 v -5.38277 c 0.32159,-0.27258 1.03674,-0.51301 2.27562,-0.0796"
         style="fill:#bdbcbc;fill-opacity:1;fill-rule:nonzero;stroke:none;stroke-width:1.53137"
         id="path9430" />
      <path
         d="m 116.38527,214.66214 c -0.95864,0.33537 -1.78711,0.17917 -2.40119,-0.0812 v 5.82227 c 0.55895,0.22665 1.02602,0.25421 1.92646,-0.0551 1.03981,-0.35834 2.15924,-0.42725 2.6845,-0.22664 v -5.38277 c -0.31087,-0.26493 -1.00611,-0.49923 -2.20977,-0.0766"
         style="fill:#bdbcbc;fill-opacity:1;fill-rule:nonzero;stroke:none;stroke-width:1.53137"
         id="path9434" />
      <path
         d="m 112.44413,233.41546 c 1.59416,-0.67074 1.71207,-2.28634 1.71207,-2.28634 l 0.4487,-0.2879 v -0.27717 c -0.44716,-1.06737 -1.562,-2.25112 -2.54974,-3.01221 -0.65389,-0.50382 -0.66615,-1.05665 -0.6003,-1.37364 l 0.22358,-0.0965 c 0.22052,-0.0949 0.34609,-0.16233 0.54211,-0.0536 0.19602,0.1072 0.24961,0.0368 0.24961,0.0368 0.15467,-0.0658 0.14855,-0.38743 -0.0107,-0.71974 -0.16232,-0.32925 -0.415,-0.54517 -0.5712,-0.47626 0,0 -0.0904,-0.009 -0.1317,0.20368 -0.0398,0.21132 -0.17764,0.25727 -0.39662,0.35374 l -0.24043,0.10414 c -0.0459,-0.0291 -0.0781,-0.046 -0.0781,-0.046 -0.51147,-0.2297 -0.6202,0.0781 -0.6202,0.0781 -0.51148,-0.22817 -0.60796,0.15467 -0.60796,0.15467 -0.54976,-0.12863 -0.57886,0.23277 -0.57886,0.23277 -0.75496,-0.002 -0.62633,0.47932 -0.56201,0.64011 l -0.86829,0.37672 -0.39815,-0.84378 -1.51912,0.66002 1.01989,2.16076 0.66461,0.27565 0.64165,-0.27871 0.21286,-0.65696 -0.31087,-0.65696 0.69371,-0.30015 c 0.0781,0.21593 0.28178,0.46248 0.71975,0.49004 0.69524,0.0444 0.88513,-0.11791 1.39355,1.05971 0.50841,1.17763 1.26491,1.61101 1.26491,1.61101 -1.19753,-0.12251 -1.52218,0.84072 -1.52218,0.84072 -1.91422,-0.0827 -2.33535,1.33536 -2.4257,2.08726 h -2.64468 c 0.15773,0.31087 0.32312,0.61102 0.49157,0.90045 h 8.62775 c 0.17152,-0.28943 0.33537,-0.58958 0.49464,-0.90045 z"
         style="fill:#ffffff;fill-opacity:1;fill-rule:nonzero;stroke:none;stroke-width:1.53137"
         id="path9438" />
      <path
         d="m 142.79087,217.26928 c -0.15161,0.33384 -0.29096,0.86523 -0.25574,1.39508 0.0322,0.56661 0.28943,0.85297 0.64624,0.83307 0.3415,-0.0199 0.52067,-0.29403 0.70596,-0.9663 0.26952,-0.92954 0.73659,-1.56353 1.53597,-1.61253 0.9326,-0.0567 1.6891,0.68911 1.7672,1.97393 0.0398,0.6248 -0.0582,1.08268 -0.19142,1.41652 l -1.00764,-0.21745 c 0.0934,-0.21746 0.22358,-0.62633 0.18836,-1.15466 -0.0306,-0.53598 -0.29862,-0.781 -0.5758,-0.76415 -0.35068,0.0214 -0.48391,0.33384 -0.71056,1.0643 -0.29861,0.98927 -0.77487,1.46706 -1.54668,1.513 -0.91729,0.0567 -1.7427,-0.59417 -1.83305,-2.09798 -0.0383,-0.6248 0.0934,-1.25419 0.24502,-1.57272 z"
         style="fill:#ffffff;fill-opacity:1;fill-rule:nonzero;stroke:none;stroke-width:1.53137"
         id="path9442" />
      <path
         d="m 137.67165,235.99643 c -0.69831,1.2496 -0.41347,2.38894 1.0643,3.21741 l 2.69062,1.49462 c 0.22205,-0.34456 0.44104,-0.69524 0.65543,-1.05052 l -2.80547,-1.562 c -0.85298,-0.47626 -1.07349,-1.01377 -0.7565,-1.58037 0.30781,-0.54517 0.90504,-0.63093 1.73658,-0.16692 l 2.79628,1.56659 c 0.19142,-0.36753 0.38438,-0.73047 0.56355,-1.10565 l -2.67684,-1.49768 c -1.52065,-0.84991 -2.58955,-0.52373 -3.26795,0.68452"
         style="fill:#ffffff;fill-opacity:1;fill-rule:nonzero;stroke:none;stroke-width:1.53137"
         id="path9446" />
      <path
         d="m 139.6318,209.67154 5.10866,-2.09185 c -0.15008,-0.38591 -0.30015,-0.77028 -0.46248,-1.14853 l -5.11172,2.09032 c 0.16386,0.37978 0.31547,0.76415 0.46554,1.15006"
         style="fill:#ffffff;fill-opacity:1;fill-rule:nonzero;stroke:none;stroke-width:1.53137"
         id="path9450" />
      <path
         d="m 140.51893,212.32938 1.5911,-0.39356 c 0.86981,-0.21593 1.61712,-0.415 2.31849,-0.6294 l 0.008,0.0306 c -0.56048,0.40735 -1.16231,0.93261 -1.65388,1.38896 l -1.75342,1.63703 c 0.0904,0.42725 0.16998,0.86063 0.24349,1.29707 l 5.37052,-1.3231 c -0.0689,-0.37519 -0.1363,-0.7519 -0.21593,-1.12403 l -1.60181,0.38591 c -0.80703,0.19908 -1.52065,0.39815 -2.20824,0.64317 l -0.003,-0.0153 c 0.54057,-0.39356 1.13015,-0.86369 1.61253,-1.32004 l 1.72892,-1.63857 c -0.12251,-0.45482 -0.24808,-0.9081 -0.38897,-1.35527 l -5.37818,1.32464 c 0.11945,0.35987 0.22512,0.72281 0.33078,1.09187"
         style="fill:#ffffff;fill-opacity:1;fill-rule:nonzero;stroke:none;stroke-width:1.53137"
         id="path9454" />
      <path
         d="m 141.12244,226.96333 c -0.0812,0.40734 -0.17151,0.80856 -0.26646,1.20825 l 5.39502,1.16231 c 0.0934,-0.39968 0.18836,-0.8009 0.26799,-1.20672 z"
         style="fill:#ffffff;fill-opacity:1;fill-rule:nonzero;stroke:none;stroke-width:1.53137"
         id="path9458" />
      <path
         d="m 140.35859,242.28148 -0.86829,-0.70596 c -0.29249,0.40734 -0.65083,0.87747 -0.89126,1.18987 l -3.42414,-2.76412 c -0.25115,0.32618 -0.50995,0.64777 -0.77488,0.96323 l 3.43334,2.77331 c 0,0 -0.43032,0.51608 -0.98314,1.12097 l 0.86369,0.70749 c 0.94486,-1.0398 1.8208,-2.14239 2.64468,-3.28479"
         style="fill:#ffffff;fill-opacity:1;fill-rule:nonzero;stroke:none;stroke-width:1.53137"
         id="path9462" />
      <path
         d="m 130.07696,245.20655 c -0.003,0.002 -0.005,0.003 -0.008,0.008 l 0.69678,0.75803 c 0,0 0.98467,-0.83307 1.69676,-1.48697 l 0.86369,0.94792 c -0.39203,0.35988 -1.00152,0.90964 -1.51912,1.34455 l 0.68912,0.74424 c 0.5467,-0.46094 1.11331,-0.96017 1.52065,-1.32923 l 0.74272,0.81622 c 0,0 -0.86523,0.79632 -1.61101,1.41959 l 0.72894,0.78712 c 0.87747,-0.72434 1.71819,-1.47777 2.51298,-2.2649 l -3.73349,-4.07957 c -0.80703,0.81469 -1.66613,1.59722 -2.58036,2.33534"
         style="fill:#ffffff;fill-opacity:1;fill-rule:nonzero;stroke:none;stroke-width:1.53137"
         id="path9466" />
      <path
         d="m 145.80017,231.06404 -1.05358,-0.37365 c -0.14089,0.48238 -0.32006,1.04439 -0.44104,1.41958 l -4.15155,-1.4594 c -0.1317,0.39509 -0.26339,0.78406 -0.40734,1.16844 l 4.16073,1.46399 c 0,0 -0.22817,0.63245 -0.54976,1.38589 l 1.05052,0.37825 c 0.54364,-1.29707 1.00152,-2.6309 1.39202,-3.9831"
         style="fill:#ffffff;fill-opacity:1;fill-rule:nonzero;stroke:none;stroke-width:1.53137"
         id="path9470" />
      <path
         d="m 147.19571,222.17488 -1.11178,-0.10107 c -0.0199,0.50229 -0.0536,1.09187 -0.0781,1.48543 l -4.38431,-0.3905 c -0.0276,0.41194 -0.0613,0.82388 -0.10414,1.23275 l 4.39351,0.39204 c 0,0 -0.0689,0.66614 -0.19295,1.4793 l 1.11177,0.10413 c 0.20521,-1.38895 0.32312,-2.79322 0.366,-4.20208"
         style="fill:#ffffff;fill-opacity:1;fill-rule:nonzero;stroke:none;stroke-width:1.53137"
         id="path9474" />
      <path
         d="m 79.464812,225.66214 c 0.151606,0.19142 0.392031,0.67227 0.534449,1.31851 0.41347,1.85143 -0.53598,3.06581 -2.06429,3.40577 -1.829989,0.40582 -3.130124,-0.67533 -3.489996,-2.29706 -0.140887,-0.62786 -0.127104,-1.13015 -0.05513,-1.37364 l 1.010706,0.0444 c -0.049,0.26187 -0.06891,0.62327 0.02603,1.05971 0.214392,0.95558 0.961702,1.57425 2.15464,1.30779 1.071961,-0.23736 1.607941,-1.02448 1.369047,-2.09797 -0.08423,-0.37519 -0.243488,-0.75497 -0.401219,-0.98008 z"
         style="fill:#ffffff;fill-opacity:1;fill-rule:nonzero;stroke:none;stroke-width:1.53137"
         id="path9478" />
      <path
         d="m 77.617978,234.92171 c -0.05819,-0.0735 -0.137823,-0.22511 -0.249614,-0.50382 -0.214392,-0.52986 -0.09954,-0.94486 0.359873,-1.12862 0.444098,-0.18377 0.868288,0.0429 1.101056,0.61561 l 0.182234,0.45175 z m 2.223552,-0.89892 -0.136292,-0.34149 c -0.185296,-0.47779 -0.105665,-0.76416 0.476257,-1.16844 0.387437,-0.26952 0.678398,-0.49616 1.026019,-0.79631 -0.150074,-0.40428 -0.290961,-0.81622 -0.421127,-1.22969 -0.482383,0.40428 -0.923418,0.71821 -1.315449,1.0153 -0.41347,0.31546 -0.667678,0.64624 -0.666147,1.05971 l -0.02297,0.0107 c -0.335371,-0.37519 -0.969359,-0.65543 -1.609472,-0.3951 -0.4686,0.18989 -0.762624,0.50382 -0.879008,0.91117 -0.140886,0.47779 -0.03982,1.05205 0.266459,1.80702 0.251145,0.61561 0.516072,1.1424 0.72587,1.48696 l 5.032089,-2.03979 c -0.179171,-0.36906 -0.344559,-0.74271 -0.508416,-1.12096 z"
         style="fill:#ffffff;fill-opacity:1;fill-rule:nonzero;stroke:none;stroke-width:1.53137"
         id="path9482" />
      <path
         d="m 79.276452,220.89006 v -0.0122 l -1.032145,0.0674 c 0,0 0.03369,1.28941 0.09341,2.25418 l -1.278696,0.075 c -0.03522,-0.52986 -0.07963,-1.34761 -0.09035,-2.02448 l -1.013768,0.0674 c 0.01685,0.71515 0.04594,1.47012 0.07963,2.01988 l -1.102587,0.0643 c 0,0 -0.07657,-1.17609 -0.09341,-2.14545 l -1.070429,0.0735 c 0.01378,1.13781 0.07197,2.2649 0.185296,3.37668 l 5.517533,-0.3415 c -0.124041,-1.14087 -0.194484,-2.29859 -0.194484,-3.47468"
         style="fill:#ffffff;fill-opacity:1;fill-rule:nonzero;stroke:none;stroke-width:1.53137"
         id="path9486" />
      <path
         d="m 82.639653,240.28901 c 0.912698,-0.58498 1.277164,-1.41958 0.828472,-2.11942 -0.453286,-0.70596 -1.38436,-0.67993 -2.283275,-0.1026 -0.837661,0.53751 -1.298604,1.38589 -0.837661,2.1041 0.459412,0.71362 1.393549,0.69525 2.292464,0.11792 m -2.197519,-3.3047 c 1.522184,-0.97548 3.019866,-0.65083 3.891216,0.70749 0.875945,1.36599 0.358341,2.83917 -0.964764,3.68908 -1.385892,0.88666 -2.992301,0.66308 -3.863651,-0.69678 -0.911167,-1.41958 -0.346091,-2.87591 0.937199,-3.69979"
         style="fill:#ffffff;fill-opacity:1;fill-rule:nonzero;stroke:none;stroke-width:1.53137"
         id="path9490" />
      <path
         d="m 78.039566,219.34201 c 0.20061,-0.30781 0.421127,-0.8101 0.473194,-1.33689 0.0536,-0.56661 -0.150075,-0.88972 -0.508416,-0.92495 -0.338433,-0.0322 -0.560482,0.20827 -0.849911,0.84226 -0.41347,0.87594 -0.972421,1.42571 -1.765672,1.34914 -0.932605,-0.0904 -1.560468,-0.94486 -1.436427,-2.22662 0.06126,-0.62327 0.226643,-1.05664 0.411939,-1.36598 l 0.96017,0.37365 c -0.124041,0.19908 -0.316994,0.58192 -0.36906,1.10718 -0.05053,0.53445 0.176108,0.81776 0.450223,0.84532 0.347622,0.0337 0.531386,-0.25114 0.868288,-0.9372 0.450223,-0.92954 0.995392,-1.32617 1.765672,-1.25113 0.914229,0.0904 1.623254,0.86063 1.477774,2.35985 -0.05972,0.6248 -0.290961,1.22356 -0.490039,1.51299 z"
         style="fill:#ffffff;fill-opacity:1;fill-rule:nonzero;stroke:none;stroke-width:1.53137"
         id="path9494" />
      <path
         d="m 81.698777,202.37731 -0.266459,0.41041 -1.264913,-0.82388 c 0.03063,-0.0888 0.11179,-0.24043 0.274116,-0.4931 0.309337,-0.47779 0.716682,-0.62174 1.133215,-0.35069 0.401219,0.26187 0.460943,0.73812 0.124041,1.25726 m 0.483914,0.89892 0.200609,-0.30781 c 0.286367,-0.42572 0.565077,-0.52679 1.231223,-0.27718 0.494634,0.1807 0.872882,0.29556 1.246537,0.3905 0.24502,-0.35987 0.50229,-0.71362 0.764155,-1.06124 -0.500759,-0.13017 -1.05971,-0.32159 -1.58497,-0.49157 -0.499227,-0.15926 -0.914229,-0.17764 -1.255725,0.0582 l -0.01991,-0.0107 c 0.114853,-0.4931 -0.01531,-1.16997 -0.595704,-1.54821 -0.42419,-0.27565 -0.849911,-0.33844 -1.252662,-0.20061 -0.470131,0.15773 -0.883602,0.56967 -1.329231,1.25266 -0.362935,0.55895 -0.643176,1.07808 -0.805502,1.44868 l 4.561958,2.95708 c 0.202141,-0.35681 0.410407,-0.71056 0.627862,-1.05818 z"
         style="fill:#ffffff;fill-opacity:1;fill-rule:nonzero;stroke:none;stroke-width:1.53137"
         id="path9498" />
      <path
         d="m 88.917971,243.44228 -2.027537,1.27716 c -0.483913,0.29556 -0.917291,0.60183 -1.427238,0.9663 l -0.01072,-0.0123 c 0.399688,-0.48698 0.701369,-0.9127 1.021425,-1.37824 l 1.335357,-1.96934 c -0.307806,-0.32465 -0.609486,-0.65696 -0.900447,-0.99539 l -4.845261,2.82385 c 0.263396,0.32312 0.53598,0.63245 0.811627,0.94639 l 1.898901,-1.25879 c 0.551294,-0.38131 1.091869,-0.74884 1.586502,-1.11943 l 0.01072,0.0107 c -0.376717,0.48851 -0.730464,0.9663 -1.102587,1.50381 l -1.37211,1.9816 c 0.294024,0.30933 0.594173,0.61561 0.898916,0.91576 l 1.986189,-1.26338 c 0.581921,-0.38285 1.145466,-0.75497 1.630911,-1.11025 l 0.01072,0.0107 c -0.330777,0.45482 -0.753435,1.03521 -1.13781,1.58344 l -1.309323,1.88665 c 0.315463,0.28637 0.638583,0.56508 0.966296,0.83766 l 2.978519,-4.71816 c -0.339965,-0.29861 -0.675335,-0.60489 -1.003049,-0.91882"
         style="fill:#ffffff;fill-opacity:1;fill-rule:nonzero;stroke:none;stroke-width:1.53137"
         id="path9502" />
      <path
         d="m 82.699067,206.71708 c 0.0031,-0.003 0.0046,-0.005 0.0061,-0.009 l -0.943325,-0.415 c 0,0 -0.566607,1.15925 -0.958639,2.04132 l -1.169968,-0.5222 c 0.215924,-0.48238 0.551294,-1.23122 0.852974,-1.83765 l -0.928011,-0.40734 c -0.318525,0.64011 -0.637051,1.32617 -0.860631,1.82846 l -1.009174,-0.45176 c 0,0 0.471662,-1.07655 0.903509,-1.94484 l -0.981609,-0.42878 c -0.51301,1.0153 -0.98161,2.04285 -1.392017,3.08265 l 5.05659,2.23886 c 0.411939,-1.07042 0.883602,-2.13013 1.424176,-3.17453"
         style="fill:#ffffff;fill-opacity:1;fill-rule:nonzero;stroke:none;stroke-width:1.53137"
         id="path9506" />
      <path
         d="m 74.477899,213.66338 1.079617,0.2833 c 0.102602,-0.49157 0.2343,-1.06583 0.326182,-1.45021 l 4.255683,1.11637 c 0.09801,-0.40275 0.199079,-0.80243 0.309337,-1.19906 l -4.266402,-1.11637 c 0,0 0.179171,-0.64777 0.43491,-1.42724 l -1.078086,-0.28943 c -0.43491,1.33689 -0.784063,2.69981 -1.061241,4.08264"
         style="fill:#ffffff;fill-opacity:1;fill-rule:nonzero;stroke:none;stroke-width:1.53137"
         id="path9510" />
      <path
         d="m 102.8752,252.51337 -0.0153,-0.003 -1.09187,0.24349 0.008,-0.95099 1.52066,-0.32158 0.99233,0.22511 -1.17916,5.16225 -1.16844,-0.26799 z"
         style="fill:#ffffff;fill-opacity:1;fill-rule:nonzero;stroke:none;stroke-width:1.53137"
         id="path9514" />
      <path
         d="m 106.93135,253.48239 c -0.0291,0.35681 0.26646,0.60949 0.67687,0.77947 0.29249,-0.0582 0.56507,-0.29556 0.59417,-0.61868 0.0306,-0.33384 -0.12711,-0.6738 -0.58345,-0.71515 -0.42113,-0.0383 -0.65849,0.22971 -0.68759,0.55436 m 1.15925,2.62018 c 0.0414,-0.46248 -0.28331,-0.77028 -0.75037,-0.94026 -0.41501,0.0781 -0.6784,0.34915 -0.71056,0.72893 -0.0429,0.38284 0.21899,0.76415 0.68146,0.8055 0.43032,0.0383 0.74731,-0.22052 0.77947,-0.59417 m -1.67073,-1.45634 c -0.48697,-0.31393 -0.69984,-0.76568 -0.66002,-1.22816 0.0781,-0.89126 0.93567,-1.41192 1.98925,-1.32004 1.23429,0.1072 1.68298,0.86676 1.62632,1.50993 -0.0414,0.45329 -0.32312,0.87748 -0.87288,1.09187 l -0.003,0.0245 c 0.50229,0.24196 0.9173,0.71668 0.85757,1.39202 -0.0842,0.95864 -0.94485,1.53597 -2.16995,1.42877 -1.33842,-0.11945 -1.88971,-0.92801 -1.8254,-1.64316 0.0551,-0.63399 0.45942,-1.03674 1.05665,-1.23888 z"
         style="fill:#ffffff;fill-opacity:1;fill-rule:nonzero;stroke:none;stroke-width:1.53137"
         id="path9518" />
      <path
         d="m 113.67919,255.70948 c -0.0322,-0.48698 -0.32006,-0.89126 -0.84991,-0.85604 -0.33384,0.0214 -0.59571,0.24502 -0.69218,0.50842 -0.0367,0.0781 -0.0459,0.17764 -0.0367,0.32312 0.0628,0.55895 0.36293,1.04439 0.9326,1.00917 0.43185,-0.0306 0.68146,-0.44716 0.64624,-0.98467 m 0.49923,-2.69368 c -0.14089,0 -0.28637,0.0184 -0.48085,0.0475 -1.09034,0.16232 -1.54056,0.7565 -1.63857,1.3767 l 0.0245,-0.003 c 0.24196,-0.27871 0.60642,-0.45635 1.09493,-0.49004 0.8836,-0.0582 1.67532,0.5176 1.74883,1.61713 0.0704,1.04746 -0.6784,1.96322 -1.81621,2.03826 -1.41652,0.0949 -2.17608,-0.90811 -2.2603,-2.16843 -0.0674,-0.99233 0.24348,-1.8453 0.78712,-2.4211 0.48698,-0.51454 1.16231,-0.81162 1.98007,-0.9081 0.22664,-0.0398 0.38131,-0.0413 0.49463,-0.0413 z"
         style="fill:#ffffff;fill-opacity:1;fill-rule:nonzero;stroke:none;stroke-width:1.53137"
         id="path9522" />
      <path
         d="m 119.10606,252.21398 -2.00457,0.44257 0.0628,0.82081 c 0.11179,-0.0398 0.2052,-0.0628 0.33231,-0.0888 0.49463,-0.11026 1.02755,-0.11026 1.44408,0.072 0.44716,0.17764 0.781,0.55435 0.9127,1.15925 0.21286,0.96017 -0.42725,1.99537 -1.81927,2.30165 -0.62786,0.14088 -1.18528,0.11332 -1.50381,0.023 l 0.023,-0.95558 c 0.24655,0.0643 0.74731,0.1026 1.21744,-0.002 0.50076,-0.10873 0.98161,-0.46554 0.8591,-1.0153 -0.11791,-0.53292 -0.60948,-0.76569 -1.64316,-0.53751 -0.2879,0.0628 -0.48391,0.12251 -0.68146,0.20061 l -0.26493,-2.78557 2.84682,-0.62786 z"
         style="fill:#ffffff;fill-opacity:1;fill-rule:nonzero;stroke:none;stroke-width:1.53137"
         id="path9526" />
      <path
         d="m 95.568412,250.94583 c 0,0.6003 -0.485445,1.08574 -1.085743,1.08574 -0.598766,0 -1.084211,-0.48544 -1.084211,-1.08574 0,-0.59724 0.485445,-1.08268 1.084211,-1.08268 0.600298,0 1.085743,0.48544 1.085743,1.08268"
         style="fill:#ffffff;fill-opacity:1;fill-rule:nonzero;stroke:none;stroke-width:1.53137"
         id="path9530" />
      <path
         d="m 125.13461,250.94583 c 0,0.6003 0.48544,1.08574 1.08421,1.08574 0.59877,0 1.08574,-0.48544 1.08574,-1.08574 0,-0.59724 -0.48697,-1.08268 -1.08574,-1.08268 -0.59877,0 -1.08421,0.48544 -1.08421,1.08268"
         style="fill:#ffffff;fill-opacity:1;fill-rule:nonzero;stroke:none;stroke-width:1.53137"
         id="path9534" />
      <path
         d="m 97.048176,203.0202 -0.987735,-2.30165 c -3.050493,0.64471 -4.594116,3.19444 -4.594116,3.19444 0,0 1.929529,0.54364 5.581851,-0.89279"
         style="fill:#231f20;fill-opacity:1;fill-rule:nonzero;stroke:none;stroke-width:1.53137"
         id="path9538" />
      <path
         d="m 96.061056,200.71805 h -4.957051 l 1.245005,2.10564 c 0.754967,-0.77641 1.995378,-1.7427 3.712046,-2.10564"
         style="fill:#ffffff;fill-opacity:1;fill-rule:nonzero;stroke:none;stroke-width:1.53137"
         id="path9542" />
      <path
         d="m 128.64299,202.82386 1.24347,-2.10564 h -4.95705 c 1.7182,0.36294 2.95708,1.33077 3.71358,2.10564"
         style="fill:#ffffff;fill-opacity:1;fill-rule:nonzero;stroke:none;stroke-width:1.53137"
         id="path9546" />
      <path
         d="m 103.86906,203.49765 c 0,0.61867 1.63857,1.15006 3.98463,1.38742 v -3.90193 c 0,1.28329 -3.98463,0.98926 -3.98463,2.51451"
         style="fill:#231f20;fill-opacity:1;fill-rule:nonzero;stroke:none;stroke-width:1.53137"
         id="path9550" />
      <path
         d="m 102.68791,235.32507 c 0.18989,-0.5467 0.15467,-1.17303 -0.10107,-1.72739 -0.43185,0.17458 -0.77028,0.50995 -0.97548,0.93414 0.20979,0.50076 0.43184,0.98314 0.66308,1.43336 0.17304,-0.18376 0.32465,-0.3905 0.41347,-0.64011"
         style="fill:#ffffff;fill-opacity:1;fill-rule:nonzero;stroke:none;stroke-width:1.53137"
         id="path9554" />
      <path
         d="m 104.18896,237.55907 c 0.11792,-0.62174 -0.0214,-1.28942 -0.37519,-1.84377 -0.47625,0.29249 -0.80703,0.77334 -0.93566,1.34301 0.30321,0.51761 0.60336,0.99233 0.88819,1.40733 0.20214,-0.26339 0.35987,-0.56048 0.42266,-0.90657"
         style="fill:#ffffff;fill-opacity:1;fill-rule:nonzero;stroke:none;stroke-width:1.53137"
         id="path9558" />
      <path
         d="m 101.60447,232.59525 c 0.2588,-0.51148 0.30015,-1.12862 0.11332,-1.70901 -0.44103,0.10719 -0.81469,0.38131 -1.07655,0.7565 0.12863,0.53138 0.28483,1.0398 0.45328,1.53903 0.20368,-0.15927 0.38744,-0.34456 0.50995,-0.58652"
         style="fill:#ffffff;fill-opacity:1;fill-rule:nonzero;stroke:none;stroke-width:1.53137"
         id="path9562" />
      <path
         d="m 100.96037,229.68672 c 0.32924,-0.45941 0.45329,-1.05818 0.34762,-1.65388 -0.41347,0.0352 -0.77947,0.20826 -1.07502,0.47319 0.0153,0.56814 0.0567,1.12862 0.13476,1.67532 0.22664,-0.12404 0.43644,-0.27871 0.59264,-0.49463"
         style="fill:#ffffff;fill-opacity:1;fill-rule:nonzero;stroke:none;stroke-width:1.53137"
         id="path9566" />
      <path
         d="m 104.67257,240.2163 c -4.31694,-4.59871 -4.973896,-9.75637 -4.967771,-12.46384 l 0.07351,-0.072 c 0,-0.002 -0.0015,-0.003 -0.0015,-0.005 0.338441,-0.32158 0.578861,-0.74577 0.661561,-1.23734 0.10872,-0.64931 -0.049,-1.33995 -0.43032,-1.91269 -0.516076,0.32925 -0.871355,0.87442 -0.977019,1.51147 -0.09648,0.57426 0.0245,1.17303 0.312399,1.69676 -0.0735,0.45022 -0.119447,0.89279 -0.139354,1.33229 -0.049,-0.14548 -0.104134,-0.28943 -0.183765,-0.42572 -0.315463,-0.55589 -0.822347,-0.96936 -1.408862,-1.15159 -0.139355,0.59417 -0.04135,1.24347 0.277178,1.79783 0.254208,0.44563 0.849911,0.93413 1.338419,1.18069 0.03522,0.47013 0.08729,0.94026 0.173045,1.39967 -0.05207,-0.072 -0.09495,-0.15007 -0.153137,-0.21745 -0.407345,-0.48851 -0.975484,-0.79632 -1.572719,-0.85451 -0.02297,0.62327 0.194484,1.25113 0.606423,1.73811 0.3905,0.46553 0.924949,0.75956 1.490025,0.84072 0.148543,0.49004 0.315467,0.97242 0.508417,1.44408 -0.0674,-0.072 -0.13323,-0.14548 -0.20979,-0.20673 -0.485454,-0.39969 -1.085752,-0.58958 -1.672267,-0.52373 0.09341,0.62939 0.422658,1.21285 0.914229,1.6156 0.471662,0.3859 1.055118,0.56814 1.623258,0.51913 0.21899,0.42879 0.45329,0.84685 0.69984,1.2542 -0.0873,-0.0643 -0.17458,-0.13017 -0.27105,-0.18224 -0.57121,-0.30933 -1.23276,-0.37059 -1.810092,-0.17151 0.222049,0.64471 0.676872,1.18834 1.261852,1.50381 0.39357,0.21286 0.82541,0.30933 1.24807,0.2833 0.15773,-0.009 0.30934,-0.0414 0.45788,-0.0827 0.66768,0.94485 1.38589,1.81773 2.10717,2.61711 -0.0398,-0.47472 -0.009,-0.89432 0.0444,-1.22816"
         style="fill:#ffffff;fill-opacity:1;fill-rule:nonzero;stroke:none;stroke-width:1.53137"
         id="path9570" />
      <path
         d="m 118.07591,235.32507 c -0.18989,-0.5467 -0.15314,-1.17303 0.10107,-1.72739 0.43185,0.17458 0.77028,0.50995 0.97702,0.93414 -0.21133,0.50076 -0.43338,0.98314 -0.66462,1.43336 -0.17151,-0.18376 -0.32465,-0.3905 -0.41347,-0.64011"
         style="fill:#ffffff;fill-opacity:1;fill-rule:nonzero;stroke:none;stroke-width:1.53137"
         id="path9574" />
      <path
         d="m 116.57485,237.55907 c -0.11638,-0.62174 0.0199,-1.28942 0.37672,-1.84377 0.47472,0.29249 0.8055,0.77334 0.93567,1.34301 -0.30475,0.51761 -0.6049,0.99233 -0.88973,1.40733 -0.20214,-0.26339 -0.35987,-0.56048 -0.42266,-0.90657"
         style="fill:#ffffff;fill-opacity:1;fill-rule:nonzero;stroke:none;stroke-width:1.53137"
         id="path9578" />
      <path
         d="m 119.15981,232.59525 c -0.2588,-0.51148 -0.30015,-1.12862 -0.11485,-1.70901 0.44256,0.10719 0.81469,0.38131 1.07808,0.7565 -0.12863,0.53138 -0.28483,1.0398 -0.45481,1.53903 -0.20215,-0.15927 -0.38591,-0.34456 -0.50842,-0.58652"
         style="fill:#ffffff;fill-opacity:1;fill-rule:nonzero;stroke:none;stroke-width:1.53137"
         id="path9582" />
      <path
         d="m 119.8039,229.68672 c -0.32771,-0.45941 -0.45329,-1.05818 -0.34762,-1.65388 0.41347,0.0352 0.77947,0.20826 1.07502,0.47319 -0.0153,0.56814 -0.0582,1.12862 -0.13629,1.67532 -0.22511,-0.12404 -0.43491,-0.27871 -0.59111,-0.49463"
         style="fill:#ffffff;fill-opacity:1;fill-rule:nonzero;stroke:none;stroke-width:1.53137"
         id="path9586" />
      <path
         d="m 116.09125,240.2163 c 4.31847,-4.59871 4.97543,-9.75637 4.96777,-12.46384 l -0.0735,-0.072 c 0,-0.002 0.002,-0.003 0.002,-0.005 -0.33844,-0.32158 -0.57733,-0.74577 -0.66156,-1.23734 -0.10872,-0.64931 0.049,-1.33995 0.43032,-1.91269 0.5176,0.32925 0.87135,0.87442 0.97701,1.51147 0.0965,0.57426 -0.023,1.17303 -0.3124,1.69676 0.0735,0.45022 0.12098,0.89279 0.13936,1.33229 0.049,-0.14548 0.10566,-0.28943 0.18376,-0.42572 0.31547,-0.55589 0.82388,-0.96936 1.40887,-1.15159 0.13935,0.59417 0.0413,1.24347 -0.27565,1.79783 -0.25574,0.44563 -0.84991,0.93413 -1.33995,1.18069 -0.0352,0.47013 -0.0873,0.94026 -0.17151,1.39967 0.0505,-0.072 0.0934,-0.15007 0.1516,-0.21745 0.40888,-0.48851 0.97548,-0.79632 1.57272,-0.85451 0.023,0.62327 -0.19448,1.25113 -0.60489,1.73811 -0.3905,0.46553 -0.92648,0.75956 -1.49156,0.84072 -0.14701,0.49004 -0.31393,0.97242 -0.50841,1.44408 0.0674,-0.072 0.13476,-0.14548 0.20979,-0.20673 0.48698,-0.39969 1.08728,-0.58958 1.67226,-0.52373 -0.0934,0.62939 -0.42112,1.21285 -0.91423,1.6156 -0.47166,0.3859 -1.05511,0.56814 -1.62172,0.51913 -0.22052,0.42879 -0.45329,0.84685 -0.70137,1.2542 0.0873,-0.0643 0.17458,-0.13017 0.27105,-0.18224 0.57121,-0.30933 1.23276,-0.37059 1.81009,-0.17151 -0.22205,0.64471 -0.67534,1.18834 -1.26185,1.50381 -0.39357,0.21286 -0.82388,0.30933 -1.24807,0.2833 -0.1562,-0.009 -0.30934,-0.0414 -0.45788,-0.0827 -0.66615,0.94485 -1.38589,1.81773 -2.1087,2.61711 0.0413,-0.47472 0.0107,-0.89432 -0.0429,-1.22816"
         style="fill:#ffffff;fill-opacity:1;fill-rule:nonzero;stroke:none;stroke-width:1.53137"
         id="path9590" />
      <path
         d="m 114.79785,236.65125 c -0.60949,-0.66308 -1.42724,-1.02908 -2.30012,-1.02908 -0.77947,0 -1.51606,0.29096 -2.09798,0.82541 -1.23429,-1.13169 -3.24498,-1.05206 -4.39657,0.20214 -0.65696,0.71209 -0.98773,1.69676 -0.90351,2.70593 0.005,0.0567 0.0107,0.0904 0.0107,0.0858 0.005,0.049 0.0123,0.098 0.023,0.15773 0.0199,0.13017 0.0521,0.28177 0.11639,0.51914 0.0168,0.0628 0.0352,0.12404 0.0551,0.1807 0.19143,0.54976 0.43185,1.06277 0.74119,1.57119 0.82694,1.32923 2.12554,2.60333 3.86059,3.78708 l 0.4931,0.33843 0.49463,-0.33843 c 0.70137,-0.47779 1.34148,-0.98008 1.93413,-1.52372 1.20825,-1.21591 2.10869,-2.20364 2.67377,-3.8514 l 0.0276,-0.0919 c 0.0904,-0.30627 0.1516,-0.60795 0.17763,-0.89432 0.0658,-0.98161 -0.26492,-1.94637 -0.90963,-2.64468"
         style="fill:#231f20;fill-opacity:1;fill-rule:nonzero;stroke:none;stroke-width:1.53137"
         id="path9594" />
      <path
         d="m 106.12018,239.36635 c 0.0168,0.1026 0.0398,0.22052 0.0766,0.35222 0.0184,0.0628 0.0337,0.12557 0.0551,0.18529 0.17457,0.50689 0.3905,0.94945 0.63858,1.3568 0.60489,0.97242 1.66307,2.16842 3.5099,3.42874 0.69065,-0.47166 1.26951,-0.93261 1.75649,-1.37977 1.0398,-1.04439 1.89124,-1.94484 2.3966,-3.41802 0.006,-0.0199 0.0123,-0.0383 0.0168,-0.0567 0.0873,-0.29402 0.12557,-0.52526 0.13936,-0.68452 0.0475,-0.69371 -0.17152,-1.4058 -0.66156,-1.93719 -0.88819,-0.96783 -2.32921,-0.96783 -3.21894,0 -0.1853,0.20061 -0.32006,0.43032 -0.42879,0.67227 -0.10872,-0.24195 -0.24501,-0.47166 -0.43031,-0.67227 -0.8882,-0.96783 -2.32922,-0.96783 -3.21741,0 -0.4977,0.53751 -0.71515,1.26951 -0.65696,1.97547 0.002,0.0291 0.006,0.0567 0.0107,0.0888 0.003,0.0291 0.009,0.0597 0.0138,0.0888"
         style="fill:#bdbcbc;fill-opacity:1;fill-rule:nonzero;stroke:none;stroke-width:1.53137"
         id="path9598" />
      <path
         d="m 123.94412,203.0202 0.98773,-2.30165 c 3.0505,0.64471 4.59412,3.19444 4.59412,3.19444 0,0 -1.92953,0.54364 -5.58185,-0.89279"
         style="fill:#231f20;fill-opacity:1;fill-rule:nonzero;stroke:none;stroke-width:1.53137"
         id="path9602" />
      <path
         d="m 117.12339,203.49765 c 0,0.61867 -1.63704,1.15006 -3.98463,1.38742 v -3.90193 c 0,1.28329 3.98463,0.98926 3.98463,2.51451"
         style="fill:#231f20;fill-opacity:1;fill-rule:nonzero;stroke:none;stroke-width:1.53137"
         id="path9606" />
      <path
         d="m 121.58428,207.44922 c 0,0 1.93719,0.98161 4.29244,1.19906 l 3.64772,-4.735 c 0,0 -2.77331,0.79478 -7.9861,-2.01375 -5.38431,-2.90195 -8.40111,-2.19752 -8.40111,-0.91576 0,1.28329 3.98463,0.98773 3.98463,2.51451 0,0.83154 -2.95861,1.50687 -6.62624,1.51912 -3.66764,-0.0123 -6.62625,-0.68758 -6.62625,-1.51912 0,-1.52678 3.98463,-1.23122 3.98463,-2.51451 0,-1.28176 -3.0168,-1.98619 -8.399577,0.91576 -5.214321,2.80853 -7.987636,2.01375 -7.987636,2.01375 l 3.647728,4.73347 c 1.013768,-0.0674 2.448664,-0.36446 4.339908,-1.21744 1.721267,-0.92954 3.199037,-1.48543 4.414947,-1.77486 v 2.83304 c 0,0.83919 3.00761,1.51912 6.71813,1.51912 3.70898,0 6.53589,-0.67993 6.53589,-1.51912 v -2.7871 c 1.18222,0.30015 2.77791,0.84532 4.41495,1.72892"
         style="fill:#ffffff;fill-opacity:1;fill-rule:nonzero;stroke:none;stroke-width:1.53137"
         id="path9610" />
      <path
         d="m 95.967796,204.62077 0.532917,-0.11485 v 2.14545 l 0.699837,-0.15161 v 0.42419 l -1.232754,0.26493 z"
         style="fill:#231f20;fill-opacity:1;fill-rule:nonzero;stroke:none;stroke-width:1.53137"
         id="path9614" />
      <path
         d="m 98.633606,205.32396 -0.603361,0.20367 v 0.69371 l 0.681461,-0.2297 v 0.43338 l -1.197533,0.40428 v -2.56811 l 1.154655,-0.38897 v 0.43338 l -0.638583,0.21592 v 0.59111 l 0.603361,-0.20367 z"
         style="fill:#231f20;fill-opacity:1;fill-rule:nonzero;stroke:none;stroke-width:1.53137"
         id="path9618" />
      <path
         d="m 99.543853,203.47117 v 1.02908 l 0.514537,-0.24502 v -1.02908 l 0.49311,-0.23277 v 2.56811 l -0.49311,0.2343 v -1.07502 l -0.514537,0.24349 v 1.07502 l -0.493102,0.2343 v -2.56964 z"
         style="fill:#231f20;fill-opacity:1;fill-rule:nonzero;stroke:none;stroke-width:1.53137"
         id="path9622" />
      <path
         d="m 101.49206,203.73549 0.0919,-0.0383 c 0.21899,-0.0934 0.3415,-0.32006 0.3415,-0.54517 0,-0.22052 -0.0888,-0.33537 -0.31087,-0.24962 -0.0459,0.0199 -0.0949,0.0444 -0.12251,0.0674 z m -0.50229,-0.90963 c 0.15773,-0.0965 0.35681,-0.19908 0.54823,-0.28025 0.27718,-0.11638 0.52526,-0.17917 0.69065,-0.0995 0.15773,0.075 0.20674,0.22512 0.20674,0.44563 0,0.27565 -0.13783,0.58039 -0.39816,0.80857 v 0.008 c 0.17611,-0.002 0.26493,0.12097 0.31393,0.37824 0.0505,0.26493 0.11945,0.55283 0.16539,0.62787 l -0.52526,0.22205 c -0.0352,-0.0582 -0.0919,-0.29403 -0.1317,-0.56355 -0.0444,-0.29709 -0.12557,-0.35375 -0.29096,-0.28483 l -0.0766,0.0322 v 1.02602 l -0.50229,0.21133 z"
         style="fill:#231f20;fill-opacity:1;fill-rule:nonzero;stroke:none;stroke-width:1.53137"
         id="path9626" />
      <path
         d="m 117.93487,201.86643 0.50995,0.19448 v 1.15466 l 0.0107,0.005 c 0.0429,-0.0904 0.0827,-0.18989 0.12404,-0.2833 l 0.35068,-0.69065 0.56355,0.21592 -0.59111,0.89126 0.59876,1.67992 -0.55895,-0.21439 -0.38131,-1.20826 -0.11638,0.16539 v 0.85298 l -0.50995,-0.19449 z"
         style="fill:#231f20;fill-opacity:1;fill-rule:nonzero;stroke:none;stroke-width:1.53137"
         id="path9630" />
      <path
         d="m 120.18614,202.78496 v 1.6692 c 0,0.37671 0.11026,0.5421 0.24196,0.60182 0.14395,0.0658 0.24655,0.0107 0.24655,-0.37824 v -1.6692 l 0.49616,0.22664 v 1.58191 c 0,0.65849 -0.25114,0.90351 -0.73812,0.67993 -0.53445,-0.24502 -0.74271,-0.70903 -0.74271,-1.35373 v -1.58497 z"
         style="fill:#231f20;fill-opacity:1;fill-rule:nonzero;stroke:none;stroke-width:1.53137"
         id="path9634" />
      <path
         d="m 121.58458,206.0287 v -2.56811 l 0.46247,0.18836 0.39969,1.16997 c 0.0812,0.23123 0.20367,0.61408 0.27718,0.86522 l 0.008,0.003 c -0.0153,-0.27717 -0.0505,-0.73812 -0.0505,-1.20978 v -0.56814 l 0.44257,0.18223 v 2.56812 l -0.46094,-0.18989 -0.39663,-1.13781 c -0.0888,-0.25268 -0.20367,-0.62787 -0.26493,-0.88207 l -0.009,-0.003 c 0.0153,0.26493 0.0352,0.66921 0.0352,1.18835 v 0.57579 z"
         style="fill:#231f20;fill-opacity:1;fill-rule:nonzero;stroke:none;stroke-width:1.53137"
         id="path9638" />
      <path
         d="m 123.45546,206.24739 c 0.10873,0.0858 0.29709,0.17917 0.44563,0.21899 0.24502,0.0674 0.37059,-0.0214 0.37059,-0.18989 0,-0.18683 -0.12098,-0.31087 -0.35068,-0.51301 -0.36906,-0.31393 -0.50995,-0.62174 -0.50995,-0.85451 0,-0.41194 0.28943,-0.67687 0.85144,-0.52373 0.1807,0.049 0.35069,0.13936 0.42726,0.20521 l -0.0858,0.40887 c -0.075,-0.0674 -0.19295,-0.13935 -0.3415,-0.1807 -0.22511,-0.0597 -0.3323,0.0398 -0.3323,0.17764 0,0.1516 0.0796,0.25421 0.36906,0.49923 0.3614,0.30321 0.49004,0.59723 0.49004,0.86828 0,0.4686 -0.366,0.6784 -0.89126,0.53598 -0.21746,-0.0582 -0.42572,-0.16845 -0.51914,-0.24195 z"
         style="fill:#231f20;fill-opacity:1;fill-rule:nonzero;stroke:none;stroke-width:1.53137"
         id="path9642" />
      <path
         d="m 125.41991,205.12106 -0.48851,-0.0781 v -0.46094 l 1.51912,0.24349 v 0.46094 l -0.4931,-0.0796 v 2.1087 l -0.53751,-0.0873 z"
         style="fill:#231f20;fill-opacity:1;fill-rule:nonzero;stroke:none;stroke-width:1.53137"
         id="path9646" />
      <path
         d="m 107.85599,206.14126 v 1.66307 c 0,0.37519 0.13323,0.49923 0.29402,0.51148 0.17611,0.0153 0.30015,-0.0781 0.30015,-0.46554 v -1.66307 l 0.60336,0.0475 v 1.57425 c 0,0.65849 -0.30474,0.9908 -0.89891,0.94486 -0.64777,-0.0505 -0.90198,-0.4395 -0.90198,-1.07962 v -1.58037 z"
         style="fill:#231f20;fill-opacity:1;fill-rule:nonzero;stroke:none;stroke-width:1.53137"
         id="path9650" />
      <path
         d="m 109.57143,208.812 v -2.55892 l 0.55589,0.002 0.48085,1.00305 c 0.0965,0.19908 0.24502,0.52832 0.33231,0.74884 h 0.009 c -0.0168,-0.26952 -0.0597,-0.71362 -0.0597,-1.18375 v -0.56661 l 0.53292,0.002 v 2.55892 l -0.55589,-0.002 -0.47626,-0.97242 c -0.10719,-0.21745 -0.24655,-0.54517 -0.32005,-0.77181 h -0.008 c 0.0168,0.2588 0.0398,0.65236 0.0398,1.16997 v 0.57273 z"
         style="fill:#231f20;fill-opacity:1;fill-rule:nonzero;stroke:none;stroke-width:1.53137"
         id="path9654" />
      <path
         d="m 112.57384,208.35898 c 0.0322,0.006 0.075,0.002 0.10566,0 0.29097,-0.0214 0.54517,-0.27565 0.54517,-0.98161 0,-0.52526 -0.16692,-0.83153 -0.53138,-0.80397 -0.0398,0.003 -0.0812,0.006 -0.11945,0.0199 z m -0.60489,-2.08113 c 0.15314,-0.0413 0.37518,-0.0766 0.61408,-0.095 0.39203,-0.0291 0.66461,0.026 0.86369,0.16233 0.26646,0.17763 0.40428,0.50535 0.40428,1.00304 0,0.51608 -0.16079,0.89586 -0.43337,1.11331 -0.21133,0.17917 -0.51608,0.28637 -0.94486,0.31853 -0.19448,0.0153 -0.38437,0.0153 -0.50382,0.008 z"
         style="fill:#231f20;fill-opacity:1;fill-rule:nonzero;stroke:none;stroke-width:1.53137"
         id="path9658" />
    </g>
  </g>
</svg>
