<?xml version="1.0" encoding="UTF-8" standalone="no"?>
<svg
   width="84.50174mm"
   height="84.50174mm"
   viewBox="0 0 84.50174 84.50174"
   version="1.1"
   id="svg8"
   inkscape:version="1.2.1 (9c6d41e410, 2022-07-14)"
   sodipodi:docname="wpi_logo.svg"
   xmlns:inkscape="http://www.inkscape.org/namespaces/inkscape"
   xmlns:sodipodi="http://sodipodi.sourceforge.net/DTD/sodipodi-0.dtd"
   xmlns="http://www.w3.org/2000/svg"
   xmlns:svg="http://www.w3.org/2000/svg"
   xmlns:rdf="http://www.w3.org/1999/02/22-rdf-syntax-ns#"
   xmlns:cc="http://creativecommons.org/ns#"
   xmlns:dc="http://purl.org/dc/elements/1.1/">
  <defs
     id="defs2">
    <rect
       x="203.3512"
       y="437.69644"
       width="95.25"
       height="17.386906"
       id="rect932" />
    <rect
       x="228.29762"
       y="396.49701"
       width="37.797619"
       height="12.85119"
       id="rect922" />
    <clipPath
       clipPathUnits="userSpaceOnUse"
       id="clipPath7347">
      <g
         id="g7353"
         transform="scale(1,-1)">
        <g
           id="g7351">
          <path
             d="M 22.5,570.75 H 773.25 V 93.78748 H 22.5 Z"
             id="path7349" />
        </g>
      </g>
    </clipPath>
    <clipPath
       clipPathUnits="userSpaceOnUse"
       id="clipPath20581">
      <g
         id="g20585"
         transform="matrix(2.8346458,0,0,-2.8346458,-81.108727,784.57149)">
        <path
           d="m 12.427558,291.66735 h 68.775084 v -21.717 H 12.427558 Z"
           id="path20583"
           style="stroke-width:0.352778" />
      </g>
    </clipPath>
    <clipPath
       clipPathUnits="userSpaceOnUse"
       id="clipPath20587">
      <g
         id="g20591"
         transform="matrix(2.8346458,0,0,-2.8346458,-79.148127,784.86731)">
        <path
           d="m 12.427558,291.66735 h 68.775084 v -21.717 H 12.427558 Z"
           id="path20589"
           style="stroke-width:0.352778" />
      </g>
    </clipPath>
    <clipPath
       clipPathUnits="userSpaceOnUse"
       id="clipPath20593">
      <g
         id="g20597"
         transform="matrix(2.8346458,0,0,-2.8346458,-78.027926,783.1233)">
        <path
           d="m 12.427558,291.66735 h 68.775084 v -21.717 H 12.427558 Z"
           id="path20595"
           style="stroke-width:0.352778" />
      </g>
    </clipPath>
    <clipPath
       clipPathUnits="userSpaceOnUse"
       id="clipPath20599">
      <g
         id="g20603"
         transform="matrix(2.8346458,0,0,-2.8346458,-89.497325,782.4571)">
        <path
           d="m 12.427558,291.66735 h 68.775084 v -21.717 H 12.427558 Z"
           id="path20601"
           style="stroke-width:0.352778" />
      </g>
    </clipPath>
    <clipPath
       clipPathUnits="userSpaceOnUse"
       id="clipPath20605">
      <g
         id="g20609"
         transform="matrix(2.8346458,0,0,-2.8346458,-88.214526,783.1926)">
        <path
           d="m 12.427558,291.66735 h 68.775084 v -21.717 H 12.427558 Z"
           id="path20607"
           style="stroke-width:0.352778" />
      </g>
    </clipPath>
    <clipPath
       clipPathUnits="userSpaceOnUse"
       id="clipPath20611">
      <g
         id="g20615"
         transform="matrix(2.8346458,0,0,-2.8346458,-86.992825,783.04979)">
        <path
           d="m 12.427558,291.66735 h 68.775084 v -21.717 H 12.427558 Z"
           id="path20613"
           style="stroke-width:0.352778" />
      </g>
    </clipPath>
    <clipPath
       clipPathUnits="userSpaceOnUse"
       id="clipPath20617">
      <g
         id="g20621"
         transform="matrix(2.8346458,0,0,-2.8346458,-86.079627,780.9316)">
        <path
           d="m 12.427558,291.66735 h 68.775084 v -21.717 H 12.427558 Z"
           id="path20619"
           style="stroke-width:0.352778" />
      </g>
    </clipPath>
    <clipPath
       clipPathUnits="userSpaceOnUse"
       id="clipPath20623">
      <g
         id="g20627"
         transform="matrix(2.8346458,0,0,-2.8346458,-84.609526,780.33179)">
        <path
           d="m 12.427558,291.66735 h 68.775084 v -21.717 H 12.427558 Z"
           id="path20625"
           style="stroke-width:0.352778" />
      </g>
    </clipPath>
    <clipPath
       clipPathUnits="userSpaceOnUse"
       id="clipPath20629">
      <g
         id="g20633"
         transform="matrix(2.8346458,0,0,-2.8346458,-73.872225,781.55231)">
        <path
           d="m 12.427558,291.66735 h 68.775084 v -21.717 H 12.427558 Z"
           id="path20631"
           style="stroke-width:0.352778" />
      </g>
    </clipPath>
    <clipPath
       clipPathUnits="userSpaceOnUse"
       id="clipPath20635">
      <g
         id="g20639"
         transform="matrix(2.8346458,0,0,-2.8346458,-72.600025,781.3797)">
        <path
           d="m 12.427558,291.66735 h 68.775084 v -21.717 H 12.427558 Z"
           id="path20637"
           style="stroke-width:0.352778" />
      </g>
    </clipPath>
    <clipPath
       clipPathUnits="userSpaceOnUse"
       id="clipPath20641">
      <g
         id="g20645"
         transform="matrix(2.8346458,0,0,-2.8346458,-72.005625,782.58959)">
        <path
           d="m 12.427558,291.66735 h 68.775084 v -21.717 H 12.427558 Z"
           id="path20643"
           style="stroke-width:0.352778" />
      </g>
    </clipPath>
    <clipPath
       clipPathUnits="userSpaceOnUse"
       id="clipPath20647">
      <g
         id="g20651"
         transform="matrix(2.8346458,0,0,-2.8346458,-70.264827,782.1304)">
        <path
           d="m 12.427558,291.66735 h 68.775084 v -21.717 H 12.427558 Z"
           id="path20649"
           style="stroke-width:0.352778" />
      </g>
    </clipPath>
    <clipPath
       clipPathUnits="userSpaceOnUse"
       id="clipPath20653">
      <g
         id="g20657"
         transform="matrix(2.8346458,0,0,-2.8346458,-86.992627,783.9774)">
        <path
           d="m 12.427558,291.66735 h 68.775084 v -21.717 H 12.427558 Z"
           id="path20655"
           style="stroke-width:0.352778" />
      </g>
    </clipPath>
    <clipPath
       clipPathUnits="userSpaceOnUse"
       id="clipPath20659">
      <g
         id="g20663"
         transform="matrix(2.8346458,0,0,-2.8346458,-84.079626,781.397)">
        <path
           d="m 12.427558,291.66735 h 68.775084 v -21.717 H 12.427558 Z"
           id="path20661"
           style="stroke-width:0.352778" />
      </g>
    </clipPath>
    <clipPath
       clipPathUnits="userSpaceOnUse"
       id="clipPath20665">
      <g
         id="g20669"
         transform="matrix(2.8346458,0,0,-2.8346458,-88.533625,781.08521)">
        <path
           d="m 12.427558,291.66735 h 68.775084 v -21.717 H 12.427558 Z"
           id="path20667"
           style="stroke-width:0.352778" />
      </g>
    </clipPath>
    <clipPath
       clipPathUnits="userSpaceOnUse"
       id="clipPath20671">
      <g
         id="g20675"
         transform="matrix(2.8346458,0,0,-2.8346458,-76.894425,804.81959)">
        <path
           d="m 12.427558,291.66735 h 68.775084 v -21.717 H 12.427558 Z"
           id="path20673"
           style="stroke-width:0.352778" />
      </g>
    </clipPath>
    <clipPath
       clipPathUnits="userSpaceOnUse"
       id="clipPath20677">
      <g
         id="g20681"
         transform="matrix(2.8346458,0,0,-2.8346458,-82.561026,803.0466)">
        <path
           d="m 12.427558,291.66735 h 68.775084 v -21.717 H 12.427558 Z"
           id="path20679"
           style="stroke-width:0.352778" />
      </g>
    </clipPath>
    <clipPath
       clipPathUnits="userSpaceOnUse"
       id="clipPath20683">
      <g
         id="g20687"
         transform="matrix(2.8346458,0,0,-2.8346458,-83.405626,805.37461)">
        <path
           d="m 12.427558,291.66735 h 68.775084 v -21.717 H 12.427558 Z"
           id="path20685"
           style="stroke-width:0.352778" />
      </g>
    </clipPath>
    <clipPath
       clipPathUnits="userSpaceOnUse"
       id="clipPath20689">
      <g
         id="g20693"
         transform="matrix(2.8346458,0,0,-2.8346458,-85.830025,798.4987)">
        <path
           d="m 12.427558,291.66735 h 68.775084 v -21.717 H 12.427558 Z"
           id="path20691"
           style="stroke-width:0.352778" />
      </g>
    </clipPath>
    <clipPath
       clipPathUnits="userSpaceOnUse"
       id="clipPath20695">
      <g
         id="g20699"
         transform="matrix(2.8346458,0,0,-2.8346458,-85.409426,800.398)">
        <path
           d="m 12.427558,291.66735 h 68.775084 v -21.717 H 12.427558 Z"
           id="path20697"
           style="stroke-width:0.352778" />
      </g>
    </clipPath>
    <clipPath
       clipPathUnits="userSpaceOnUse"
       id="clipPath20701">
      <g
         id="g20705"
         transform="matrix(2.8346458,0,0,-2.8346458,-83.721426,803.63941)">
        <path
           d="m 12.427558,291.66735 h 68.775084 v -21.717 H 12.427558 Z"
           id="path20703"
           style="stroke-width:0.352778" />
      </g>
    </clipPath>
    <clipPath
       clipPathUnits="userSpaceOnUse"
       id="clipPath20707">
      <g
         id="g20711"
         transform="matrix(2.8346458,0,0,-2.8346458,-84.701626,802.18059)">
        <path
           d="m 12.427558,291.66735 h 68.775084 v -21.717 H 12.427558 Z"
           id="path20709"
           style="stroke-width:0.352778" />
      </g>
    </clipPath>
    <clipPath
       clipPathUnits="userSpaceOnUse"
       id="clipPath20713">
      <g
         id="g20717"
         transform="matrix(2.8346458,0,0,-2.8346458,-75.949125,805.37461)">
        <path
           d="m 12.427558,291.66735 h 68.775084 v -21.717 H 12.427558 Z"
           id="path20715"
           style="stroke-width:0.352778" />
      </g>
    </clipPath>
    <clipPath
       clipPathUnits="userSpaceOnUse"
       id="clipPath20719">
      <g
         id="g20723"
         transform="matrix(2.8346458,0,0,-2.8346458,-73.525026,798.4987)">
        <path
           d="m 12.427558,291.66735 h 68.775084 v -21.717 H 12.427558 Z"
           id="path20721"
           style="stroke-width:0.352778" />
      </g>
    </clipPath>
    <clipPath
       clipPathUnits="userSpaceOnUse"
       id="clipPath20725">
      <g
         id="g20729"
         transform="matrix(2.8346458,0,0,-2.8346458,-73.945625,800.398)">
        <path
           d="m 12.427558,291.66735 h 68.775084 v -21.717 H 12.427558 Z"
           id="path20727"
           style="stroke-width:0.352778" />
      </g>
    </clipPath>
    <clipPath
       clipPathUnits="userSpaceOnUse"
       id="clipPath20731">
      <g
         id="g20735"
         transform="matrix(2.8346458,0,0,-2.8346458,-75.633325,803.63941)">
        <path
           d="m 12.427558,291.66735 h 68.775084 v -21.717 H 12.427558 Z"
           id="path20733"
           style="stroke-width:0.352778" />
      </g>
    </clipPath>
    <clipPath
       clipPathUnits="userSpaceOnUse"
       id="clipPath20737">
      <g
         id="g20741"
         transform="matrix(2.8346458,0,0,-2.8346458,-74.653125,802.18059)">
        <path
           d="m 12.427558,291.66735 h 68.775084 v -21.717 H 12.427558 Z"
           id="path20739"
           style="stroke-width:0.352778" />
      </g>
    </clipPath>
    <clipPath
       clipPathUnits="userSpaceOnUse"
       id="clipPath20743">
      <g
         id="g20747"
         transform="matrix(2.8346458,0,0,-2.8346458,-75.424426,781.397)">
        <path
           d="m 12.427558,291.66735 h 68.775084 v -21.717 H 12.427558 Z"
           id="path20745"
           style="stroke-width:0.352778" />
      </g>
    </clipPath>
    <clipPath
       clipPathUnits="userSpaceOnUse"
       id="clipPath20749">
      <g
         id="g20753"
         transform="matrix(2.8346458,0,0,-2.8346458,-91.602027,780.957)">
        <path
           d="m 12.427558,291.66735 h 68.775084 v -21.717 H 12.427558 Z"
           id="path20751"
           style="stroke-width:0.352778" />
      </g>
    </clipPath>
    <clipPath
       clipPathUnits="userSpaceOnUse"
       id="clipPath20755">
      <g
         id="g20759"
         transform="matrix(2.8346458,0,0,-2.8346458,-70.325726,779.58189)">
        <path
           d="m 12.427558,291.66735 h 68.775084 v -21.717 H 12.427558 Z"
           id="path20757"
           style="stroke-width:0.352778" />
      </g>
    </clipPath>
    <clipPath
       clipPathUnits="userSpaceOnUse"
       id="clipPath20761">
      <g
         id="g20765"
         transform="matrix(2.8346458,0,0,-2.8346458,-70.970324,781.08521)">
        <path
           d="m 12.427558,291.66735 h 68.775084 v -21.717 H 12.427558 Z"
           id="path20763"
           style="stroke-width:0.352778" />
      </g>
    </clipPath>
    <clipPath
       clipPathUnits="userSpaceOnUse"
       id="clipPath20767">
      <g
         id="g20771"
         transform="matrix(2.8346458,0,0,-2.8346458,-89.311027,812.38109)">
        <path
           d="m 12.427558,291.66735 h 68.775084 v -21.717 H 12.427558 Z"
           id="path20769"
           style="stroke-width:0.352778" />
      </g>
    </clipPath>
    <clipPath
       clipPathUnits="userSpaceOnUse"
       id="clipPath20773">
      <g
         id="g20777"
         transform="matrix(2.8346458,0,0,-2.8346458,-70.004025,812.38109)">
        <path
           d="m 12.427558,291.66735 h 68.775084 v -21.717 H 12.427558 Z"
           id="path20775"
           style="stroke-width:0.352778" />
      </g>
    </clipPath>
    <clipPath
       clipPathUnits="userSpaceOnUse"
       id="clipPath20779">
      <g
         id="g20783"
         transform="matrix(2.8346458,0,0,-2.8346458,-85.374325,813.2092)">
        <path
           d="m 12.427558,291.66735 h 68.775084 v -21.717 H 12.427558 Z"
           id="path20781"
           style="stroke-width:0.352778" />
      </g>
    </clipPath>
    <clipPath
       clipPathUnits="userSpaceOnUse"
       id="clipPath20785">
      <g
         id="g20789"
         transform="matrix(2.8346458,0,0,-2.8346458,-81.830527,815.4918)">
        <path
           d="m 12.427558,291.66735 h 68.775084 v -21.717 H 12.427558 Z"
           id="path20787"
           style="stroke-width:0.352778" />
      </g>
    </clipPath>
    <clipPath
       clipPathUnits="userSpaceOnUse"
       id="clipPath20791">
      <g
         id="g20795"
         transform="matrix(2.8346458,0,0,-2.8346458,-77.424127,814.03749)">
        <path
           d="m 12.427558,291.66735 h 68.775084 v -21.717 H 12.427558 Z"
           id="path20793"
           style="stroke-width:0.352778" />
      </g>
    </clipPath>
    <clipPath
       clipPathUnits="userSpaceOnUse"
       id="clipPath20797">
      <g
         id="g20801"
         transform="matrix(2.8346458,0,0,-2.8346458,-74.775425,813.40471)">
        <path
           d="m 12.427558,291.66735 h 68.775084 v -21.717 H 12.427558 Z"
           id="path20799"
           style="stroke-width:0.352778" />
      </g>
    </clipPath>
    <clipPath
       clipPathUnits="userSpaceOnUse"
       id="clipPath20803">
      <g
         id="g20807"
         transform="matrix(2.8346458,0,0,-2.8346458,-56.231726,788.03531)">
        <path
           d="m 12.427558,291.66735 h 68.775084 v -21.717 H 12.427558 Z"
           id="path20805"
           style="stroke-width:0.352778" />
      </g>
    </clipPath>
    <clipPath
       clipPathUnits="userSpaceOnUse"
       id="clipPath20809">
      <g
         id="g20813"
         transform="matrix(2.8346458,0,0,-2.8346458,-61.600224,783.49931)">
        <path
           d="m 12.427558,291.66735 h 68.775084 v -21.717 H 12.427558 Z"
           id="path20811"
           style="stroke-width:0.352778" />
      </g>
    </clipPath>
    <clipPath
       clipPathUnits="userSpaceOnUse"
       id="clipPath20815">
      <g
         id="g20819"
         transform="matrix(2.8346458,0,0,-2.8346458,-65.661226,807.48121)">
        <path
           d="m 12.427558,291.66735 h 68.775084 v -21.717 H 12.427558 Z"
           id="path20817"
           style="stroke-width:0.352778" />
      </g>
    </clipPath>
    <clipPath
       clipPathUnits="userSpaceOnUse"
       id="clipPath20821">
      <g
         id="g20825"
         transform="matrix(2.8346458,0,0,-2.8346458,-60.947026,780.6654)">
        <path
           d="m 12.427558,291.66735 h 68.775084 v -21.717 H 12.427558 Z"
           id="path20823"
           style="stroke-width:0.352778" />
      </g>
    </clipPath>
    <clipPath
       clipPathUnits="userSpaceOnUse"
       id="clipPath20827">
      <g
         id="g20831"
         transform="matrix(2.8346458,0,0,-2.8346458,-58.557527,791.74351)">
        <path
           d="m 12.427558,291.66735 h 68.775084 v -21.717 H 12.427558 Z"
           id="path20829"
           style="stroke-width:0.352778" />
      </g>
    </clipPath>
    <clipPath
       clipPathUnits="userSpaceOnUse"
       id="clipPath20833">
      <g
         id="g20837"
         transform="matrix(2.8346458,0,0,-2.8346458,-61.561427,805.42209)">
        <path
           d="m 12.427558,291.66735 h 68.775084 v -21.717 H 12.427558 Z"
           id="path20835"
           style="stroke-width:0.352778" />
      </g>
    </clipPath>
    <clipPath
       clipPathUnits="userSpaceOnUse"
       id="clipPath20839">
      <g
         id="g20843"
         transform="matrix(2.8346458,0,0,-2.8346458,-59.365225,792.7544)">
        <path
           d="m 12.427558,291.66735 h 68.775084 v -21.717 H 12.427558 Z"
           id="path20841"
           style="stroke-width:0.352778" />
      </g>
    </clipPath>
    <clipPath
       clipPathUnits="userSpaceOnUse"
       id="clipPath20845">
      <g
         id="g20849"
         transform="matrix(2.8346458,0,0,-2.8346458,-58.282226,801.9172)">
        <path
           d="m 12.427558,291.66735 h 68.775084 v -21.717 H 12.427558 Z"
           id="path20847"
           style="stroke-width:0.352778" />
      </g>
    </clipPath>
    <clipPath
       clipPathUnits="userSpaceOnUse"
       id="clipPath20851">
      <g
         id="g20855"
         transform="matrix(2.8346458,0,0,-2.8346458,-59.488226,795.87061)">
        <path
           d="m 12.427558,291.66735 h 68.775084 v -21.717 H 12.427558 Z"
           id="path20853"
           style="stroke-width:0.352778" />
      </g>
    </clipPath>
    <clipPath
       clipPathUnits="userSpaceOnUse"
       id="clipPath20857">
      <g
         id="g20861"
         transform="matrix(2.8346458,0,0,-2.8346458,-103.71713,793.5934)">
        <path
           d="m 12.427558,291.66735 h 68.775084 v -21.717 H 12.427558 Z"
           id="path20859"
           style="stroke-width:0.352778" />
      </g>
    </clipPath>
    <clipPath
       clipPathUnits="userSpaceOnUse"
       id="clipPath20863">
      <g
         id="g20867"
         transform="matrix(2.8346458,0,0,-2.8346458,-102.80583,799.3981)">
        <path
           d="m 12.427558,291.66735 h 68.775084 v -21.717 H 12.427558 Z"
           id="path20865"
           style="stroke-width:0.352778" />
      </g>
    </clipPath>
    <clipPath
       clipPathUnits="userSpaceOnUse"
       id="clipPath20869">
      <g
         id="g20873"
         transform="matrix(2.8346458,0,0,-2.8346458,-92.538427,808.63329)">
        <path
           d="m 12.427558,291.66735 h 68.775084 v -21.717 H 12.427558 Z"
           id="path20871"
           style="stroke-width:0.352778" />
      </g>
    </clipPath>
    <clipPath
       clipPathUnits="userSpaceOnUse"
       id="clipPath20875">
      <g
         id="g20879"
         transform="matrix(2.8346458,0,0,-2.8346458,-99.252427,806.7232)">
        <path
           d="m 12.427558,291.66735 h 68.775084 v -21.717 H 12.427558 Z"
           id="path20877"
           style="stroke-width:0.352778" />
      </g>
    </clipPath>
    <clipPath
       clipPathUnits="userSpaceOnUse"
       id="clipPath20881">
      <g
         id="g20885"
         transform="matrix(2.8346458,0,0,-2.8346458,-99.751225,796.7203)">
        <path
           d="m 12.427558,291.66735 h 68.775084 v -21.717 H 12.427558 Z"
           id="path20883"
           style="stroke-width:0.352778" />
      </g>
    </clipPath>
    <clipPath
       clipPathUnits="userSpaceOnUse"
       id="clipPath20887">
      <g
         id="g20891"
         transform="matrix(2.8346458,0,0,-2.8346458,-99.357124,787.1642)">
        <path
           d="m 12.427558,291.66735 h 68.775084 v -21.717 H 12.427558 Z"
           id="path20889"
           style="stroke-width:0.352778" />
      </g>
    </clipPath>
    <clipPath
       clipPathUnits="userSpaceOnUse"
       id="clipPath20893">
      <g
         id="g20897"
         transform="matrix(2.8346458,0,0,-2.8346458,-98.777825,785.4286)">
        <path
           d="m 12.427558,291.66735 h 68.775084 v -21.717 H 12.427558 Z"
           id="path20895"
           style="stroke-width:0.352778" />
      </g>
    </clipPath>
    <clipPath
       clipPathUnits="userSpaceOnUse"
       id="clipPath20899">
      <g
         id="g20903"
         transform="matrix(2.8346458,0,0,-2.8346458,-97.497826,802.619)">
        <path
           d="m 12.427558,291.66735 h 68.775084 v -21.717 H 12.427558 Z"
           id="path20901"
           style="stroke-width:0.352778" />
      </g>
    </clipPath>
    <clipPath
       clipPathUnits="userSpaceOnUse"
       id="clipPath20905">
      <g
         id="g20909"
         transform="matrix(2.8346458,0,0,-2.8346458,-100.84073,790.38999)">
        <path
           d="m 12.427558,291.66735 h 68.775084 v -21.717 H 12.427558 Z"
           id="path20907"
           style="stroke-width:0.352778" />
      </g>
    </clipPath>
    <clipPath
       clipPathUnits="userSpaceOnUse"
       id="clipPath20911">
      <g
         id="g20915"
         transform="matrix(2.8346458,0,0,-2.8346458,-81.024025,800.9336)">
        <path
           d="m 12.427558,291.66735 h 68.775084 v -21.717 H 12.427558 Z"
           id="path20913"
           style="stroke-width:0.352778" />
      </g>
    </clipPath>
    <clipPath
       clipPathUnits="userSpaceOnUse"
       id="clipPath20917">
      <g
         id="g20921"
         transform="matrix(2.8346458,0,0,-2.8346458,-83.597625,788.68751)">
        <path
           d="m 12.427558,291.66735 h 68.775084 v -21.717 H 12.427558 Z"
           id="path20919"
           style="stroke-width:0.352778" />
      </g>
    </clipPath>
    <clipPath
       clipPathUnits="userSpaceOnUse"
       id="clipPath20923">
      <g
         id="g20927"
         transform="matrix(2.8346458,0,0,-2.8346458,-86.928626,788.68561)">
        <path
           d="m 12.427558,291.66735 h 68.775084 v -21.717 H 12.427558 Z"
           id="path20925"
           style="stroke-width:0.352778" />
      </g>
    </clipPath>
    <clipPath
       clipPathUnits="userSpaceOnUse"
       id="clipPath20929">
      <g
         id="g20933"
         transform="matrix(2.8346458,0,0,-2.8346458,-85.241527,788.30659)">
        <path
           d="m 12.427558,291.66735 h 68.775084 v -21.717 H 12.427558 Z"
           id="path20931"
           style="stroke-width:0.352778" />
      </g>
    </clipPath>
    <clipPath
       clipPathUnits="userSpaceOnUse"
       id="clipPath20935">
      <g
         id="g20939"
         transform="matrix(2.8346458,0,0,-2.8346458,-72.421527,788.68561)">
        <path
           d="m 12.427558,291.66735 h 68.775084 v -21.717 H 12.427558 Z"
           id="path20937"
           style="stroke-width:0.352778" />
      </g>
    </clipPath>
    <clipPath
       clipPathUnits="userSpaceOnUse"
       id="clipPath20941">
      <g
         id="g20945"
         transform="matrix(2.8346458,0,0,-2.8346458,-75.753925,788.68751)">
        <path
           d="m 12.427558,291.66735 h 68.775084 v -21.717 H 12.427558 Z"
           id="path20943"
           style="stroke-width:0.352778" />
      </g>
    </clipPath>
    <clipPath
       clipPathUnits="userSpaceOnUse"
       id="clipPath20947">
      <g
         id="g20951"
         transform="matrix(2.8346458,0,0,-2.8346458,-74.109227,788.30659)">
        <path
           d="m 12.427558,291.66735 h 68.775084 v -21.717 H 12.427558 Z"
           id="path20949"
           style="stroke-width:0.352778" />
      </g>
    </clipPath>
    <clipPath
       clipPathUnits="userSpaceOnUse"
       id="clipPath20953">
      <g
         id="g20957"
         transform="matrix(2.8346458,0,0,-2.8346458,-90.487527,771.2999)">
        <path
           d="m 12.427558,291.66735 h 68.775084 v -21.717 H 12.427558 Z"
           id="path20955"
           style="stroke-width:0.352778" />
      </g>
    </clipPath>
    <clipPath
       clipPathUnits="userSpaceOnUse"
       id="clipPath20959">
      <g
         id="g20963"
         transform="matrix(2.8346458,0,0,-2.8346458,-77.101227,768.91801)">
        <path
           d="m 12.427558,291.66735 h 68.775084 v -21.717 H 12.427558 Z"
           id="path20961"
           style="stroke-width:0.352778" />
      </g>
    </clipPath>
    <clipPath
       clipPathUnits="userSpaceOnUse"
       id="clipPath20965">
      <g
         id="g20969"
         transform="matrix(2.8346458,0,0,-2.8346458,-82.888726,772.6092)">
        <path
           d="m 12.427558,291.66735 h 68.775084 v -21.717 H 12.427558 Z"
           id="path20967"
           style="stroke-width:0.352778" />
      </g>
    </clipPath>
    <clipPath
       clipPathUnits="userSpaceOnUse"
       id="clipPath20971">
      <g
         id="g20975"
         transform="matrix(2.8346458,0,0,-2.8346458,-94.289827,778.46569)">
        <path
           d="m 12.427558,291.66735 h 68.775084 v -21.717 H 12.427558 Z"
           id="path20973"
           style="stroke-width:0.352778" />
      </g>
    </clipPath>
    <clipPath
       clipPathUnits="userSpaceOnUse"
       id="clipPath20977">
      <g
         id="g20981"
         transform="matrix(2.8346458,0,0,-2.8346458,-91.152027,775.84979)">
        <path
           d="m 12.427558,291.66735 h 68.775084 v -21.717 H 12.427558 Z"
           id="path20979"
           style="stroke-width:0.352778" />
      </g>
    </clipPath>
    <clipPath
       clipPathUnits="userSpaceOnUse"
       id="clipPath20983">
      <g
         id="g20987"
         transform="matrix(2.8346458,0,0,-2.8346458,-75.156526,772.89309)">
        <path
           d="m 12.427558,291.66735 h 68.775084 v -21.717 H 12.427558 Z"
           id="path20985"
           style="stroke-width:0.352778" />
      </g>
    </clipPath>
    <clipPath
       clipPathUnits="userSpaceOnUse"
       id="clipPath20989">
      <g
         id="g20993"
         transform="matrix(2.8346458,0,0,-2.8346458,-74.100627,773.16759)">
        <path
           d="m 12.427558,291.66735 h 68.775084 v -21.717 H 12.427558 Z"
           id="path20991"
           style="stroke-width:0.352778" />
      </g>
    </clipPath>
    <clipPath
       clipPathUnits="userSpaceOnUse"
       id="clipPath20995">
      <g
         id="g20999"
         transform="matrix(2.8346458,0,0,-2.8346458,-65.436625,775.69131)">
        <path
           d="m 12.427558,291.66735 h 68.775084 v -21.717 H 12.427558 Z"
           id="path20997"
           style="stroke-width:0.352778" />
      </g>
    </clipPath>
    <clipPath
       clipPathUnits="userSpaceOnUse"
       id="clipPath21001">
      <g
         id="g21005"
         transform="matrix(2.8346458,0,0,-2.8346458,-96.705226,781.2251)">
        <path
           d="m 12.427558,291.66735 h 68.775084 v -21.717 H 12.427558 Z"
           id="path21003"
           style="stroke-width:0.352778" />
      </g>
    </clipPath>
    <clipPath
       clipPathUnits="userSpaceOnUse"
       id="clipPath21007">
      <g
         id="g21011"
         transform="matrix(2.8346458,0,0,-2.8346458,-86.228426,773.29719)">
        <path
           d="m 12.427558,291.66735 h 68.775084 v -21.717 H 12.427558 Z"
           id="path21009"
           style="stroke-width:0.352778" />
      </g>
    </clipPath>
    <clipPath
       clipPathUnits="userSpaceOnUse"
       id="clipPath21013">
      <g
         id="g21017"
         transform="matrix(2.8346458,0,0,-2.8346458,-68.235427,773.8169)">
        <path
           d="m 12.427558,291.66735 h 68.775084 v -21.717 H 12.427558 Z"
           id="path21015"
           style="stroke-width:0.352778" />
      </g>
    </clipPath>
    <clipPath
       clipPathUnits="userSpaceOnUse"
       id="clipPath21019">
      <g
         id="g21023"
         transform="matrix(2.8346458,0,0,-2.8346458,-79.658125,773.90191)">
        <path
           d="m 12.427558,291.66735 h 68.775084 v -21.717 H 12.427558 Z"
           id="path21021"
           style="stroke-width:0.352778" />
      </g>
    </clipPath>
    <clipPath
       clipPathUnits="userSpaceOnUse"
       id="clipPath21025">
      <g
         id="g21029"
         transform="matrix(2.8346458,0,0,-2.8346458,-183.86283,793.70131)">
        <path
           d="m 12.427558,291.66735 h 68.775084 v -21.717 H 12.427558 Z"
           id="path21027"
           style="stroke-width:0.352778" />
      </g>
    </clipPath>
    <clipPath
       clipPathUnits="userSpaceOnUse"
       id="clipPath21031">
      <g
         id="g21035"
         transform="matrix(2.8346458,0,0,-2.8346458,-218.57083,775.1104)">
        <path
           d="m 12.427558,291.66735 h 68.775084 v -21.717 H 12.427558 Z"
           id="path21033"
           style="stroke-width:0.352778" />
      </g>
    </clipPath>
    <clipPath
       clipPathUnits="userSpaceOnUse"
       id="clipPath21037">
      <g
         id="g21041"
         transform="matrix(2.8346458,0,0,-2.8346458,-79.677526,810.7927)">
        <path
           d="m 12.427558,291.66735 h 68.775084 v -21.717 H 12.427558 Z"
           id="path21039"
           style="stroke-width:0.352778" />
      </g>
    </clipPath>
    <clipPath
       clipPathUnits="userSpaceOnUse"
       id="clipPath21043">
      <g
         id="g21047"
         transform="matrix(2.8346458,0,0,-2.8346458,-92.834327,788.3558)">
        <path
           d="m 12.427558,291.66735 h 68.775084 v -21.717 H 12.427558 Z"
           id="path21045"
           style="stroke-width:0.352778" />
      </g>
    </clipPath>
    <clipPath
       clipPathUnits="userSpaceOnUse"
       id="clipPath21049">
      <g
         id="g21053"
         transform="matrix(2.8346458,0,0,-2.8346458,-79.753126,765.93361)">
        <path
           d="m 12.427558,291.66735 h 68.775084 v -21.717 H 12.427558 Z"
           id="path21051"
           style="stroke-width:0.352778" />
      </g>
    </clipPath>
  </defs>
  <sodipodi:namedview
     id="base"
     pagecolor="#ffffff"
     bordercolor="#666666"
     borderopacity="1.0"
     inkscape:pageopacity="0.0"
     inkscape:pageshadow="2"
     inkscape:zoom="0.49497475"
     inkscape:cx="65.659915"
     inkscape:cy="323.24881"
     inkscape:document-units="mm"
     inkscape:current-layer="layer1"
     inkscape:document-rotation="0"
     showgrid="false"
     fit-margin-top="0"
     fit-margin-left="0"
     fit-margin-right="0"
     fit-margin-bottom="0"
     inkscape:window-width="1450"
     inkscape:window-height="1020"
     inkscape:window-x="588"
     inkscape:window-y="187"
     inkscape:window-maximized="0"
     inkscape:showpageshadow="2"
     inkscape:pagecheckerboard="0"
     inkscape:deskcolor="#d1d1d1" />
  <metadata
     id="metadata5">
    <rdf:RDF>
      <cc:Work
         rdf:about="">
        <dc:format>image/svg+xml</dc:format>
        <dc:type
           rdf:resource="http://purl.org/dc/dcmitype/StillImage" />
        <dc:title />
      </cc:Work>
    </rdf:RDF>
  </metadata>
  <g
     inkscape:label="Layer 1"
     inkscape:groupmode="layer"
     id="layer1"
     transform="translate(-68.244743,-178.63797)">
    <circle
       style="fill:#f2f2f2;fill-opacity:1;stroke:#a9b0b7;stroke-width:1.61852;stroke-linecap:round;stroke-linejoin:round;stroke-miterlimit:4;stroke-dasharray:none;stroke-dashoffset:0;stroke-opacity:1"
       id="path1155"
       cx="110.49561"
       cy="220.88884"
       r="41.071396"
       inkscape:export-filename="C:\Users\Lenovo P1\Desktop\path1155.png"
       inkscape:export-xdpi="96"
       inkscape:export-ydpi="96" />
    <text
       xml:space="preserve"
       id="text920"
       style="font-size:4.23333px;line-height:1.25;font-family:'Times New Roman';-inkscape-font-specification:'Times New Roman, ';letter-spacing:0px;white-space:pre;shape-inside:url(#rect922)" />
    <text
       xml:space="preserve"
       id="text930"
       style="font-size:4.23333px;line-height:1.25;font-family:'Times New Roman';-inkscape-font-specification:'Times New Roman, ';letter-spacing:0px;white-space:pre;shape-inside:url(#rect932)" />
    <g
       id="g21209"
       transform="matrix(4.340897,0,0,4.340897,-11.633786,-993.1118)">
      <g
         id="g9344"
         transform="matrix(0.35277777,0,0,-0.35277777,28.135129,270.20435)"
         clip-path="url(#clipPath21049)">
        <path
           d="m 0,0 c -14.79,0 -26.822,-12.032 -26.822,-26.821 0,-14.788 12.032,-26.819 26.822,-26.819 14.788,0 26.819,12.031 26.819,26.819 C 26.819,-12.032 14.788,0 0,0"
           style="fill:#bdbcbc;fill-opacity:1;fill-rule:nonzero;stroke:none"
           id="path9346" />
      </g>
      <g
         id="g9348"
         transform="matrix(0.35277777,0,0,-0.35277777,32.749886,278.1144)"
         clip-path="url(#clipPath21043)">
        <path
           d="M 0,0 C 0,0.804 -0.05,1.596 -0.123,2.381 -0.317,2.192 -0.947,1.693 -2.19,1.693 h -7.352 c -3.072,0 -3.615,-1.071 -3.615,-1.071 0,0 -0.542,1.071 -3.614,1.071 h -7.352 c -1.243,0 -1.871,0.499 -2.066,0.688 -0.073,-0.785 -0.124,-1.577 -0.124,-2.381 0,-2.004 0.237,-3.952 0.673,-5.824 H -0.672 C -0.237,-3.952 0,-2.004 0,0"
           style="fill:#c4122e;fill-opacity:1;fill-rule:nonzero;stroke:none"
           id="path9350" />
      </g>
      <g
         id="g9352"
         transform="matrix(0.35277777,0,0,-0.35277777,28.108459,286.02964)"
         clip-path="url(#clipPath21037)">
        <path
           d="M 0,0 C 6.051,3.424 10.582,9.181 12.347,16.036 H -12.346 C -10.58,9.181 -6.049,3.424 0,0"
           style="fill:#c4122e;fill-opacity:1;fill-rule:nonzero;stroke:none"
           id="path9354" />
      </g>
      <g
         id="g9364"
         transform="matrix(0.35277777,0,0,-0.35277777,28.101615,273.01539)"
         clip-path="url(#clipPath21019)">
        <path
           d="m 0,0 c -10.409,0 -18.877,-8.467 -18.877,-18.874 0,-10.407 8.468,-18.875 18.877,-18.875 10.407,0 18.873,8.468 18.873,18.875 C 18.873,-8.467 10.407,0 0,0 m 0.095,6.691 c 14.107,0 25.542,-11.437 25.542,-25.543 0,-14.107 -11.435,-25.543 -25.542,-25.543 -14.107,0 -25.545,11.436 -25.545,25.543 0,14.106 11.438,25.543 25.545,25.543"
           style="fill:#c4122e;fill-opacity:1;fill-rule:nonzero;stroke:none"
           id="path9366" />
      </g>
      <g
         id="g9368"
         transform="matrix(0.35277777,0,0,-0.35277777,24.071941,272.9854)"
         clip-path="url(#clipPath21013)">
        <path
           d="M 0,0 C 0.343,-0.618 0.872,-0.889 1.346,-0.626 1.827,-0.36 1.847,0.249 1.508,0.858 1.192,1.425 0.659,1.762 0.169,1.489 -0.313,1.22 -0.339,0.61 0,0 M 2.245,1.298 C 2.818,0.266 2.544,-0.697 1.623,-1.21 0.698,-1.724 -0.242,-1.327 -0.741,-0.43 -1.263,0.509 -1.05,1.548 -0.128,2.06 0.834,2.596 1.759,2.168 2.245,1.298"
           style="fill:#ffffff;fill-opacity:1;fill-rule:nonzero;stroke:none"
           id="path9370" />
      </g>
      <g
         id="g9372"
         transform="matrix(0.35277777,0,0,-0.35277777,30.419471,272.80206)"
         clip-path="url(#clipPath21007)">
        <path
           d="m 0,0 c -0.156,-0.031 -0.506,-0.029 -0.923,0.079 -1.2,0.31 -1.623,1.22 -1.368,2.208 0.305,1.184 1.317,1.62 2.368,1.349 C 0.484,3.531 0.772,3.374 0.891,3.261 L 0.568,2.687 C 0.43,2.793 0.225,2.911 -0.059,2.985 -0.676,3.144 -1.256,2.893 -1.456,2.121 -1.636,1.426 -1.337,0.883 -0.64,0.704 -0.4,0.641 -0.131,0.621 0.046,0.646 Z"
           style="fill:#ffffff;fill-opacity:1;fill-rule:nonzero;stroke:none"
           id="path9374" />
      </g>
      <g
         id="g9376"
         transform="matrix(0.35277777,0,0,-0.35277777,34.115453,275.59885)"
         clip-path="url(#clipPath21001)">
        <path
           d="M 0,0 C -0.143,0.07 -0.42,0.285 -0.686,0.624 -1.451,1.598 -1.235,2.58 -0.432,3.211 0.53,3.965 1.6,3.697 2.271,2.844 2.529,2.514 2.664,2.214 2.69,2.052 L 2.083,1.791 C 2.039,1.959 1.947,2.178 1.766,2.409 1.372,2.911 0.759,3.063 0.132,2.57 -0.433,2.128 -0.526,1.513 -0.082,0.949 0.072,0.753 0.274,0.573 0.43,0.486 Z"
           style="fill:#ffffff;fill-opacity:1;fill-rule:nonzero;stroke:none"
           id="path9378" />
      </g>
      <g
         id="g9380"
         transform="matrix(0.35277777,0,0,-0.35277777,23.084586,273.64665)"
         clip-path="url(#clipPath20995)">
        <path
           d="m 0,0 -0.667,0.824 c 0.036,0.049 0.116,0.126 0.24,0.227 C -0.108,1.309 0.193,1.3 0.401,1.044 0.63,0.764 0.559,0.427 0.225,0.154 0.128,0.078 0.064,0.032 0,0 m 0.392,-0.483 c 0.069,0.034 0.147,0.09 0.229,0.157 0.372,0.302 0.613,0.655 0.668,1.028 C 1.333,0.991 1.23,1.298 1.008,1.572 0.787,1.844 0.484,1.981 0.188,1.974 -0.119,1.972 -0.456,1.822 -0.845,1.508 -1.229,1.195 -1.482,0.95 -1.649,0.759 L 0.579,-2 c 0.198,0.181 0.402,0.356 0.607,0.529 z"
           style="fill:#ffffff;fill-opacity:1;fill-rule:nonzero;stroke:none"
           id="path9382" />
      </g>
      <g
         id="g9384"
         transform="matrix(0.35277777,0,0,-0.35277777,26.141053,272.75634)"
         clip-path="url(#clipPath20989)">
        <path
           d="M 0,0 -0.241,0.654 -1.584,0.176 -2.573,2.957 C -2.827,2.864 -3.076,2.762 -3.325,2.662 l 1.214,-3.395 C -1.426,-0.451 -0.721,-0.208 0,0"
           style="fill:#ffffff;fill-opacity:1;fill-rule:nonzero;stroke:none"
           id="path9386" />
      </g>
      <g
         id="g9388"
         transform="matrix(0.35277777,0,0,-0.35277777,26.513551,272.6595)"
         clip-path="url(#clipPath20983)">
        <path
           d="M 0,0 C 0.262,0.06 0.525,0.115 0.79,0.166 L 0.485,1.608 1.181,3.884 C 0.893,3.843 0.608,3.794 0.324,3.743 L 0.145,2.792 C 0.093,2.52 0.052,2.3 0.021,2.065 L 0.009,2.063 C -0.122,2.274 -0.24,2.446 -0.402,2.677 L -0.97,3.473 C -1.256,3.406 -1.54,3.333 -1.822,3.256 l 1.521,-1.84 z"
           style="fill:#ffffff;fill-opacity:1;fill-rule:nonzero;stroke:none"
           id="path9390" />
      </g>
      <g
         id="g9392"
         transform="matrix(0.35277777,0,0,-0.35277777,32.156408,273.70256)"
         clip-path="url(#clipPath20977)">
        <path
           d="m 0,0 0.622,0.861 c 0.344,0.474 0.633,0.888 0.895,1.29 L 1.533,2.139 C 1.423,1.698 1.344,1.185 1.29,0.75 L 1.093,-0.798 c 0.228,-0.178 0.452,-0.358 0.672,-0.546 l 2.13,2.923 C 3.706,1.736 3.51,1.886 3.315,2.037 L 2.678,1.173 C 2.358,0.734 2.086,0.334 1.846,-0.076 l -0.008,0.007 c 0.104,0.422 0.2,0.905 0.251,1.336 L 2.254,2.819 C 2.004,2.991 1.754,3.158 1.499,3.32 L -0.628,0.402 C -0.417,0.271 -0.206,0.14 0,0"
           style="fill:#ffffff;fill-opacity:1;fill-rule:nonzero;stroke:none"
           id="path9394" />
      </g>
      <g
         id="g9396"
         transform="matrix(0.35277777,0,0,-0.35277777,33.263354,274.62539)"
         clip-path="url(#clipPath20971)">
        <path
           d="M 0,0 2.514,2.584 C 2.324,2.776 2.128,2.963 1.933,3.147 L -0.58,0.565 C -0.384,0.38 -0.189,0.192 0,0"
           style="fill:#ffffff;fill-opacity:1;fill-rule:nonzero;stroke:none"
           id="path9398" />
      </g>
      <g
         id="g9400"
         transform="matrix(0.35277777,0,0,-0.35277777,29.241299,272.55935)"
         clip-path="url(#clipPath20965)">
        <path
           d="m 0,0 c 0.002,0 0.004,-0.001 0.007,-0.001 l 0.06,0.672 c 0,0 -0.836,0.108 -1.464,0.166 l 0.079,0.832 c 0.344,-0.032 0.877,-0.083 1.315,-0.144 l 0.058,0.661 c -0.463,0.062 -0.954,0.117 -1.311,0.15 l 0.067,0.717 c 0,0 0.766,-0.066 1.395,-0.151 l 0.059,0.696 c -0.737,0.105 -1.47,0.18 -2.198,0.217 L -2.262,0.22 C -1.513,0.187 -0.759,0.118 0,0"
           style="fill:#ffffff;fill-opacity:1;fill-rule:nonzero;stroke:none"
           id="path9402" />
      </g>
      <g
         id="g9404"
         transform="matrix(0.35277777,0,0,-0.35277777,27.199598,271.25718)"
         clip-path="url(#clipPath20959)">
        <path
           d="m 0,0 0.037,-0.729 c 0.326,0.035 0.71,0.067 0.967,0.087 l 0.153,-2.87 c 0.269,0.02 0.538,0.037 0.806,0.046 L 1.81,-0.59 c 0,0 0.438,0.017 0.974,0.014 L 2.75,0.151 C 1.832,0.156 0.915,0.101 0,0"
           style="fill:#ffffff;fill-opacity:1;fill-rule:nonzero;stroke:none"
           id="path9406" />
      </g>
      <g
         id="g9408"
         transform="matrix(0.35277777,0,0,-0.35277777,31.921987,272.09746)"
         clip-path="url(#clipPath20953)">
        <path
           d="m 0,0 -0.603,-1.304 c -0.485,0.241 -0.91,0.436 -1.208,0.569 l 0.602,1.302 c -0.248,0.107 -0.5,0.208 -0.753,0.308 l -1.524,-3.273 c 0.253,-0.096 0.504,-0.196 0.753,-0.301 l 0.64,1.351 c 0.48,-0.209 0.905,-0.414 1.209,-0.566 l -0.64,-1.354 c 0.241,-0.122 0.479,-0.248 0.715,-0.379 l 1.528,3.278 C 0.482,-0.241 0.24,-0.121 0,0"
           style="fill:#ffffff;fill-opacity:1;fill-rule:nonzero;stroke:none"
           id="path9410" />
      </g>
      <g
         id="g9412"
         transform="matrix(0.35277777,0,0,-0.35277777,26.144087,278.09704)"
         clip-path="url(#clipPath20947)">
        <path
           d="M 0,0 C 0.687,0.479 1.365,0.248 1.921,0.066 2.729,-0.197 3.342,0.233 3.342,0.233 L 4.007,-0.332 V -4.856 C 3.611,-5.032 3.246,-5.147 2.461,-4.906 1.779,-4.697 1.168,-4.618 0.671,-4.657 V -4.813 C 0.671,-4.899 0.37,-4.969 0,-4.969 c -0.37,0 -0.671,0.07 -0.671,0.156 v 0.156 c -0.497,0.039 -1.108,-0.04 -1.79,-0.249 -0.785,-0.241 -1.15,-0.126 -1.546,0.05 v 4.524 l 0.665,0.565 c 0,0 0.613,-0.43 1.421,-0.167 C -1.365,0.248 -0.687,0.479 0,0"
           style="fill:#231f20;fill-opacity:1;fill-rule:nonzero;stroke:none"
           id="path9414" />
      </g>
      <g
         id="g9416"
         transform="matrix(0.35277777,0,0,-0.35277777,26.7243,278.23142)"
         clip-path="url(#clipPath20941)">
        <path
           d="m 0,0 c 0.625,-0.219 1.166,-0.117 1.568,0.053 v -3.802 c -0.366,-0.148 -0.67,-0.166 -1.258,0.036 -0.679,0.234 -1.411,0.279 -1.754,0.148 V -0.05 C -1.24,0.123 -0.786,0.276 0,0"
           style="fill:#bdbcbc;fill-opacity:1;fill-rule:nonzero;stroke:none"
           id="path9418" />
      </g>
      <g
         id="g9420"
         transform="matrix(0.35277777,0,0,-0.35277777,25.548704,278.23075)"
         clip-path="url(#clipPath20935)">
        <path
           d="m 0,0 c -0.645,-0.226 -1.201,-0.121 -1.614,0.054 v -3.811 c 0.377,-0.152 0.689,-0.171 1.296,0.038 0.699,0.24 1.451,0.286 1.805,0.152 v 3.515 C 1.277,0.126 0.81,0.283 0,0"
           style="fill:#bdbcbc;fill-opacity:1;fill-rule:nonzero;stroke:none"
           id="path9422" />
      </g>
      <g
         id="g9424"
         transform="matrix(0.35277777,0,0,-0.35277777,30.071315,278.09704)"
         clip-path="url(#clipPath20929)">
        <path
           d="M 0,0 C 0.687,0.479 1.365,0.248 1.921,0.066 2.729,-0.197 3.342,0.233 3.342,0.233 L 4.007,-0.332 V -4.856 C 3.611,-5.032 3.247,-5.147 2.461,-4.906 1.779,-4.697 1.168,-4.618 0.671,-4.657 V -4.813 C 0.671,-4.899 0.37,-4.969 0,-4.969 c -0.37,0 -0.671,0.07 -0.671,0.156 v 0.156 c -0.497,0.039 -1.108,-0.04 -1.79,-0.249 -0.785,-0.241 -1.15,-0.126 -1.546,0.05 v 4.524 l 0.665,0.565 c 0,0 0.613,-0.43 1.421,-0.167 C -1.365,0.248 -0.687,0.479 0,0"
           style="fill:#231f20;fill-opacity:1;fill-rule:nonzero;stroke:none"
           id="path9426" />
      </g>
      <g
         id="g9428"
         transform="matrix(0.35277777,0,0,-0.35277777,30.666486,278.23075)"
         clip-path="url(#clipPath20923)">
        <path
           d="m 0,0 c 0.645,-0.226 1.201,-0.121 1.614,0.054 v -3.811 c -0.376,-0.152 -0.688,-0.171 -1.295,0.038 -0.699,0.24 -1.452,0.286 -1.805,0.152 v 3.515 C -1.276,0.126 -0.809,0.283 0,0"
           style="fill:#bdbcbc;fill-opacity:1;fill-rule:nonzero;stroke:none"
           id="path9430" />
      </g>
      <g
         id="g9432"
         transform="matrix(0.35277777,0,0,-0.35277777,29.491383,278.23142)"
         clip-path="url(#clipPath20917)">
        <path
           d="m 0,0 c -0.626,-0.219 -1.167,-0.117 -1.568,0.053 v -3.802 c 0.365,-0.148 0.67,-0.166 1.258,0.036 0.679,0.234 1.41,0.279 1.753,0.148 V -0.05 C 1.24,0.123 0.786,0.276 0,0"
           style="fill:#bdbcbc;fill-opacity:1;fill-rule:nonzero;stroke:none"
           id="path9434" />
      </g>
      <g
         id="g9436"
         transform="matrix(0.35277777,0,0,-0.35277777,28.583474,282.55157)"
         clip-path="url(#clipPath20911)">
        <path
           d="m 0,0 c 1.041,0.438 1.118,1.493 1.118,1.493 l 0.293,0.188 v 0.181 c -0.292,0.697 -1.02,1.47 -1.665,1.967 -0.427,0.329 -0.435,0.69 -0.392,0.897 L -0.5,4.789 c 0.144,0.062 0.226,0.106 0.354,0.035 C -0.018,4.754 0.017,4.8 0.017,4.8 0.118,4.843 0.114,5.053 0.01,5.27 c -0.106,0.215 -0.271,0.356 -0.373,0.311 0,0 -0.059,0.006 -0.086,-0.133 C -0.475,5.31 -0.565,5.28 -0.708,5.217 L -0.865,5.149 c -0.03,0.019 -0.051,0.03 -0.051,0.03 C -1.25,5.329 -1.321,5.128 -1.321,5.128 -1.655,5.277 -1.718,5.027 -1.718,5.027 -2.077,5.111 -2.096,4.875 -2.096,4.875 -2.589,4.876 -2.505,4.562 -2.463,4.457 L -3.03,4.211 -3.29,4.762 -4.282,4.331 -3.616,2.92 -3.182,2.74 -2.763,2.922 -2.624,3.351 -2.827,3.78 -2.374,3.976 C -2.323,3.835 -2.19,3.674 -1.904,3.656 -1.45,3.627 -1.326,3.733 -0.994,2.964 -0.662,2.195 -0.168,1.912 -0.168,1.912 -0.95,1.992 -1.162,1.363 -1.162,1.363 -2.412,1.417 -2.687,0.491 -2.746,0 h -1.727 c 0.103,-0.203 0.211,-0.399 0.321,-0.588 H 1.482 C 1.594,-0.399 1.701,-0.203 1.805,0 Z"
           style="fill:#ffffff;fill-opacity:1;fill-rule:nonzero;stroke:none"
           id="path9438" />
      </g>
      <g
         id="g9440"
         transform="matrix(0.35277777,0,0,-0.35277777,35.574366,278.83202)"
         clip-path="url(#clipPath20905)">
        <path
           d="m 0,0 c -0.099,-0.218 -0.19,-0.565 -0.167,-0.911 0.021,-0.37 0.189,-0.557 0.422,-0.544 0.223,0.013 0.34,0.192 0.461,0.631 0.176,0.607 0.481,1.021 1.003,1.053 C 2.328,0.266 2.822,-0.221 2.873,-1.06 2.899,-1.468 2.835,-1.767 2.748,-1.985 L 2.09,-1.843 c 0.061,0.142 0.146,0.409 0.123,0.754 -0.02,0.35 -0.195,0.51 -0.376,0.499 C 1.608,-0.604 1.521,-0.808 1.373,-1.285 1.178,-1.931 0.867,-2.243 0.363,-2.273 c -0.599,-0.037 -1.138,0.388 -1.197,1.37 -0.025,0.408 0.061,0.819 0.16,1.027 z"
           style="fill:#ffffff;fill-opacity:1;fill-rule:nonzero;stroke:none"
           id="path9442" />
      </g>
      <g
         id="g9444"
         transform="matrix(0.35277777,0,0,-0.35277777,34.395065,283.14614)"
         clip-path="url(#clipPath20899)">
        <path
           d="m 0,0 c -0.456,-0.816 -0.27,-1.56 0.695,-2.101 l 1.757,-0.976 c 0.145,0.225 0.288,0.454 0.428,0.686 l -1.832,1.02 C 0.491,-1.06 0.347,-0.709 0.554,-0.339 0.755,0.017 1.145,0.073 1.688,-0.23 l 1.826,-1.023 c 0.125,0.24 0.251,0.477 0.368,0.722 L 2.134,0.447 C 1.141,1.002 0.443,0.789 0,0"
           style="fill:#ffffff;fill-opacity:1;fill-rule:nonzero;stroke:none"
           id="path9446" />
      </g>
      <g
         id="g9448"
         transform="matrix(0.35277777,0,0,-0.35277777,34.84662,277.08175)"
         clip-path="url(#clipPath20893)">
        <path
           d="M 0,0 3.336,1.366 C 3.238,1.618 3.14,1.869 3.034,2.116 L -0.304,0.751 C -0.197,0.503 -0.098,0.252 0,0"
           style="fill:#ffffff;fill-opacity:1;fill-rule:nonzero;stroke:none"
           id="path9450" />
      </g>
      <g
         id="g9452"
         transform="matrix(0.35277777,0,0,-0.35277777,35.050984,277.69403)"
         clip-path="url(#clipPath20887)">
        <path
           d="M 0,0 1.039,0.257 C 1.607,0.398 2.095,0.528 2.553,0.668 L 2.558,0.648 C 2.192,0.382 1.799,0.039 1.478,-0.259 L 0.333,-1.328 C 0.392,-1.607 0.444,-1.89 0.492,-2.175 l 3.507,0.864 C 3.954,-1.066 3.91,-0.82 3.858,-0.577 L 2.812,-0.829 C 2.285,-0.959 1.819,-1.089 1.37,-1.249 l -0.002,0.01 c 0.353,0.257 0.738,0.564 1.053,0.862 L 3.55,0.693 C 3.47,0.99 3.388,1.286 3.296,1.578 L -0.216,0.713 C -0.138,0.478 -0.069,0.241 0,0"
           style="fill:#ffffff;fill-opacity:1;fill-rule:nonzero;stroke:none"
           id="path9454" />
      </g>
      <g
         id="g9456"
         transform="matrix(0.35277777,0,0,-0.35277777,35.190014,281.06521)"
         clip-path="url(#clipPath20881)">
        <path
           d="m 0,0 c -0.053,-0.266 -0.112,-0.528 -0.174,-0.789 l 3.523,-0.759 c 0.061,0.261 0.123,0.523 0.175,0.788 z"
           style="fill:#ffffff;fill-opacity:1;fill-rule:nonzero;stroke:none"
           id="path9458" />
      </g>
      <g
         id="g9460"
         transform="matrix(0.35277777,0,0,-0.35277777,35.014049,284.59401)"
         clip-path="url(#clipPath20875)">
        <path
           d="M 0,0 -0.567,0.461 C -0.758,0.195 -0.992,-0.112 -1.149,-0.316 L -3.385,1.489 C -3.549,1.276 -3.718,1.066 -3.891,0.86 l 2.242,-1.811 c 0,0 -0.281,-0.337 -0.642,-0.732 l 0.564,-0.462 C -1.11,-1.466 -0.538,-0.746 0,0"
           style="fill:#ffffff;fill-opacity:1;fill-rule:nonzero;stroke:none"
           id="path9462" />
      </g>
      <g
         id="g9464"
         transform="matrix(0.35277777,0,0,-0.35277777,32.645499,285.26785)"
         clip-path="url(#clipPath20869)">
        <path
           d="M 0,0 C -0.002,-0.001 -0.003,-0.002 -0.005,-0.005 L 0.45,-0.5 c 0,0 0.643,0.544 1.108,0.971 L 2.122,-0.148 C 1.866,-0.383 1.468,-0.742 1.13,-1.026 l 0.45,-0.486 c 0.357,0.301 0.727,0.627 0.993,0.868 l 0.485,-0.533 c 0,0 -0.565,-0.52 -1.052,-0.927 l 0.476,-0.514 c 0.573,0.473 1.122,0.965 1.641,1.479 L 1.685,1.525 C 1.158,0.993 0.597,0.482 0,0"
           style="fill:#ffffff;fill-opacity:1;fill-rule:nonzero;stroke:none"
           id="path9466" />
      </g>
      <g
         id="g9468"
         transform="matrix(0.35277777,0,0,-0.35277777,36.267609,282.00988)"
         clip-path="url(#clipPath20863)">
        <path
           d="M 0,0 -0.688,0.244 C -0.78,-0.071 -0.897,-0.438 -0.976,-0.683 L -3.687,0.27 C -3.773,0.012 -3.859,-0.242 -3.953,-0.493 l 2.717,-0.956 c 0,0 -0.149,-0.413 -0.359,-0.905 l 0.686,-0.247 C -0.554,-1.754 -0.255,-0.883 0,0"
           style="fill:#ffffff;fill-opacity:1;fill-rule:nonzero;stroke:none"
           id="path9470" />
      </g>
      <g
         id="g9472"
         transform="matrix(0.35277777,0,0,-0.35277777,36.589096,279.96211)"
         clip-path="url(#clipPath20857)">
        <path
           d="m 0,0 -0.726,0.066 c -0.013,-0.328 -0.035,-0.713 -0.051,-0.97 l -2.863,0.255 c -0.018,-0.269 -0.04,-0.538 -0.068,-0.805 l 2.869,-0.256 c 0,0 -0.045,-0.435 -0.126,-0.966 l 0.726,-0.068 C -0.105,-1.837 -0.028,-0.92 0,0"
           style="fill:#ffffff;fill-opacity:1;fill-rule:nonzero;stroke:none"
           id="path9474" />
      </g>
      <g
         id="g9476"
         transform="matrix(0.35277777,0,0,-0.35277777,20.986123,280.76546)"
         clip-path="url(#clipPath20851)">
        <path
           d="m 0,0 c 0.099,-0.125 0.256,-0.439 0.349,-0.861 0.27,-1.209 -0.35,-2.002 -1.348,-2.224 -1.195,-0.265 -2.044,0.441 -2.279,1.5 -0.092,0.41 -0.083,0.738 -0.036,0.897 l 0.66,-0.029 c -0.032,-0.171 -0.045,-0.407 0.017,-0.692 0.14,-0.624 0.628,-1.028 1.407,-0.854 0.7,0.155 1.05,0.669 0.894,1.37 -0.055,0.245 -0.159,0.493 -0.262,0.64 z"
           style="fill:#ffffff;fill-opacity:1;fill-rule:nonzero;stroke:none"
           id="path9478" />
      </g>
      <g
         id="g9480"
         transform="matrix(0.35277777,0,0,-0.35277777,20.560673,282.89856)"
         clip-path="url(#clipPath20845)">
        <path
           d="m 0,0 c -0.038,0.048 -0.09,0.147 -0.163,0.329 -0.14,0.346 -0.065,0.617 0.235,0.737 0.29,0.12 0.567,-0.028 0.719,-0.402 L 0.91,0.369 Z M 1.452,0.587 1.363,0.81 C 1.242,1.122 1.294,1.309 1.674,1.573 1.927,1.749 2.117,1.897 2.344,2.093 2.246,2.357 2.154,2.626 2.069,2.896 1.754,2.632 1.466,2.427 1.21,2.233 0.94,2.027 0.774,1.811 0.775,1.541 L 0.76,1.534 C 0.541,1.779 0.127,1.962 -0.291,1.792 -0.597,1.668 -0.789,1.463 -0.865,1.197 -0.957,0.885 -0.891,0.51 -0.691,0.017 c 0.164,-0.402 0.337,-0.746 0.474,-0.971 L 3.069,0.378 C 2.952,0.619 2.844,0.863 2.737,1.11 Z"
           style="fill:#ffffff;fill-opacity:1;fill-rule:nonzero;stroke:none"
           id="path9482" />
      </g>
      <g
         id="g9484"
         transform="matrix(0.35277777,0,0,-0.35277777,20.942731,279.66613)"
         clip-path="url(#clipPath20839)">
        <path
           d="m 0,0 v 0.008 l -0.674,-0.044 c 0,0 0.022,-0.842 0.061,-1.472 l -0.835,-0.049 c -0.023,0.346 -0.052,0.88 -0.059,1.322 l -0.662,-0.044 c 0.011,-0.467 0.03,-0.96 0.052,-1.319 l -0.72,-0.042 c 0,0 -0.05,0.768 -0.061,1.401 l -0.699,-0.048 c 0.009,-0.743 0.047,-1.479 0.121,-2.205 l 3.603,0.223 C 0.046,-1.524 0,-0.768 0,0"
           style="fill:#ffffff;fill-opacity:1;fill-rule:nonzero;stroke:none"
           id="path9486" />
      </g>
      <g
         id="g9488"
         transform="matrix(0.35277777,0,0,-0.35277777,21.717502,284.13501)"
         clip-path="url(#clipPath20833)">
        <path
           d="M 0,0 C 0.596,0.382 0.834,0.927 0.541,1.384 0.245,1.845 -0.363,1.828 -0.95,1.451 -1.497,1.1 -1.798,0.546 -1.497,0.077 -1.197,-0.389 -0.587,-0.377 0,0 M -1.435,2.158 C -0.441,2.795 0.537,2.583 1.106,1.696 1.678,0.804 1.34,-0.158 0.476,-0.713 -0.429,-1.292 -1.478,-1.146 -2.047,-0.258 -2.642,0.669 -2.273,1.62 -1.435,2.158"
           style="fill:#ffffff;fill-opacity:1;fill-rule:nonzero;stroke:none"
           id="path9490" />
      </g>
      <g
         id="g9492"
         transform="matrix(0.35277777,0,0,-0.35277777,20.657793,279.30951)"
         clip-path="url(#clipPath20827)">
        <path
           d="M 0,0 C 0.131,0.201 0.275,0.529 0.309,0.873 0.344,1.243 0.211,1.454 -0.023,1.477 -0.244,1.498 -0.389,1.341 -0.578,0.927 -0.848,0.355 -1.213,-0.004 -1.731,0.046 -2.34,0.105 -2.75,0.663 -2.669,1.5 -2.629,1.907 -2.521,2.19 -2.4,2.392 L -1.773,2.148 C -1.854,2.018 -1.98,1.768 -2.014,1.425 -2.047,1.076 -1.899,0.891 -1.72,0.873 -1.493,0.851 -1.373,1.037 -1.153,1.485 -0.859,2.092 -0.503,2.351 0,2.302 0.597,2.243 1.06,1.74 0.965,0.761 0.926,0.353 0.775,-0.038 0.645,-0.227 Z"
           style="fill:#ffffff;fill-opacity:1;fill-rule:nonzero;stroke:none"
           id="path9494" />
      </g>
      <g
         id="g9496"
         transform="matrix(0.35277777,0,0,-0.35277777,21.500755,275.4014)"
         clip-path="url(#clipPath20821)">
        <path
           d="M 0,0 -0.174,-0.268 -1,0.27 c 0.02,0.058 0.073,0.157 0.179,0.322 0.202,0.312 0.468,0.406 0.74,0.229 C 0.181,0.65 0.22,0.339 0,0 m 0.316,-0.587 0.131,0.201 c 0.187,0.278 0.369,0.344 0.804,0.181 0.323,-0.118 0.57,-0.193 0.814,-0.255 0.16,0.235 0.328,0.466 0.499,0.693 C 2.237,0.318 1.872,0.443 1.529,0.554 1.203,0.658 0.932,0.67 0.709,0.516 L 0.696,0.523 C 0.771,0.845 0.686,1.287 0.307,1.534 0.03,1.714 -0.248,1.755 -0.511,1.665 -0.818,1.562 -1.088,1.293 -1.379,0.847 -1.616,0.482 -1.799,0.143 -1.905,-0.099 L 1.074,-2.03 c 0.132,0.233 0.268,0.464 0.41,0.691 z"
           style="fill:#ffffff;fill-opacity:1;fill-rule:nonzero;stroke:none"
           id="path9498" />
      </g>
      <g
         id="g9500"
         transform="matrix(0.35277777,0,0,-0.35277777,23.16382,284.86142)"
         clip-path="url(#clipPath20815)">
        <path
           d="M 0,0 -1.324,-0.834 C -1.64,-1.027 -1.923,-1.227 -2.256,-1.465 l -0.007,0.008 c 0.261,0.318 0.458,0.596 0.667,0.9 l 0.872,1.286 c -0.201,0.212 -0.398,0.429 -0.588,0.65 l -3.164,-1.844 c 0.172,-0.211 0.35,-0.413 0.53,-0.618 l 1.24,0.822 c 0.36,0.249 0.713,0.489 1.036,0.731 L -1.663,0.463 C -1.909,0.144 -2.14,-0.168 -2.383,-0.519 l -0.896,-1.294 c 0.192,-0.202 0.388,-0.402 0.587,-0.598 l 1.297,0.825 c 0.38,0.25 0.748,0.493 1.065,0.725 l 0.007,-0.007 c -0.216,-0.297 -0.492,-0.676 -0.743,-1.034 l -0.855,-1.232 c 0.206,-0.187 0.417,-0.369 0.631,-0.547 L 0.655,-0.6 C 0.433,-0.405 0.214,-0.205 0,0"
           style="fill:#ffffff;fill-opacity:1;fill-rule:nonzero;stroke:none"
           id="path9502" />
      </g>
      <g
         id="g9504"
         transform="matrix(0.35277777,0,0,-0.35277777,21.731189,276.40114)"
         clip-path="url(#clipPath20809)">
        <path
           d="m 0,0 c 0.002,0.002 0.003,0.003 0.004,0.006 l -0.616,0.271 c 0,0 -0.37,-0.757 -0.626,-1.333 l -0.764,0.341 c 0.141,0.315 0.36,0.804 0.557,1.2 L -2.051,0.751 C -2.259,0.333 -2.467,-0.115 -2.613,-0.443 l -0.659,0.295 c 0,0 0.308,0.703 0.59,1.27 l -0.641,0.28 C -3.658,0.739 -3.964,0.068 -4.232,-0.611 L -0.93,-2.073 C -0.661,-1.374 -0.353,-0.682 0,0"
           style="fill:#ffffff;fill-opacity:1;fill-rule:nonzero;stroke:none"
           id="path9506" />
      </g>
      <g
         id="g9508"
         transform="matrix(0.35277777,0,0,-0.35277777,19.837302,278.00134)"
         clip-path="url(#clipPath20803)">
        <path
           d="M 0,0 0.705,-0.185 C 0.772,0.136 0.858,0.511 0.918,0.762 L 3.697,0.033 c 0.064,0.263 0.13,0.524 0.202,0.783 L 1.113,1.545 c 0,0 0.117,0.423 0.284,0.932 L 0.693,2.666 C 0.409,1.793 0.181,0.903 0,0"
           style="fill:#ffffff;fill-opacity:1;fill-rule:nonzero;stroke:none"
           id="path9510" />
      </g>
      <g
         id="g9512"
         transform="matrix(0.35277777,0,0,-0.35277777,26.379107,286.9511)"
         clip-path="url(#clipPath20797)">
        <path
           d="m 0,0 -0.01,0.002 -0.713,-0.159 0.005,0.621 0.993,0.21 0.648,-0.147 -0.77,-3.371 -0.763,0.175 z"
           style="fill:#ffffff;fill-opacity:1;fill-rule:nonzero;stroke:none"
           id="path9514" />
      </g>
      <g
         id="g9516"
         transform="matrix(0.35277777,0,0,-0.35277777,27.31351,287.17433)"
         clip-path="url(#clipPath20791)">
        <path
           d="M 0,0 C -0.019,-0.233 0.174,-0.398 0.442,-0.509 0.633,-0.471 0.811,-0.316 0.83,-0.105 0.85,0.113 0.747,0.335 0.449,0.362 0.174,0.387 0.019,0.212 0,0 m 0.757,-1.711 c 0.027,0.302 -0.185,0.503 -0.49,0.614 -0.271,-0.051 -0.443,-0.228 -0.464,-0.476 -0.028,-0.25 0.143,-0.499 0.445,-0.526 0.281,-0.025 0.488,0.144 0.509,0.388 m -1.091,0.951 c -0.318,0.205 -0.457,0.5 -0.431,0.802 0.051,0.582 0.611,0.922 1.299,0.862 C 1.34,0.834 1.633,0.338 1.596,-0.082 1.569,-0.378 1.385,-0.655 1.026,-0.795 L 1.024,-0.811 C 1.352,-0.969 1.623,-1.279 1.584,-1.72 1.529,-2.346 0.967,-2.723 0.167,-2.653 c -0.874,0.078 -1.234,0.606 -1.192,1.073 0.036,0.414 0.3,0.677 0.69,0.809 z"
           style="fill:#ffffff;fill-opacity:1;fill-rule:nonzero;stroke:none"
           id="path9518" />
      </g>
      <g
         id="g9520"
         transform="matrix(0.35277777,0,0,-0.35277777,28.86799,287.68738)"
         clip-path="url(#clipPath20785)">
        <path
           d="M 0,0 C -0.021,0.318 -0.209,0.582 -0.555,0.559 -0.773,0.545 -0.944,0.399 -1.007,0.227 -1.031,0.176 -1.037,0.111 -1.031,0.016 -0.99,-0.349 -0.794,-0.666 -0.422,-0.643 -0.14,-0.623 0.023,-0.351 0,0 M 0.326,1.759 C 0.234,1.759 0.139,1.747 0.012,1.728 -0.7,1.622 -0.994,1.234 -1.058,0.829 l 0.016,0.002 c 0.158,0.182 0.396,0.298 0.715,0.32 0.577,0.038 1.094,-0.338 1.142,-1.056 0.046,-0.684 -0.443,-1.282 -1.186,-1.331 -0.925,-0.062 -1.421,0.593 -1.476,1.416 -0.044,0.648 0.159,1.205 0.514,1.581 0.318,0.336 0.759,0.53 1.293,0.593 0.148,0.026 0.249,0.027 0.323,0.027 z"
           style="fill:#ffffff;fill-opacity:1;fill-rule:nonzero;stroke:none"
           id="path9522" />
      </g>
      <g
         id="g9524"
         transform="matrix(0.35277777,0,0,-0.35277777,30.118163,286.88213)"
         clip-path="url(#clipPath20779)">
        <path
           d="m 0,0 -1.309,-0.289 0.041,-0.536 c 0.073,0.026 0.134,0.041 0.217,0.058 0.323,0.072 0.671,0.072 0.943,-0.047 C 0.184,-0.93 0.402,-1.176 0.488,-1.571 0.627,-2.198 0.209,-2.874 -0.7,-3.074 -1.11,-3.166 -1.474,-3.148 -1.682,-3.089 l 0.015,0.624 c 0.161,-0.042 0.488,-0.067 0.795,10e-4 0.327,0.071 0.641,0.304 0.561,0.663 -0.077,0.348 -0.398,0.5 -1.073,0.351 -0.188,-0.041 -0.316,-0.08 -0.445,-0.131 l -0.173,1.819 1.859,0.41 z"
           style="fill:#ffffff;fill-opacity:1;fill-rule:nonzero;stroke:none"
           id="path9526" />
      </g>
      <g
         id="g9528"
         transform="matrix(0.35277777,0,0,-0.35277777,24.695863,286.58999)"
         clip-path="url(#clipPath20773)">
        <path
           d="m 0,0 c 0,-0.392 -0.317,-0.709 -0.709,-0.709 -0.391,0 -0.708,0.317 -0.708,0.709 0,0.39 0.317,0.707 0.708,0.707 C -0.317,0.707 0,0.39 0,0"
           style="fill:#ffffff;fill-opacity:1;fill-rule:nonzero;stroke:none"
           id="path9530" />
      </g>
      <g
         id="g9532"
         transform="matrix(0.35277777,0,0,-0.35277777,31.506944,286.58999)"
         clip-path="url(#clipPath20767)">
        <path
           d="m 0,0 c 0,-0.392 0.317,-0.709 0.708,-0.709 0.391,0 0.709,0.317 0.709,0.709 0,0.39 -0.318,0.707 -0.709,0.707 C 0.317,0.707 0,0.39 0,0"
           style="fill:#ffffff;fill-opacity:1;fill-rule:nonzero;stroke:none"
           id="path9534" />
      </g>
      <g
         id="g9536"
         transform="matrix(0.35277777,0,0,-0.35277777,25.036752,275.5495)"
         clip-path="url(#clipPath20761)">
        <path
           d="m 0,0 -0.645,1.503 c -1.992,-0.421 -3,-2.086 -3,-2.086 0,0 1.26,-0.355 3.645,0.583"
           style="fill:#231f20;fill-opacity:1;fill-rule:nonzero;stroke:none"
           id="path9538" />
      </g>
      <g
         id="g9540"
         transform="matrix(0.35277777,0,0,-0.35277777,24.809352,275.01916)"
         clip-path="url(#clipPath20755)">
        <path
           d="m 0,0 h -3.237 l 0.813,-1.375 C -1.931,-0.868 -1.121,-0.237 0,0"
           style="fill:#ffffff;fill-opacity:1;fill-rule:nonzero;stroke:none"
           id="path9542" />
      </g>
      <g
         id="g9544"
         transform="matrix(0.35277777,0,0,-0.35277777,32.315158,275.50427)"
         clip-path="url(#clipPath20749)">
        <path
           d="M 0,0 0.812,1.375 H -2.425 C -1.303,1.138 -0.494,0.506 0,0"
           style="fill:#ffffff;fill-opacity:1;fill-rule:nonzero;stroke:none"
           id="path9546" />
      </g>
      <g
         id="g9548"
         transform="matrix(0.35277777,0,0,-0.35277777,26.60806,275.65949)"
         clip-path="url(#clipPath20743)">
        <path
           d="M 0,0 C 0,-0.404 1.07,-0.751 2.602,-0.906 V 1.642 C 2.602,0.804 0,0.996 0,0"
           style="fill:#231f20;fill-opacity:1;fill-rule:nonzero;stroke:none"
           id="path9550" />
      </g>
      <g
         id="g9552"
         transform="matrix(0.35277777,0,0,-0.35277777,26.335962,282.99148)"
         clip-path="url(#clipPath20737)">
        <path
           d="M 0,0 C 0.124,0.357 0.101,0.766 -0.066,1.128 -0.348,1.014 -0.569,0.795 -0.703,0.518 -0.566,0.191 -0.421,-0.124 -0.27,-0.418 -0.157,-0.298 -0.058,-0.163 0,0"
           style="fill:#ffffff;fill-opacity:1;fill-rule:nonzero;stroke:none"
           id="path9554" />
      </g>
      <g
         id="g9556"
         transform="matrix(0.35277777,0,0,-0.35277777,26.681755,283.50612)"
         clip-path="url(#clipPath20731)">
        <path
           d="M 0,0 C 0.077,0.406 -0.014,0.842 -0.245,1.204 -0.556,1.013 -0.772,0.699 -0.856,0.327 -0.658,-0.011 -0.462,-0.321 -0.276,-0.592 -0.144,-0.42 -0.041,-0.226 0,0"
           style="fill:#ffffff;fill-opacity:1;fill-rule:nonzero;stroke:none"
           id="path9558" />
      </g>
      <g
         id="g9560"
         transform="matrix(0.35277777,0,0,-0.35277777,26.086372,282.36262)"
         clip-path="url(#clipPath20725)">
        <path
           d="M 0,0 C 0.169,0.334 0.196,0.737 0.074,1.116 -0.214,1.046 -0.458,0.867 -0.629,0.622 -0.545,0.275 -0.443,-0.057 -0.333,-0.383 -0.2,-0.279 -0.08,-0.158 0,0"
           style="fill:#ffffff;fill-opacity:1;fill-rule:nonzero;stroke:none"
           id="path9562" />
      </g>
      <g
         id="g9564"
         transform="matrix(0.35277777,0,0,-0.35277777,25.937994,281.69259)"
         clip-path="url(#clipPath20719)">
        <path
           d="M 0,0 C 0.215,0.3 0.296,0.691 0.227,1.08 -0.043,1.057 -0.282,0.944 -0.475,0.771 -0.465,0.4 -0.438,0.034 -0.387,-0.323 -0.239,-0.242 -0.102,-0.141 0,0"
           style="fill:#ffffff;fill-opacity:1;fill-rule:nonzero;stroke:none"
           id="path9566" />
      </g>
      <g
         id="g9568"
         transform="matrix(0.35277777,0,0,-0.35277777,26.793162,284.11826)"
         clip-path="url(#clipPath20713)">
        <path
           d="m 0,0 c -2.819,3.003 -3.248,6.371 -3.244,8.139 l 0.048,0.047 c 0,10e-4 -10e-4,0.002 -10e-4,0.003 0.221,0.21 0.378,0.487 0.432,0.808 0.071,0.424 -0.032,0.875 -0.281,1.249 C -3.383,10.031 -3.615,9.675 -3.684,9.259 -3.747,8.884 -3.668,8.493 -3.48,8.151 -3.528,7.857 -3.558,7.568 -3.571,7.281 -3.603,7.376 -3.639,7.47 -3.691,7.559 -3.897,7.922 -4.228,8.192 -4.611,8.311 -4.702,7.923 -4.638,7.499 -4.43,7.137 -4.264,6.846 -3.875,6.527 -3.556,6.366 -3.533,6.059 -3.499,5.752 -3.443,5.452 -3.477,5.499 -3.505,5.55 -3.543,5.594 -3.809,5.913 -4.18,6.114 -4.57,6.152 -4.585,5.745 -4.443,5.335 -4.174,5.017 -3.919,4.713 -3.57,4.521 -3.201,4.468 -3.104,4.148 -2.995,3.833 -2.869,3.525 -2.913,3.572 -2.956,3.62 -3.006,3.66 -3.323,3.921 -3.715,4.045 -4.098,4.002 -4.037,3.591 -3.822,3.21 -3.501,2.947 -3.193,2.695 -2.812,2.576 -2.441,2.608 -2.298,2.328 -2.145,2.055 -1.984,1.789 -2.041,1.831 -2.098,1.874 -2.161,1.908 -2.534,2.11 -2.966,2.15 -3.343,2.02 -3.198,1.599 -2.901,1.244 -2.519,1.038 -2.262,0.899 -1.98,0.836 -1.704,0.853 -1.601,0.859 -1.502,0.88 -1.405,0.907 -0.969,0.29 -0.5,-0.28 -0.029,-0.802 -0.055,-0.492 -0.035,-0.218 0,0"
           style="fill:#ffffff;fill-opacity:1;fill-rule:nonzero;stroke:none"
           id="path9570" />
      </g>
      <g
         id="g9572"
         transform="matrix(0.35277777,0,0,-0.35277777,29.88085,282.99148)"
         clip-path="url(#clipPath20707)">
        <path
           d="M 0,0 C -0.124,0.357 -0.1,0.766 0.066,1.128 0.348,1.014 0.569,0.795 0.704,0.518 0.566,0.191 0.421,-0.124 0.27,-0.418 0.158,-0.298 0.058,-0.163 0,0"
           style="fill:#ffffff;fill-opacity:1;fill-rule:nonzero;stroke:none"
           id="path9574" />
      </g>
      <g
         id="g9576"
         transform="matrix(0.35277777,0,0,-0.35277777,29.535057,283.50612)"
         clip-path="url(#clipPath20701)">
        <path
           d="M 0,0 C -0.076,0.406 0.013,0.842 0.246,1.204 0.556,1.013 0.772,0.699 0.857,0.327 0.658,-0.011 0.462,-0.321 0.276,-0.592 0.144,-0.42 0.041,-0.226 0,0"
           style="fill:#ffffff;fill-opacity:1;fill-rule:nonzero;stroke:none"
           id="path9578" />
      </g>
      <g
         id="g9580"
         transform="matrix(0.35277777,0,0,-0.35277777,30.130546,282.36262)"
         clip-path="url(#clipPath20695)">
        <path
           d="M 0,0 C -0.169,0.334 -0.196,0.737 -0.075,1.116 0.214,1.046 0.457,0.867 0.629,0.622 0.545,0.275 0.443,-0.057 0.332,-0.383 0.2,-0.279 0.08,-0.158 0,0"
           style="fill:#ffffff;fill-opacity:1;fill-rule:nonzero;stroke:none"
           id="path9582" />
      </g>
      <g
         id="g9584"
         transform="matrix(0.35277777,0,0,-0.35277777,30.278924,281.69259)"
         clip-path="url(#clipPath20689)">
        <path
           d="M 0,0 C -0.214,0.3 -0.296,0.691 -0.227,1.08 0.043,1.057 0.282,0.944 0.475,0.771 0.465,0.4 0.437,0.034 0.386,-0.323 0.239,-0.242 0.102,-0.141 0,0"
           style="fill:#ffffff;fill-opacity:1;fill-rule:nonzero;stroke:none"
           id="path9586" />
      </g>
      <g
         id="g9588"
         transform="matrix(0.35277777,0,0,-0.35277777,29.42365,284.11826)"
         clip-path="url(#clipPath20683)">
        <path
           d="M 0,0 C 2.82,3.003 3.249,6.371 3.244,8.139 L 3.196,8.186 c 0,10e-4 10e-4,0.002 10e-4,0.003 C 2.976,8.399 2.82,8.676 2.765,8.997 2.694,9.421 2.797,9.872 3.046,10.246 3.384,10.031 3.615,9.675 3.684,9.259 3.747,8.884 3.669,8.493 3.48,8.151 3.528,7.857 3.559,7.568 3.571,7.281 3.603,7.376 3.64,7.47 3.691,7.559 3.897,7.922 4.229,8.192 4.611,8.311 4.702,7.923 4.638,7.499 4.431,7.137 4.264,6.846 3.876,6.527 3.556,6.366 3.533,6.059 3.499,5.752 3.444,5.452 3.477,5.499 3.505,5.55 3.543,5.594 3.81,5.913 4.18,6.114 4.57,6.152 4.585,5.745 4.443,5.335 4.175,5.017 3.92,4.713 3.57,4.521 3.201,4.468 3.105,4.148 2.996,3.833 2.869,3.525 2.913,3.572 2.957,3.62 3.006,3.66 3.324,3.921 3.716,4.045 4.098,4.002 4.037,3.591 3.823,3.21 3.501,2.947 3.193,2.695 2.812,2.576 2.442,2.608 2.298,2.328 2.146,2.055 1.984,1.789 2.041,1.831 2.098,1.874 2.161,1.908 2.534,2.11 2.966,2.15 3.343,2.02 3.198,1.599 2.902,1.244 2.519,1.038 2.262,0.899 1.981,0.836 1.704,0.853 1.602,0.859 1.502,0.88 1.405,0.907 0.97,0.29 0.5,-0.28 0.028,-0.802 0.055,-0.492 0.035,-0.218 0,0"
           style="fill:#ffffff;fill-opacity:1;fill-rule:nonzero;stroke:none"
           id="path9590" />
      </g>
      <g
         id="g9592"
         transform="matrix(0.35277777,0,0,-0.35277777,29.125694,283.29699)"
         clip-path="url(#clipPath20677)">
        <path
           d="m 0,0 c -0.398,0.433 -0.932,0.672 -1.502,0.672 -0.509,0 -0.99,-0.19 -1.37,-0.539 -0.806,0.739 -2.119,0.687 -2.871,-0.132 -0.429,-0.465 -0.645,-1.108 -0.59,-1.767 0.003,-0.037 0.007,-0.059 0.007,-0.056 0.003,-0.032 0.008,-0.064 0.015,-0.103 0.013,-0.085 0.034,-0.184 0.076,-0.339 0.011,-0.041 0.023,-0.081 0.036,-0.118 0.125,-0.359 0.282,-0.694 0.484,-1.026 0.54,-0.868 1.388,-1.7 2.521,-2.473 l 0.322,-0.221 0.323,0.221 c 0.458,0.312 0.876,0.64 1.263,0.995 0.789,0.794 1.377,1.439 1.746,2.515 l 0.018,0.06 c 0.059,0.2 0.099,0.397 0.116,0.584 C 0.637,-1.086 0.421,-0.456 0,0"
           style="fill:#231f20;fill-opacity:1;fill-rule:nonzero;stroke:none"
           id="path9594" />
      </g>
      <g
         id="g9596"
         transform="matrix(0.35277777,0,0,-0.35277777,27.126643,283.92246)"
         clip-path="url(#clipPath20671)">
        <path
           d="m 0,0 c 0.011,-0.067 0.026,-0.144 0.05,-0.23 0.012,-0.041 0.022,-0.082 0.036,-0.121 0.114,-0.331 0.255,-0.62 0.417,-0.886 0.395,-0.635 1.086,-1.416 2.292,-2.239 0.451,0.308 0.829,0.609 1.147,0.901 0.679,0.682 1.235,1.27 1.565,2.232 0.004,0.013 0.008,0.025 0.011,0.037 C 5.575,-0.114 5.6,0.037 5.609,0.141 5.64,0.594 5.497,1.059 5.177,1.406 4.597,2.038 3.656,2.038 3.075,1.406 2.954,1.275 2.866,1.125 2.795,0.967 2.724,1.125 2.635,1.275 2.514,1.406 1.934,2.038 0.993,2.038 0.413,1.406 0.088,1.055 -0.054,0.577 -0.016,0.116 -0.015,0.097 -0.012,0.079 -0.009,0.058 -0.007,0.039 -0.003,0.019 0,0"
           style="fill:#bdbcbc;fill-opacity:1;fill-rule:nonzero;stroke:none"
           id="path9598" />
      </g>
      <g
         id="g9600"
         transform="matrix(0.35277777,0,0,-0.35277777,31.232694,275.5495)"
         clip-path="url(#clipPath20665)">
        <path
           d="m 0,0 0.645,1.503 c 1.992,-0.421 3,-2.086 3,-2.086 0,0 -1.26,-0.355 -3.645,0.583"
           style="fill:#231f20;fill-opacity:1;fill-rule:nonzero;stroke:none"
           id="path9602" />
      </g>
      <g
         id="g9604"
         transform="matrix(0.35277777,0,0,-0.35277777,29.661422,275.65949)"
         clip-path="url(#clipPath20659)">
        <path
           d="M 0,0 C 0,-0.404 -1.069,-0.751 -2.602,-0.906 V 1.642 C -2.602,0.804 0,0.996 0,0"
           style="fill:#231f20;fill-opacity:1;fill-rule:nonzero;stroke:none"
           id="path9606" />
      </g>
      <g
         id="g9608"
         transform="matrix(0.35277777,0,0,-0.35277777,30.689064,276.5698)"
         clip-path="url(#clipPath20653)">
        <path
           d="m 0,0 c 0,0 1.265,-0.641 2.803,-0.783 l 2.382,3.092 c 0,0 -1.811,-0.519 -5.215,1.315 -3.516,1.895 -5.486,1.435 -5.486,0.598 0,-0.838 2.602,-0.645 2.602,-1.642 0,-0.543 -1.932,-0.984 -4.327,-0.992 -2.395,0.008 -4.327,0.449 -4.327,0.992 0,0.997 2.602,0.804 2.602,1.642 0,0.837 -1.97,1.297 -5.485,-0.598 -3.405,-1.834 -5.216,-1.315 -5.216,-1.315 l 2.382,-3.091 c 0.662,0.044 1.599,0.238 2.834,0.795 1.124,0.607 2.089,0.97 2.883,1.159 v -1.85 c 0,-0.548 1.964,-0.992 4.387,-0.992 2.422,0 4.268,0.444 4.268,0.992 v 1.82 C -2.141,0.946 -1.099,0.59 -0.03,0.013"
           style="fill:#ffffff;fill-opacity:1;fill-rule:nonzero;stroke:none"
           id="path9610" />
      </g>
      <g
         id="g9612"
         transform="matrix(0.35277777,0,0,-0.35277777,24.787868,275.91822)"
         clip-path="url(#clipPath20647)">
        <path
           d="m 0,0 0.348,0.075 v -1.401 l 0.457,0.099 V -1.504 L 0,-1.677 Z"
           style="fill:#231f20;fill-opacity:1;fill-rule:nonzero;stroke:none"
           id="path9614" />
      </g>
      <g
         id="g9616"
         transform="matrix(0.35277777,0,0,-0.35277777,25.401983,276.08021)"
         clip-path="url(#clipPath20641)">
        <path
           d="m 0,0 -0.394,-0.133 v -0.453 l 0.445,0.15 V -0.719 L -0.731,-0.983 V 0.694 L 0.023,0.948 V 0.665 L -0.394,0.524 V 0.138 L 0,0.271 Z"
           style="fill:#231f20;fill-opacity:1;fill-rule:nonzero;stroke:none"
           id="path9618" />
      </g>
      <g
         id="g9620"
         transform="matrix(0.35277777,0,0,-0.35277777,25.611674,275.65339)"
         clip-path="url(#clipPath20635)">
        <path
           d="m 0,0 v -0.672 l 0.336,0.16 V 0.16 L 0.658,0.312 V -1.365 L 0.336,-1.518 v 0.702 L 0,-0.975 V -1.677 L -0.322,-1.83 v 1.678 z"
           style="fill:#231f20;fill-opacity:1;fill-rule:nonzero;stroke:none"
           id="path9622" />
      </g>
      <g
         id="g9624"
         transform="matrix(0.35277777,0,0,-0.35277777,26.060478,275.71428)"
         clip-path="url(#clipPath20629)">
        <path
           d="M 0,0 0.06,0.025 C 0.203,0.086 0.283,0.234 0.283,0.381 0.283,0.525 0.225,0.6 0.08,0.544 0.05,0.531 0.018,0.515 0,0.5 Z m -0.328,0.594 c 0.103,0.063 0.233,0.13 0.358,0.183 0.181,0.076 0.343,0.117 0.451,0.065 0.103,-0.049 0.135,-0.147 0.135,-0.291 0,-0.18 -0.09,-0.379 -0.26,-0.528 V 0.018 C 0.471,0.019 0.529,-0.061 0.561,-0.229 0.594,-0.402 0.639,-0.59 0.669,-0.639 L 0.326,-0.784 C 0.303,-0.746 0.266,-0.592 0.24,-0.416 0.211,-0.222 0.158,-0.185 0.05,-0.23 L 0,-0.251 v -0.67 l -0.328,-0.138 z"
           style="fill:#231f20;fill-opacity:1;fill-rule:nonzero;stroke:none"
           id="path9626" />
      </g>
      <g
         id="g9628"
         transform="matrix(0.35277777,0,0,-0.35277777,29.848359,275.28371)"
         clip-path="url(#clipPath20623)">
        <path
           d="M 0,0 0.333,-0.127 V -0.881 L 0.34,-0.884 c 0.028,0.059 0.054,0.124 0.081,0.185 L 0.65,-0.248 1.018,-0.389 0.632,-0.971 1.023,-2.068 0.658,-1.928 0.409,-1.139 0.333,-1.247 V -1.804 L 0,-1.677 Z"
           style="fill:#231f20;fill-opacity:1;fill-rule:nonzero;stroke:none"
           id="path9630" />
      </g>
      <g
         id="g9632"
         transform="matrix(0.35277777,0,0,-0.35277777,30.366978,275.49531)"
         clip-path="url(#clipPath20617)">
        <path
           d="m 0,0 v -1.09 c 0,-0.246 0.072,-0.354 0.158,-0.393 0.094,-0.043 0.161,-0.007 0.161,0.247 v 1.09 l 0.324,-0.148 v -1.033 c 0,-0.43 -0.164,-0.59 -0.482,-0.444 -0.349,0.16 -0.485,0.463 -0.485,0.884 v 1.035 z"
           style="fill:#231f20;fill-opacity:1;fill-rule:nonzero;stroke:none"
           id="path9634" />
      </g>
      <g
         id="g9636"
         transform="matrix(0.35277777,0,0,-0.35277777,30.689134,276.24256)"
         clip-path="url(#clipPath20611)">
        <path
           d="M 0,0 V 1.677 L 0.302,1.554 0.563,0.79 C 0.616,0.639 0.696,0.389 0.744,0.225 L 0.749,0.223 C 0.739,0.404 0.716,0.705 0.716,1.013 V 1.384 L 1.005,1.265 V -0.412 L 0.704,-0.288 0.445,0.455 C 0.387,0.62 0.312,0.865 0.272,1.031 L 0.266,1.033 C 0.276,0.86 0.289,0.596 0.289,0.257 v -0.376 z"
           style="fill:#231f20;fill-opacity:1;fill-rule:nonzero;stroke:none"
           id="path9638" />
      </g>
      <g
         id="g9640"
         transform="matrix(0.35277777,0,0,-0.35277777,31.120123,276.29294)"
         clip-path="url(#clipPath20605)">
        <path
           d="m 0,0 c 0.071,-0.056 0.194,-0.117 0.291,-0.143 0.16,-0.044 0.242,0.014 0.242,0.124 0,0.122 -0.079,0.203 -0.229,0.335 -0.241,0.205 -0.333,0.406 -0.333,0.558 0,0.269 0.189,0.442 0.556,0.342 C 0.645,1.184 0.756,1.125 0.806,1.082 L 0.75,0.815 C 0.701,0.859 0.624,0.906 0.527,0.933 0.38,0.972 0.31,0.907 0.31,0.817 c 0,-0.099 0.052,-0.166 0.241,-0.326 0.236,-0.198 0.32,-0.39 0.32,-0.567 0,-0.306 -0.239,-0.443 -0.582,-0.35 -0.142,0.038 -0.278,0.11 -0.339,0.158 z"
           style="fill:#231f20;fill-opacity:1;fill-rule:nonzero;stroke:none"
           id="path9642" />
      </g>
      <g
         id="g9644"
         transform="matrix(0.35277777,0,0,-0.35277777,31.572666,276.03347)"
         clip-path="url(#clipPath20599)">
        <path
           d="M 0,0 -0.319,0.051 V 0.352 L 0.673,0.193 V -0.108 L 0.351,-0.056 V -1.433 L 0,-1.376 Z"
           style="fill:#231f20;fill-opacity:1;fill-rule:nonzero;stroke:none"
           id="path9646" />
      </g>
      <g
         id="g9648"
         transform="matrix(0.35277777,0,0,-0.35277777,27.526517,276.26849)"
         clip-path="url(#clipPath20593)">
        <path
           d="m 0,0 v -1.086 c 0,-0.245 0.087,-0.326 0.192,-0.334 0.115,-0.01 0.196,0.051 0.196,0.304 v 1.086 l 0.394,-0.031 v -1.028 c 0,-0.43 -0.199,-0.647 -0.587,-0.617 -0.423,0.033 -0.589,0.287 -0.589,0.705 v 1.032 z"
           style="fill:#231f20;fill-opacity:1;fill-rule:nonzero;stroke:none"
           id="path9650" />
      </g>
      <g
         id="g9652"
         transform="matrix(0.35277777,0,0,-0.35277777,27.921699,276.88374)"
         clip-path="url(#clipPath20587)">
        <path
           d="M 0,0 V 1.671 L 0.363,1.67 0.677,1.015 C 0.74,0.885 0.837,0.67 0.894,0.526 H 0.9 C 0.889,0.702 0.861,0.992 0.861,1.299 v 0.37 L 1.209,1.668 V -0.003 L 0.846,-0.002 0.535,0.633 C 0.465,0.775 0.374,0.989 0.326,1.137 H 0.321 C 0.332,0.968 0.347,0.711 0.347,0.373 v -0.374 z"
           style="fill:#231f20;fill-opacity:1;fill-rule:nonzero;stroke:none"
           id="path9654" />
      </g>
      <g
         id="g9656"
         transform="matrix(0.35277777,0,0,-0.35277777,28.613355,276.77938)"
         clip-path="url(#clipPath20581)">
        <path
           d="m 0,0 c 0.021,-0.004 0.049,-0.001 0.069,0 0.19,0.014 0.356,0.18 0.356,0.641 0,0.343 -0.109,0.543 -0.347,0.525 C 0.052,1.164 0.025,1.162 0,1.153 Z m -0.395,1.359 c 0.1,0.027 0.245,0.05 0.401,0.062 C 0.262,1.44 0.44,1.404 0.57,1.315 0.744,1.199 0.834,0.985 0.834,0.66 0.834,0.323 0.729,0.075 0.551,-0.067 0.413,-0.184 0.214,-0.254 -0.066,-0.275 -0.193,-0.285 -0.317,-0.285 -0.395,-0.28 Z"
           style="fill:#231f20;fill-opacity:1;fill-rule:nonzero;stroke:none"
           id="path9658" />
      </g>
    </g>
  </g>
</svg>
