<?xml version="1.0" encoding="UTF-8" standalone="no"?>
<svg
   xmlns:dc="http://purl.org/dc/elements/1.1/"
   xmlns:cc="http://creativecommons.org/ns#"
   xmlns:rdf="http://www.w3.org/1999/02/22-rdf-syntax-ns#"
   xmlns:svg="http://www.w3.org/2000/svg"
   xmlns="http://www.w3.org/2000/svg"
   xmlns:sodipodi="http://sodipodi.sourceforge.net/DTD/sodipodi-0.dtd"
   xmlns:inkscape="http://www.inkscape.org/namespaces/inkscape"
   width="316.57819"
   height="316.57819"
   viewBox="0 0 316.57863 316.57818"
   version="1.1"
   id="svg6"
   sodipodi:docname="yandex_logo.svg"
   inkscape:version="1.0.2-2 (e86c870879, 2021-01-15)">
  <metadata
     id="metadata12">
    <rdf:RDF>
      <cc:Work
         rdf:about="">
        <dc:format>image/svg+xml</dc:format>
        <dc:type
           rdf:resource="http://purl.org/dc/dcmitype/StillImage" />
        <dc:title></dc:title>
      </cc:Work>
    </rdf:RDF>
  </metadata>
  <defs
     id="defs10" />
  <sodipodi:namedview
     pagecolor="#ffffff"
     bordercolor="#666666"
     borderopacity="1"
     objecttolerance="10"
     gridtolerance="10"
     guidetolerance="10"
     inkscape:pageopacity="0"
     inkscape:pageshadow="2"
     inkscape:window-width="3200"
     inkscape:window-height="1721"
     id="namedview8"
     showgrid="false"
     fit-margin-top="0"
     fit-margin-left="0"
     fit-margin-right="0"
     fit-margin-bottom="0"
     inkscape:zoom="2.2374571"
     inkscape:cx="392.71926"
     inkscape:cy="117.52487"
     inkscape:window-x="-9"
     inkscape:window-y="-9"
     inkscape:window-maximized="1"
     inkscape:current-layer="svg6" />
  <g
     id="g869"
     transform="translate(427.54848,145.20111)">
    <circle
       style="fill:#f2f2f2;fill-opacity:1;stroke:#a9b0b7;stroke-width:6.11725;stroke-linecap:round;stroke-linejoin:round;stroke-miterlimit:4;stroke-dasharray:none;stroke-dashoffset:0;stroke-opacity:1"
       id="path1155"
       cx="-269.25916"
       cy="13.088181"
       r="155.2307"
       inkscape:export-filename="C:\Users\Lenovo P1\Desktop\path1155.png"
       inkscape:export-xdpi="96"
       inkscape:export-ydpi="96" />
    <g
       id="g863"
       transform="matrix(1.4985263,0,0,1.4985263,-320.80096,-13.465705)">
      <path
         fill="#ff0000"
         d="M -27.585274,46.946854 V 28.028422 l 13.893961,-40.077825 h -5.897267 l -10.850971,32.010364 -9.412038,-26.4669329 h -6.439815 L -33.50613,27.816121 v 19.130733 z"
         id="path2"
         style="stroke-width:2.35891" />
      <path
         d="m -2.0147251,39.563476 c -1.061508,1.627646 -3.0665787,2.972223 -5.0952384,2.972223 -2.9958115,0 -4.4111555,-2.830688 -4.4111555,-7.171077 0,-4.859348 1.5804674,-8.067461 8.822311,-8.067461 h 0.6840829 z M 3.7410073,38.431201 V 20.715812 c 0,-9.128969 -3.67989445,-11.9596575 -10.3320114,-11.9596575 -3.7978399,0 -7.2418439,1.5568785 -8.9638459,2.9722225 l 1.108687,5.166006 c 1.957892,-1.722002 4.5055114,-3.278881 7.4777339,-3.278881 3.3024694,0 4.953704,2.075838 4.953704,7.029542 v 2.240962 h -0.8256173 c -10.5443126,0 -14.6723996,5.071649 -14.6723996,13.162699 0,7.406967 3.679894,11.440698 9.0582016,11.440698 3.3024694,0 5.3783073,-1.438933 7.029542,-3.514771 h 0.3774251 c 0.0707672,0.967151 0.30665787,2.170194 0.51895947,2.972222 H 4.4015012 C 4.1184324,45.154085 3.7410073,42.016739 3.7410073,38.431201 Z M 16.83294,17.72 c 1.344576,-1.863536 3.420414,-3.727073 5.897266,-3.727073 2.240962,0 3.514771,0.967152 3.514771,3.79784 v 29.156087 h 5.897267 V 17.271808 c 0,-5.755733 -2.618386,-8.5156535 -7.548501,-8.5156535 -3.514771,0 -6.345459,2.3117285 -7.406967,3.7270725 H 16.83294 V 9.2043468 H 10.982851 V 46.946854 h 5.850089 z m 32.505734,29.769403 c 3.066579,0 5.166006,-1.438933 6.81724,-3.514771 h 0.377425 l 0.448193,2.972222 H 61.32192 V -6.5059719 H 55.471831 V 10.171499 C 54.363145,9.3458812 52.499609,8.7561545 50.70684,8.7561545 c -7.572091,0 -12.808864,6.7936515 -12.808864,20.7819685 0,11.652999 4.05732,17.95128 11.440698,17.95128 z m 6.133157,-7.85516 c -0.967151,1.486112 -2.52403,2.901456 -5.449074,2.901456 -4.269621,0 -5.897267,-5.378308 -5.897267,-14.200619 0,-7.690036 2.240962,-14.790345 6.935186,-14.790345 1.957892,0 3.231702,0.589727 4.411155,1.792769 z m 33.284174,4.788581 -1.344577,-4.481923 c -1.486111,1.037919 -3.892196,2.52403 -7.171076,2.52403 -4.647046,0 -7.029542,-4.481922 -7.029542,-12.997576 h 15.68673 v -3.231702 c 0,-12.785274 -4.104498,-17.4794985 -10.37919,-17.4794985 -7.996694,0 -11.36993,8.8223115 -11.36993,20.9235025 0,11.605821 4.78858,17.809746 12.549383,17.809746 3.750662,0 6.675706,-1.203043 9.058202,-3.066579 z M 78.51835,13.544735 c 3.349648,0 4.411156,4.694224 4.411156,11.13404 h -9.647929 c 0.377425,-6.722884 1.651235,-11.13404 5.236773,-11.13404 z m 30.05247,-4.269621 -5.166,13.681659 -4.859352,-13.681659 h -6.038801 l 7.100309,18.163582 -7.855159,19.508158 h 5.755732 l 5.684961,-15.545195 5.8265,15.545195 h 6.06239 l -7.85516,-20.027118 7.02955,-17.644622 z"
         id="path4"
         style="stroke-width:2.35891" />
    </g>
  </g>
</svg>
