<?xml version="1.0" encoding="UTF-8" standalone="no"?>
<svg
   width="16.713861"
   height="16.713644"
   viewBox="0 0 4.4225263 4.4226246"
   version="1.1"
   id="svg76"
   sodipodi:docname="ieee-xplore.svg"
   inkscape:version="1.1.2 (b8e25be833, 2022-02-05)"
   xmlns:inkscape="http://www.inkscape.org/namespaces/inkscape"
   xmlns:sodipodi="http://sodipodi.sourceforge.net/DTD/sodipodi-0.dtd"
   xmlns="http://www.w3.org/2000/svg"
   xmlns:svg="http://www.w3.org/2000/svg">
  <defs
     id="defs80" />
  <sodipodi:namedview
     id="namedview78"
     pagecolor="#ffffff"
     bordercolor="#666666"
     borderopacity="1.0"
     inkscape:pageshadow="2"
     inkscape:pageopacity="0.0"
     inkscape:pagecheckerboard="0"
     showgrid="false"
     inkscape:zoom="2.8284271"
     inkscape:cx="-11.490485"
     inkscape:cy="13.965359"
     inkscape:window-width="1920"
     inkscape:window-height="991"
     inkscape:window-x="-9"
     inkscape:window-y="-9"
     inkscape:window-maximized="1"
     inkscape:current-layer="svg76" />
  <path
     id="path4565"
     style="fill:#000000;fill-opacity:1;stroke-width:3.98706;stroke-linecap:round;stroke-linejoin:round;stroke-dasharray:11.9613, 11.9613;stop-color:#000000"
     d="M 2.2127111,0 A 2.2112667,2.2112667 0 0 0 2.0416423,0.00671875 2.2112667,2.2112667 0 0 0 0.00175579,2.323621 2.2112667,2.2112667 0 0 0 2.266459,4.4219084 2.2112667,2.2112667 0 0 0 4.4215964,2.2114711 L 4.4102181,1.9871714 A 2.2112667,2.2112667 0 0 0 2.2127032,1.0584465e-7 Z m 0.094059,0.33903365 0.4258606,1.17473095 -0.2930362,0.00362 0.036178,1.0424251 c -0.00603,0.00106 -0.012172,0.00165 -0.018099,0.00259 -0.00593,9.341e-4 -0.011749,0.00177 -0.01757,0.00259 -0.011643,0.00162 -0.022915,0.00297 -0.034111,0.00413 -0.011193,0.00116 -0.02236,0.00234 -0.033076,0.0031 -0.01069,7.568e-4 -0.020851,0.00115 -0.031007,0.00155 -0.010161,3.996e-4 -0.020402,9.42e-4 -0.029975,0.00103 -0.00958,9.14e-5 -0.018973,1.662e-4 -0.027909,0 -0.00894,-1.661e-4 -0.01757,-6.588e-4 -0.025853,-0.00103 -0.00826,-3.731e-4 -0.015718,-0.00102 -0.023259,-0.00155 -0.00754,-5.319e-4 -0.01495,-9.103e-4 -0.021698,-0.00155 -0.00675,-6.404e-4 -0.013178,-0.00137 -0.019131,-0.00207 -0.00593,-6.985e-4 -0.011484,-0.00136 -0.016538,-0.00207 -0.00505,-7.065e-4 -0.00929,-0.0014 -0.013442,-0.00207 -0.00828,-0.00133 -0.014792,-0.00275 -0.019132,-0.00362 -0.00434,-8.652e-4 -0.00672,-0.00103 -0.00672,-0.00103 L 2.1744245,1.5173855 1.8813883,1.5137677 Z M 1.503634,1.7266942 1.8530034,1.9520276 c 0,0 -0.042584,0.00901 -0.1049133,0.026875 -0.031166,0.00893 -0.067177,0.020194 -0.1054318,0.033593 -0.038255,0.013399 -0.078666,0.028645 -0.1183529,0.046514 -0.019846,0.00893 -0.03926,0.01889 -0.0584,0.028942 -0.019132,0.010052 -0.038091,0.020356 -0.055817,0.031526 -0.017729,0.01117 -0.034524,0.022856 -0.050131,0.035144 -0.015612,0.012288 -0.0296,0.025356 -0.04238,0.038761 -0.012781,0.013406 -0.024344,0.027338 -0.033592,0.041862 -0.00463,0.00726 -0.00879,0.014682 -0.01241,0.022223 -0.0036,0.00754 -0.00627,0.014918 -0.00879,0.02274 -0.00238,0.00782 -0.00437,0.016189 -0.00569,0.024291 -0.00132,0.0081 -0.00212,0.01591 -0.00212,0.024291 -2.38e-5,0.00838 2.091e-4,0.01718 0.00159,0.025841 0.00132,0.00866 0.00341,0.017417 0.00619,0.026358 0,0 0.00159,0.00513 0.00569,0.013954 0.00413,0.00882 0.011008,0.021568 0.02273,0.036694 0.00587,0.00756 0.012781,0.015625 0.021195,0.024291 0.00841,0.00867 0.018576,0.017938 0.029975,0.027391 0.011405,0.00945 0.02445,0.019015 0.039279,0.028942 0.014818,0.00993 0.031449,0.019892 0.050131,0.029975 0.018682,0.010084 0.039046,0.020049 0.06202,0.029976 0.022968,0.00993 0.048273,0.020005 0.075973,0.029459 0.0277,0.00945 0.058101,0.018725 0.09096,0.027391 0.03286,0.00867 0.06801,0.016728 0.1064638,0.024291 0.038456,0.00756 0.080072,0.014528 0.1245554,0.020673 0.044479,0.00615 0.092209,0.01161 0.1431575,0.016021 0.050948,0.00441 0.1049529,0.00746 0.162797,0.00982 0.057849,0.00236 0.1193266,0.00362 0.1845058,0.00362 0,0 0.068521,-0.00125 0.1715847,-0.00879 0.051531,-0.00377 0.1118196,-0.00931 0.176234,-0.016538 0.032209,-0.00362 0.065412,-0.00772 0.099229,-0.012404 0.03382,-0.00468 0.068495,-0.00963 0.1028492,-0.015505 0.034355,-0.00587 0.068511,-0.012439 0.102328,-0.019639 0.03382,-0.0072 0.067023,-0.015116 0.099229,-0.023774 0.032208,-0.00866 0.063504,-0.018178 0.09303,-0.028425 0.029523,-0.010247 0.057442,-0.021108 0.083207,-0.033076 0.025773,-0.011968 0.049353,-0.024941 0.070289,-0.038762 0.010452,-0.00691 0.020402,-0.014308 0.029457,-0.021706 0.00905,-0.0074 0.017306,-0.014838 0.024794,-0.02274 0.00751,-0.0079 0.014316,-0.016384 0.020163,-0.024807 0.00585,-0.00842 0.010452,-0.016881 0.014474,-0.025841 0.00402,-0.00896 0.00722,-0.018394 0.00931,-0.027908 0.00212,-0.00951 0.0031,-0.018858 0.0031,-0.028942 0,0 0.00106,-0.00325 0.00212,-0.00879 7.938e-4,-0.00553 0.00159,-0.013659 0.00159,-0.023774 -5.56e-5,-0.010115 -7.939e-4,-0.022426 -0.00363,-0.036177 -0.00283,-0.013751 -0.00757,-0.02904 -0.014977,-0.04548 -0.0037,-0.00822 -0.00823,-0.016609 -0.013442,-0.025324 -0.00521,-0.00871 -0.011167,-0.017784 -0.018099,-0.026875 -0.00693,-0.00909 -0.014898,-0.018043 -0.023762,-0.027391 -0.00886,-0.00935 -0.01892,-0.018937 -0.029975,-0.028425 -0.011061,-0.00949 -0.023233,-0.018916 -0.036694,-0.028425 -0.013442,-0.00951 -0.027842,-0.019014 -0.043931,-0.028425 -0.016088,-0.00941 -0.03377,-0.018713 -0.052713,-0.027908 -0.018946,-0.0092 -0.039464,-0.01853 -0.061504,-0.027391 -0.022333,0.00111 -0.046662,0.00509 -0.070802,0.00982 -0.024159,0.00473 -0.047712,0.010264 -0.068738,0.016021 -0.042055,0.011514 -0.073387,0.02274 -0.073387,0.02274 L 2.8655107,1.7587363 3.5523657,1.919984 c 0,0 -0.031515,0.00805 -0.065637,0.018605 -0.017068,0.00528 -0.034545,0.011209 -0.049615,0.017055 -0.015083,0.00585 -0.027533,0.011507 -0.033592,0.016538 0.033637,0.013829 0.063758,0.027872 0.09096,0.042379 0.027199,0.014508 0.051531,0.029466 0.072871,0.044446 0.021328,0.01498 0.039758,0.030233 0.055814,0.04548 0.016062,0.015247 0.029475,0.030688 0.04083,0.045997 0.011352,0.015308 0.020693,0.030316 0.027909,0.04548 0.00722,0.015164 0.01286,0.030149 0.016538,0.044963 0.00368,0.014814 0.0055,0.029672 0.00619,0.04393 7.939e-4,0.014258 1.297e-4,0.027849 -0.00159,0.041346 -0.00159,0.013497 -0.00426,0.026749 -0.00775,0.039278 -0.00349,0.012529 -0.0082,0.024304 -0.012913,0.035661 -0.00474,0.011357 -0.00961,0.022065 -0.014977,0.032043 -0.0054,0.00998 -0.011061,0.019514 -0.016538,0.027908 -0.010928,0.016788 -0.021672,0.030062 -0.029459,0.039278 -0.00778,0.00922 -0.01241,0.014471 -0.01241,0.014471 -0.00749,0.00853 -0.016485,0.016538 -0.026355,0.024807 -0.00987,0.00827 -0.020693,0.016831 -0.03256,0.024807 -0.011855,0.00798 -0.024768,0.015612 -0.038244,0.023257 -0.013495,0.00765 -0.027657,0.014946 -0.042378,0.022223 -0.029449,0.014555 -0.060898,0.028481 -0.09303,0.041346 -0.032132,0.012864 -0.064867,0.024781 -0.096644,0.035661 -0.03178,0.01088 -0.062573,0.020858 -0.09096,0.029459 -0.02839,0.0086 -0.054529,0.015678 -0.076489,0.021706 C 3.0784107,2.750164 3.0504977,2.75723 3.0504977,2.75723 3.0146827,2.76546 2.9792007,2.772965 2.9440339,2.77997 2.9088669,2.78698 2.8741239,2.793252 2.8396366,2.799092 2.7706606,2.810773 2.7031208,2.82012 2.637042,2.827517 2.570963,2.834917 2.5061757,2.840442 2.4432352,2.844055 2.3802942,2.847665 2.3188042,2.849405 2.2592481,2.849735 2.1996896,2.8500728 2.1420439,2.8490911 2.086113,2.846641 2.030182,2.8441907 1.9764103,2.84052 1.924348,2.8357877 1.8722856,2.8310554 1.8219036,2.8252453 1.7739533,2.8187327 1.7260057,2.8122201 1.6800744,2.8048184 1.6364796,2.7970264 1.5928848,2.7892343 1.5519547,2.7807898 1.5129589,2.772219 1.4739629,2.763649 1.4370309,2.75471 1.4028778,2.745861 1.3687248,2.737011 1.3373678,2.728129 1.3083008,2.719503 1.2792308,2.710873 1.2524518,2.702598 1.2287108,2.694696 1.1812268,2.678891 1.1448928,2.665323 1.1201777,2.655418 1.0954627,2.645508 1.0824497,2.639397 1.0824497,2.639397 1.0497167,2.623813 1.0194297,2.608292 0.9914895,2.592883 0.9635492,2.577474 0.9378739,2.562099 0.9144849,2.546886 0.8910932,2.531673 0.8699984,2.516403 0.8509146,2.501406 0.8318361,2.486409 0.8147713,2.471721 0.7997493,2.45696 0.7847194,2.442199 0.7716714,2.427535 0.7604704,2.41303 0.7492773,2.398525 0.7401747,2.384363 0.7325645,2.370134 0.7249435,2.355905 0.7187782,2.341688 0.7144651,2.327755 0.7101781,2.313822 0.7074001,2.300026 0.7062091,2.286409 0.7048861,2.272792 0.70567988,2.259377 0.7072671,2.246097 0.7088551,2.232817 0.7117921,2.219742 0.7160521,2.206819 0.7203121,2.193895 0.7259751,2.181122 0.7325903,2.168574 0.7392053,2.156027 0.7465883,2.143514 0.7553204,2.131363 0.7640524,2.119212 0.773658,2.107437 0.7842636,2.095702 0.7948745,2.083968 0.8066497,2.072372 0.8188907,2.061075 0.8311158,2.049778 0.8440288,2.038839 0.857651,2.027999 0.8712785,2.017159 0.8857819,2.00632 0.9005472,1.995956 0.9300779,1.975229 0.9614423,1.955737 0.9940927,1.937039 1.0267405,1.918341 1.0605314,1.900316 1.0943541,1.883807 1.1281771,1.867298 1.1620841,1.85197 1.1951341,1.83781 1.2281841,1.82365 1.2604141,1.810698 1.2907461,1.799048 1.3514081,1.77575 1.4045767,1.757591 1.4426914,1.745299 1.4808064,1.733007 1.5036764,1.726694 1.5036764,1.726694 Z m 0.6067465,1.2522539 c 0,0 0.056029,0.00455 0.1312712,0.00724 0.037623,0.00134 0.079913,0.00232 0.1224861,0.00207 0.042576,-2.522e-4 0.085229,-0.00181 0.1235207,-0.00517 l 0.052197,1.0651652 c -0.031153,0.0055 -0.061776,0.0095 -0.091992,0.012402 -0.030216,0.0029 -0.059942,0.00432 -0.088378,0.00517 -0.028433,8.467e-4 -0.055849,0.00119 -0.081657,5.292e-4 -0.0258,-6.616e-4 -0.050019,-0.00198 -0.072355,-0.00362 -0.044672,-0.00325 -0.081265,-0.00807 -0.1069825,-0.011886 -0.02572,-0.00382 -0.040311,-0.00672 -0.040311,-0.00672 z" />
</svg>
