<?xml version="1.0" encoding="UTF-8" standalone="no"?>
<!-- Generator: Adobe Illustrator 19.1.0, SVG Export Plug-In . SVG Version: 6.00 Build 0)  -->

<svg
   version="1.1"
   id="Layer_1"
   x="0px"
   y="0px"
   viewBox="0 0 16.760002 16.760002"
   xml:space="preserve"
   sodipodi:docname="ORCID_iD.svg"
   width="16.760002"
   height="16.760002"
   inkscape:version="1.1.2 (b8e25be833, 2022-02-05)"
   xmlns:inkscape="http://www.inkscape.org/namespaces/inkscape"
   xmlns:sodipodi="http://sodipodi.sourceforge.net/DTD/sodipodi-0.dtd"
   xmlns="http://www.w3.org/2000/svg"
   xmlns:svg="http://www.w3.org/2000/svg"><defs
   id="defs17">
	
	
	
</defs><sodipodi:namedview
   id="namedview15"
   pagecolor="#ffffff"
   bordercolor="#666666"
   borderopacity="1.0"
   inkscape:pageshadow="2"
   inkscape:pageopacity="0.0"
   inkscape:pagecheckerboard="0"
   showgrid="false"
   inkscape:zoom="2.276"
   inkscape:cx="6.3708261"
   inkscape:cy="27.02109"
   inkscape:window-width="1920"
   inkscape:window-height="991"
   inkscape:window-x="-9"
   inkscape:window-y="-9"
   inkscape:window-maximized="1"
   inkscape:current-layer="Layer_1" />
<style
   type="text/css"
   id="style2">
	.st0{fill:#A6CE39;}
	.st1{fill:#FFFFFF;}
</style>
<g
   id="g1098"
   transform="scale(0.06546876)"
   style="fill:#000000;stroke-width:15.2744"><path
     id="path4"
     class="st0"
     d="m 124.30078,93 v 79.40039 h 24.5 c 2.18125,0 4.25672,-0.10347 6.23242,-0.30078 1.97571,-0.19732 3.85147,-0.48809 5.63086,-0.86328 1.7794,-0.3752 3.46238,-0.8355 5.05469,-1.36914 1.59231,-0.53365 3.09336,-1.1418 4.50781,-1.81446 1.41446,-0.67265 2.74246,-1.40893 3.98828,-2.20117 1.24583,-0.79223 2.40967,-1.64082 3.4961,-2.5332 1.08642,-0.89238 2.09499,-1.82964 3.03125,-2.80274 0.93625,-0.97309 1.80039,-1.98124 2.5957,-3.01562 0.79531,-1.03438 1.52195,-2.0937 2.18555,-3.16992 0.6636,-1.07622 1.26357,-2.16895 1.80468,-3.26758 0.54112,-1.09863 1.02332,-2.20308 1.45118,-3.30469 0.42785,-1.10161 0.80117,-2.2 1.125,-3.28515 0.32383,-1.08516 0.59909,-2.15777 0.82812,-3.20704 0.22903,-1.04926 0.41319,-2.07636 0.55664,-3.07031 0.14346,-0.99394 0.24539,-1.95581 0.3125,-2.875 0.0671,-0.91919 0.0977,-1.79609 0.0977,-2.62109 0,-1.34375 -0.0525,-2.67395 -0.16016,-3.98828 -0.10766,-1.31433 -0.26972,-2.61299 -0.48633,-3.89063 -0.2166,-1.27763 -0.48764,-2.53391 -0.81445,-3.76758 -0.32681,-1.23366 -0.71016,-2.44453 -1.14844,-3.62695 -0.43828,-1.18242 -0.93139,-2.33703 -1.48242,-3.46094 -0.55102,-1.1239 -1.15918,-2.21728 -1.82422,-3.27539 -0.66504,-1.0581 -1.38764,-2.08137 -2.16797,-3.0664 -0.78032,-0.98504 -1.61875,-1.93125 -2.51562,-2.83594 -0.89688,-0.90469 -1.85249,-1.76692 -2.86719,-2.58399 -1.0147,-0.81706 -2.08887,-1.58837 -3.22265,-2.310542 -1.13379,-0.722168 -2.32593,-1.39563 -3.58008,-2.015625 -1.25415,-0.619995 -2.56953,-1.186719 -3.94531,-1.697265 -1.37579,-0.510547 -2.81187,-0.963599 -4.31055,-1.357422 -1.49868,-0.393824 -3.06074,-0.728223 -4.6836,-0.998047 -1.62285,-0.269824 -3.30639,-0.476685 -5.05468,-0.615235 C 151.68726,93.070435 149.875,93 148,93 Z"
     style="fill:#000000;stroke-width:15.2744" /><path
     id="path933"
     class="st0"
     d="M 128,0 C 57.3,0 0,57.3 0,128 0,198.7 57.3,256 128,256 198.7,256 256,198.7 256,128 256,57.3 198.7,0 128,0 Z M 78.599609,46.699219 c 0.7,0 1.383985,0.07246 2.042969,0.208984 0.658985,0.136524 1.29375,0.337109 1.898438,0.595703 0.604687,0.258594 1.177734,0.575196 1.714843,0.941406 0.53711,0.366211 1.037891,0.782813 1.494141,1.242188 0.45625,0.459375 0.868359,0.961914 1.230469,1.5 0.362109,0.538086 0.675,1.1125 0.929687,1.714844 0.254688,0.602344 0.451953,1.232617 0.585938,1.884765 0.133984,0.652149 0.203125,1.326172 0.203125,2.013672 0,0.6875 -0.06914,1.359571 -0.203125,2.011719 -0.133985,0.652148 -0.33125,1.284375 -0.585938,1.886719 -0.254687,0.602344 -0.567578,1.174804 -0.929687,1.71289 -0.36211,0.538086 -0.774219,1.040625 -1.230469,1.5 -0.45625,0.459375 -0.957031,0.875977 -1.494141,1.242188 -0.537109,0.366211 -1.110156,0.682812 -1.714843,0.941406 -0.604688,0.258594 -1.239453,0.45918 -1.898438,0.595703 -0.658984,0.136524 -1.342969,0.208985 -2.042969,0.208985 -0.7,0 -1.382031,-0.07246 -2.041015,-0.208985 -0.658985,-0.136523 -1.29375,-0.337109 -1.898438,-0.595703 -0.604687,-0.258594 -1.179687,-0.575195 -1.716797,-0.941406 -0.537109,-0.366211 -1.03789,-0.782813 -1.49414,-1.242188 -0.45625,-0.459375 -0.86836,-0.961914 -1.230469,-1.5 -0.362109,-0.538086 -0.673047,-1.110546 -0.927734,-1.71289 C 69.036328,60.096875 68.839062,59.464648 68.705078,58.8125 68.571094,58.160352 68.5,57.488281 68.5,56.800781 c 0,-0.7 0.07109,-1.383984 0.205078,-2.042969 0.133984,-0.658984 0.33125,-1.29375 0.585938,-1.898437 0.254687,-0.604687 0.565625,-1.179687 0.927734,-1.716797 0.362109,-0.537109 0.774219,-1.035937 1.230469,-1.492187 0.45625,-0.45625 0.957031,-0.86836 1.49414,-1.230469 0.53711,-0.36211 1.11211,-0.675 1.716797,-0.929688 0.604688,-0.254687 1.239453,-0.451953 1.898438,-0.585937 0.658984,-0.133984 1.341015,-0.205078 2.041015,-0.205078 z m -7.699218,32.40039 h 15.40039 V 127.5 186.19922 h -15.40039 z m 37.999999,0 H 150.5 c 2.475,0 4.86328,0.110767 7.16602,0.324219 2.30273,0.213452 4.51953,0.529785 6.65234,0.941406 2.13281,0.411621 4.18125,0.919165 6.14648,1.513672 1.96524,0.594507 3.84844,1.276953 5.64844,2.039063 1.8,0.762109 3.51719,1.603149 5.1543,2.517578 1.63711,0.914429 3.19336,1.90166 4.66992,2.953125 1.47656,1.051465 2.87305,2.166626 4.19141,3.339844 1.31836,1.173217 2.5582,2.403906 3.7207,3.683593 1.1625,1.279688 2.24883,2.609591 3.25781,3.980471 1.00899,1.37087 1.94102,2.78369 2.79883,4.23047 0.85781,1.44677 1.64063,2.92619 2.34961,4.43359 0.70898,1.5074 1.34375,3.04297 1.90625,4.5957 0.5625,1.55274 1.05234,3.12425 1.4707,4.70704 0.41836,1.58276 0.76641,3.17587 1.04297,4.77343 0.27656,1.59756 0.48203,3.19983 0.61914,4.79688 0.13711,1.59704 0.20508,3.18828 0.20508,4.76953 0,1.71875 -0.0839,3.43298 -0.25,5.13476 -0.16609,1.70179 -0.41377,3.3917 -0.74219,5.06446 -0.32842,1.67275 -0.73762,3.32732 -1.22461,4.95898 -0.48698,1.63167 -1.05156,3.23985 -1.69336,4.81836 -0.64179,1.57852 -1.36145,3.12732 -2.15429,4.64063 -0.79285,1.5133 -1.65948,2.9917 -2.59961,4.42773 -0.94014,1.43604 -1.95344,2.83102 -3.03711,4.17774 -1.08367,1.34669 -2.2375,2.64531 -3.46094,3.89062 -1.22344,1.24531 -2.51555,2.4365 -3.875,3.56836 -1.35945,1.13186 -2.7876,2.20459 -4.2793,3.21094 -1.4917,1.00634 -3.04777,1.94763 -4.66797,2.8164 -1.62019,0.86878 -3.3039,1.66563 -5.04882,2.38477 -1.74492,0.71914 -3.55013,1.36052 -5.41602,1.91797 -1.86589,0.55744 -3.79228,1.03037 -5.77539,1.41406 -1.9831,0.38369 -4.02454,0.67712 -6.12109,0.875 -2.09656,0.19788 -4.24883,0.30078 -6.45508,0.30078 h -41.79883 z"
     style="fill:#000000;stroke-width:15.2744" /></g>

</svg>
