<?xml version="1.0" encoding="UTF-8" standalone="no"?>
<!-- Creator: CorelDRAW -->

<svg
   xml:space="preserve"
   width="16.751953"
   height="16.761719"
   version="1.1"
   style="clip-rule:evenodd;fill-rule:evenodd;image-rendering:optimizeQuality;shape-rendering:geometricPrecision;text-rendering:geometricPrecision"
   viewBox="0 0 16.751953 16.761719"
   id="svg12"
   sodipodi:docname="research-gate.svg"
   inkscape:version="1.1.2 (b8e25be833, 2022-02-05)"
   xmlns:inkscape="http://www.inkscape.org/namespaces/inkscape"
   xmlns:sodipodi="http://sodipodi.sourceforge.net/DTD/sodipodi-0.dtd"
   xmlns="http://www.w3.org/2000/svg"
   xmlns:svg="http://www.w3.org/2000/svg"><sodipodi:namedview
   id="namedview14"
   pagecolor="#ffffff"
   bordercolor="#666666"
   borderopacity="1.0"
   inkscape:pageshadow="2"
   inkscape:pageopacity="0.0"
   inkscape:pagecheckerboard="0"
   showgrid="false"
   inkscape:zoom="4"
   inkscape:cx="-23.875"
   inkscape:cy="-15.375"
   inkscape:window-width="1920"
   inkscape:window-height="991"
   inkscape:window-x="-9"
   inkscape:window-y="-9"
   inkscape:window-maximized="1"
   inkscape:current-layer="Capa_x0020_1" />
 <defs
   id="defs4">
  <style
   type="text/css"
   id="style2">
   <![CDATA[
    .fil0 {fill:#04D4AC;fill-rule:nonzero}
    .fil1 {fill:white;fill-rule:nonzero}
   ]]>
  </style>
 </defs>
 <g
   id="Capa_x0020_1"
   inkscape:label="Capa 1"
   inkscape:groupmode="layer"
   transform="translate(35.246094,-25.619141)">
  <metadata
   id="CorelCorpID_0Corel-Layer" />
  
  <path
   id="path7"
   style="stroke-width:1"
   class="fil0"
   d="m -29.066406,31.787109 c -0.08692,0 -0.16195,0.0015 -0.228516,0.0039 -0.06657,0.0024 -0.124855,0.0062 -0.173828,0.01563 -0.02449,0.0047 -0.0458,0.01021 -0.06641,0.01758 -0.0206,0.0074 -0.03957,0.01673 -0.05664,0.02734 -0.01707,0.01061 -0.033,0.02266 -0.04687,0.03711 -0.01388,0.01445 -0.02608,0.03191 -0.03711,0.05078 -0.01103,0.01887 -0.02077,0.03862 -0.0293,0.0625 -0.0085,0.02388 -0.01512,0.05059 -0.02148,0.08008 -0.01273,0.05897 -0.02313,0.129928 -0.0293,0.214844 -0.0062,0.08492 -0.0094,0.185201 -0.01172,0.300781 -0.0024,0.11558 -0.0026,0.247476 -0.0039,0.398438 -0.0052,0.331984 -0.0078,0.640404 -0.0059,0.871094 0.002,0.230689 0.0078,0.382752 0.01563,0.398437 0.0029,0.0069 0.01021,0.01395 0.02148,0.01953 0.01128,0.0056 0.02629,0.0093 0.04492,0.01367 0.03727,0.0087 0.08953,0.01549 0.15039,0.01953 0.06086,0.004 0.130387,0.0061 0.207031,0.0059 0.07664,-2.15e-4 0.159511,-0.0018 0.244141,-0.0059 0.16926,-0.0082 0.347561,-0.0236 0.501953,-0.04492 0.0772,-0.01066 0.147207,-0.02374 0.208985,-0.03711 0.06178,-0.01337 0.113786,-0.02728 0.152343,-0.04297 0.06535,-0.02679 0.127778,-0.05761 0.185547,-0.0918 0.05777,-0.03418 0.111973,-0.0727 0.16211,-0.113281 0.05014,-0.04058 0.09622,-0.08291 0.138671,-0.128906 0.04245,-0.046 0.08052,-0.09606 0.115235,-0.146484 0.03472,-0.05042 0.06682,-0.10239 0.09375,-0.15625 0.02693,-0.05386 0.04926,-0.107754 0.06836,-0.164063 0.0191,-0.05631 0.03372,-0.114104 0.04492,-0.171875 0.01121,-0.05777 0.01822,-0.115584 0.02148,-0.173828 0.0033,-0.05824 0.0028,-0.118051 -0.002,-0.175781 -0.0047,-0.05773 -0.01263,-0.113695 -0.02539,-0.169922 -0.01276,-0.05623 -0.02992,-0.112278 -0.05078,-0.166016 -0.02086,-0.05374 -0.04522,-0.105991 -0.07422,-0.15625 -0.029,-0.05026 -0.06242,-0.09874 -0.09961,-0.144531 -0.03719,-0.04579 -0.07956,-0.08857 -0.125,-0.128906 -0.04544,-0.04034 -0.0947,-0.07743 -0.148437,-0.111328 -0.05374,-0.0339 -0.111745,-0.06533 -0.173828,-0.0918 -0.06405,-0.02745 -0.115525,-0.04852 -0.167969,-0.06445 -0.05244,-0.01593 -0.105224,-0.02569 -0.169922,-0.0332 -0.0647,-0.0075 -0.141383,-0.01147 -0.242188,-0.01367 -0.100804,-0.0022 -0.225954,-0.0039 -0.386718,-0.0039 z" /><path
   id="path1097"
   style="fill:#000000;stroke-width:1"
   class="fil0"
   d="m -26.871094,25.619141 c -4.626868,0 -8.375,3.753991 -8.375,8.380859 0,4.626868 3.748132,8.380859 8.375,8.380859 4.62164,0 8.376953,-3.753991 8.376953,-8.380859 0,-4.626868 -3.755313,-8.380859 -8.376953,-8.380859 z m 2.517578,3.607421 c 0.05143,-0.0022 0.10267,-0.002 0.154297,0 0.05163,0.002 0.10319,0.0055 0.154297,0.01172 0.05111,0.0062 0.102473,0.01503 0.152344,0.02539 0.04987,0.01036 0.09856,0.02263 0.146484,0.03711 0.04792,0.01448 0.09537,0.03222 0.140625,0.05078 0.04526,0.01856 0.08898,0.03792 0.13086,0.06055 0.04188,0.02262 0.08136,0.04756 0.11914,0.07422 0.03778,0.02666 0.0725,0.05528 0.105469,0.08594 0.03297,0.03066 0.06435,0.06302 0.0918,0.09766 0.04705,0.05882 0.08065,0.107266 0.101562,0.148437 0.01046,0.02059 0.01781,0.03949 0.02148,0.05664 0.0037,0.01715 0.0033,0.03445 0,0.04883 -0.0033,0.01438 -0.0092,0.02681 -0.01953,0.03906 -0.01037,0.01225 -0.02337,0.02242 -0.04102,0.0332 -0.03529,0.02157 -0.08699,0.04094 -0.152344,0.06055 -0.05097,0.01699 -0.08753,0.03049 -0.119141,0.03711 -0.03161,0.0066 -0.05752,0.0075 -0.08203,0 -0.02451,-0.0075 -0.04847,-0.02342 -0.07813,-0.04883 -0.02965,-0.02541 -0.06428,-0.06037 -0.111328,-0.107422 -0.02777,-0.02679 -0.05782,-0.05195 -0.08789,-0.07422 -0.03007,-0.02227 -0.05989,-0.04272 -0.0918,-0.06055 -0.0319,-0.01783 -0.06634,-0.03339 -0.09961,-0.04687 -0.03327,-0.01348 -0.06544,-0.02397 -0.09961,-0.0332 -0.03417,-0.0092 -0.06892,-0.01641 -0.103516,-0.02148 -0.0346,-0.0051 -0.06896,-0.0088 -0.103515,-0.0098 -0.03456,-10e-4 -0.06946,9.3e-4 -0.103516,0.0039 -0.03405,0.003 -0.06848,0.0068 -0.101563,0.01367 -0.03308,0.0069 -0.06601,0.01669 -0.09766,0.02734 -0.03165,0.01065 -0.06206,0.02275 -0.0918,0.03711 -0.02974,0.01436 -0.05857,0.03086 -0.08594,0.04883 -0.02737,0.01797 -0.0536,0.03711 -0.07813,0.05859 -0.02453,0.02148 -0.04714,0.0454 -0.06836,0.07031 -0.02122,0.02491 -0.04115,0.05183 -0.05859,0.08008 -0.01745,0.02824 -0.03172,0.05836 -0.04492,0.08984 -0.0132,0.03149 -0.02471,0.06302 -0.0332,0.09766 -0.0085,0.03072 -0.01525,0.07453 -0.02148,0.126953 -0.0062,0.05242 -0.01162,0.113757 -0.01563,0.181641 -0.008,0.135767 -0.01237,0.29692 -0.01172,0.457031 6.51e-4,0.160111 0.0066,0.320618 0.01563,0.455078 0.0045,0.06723 0.0091,0.126291 0.01563,0.177735 0.0065,0.05144 0.01495,0.09364 0.02344,0.123046 0.01144,0.0415 0.02674,0.08088 0.04492,0.117188 0.01818,0.03631 0.03848,0.07044 0.0625,0.101562 0.02402,0.03112 0.05111,0.06 0.08008,0.08594 0.02897,0.02594 0.06073,0.04956 0.09375,0.07031 0.03302,0.02075 0.06734,0.03717 0.103516,0.05273 0.03618,0.01556 0.07289,0.02869 0.111328,0.03906 0.03844,0.01037 0.07934,0.01825 0.11914,0.02344 0.0398,0.0052 0.07887,0.0078 0.119141,0.0078 0.04027,0 0.08125,-0.0026 0.121094,-0.0078 0.03984,-0.0052 0.07867,-0.01306 0.117187,-0.02344 0.03852,-0.01037 0.07698,-0.0235 0.113282,-0.03906 0.0363,-0.01556 0.07033,-0.03199 0.103515,-0.05273 0.03319,-0.02075 0.06458,-0.04438 0.09375,-0.07031 0.02917,-0.02594 0.05581,-0.05481 0.08008,-0.08594 0.02427,-0.03112 0.04599,-0.06525 0.06445,-0.101562 0.01846,-0.03631 0.03511,-0.07569 0.04688,-0.117188 0.02875,-0.105869 0.04693,-0.187099 0.05273,-0.25 0.0029,-0.03145 0.0029,-0.0571 -0.002,-0.08008 -0.0048,-0.02297 -0.01346,-0.04258 -0.02734,-0.05859 -0.01389,-0.01601 -0.03237,-0.0285 -0.05664,-0.03906 -0.02427,-0.01056 -0.05386,-0.01877 -0.08984,-0.02539 -0.07197,-0.01323 -0.170093,-0.02081 -0.296875,-0.02734 -0.06143,-0.0026 -0.106071,-0.0051 -0.140625,-0.0098 -0.03455,-0.0047 -0.05886,-0.01199 -0.07422,-0.02539 -0.0077,-0.0067 -0.01326,-0.0133 -0.01758,-0.02344 -0.0043,-0.01014 -0.0059,-0.02269 -0.0078,-0.03711 -0.0038,-0.02884 -0.0039,-0.06817 -0.0039,-0.11914 0,-0.04967 -0.0013,-0.08705 0.0078,-0.115234 0.0046,-0.01409 0.01119,-0.02518 0.02148,-0.03516 0.01029,-0.01 0.02467,-0.01869 0.04297,-0.02539 0.0366,-0.0134 0.09149,-0.02008 0.173828,-0.02539 0.08234,-0.0053 0.191504,-0.0078 0.33789,-0.01172 0.189519,-0.0039 0.332448,-0.0074 0.4375,-0.002 0.05253,0.0027 0.0951,0.0073 0.13086,0.01563 0.03576,0.0084 0.06405,0.01898 0.08594,0.03516 0.02189,0.01618 0.0379,0.03828 0.04883,0.06445 0.01093,0.02617 0.01667,0.05735 0.01953,0.0957 0.0029,0.03835 0.0023,0.084 0,0.136718 -0.0023,0.05272 -0.0071,0.112369 -0.01172,0.181641 -0.0059,0.08692 -0.0129,0.168058 -0.02344,0.244141 -0.01054,0.07608 -0.02338,0.146763 -0.03906,0.21289 -0.01568,0.06613 -0.03532,0.128498 -0.05664,0.185547 -0.02132,0.05705 -0.04482,0.109353 -0.07227,0.158203 -0.02745,0.04885 -0.05773,0.09324 -0.0918,0.134766 -0.03406,0.04153 -0.07211,0.08015 -0.113282,0.115234 -0.04117,0.03509 -0.086,0.06618 -0.134765,0.0957 -0.04877,0.02952 -0.101348,0.0572 -0.158203,0.08203 -0.0745,0.03137 -0.155196,0.05697 -0.240235,0.07813 -0.08504,0.02116 -0.174467,0.0387 -0.263671,0.04883 -0.0892,0.01013 -0.178627,0.01343 -0.265626,0.01172 -0.087,-0.0017 -0.171578,-0.0091 -0.25,-0.02344 -0.101294,-0.01895 -0.194534,-0.04364 -0.279296,-0.07422 -0.04238,-0.01529 -0.08267,-0.03226 -0.121094,-0.05078 -0.03842,-0.01852 -0.0748,-0.03859 -0.109375,-0.06055 -0.03458,-0.02195 -0.06681,-0.04471 -0.09766,-0.07031 -0.03084,-0.0256 -0.06066,-0.05452 -0.08789,-0.08398 -0.02723,-0.02946 -0.05244,-0.06021 -0.07617,-0.09375 -0.02373,-0.03354 -0.04411,-0.0696 -0.06445,-0.107422 -0.02034,-0.03782 -0.03957,-0.07682 -0.05664,-0.11914 -0.01707,-0.04232 -0.03296,-0.08774 -0.04687,-0.134766 -0.01391,-0.04703 -0.02624,-0.09649 -0.03711,-0.148437 -0.01087,-0.05195 -0.0194,-0.106983 -0.02734,-0.164063 -0.01589,-0.11416 -0.02638,-0.239039 -0.03125,-0.375 -0.0049,-0.135961 -0.0052,-0.281949 0,-0.441406 0.0052,-0.176449 0.01281,-0.321398 0.02539,-0.443359 0.0063,-0.06098 0.01427,-0.117026 0.02344,-0.167969 0.0092,-0.05094 0.02046,-0.09733 0.0332,-0.140625 0.01274,-0.0433 0.02596,-0.08306 0.04297,-0.121094 0.01701,-0.03804 0.03662,-0.07421 0.05859,-0.109375 0.02198,-0.03517 0.04659,-0.06883 0.07422,-0.103516 0.02763,-0.03469 0.05781,-0.06887 0.0918,-0.105468 0.03006,-0.03235 0.06435,-0.06385 0.09961,-0.0918 0.03526,-0.02795 0.07159,-0.05259 0.111328,-0.07617 0.03974,-0.02358 0.08149,-0.04521 0.125,-0.06445 0.04351,-0.01924 0.09016,-0.03585 0.136719,-0.05078 0.04656,-0.01493 0.09368,-0.02842 0.142578,-0.03906 0.0489,-0.01064 0.09987,-0.019 0.150391,-0.02539 0.05052,-0.0064 0.10091,-0.01151 0.152343,-0.01367 z m -4.945312,2.064454 c 0.215108,-0.0012 0.407796,0.0017 0.580078,0.0059 0.172282,0.0042 0.324088,0.01072 0.460938,0.02148 0.136849,0.01076 0.258377,0.02434 0.367187,0.04297 0.10881,0.01863 0.204806,0.04256 0.292969,0.07031 0.08816,0.02775 0.167278,0.05951 0.242187,0.09766 0.07491,0.03815 0.145796,0.083 0.214844,0.132812 0.06905,0.04981 0.136452,0.105232 0.207031,0.167969 0.03692,0.033 0.07252,0.06649 0.105469,0.101563 0.03295,0.03507 0.06284,0.07049 0.0918,0.107421 0.02895,0.03693 0.0571,0.07663 0.08203,0.115235 0.02493,0.0386 0.04747,0.07712 0.06836,0.117187 0.02089,0.04007 0.03981,0.08171 0.05664,0.123047 0.01683,0.04134 0.03218,0.08259 0.04492,0.125 0.01274,0.04241 0.02262,0.08563 0.03125,0.128907 0.0086,0.04328 0.01504,0.08691 0.01953,0.130859 0.0045,0.04395 0.0075,0.08839 0.0078,0.132812 3.35e-4,0.04442 -0.002,0.08812 -0.0059,0.132813 -0.0038,0.04469 -0.0095,0.09 -0.01758,0.134766 -0.008,0.04477 -0.01702,0.08817 -0.0293,0.132812 -0.01227,0.04464 -0.0284,0.09045 -0.04492,0.134766 -0.01652,0.04432 -0.03389,0.08902 -0.05469,0.132812 -0.02079,0.0438 -0.04327,0.08583 -0.06836,0.128906 -0.02509,0.04307 -0.05262,0.08675 -0.08203,0.128907 -0.02614,0.0379 -0.05581,0.07516 -0.08789,0.113281 -0.03208,0.03812 -0.06667,0.07583 -0.103516,0.113281 -0.07368,0.07491 -0.156577,0.147859 -0.242187,0.214844 -0.08561,0.06699 -0.173658,0.129605 -0.261719,0.181641 -0.04403,0.02602 -0.08799,0.04935 -0.13086,0.07031 -0.04287,0.02096 -0.08644,0.03966 -0.126953,0.05469 -0.07581,0.02876 -0.144992,0.0585 -0.195312,0.08398 -0.02516,0.01274 -0.04446,0.02348 -0.05859,0.0332 -0.01413,0.0097 -0.02148,0.01821 -0.02148,0.02344 0,0.01568 0.02838,0.06969 0.07813,0.148438 0.04975,0.07875 0.12047,0.182518 0.199218,0.294922 0.07875,0.112404 0.166908,0.232958 0.253907,0.349609 0.087,0.116652 0.171593,0.228821 0.246093,0.320313 0.198668,0.241799 0.376271,0.446041 0.535157,0.61914 0.07944,0.08655 0.152876,0.165024 0.224609,0.236328 0.07173,0.0713 0.141517,0.136014 0.207031,0.19336 0.06551,0.05735 0.126713,0.10767 0.1875,0.152344 0.06079,0.04467 0.120185,0.0839 0.177735,0.117187 0.05755,0.03329 0.114118,0.06079 0.169922,0.08398 0.0558,0.02319 0.110467,0.04226 0.166015,0.05664 0.06927,0.0183 0.126783,0.03687 0.171875,0.05664 0.04509,0.01977 0.07934,0.03963 0.101563,0.0625 0.01111,0.01144 0.0178,0.02459 0.02344,0.03711 0.0056,0.01252 0.0094,0.02526 0.0098,0.03906 3.27e-4,0.0138 -0.003,0.02767 -0.0078,0.04297 -0.0048,0.0153 -0.01168,0.03184 -0.02148,0.04883 -0.01046,0.01764 -0.02647,0.0327 -0.04687,0.04687 -0.0204,0.01417 -0.04489,0.02844 -0.07422,0.03906 -0.02933,0.01062 -0.06238,0.01841 -0.09961,0.02539 -0.03723,0.007 -0.07894,0.01236 -0.123047,0.01563 -0.08822,0.0065 -0.189201,0.0049 -0.298828,-0.0039 -0.109627,-0.0088 -0.226749,-0.02595 -0.349609,-0.05078 -0.09345,-0.0183 -0.183615,-0.0392 -0.269532,-0.06836 -0.08592,-0.02916 -0.167739,-0.06559 -0.25,-0.109375 -0.08226,-0.04379 -0.163608,-0.09604 -0.246094,-0.158203 -0.08249,-0.06217 -0.167315,-0.134447 -0.253906,-0.21875 -0.08659,-0.0843 -0.174956,-0.180817 -0.269531,-0.291016 -0.09457,-0.110199 -0.19434,-0.233195 -0.300781,-0.373047 -0.106441,-0.139852 -0.219611,-0.295487 -0.341797,-0.46875 -0.122187,-0.173262 -0.254672,-0.365741 -0.396485,-0.576172 -0.09411,-0.141158 -0.164003,-0.246362 -0.222656,-0.326172 -0.02933,-0.0399 -0.05527,-0.07353 -0.08008,-0.101562 -0.02481,-0.02803 -0.04907,-0.0499 -0.07227,-0.06836 -0.0232,-0.01846 -0.04583,-0.03372 -0.07031,-0.04492 -0.02449,-0.0112 -0.04945,-0.01914 -0.07813,-0.02539 -0.05735,-0.0125 -0.127258,-0.0169 -0.21875,-0.02344 -0.06731,-0.0046 -0.12542,-0.0099 -0.175781,-0.01367 -0.05036,-0.0038 -0.09313,-0.0062 -0.128906,-0.0039 -0.03578,0.0023 -0.06432,0.0099 -0.08789,0.02344 -0.01178,0.0068 -0.02208,0.01481 -0.03125,0.02539 -0.0092,0.01058 -0.01658,0.02208 -0.02344,0.03711 -0.01372,0.03006 -0.02305,0.07126 -0.0293,0.123047 -0.0062,0.05179 -0.01058,0.114611 -0.01172,0.193359 -0.0023,0.157497 0.0039,0.375181 0.0078,0.671875 0.0026,0.168606 0.0047,0.314873 0.0078,0.44336 0.0031,0.128486 0.0069,0.237639 0.01367,0.332031 0.0068,0.09439 0.01746,0.173913 0.03125,0.240234 0.0069,0.03316 0.01419,0.06257 0.02344,0.08984 0.0092,0.02727 0.01924,0.05208 0.03125,0.07422 0.01201,0.02214 0.02584,0.04279 0.04102,0.06055 0.01517,0.01776 0.03204,0.03275 0.05078,0.04688 0.01874,0.01413 0.03978,0.02781 0.0625,0.03906 0.02272,0.01125 0.04712,0.02017 0.07422,0.0293 0.0542,0.01826 0.117241,0.03259 0.191406,0.04687 0.07417,0.01429 0.160436,0.02858 0.257812,0.04492 0.05097,0.0078 0.089,0.01568 0.119141,0.02344 0.03014,0.0078 0.0517,0.01591 0.06641,0.02734 0.0147,0.01144 0.02269,0.02605 0.02734,0.04492 0.0047,0.01887 0.0059,0.0422 0.0059,0.07227 0,0.01699 7.23e-4,0.03189 -0.002,0.04492 -0.0027,0.01303 -0.0088,0.02356 -0.01953,0.0332 -0.0107,0.0096 -0.0267,0.01857 -0.05078,0.02539 -0.02408,0.0068 -0.0568,0.01105 -0.09961,0.01563 -0.08561,0.0091 -0.213628,0.01594 -0.40625,0.01953 -0.192623,0.0036 -0.448576,0.0052 -0.791016,0.0078 -0.321528,0.0026 -0.568702,0.0042 -0.757813,0.0039 -0.18911,-2.47e-4 -0.32159,-0.0029 -0.414062,-0.0078 -0.09247,-0.0049 -0.144168,-0.01208 -0.175781,-0.02344 -0.01581,-0.0057 -0.0259,-0.01191 -0.0332,-0.01953 -0.0073,-0.0076 -0.01236,-0.01754 -0.01562,-0.02734 -0.0065,-0.01895 -0.01136,-0.03612 -0.01367,-0.05273 -0.0023,-0.01661 -0.0022,-0.03238 0,-0.04687 0.0022,-0.0145 0.0067,-0.0284 0.01367,-0.04102 0.007,-0.01261 0.01721,-0.02421 0.0293,-0.03516 0.02418,-0.02189 0.05923,-0.04006 0.105469,-0.05664 0.04624,-0.01658 0.103249,-0.03185 0.173828,-0.04492 0.07973,-0.01438 0.149753,-0.03287 0.210938,-0.05664 0.03059,-0.01189 0.05983,-0.02474 0.08594,-0.03906 0.02611,-0.01433 0.04858,-0.03005 0.07031,-0.04687 0.02173,-0.01683 0.04114,-0.0353 0.05859,-0.05469 0.01745,-0.01939 0.0336,-0.03853 0.04688,-0.06055 0.01327,-0.02202 0.024,-0.04561 0.0332,-0.07031 0.0092,-0.0247 0.01626,-0.05068 0.02148,-0.07813 0.0052,-0.02091 0.0104,-0.108202 0.01367,-0.246093 0.0033,-0.137892 0.0046,-0.327266 0.0059,-0.554688 0.0026,-0.454844 0.0013,-1.0607 -0.0039,-1.708984 -0.0039,-0.68096 -0.0046,-1.18122 -0.01172,-1.550781 -0.0036,-0.184781 -0.0079,-0.337458 -0.01563,-0.462891 -0.0078,-0.125434 -0.01899,-0.224313 -0.0332,-0.302735 -0.0071,-0.03921 -0.01429,-0.07375 -0.02344,-0.103515 -0.0091,-0.02977 -0.01978,-0.0543 -0.03125,-0.07617 -0.01147,-0.02187 -0.02498,-0.04113 -0.03906,-0.05664 -0.01408,-0.01552 -0.02795,-0.02836 -0.04492,-0.03906 -0.01697,-0.0107 -0.0365,-0.01796 -0.05664,-0.02539 -0.02015,-0.0074 -0.04085,-0.01383 -0.06445,-0.01953 -0.04721,-0.0114 -0.103279,-0.02143 -0.166016,-0.03516 -0.07842,-0.01699 -0.142542,-0.03435 -0.195313,-0.05273 -0.05277,-0.01838 -0.09364,-0.03735 -0.123047,-0.05859 -0.0147,-0.01062 -0.02586,-0.02159 -0.03516,-0.0332 -0.0093,-0.01161 -0.01732,-0.02433 -0.02148,-0.03711 -0.0042,-0.01278 -0.0046,-0.02687 -0.0039,-0.04102 6.74e-4,-0.01414 0.0026,-0.02924 0.0078,-0.04492 0.0039,-0.01046 0.0099,-0.01914 0.01758,-0.02734 0.0076,-0.0082 0.01666,-0.01515 0.0332,-0.02148 0.01654,-0.0063 0.03971,-0.01273 0.07031,-0.01758 0.0306,-0.0049 0.06931,-0.008 0.11914,-0.01172 0.09966,-0.0075 0.2436,-0.01406 0.451172,-0.01953 0.207572,-0.0055 0.479119,-0.0091 0.835938,-0.01563 0.265326,-0.0052 0.503642,-0.01056 0.71875,-0.01172 z m 0.232422,0.496093 c 0.160764,0 0.285914,0.0017 0.386718,0.0039 0.100805,0.0022 0.17749,0.0062 0.242188,0.01367 0.0647,0.0075 0.117477,0.01727 0.169922,0.0332 0.05244,0.01593 0.103924,0.03701 0.167969,0.06445 0.06208,0.02647 0.120092,0.0579 0.173828,0.0918 0.05374,0.0339 0.102998,0.07099 0.148437,0.111328 0.04544,0.04034 0.08781,0.08311 0.125,0.128906 0.03719,0.04579 0.07061,0.09427 0.09961,0.144531 0.029,0.05026 0.05336,0.102513 0.07422,0.15625 0.02086,0.05374 0.03802,0.109788 0.05078,0.166016 0.01276,0.05623 0.02067,0.112192 0.02539,0.169922 0.0047,0.05773 0.0052,0.117537 0.002,0.175781 -0.0033,0.05824 -0.01028,0.116057 -0.02148,0.173828 -0.01121,0.05777 -0.02583,0.115566 -0.04492,0.171875 -0.0191,0.05631 -0.04143,0.110203 -0.06836,0.164063 -0.02693,0.05386 -0.05903,0.105827 -0.09375,0.15625 -0.03472,0.05042 -0.07278,0.100487 -0.115235,0.146484 -0.04245,0.046 -0.08854,0.08832 -0.138671,0.128906 -0.05014,0.04058 -0.10434,0.0791 -0.16211,0.113281 -0.05777,0.03418 -0.120196,0.065 -0.185547,0.0918 -0.03856,0.01568 -0.09057,0.0296 -0.152343,0.04297 -0.06178,0.01337 -0.131789,0.02645 -0.208985,0.03711 -0.154392,0.02132 -0.332693,0.03675 -0.501953,0.04492 -0.08463,0.0041 -0.167496,0.0056 -0.244141,0.0059 -0.07664,2.14e-4 -0.146173,-0.0018 -0.207031,-0.0059 -0.06086,-0.004 -0.11312,-0.01084 -0.15039,-0.01953 -0.01864,-0.0043 -0.03365,-0.0081 -0.04492,-0.01367 -0.01128,-0.0056 -0.01854,-0.01267 -0.02148,-0.01953 -0.0078,-0.01568 -0.01366,-0.167748 -0.01563,-0.398437 -0.002,-0.23069 6.3e-4,-0.53911 0.0059,-0.871094 0.0013,-0.150962 0.0015,-0.282858 0.0039,-0.398438 0.0024,-0.11558 0.0056,-0.215865 0.01172,-0.300781 0.0062,-0.08492 0.01656,-0.155874 0.0293,-0.214844 0.0064,-0.02948 0.01296,-0.0562 0.02148,-0.08008 0.0085,-0.02388 0.01827,-0.04363 0.0293,-0.0625 0.01103,-0.01887 0.02323,-0.03633 0.03711,-0.05078 0.01388,-0.01445 0.02981,-0.0265 0.04687,-0.03711 0.01707,-0.01061 0.03604,-0.01997 0.05664,-0.02734 0.0206,-0.0074 0.04192,-0.01286 0.06641,-0.01758 0.04897,-0.0094 0.107262,-0.01327 0.173828,-0.01563 0.06657,-0.0024 0.141599,-0.0039 0.228516,-0.0039 z" />
 </g>
</svg>
